%TF.GenerationSoftware,KiCad,Pcbnew,10.0.1*%
%TF.CreationDate,2026-05-10T20:31:05-04:00*%
%TF.ProjectId,TeensyDRV8874-In2_Cu (1),5465656e-7379-4445-9256-383837342d49,rev?*%
%TF.SameCoordinates,Original*%
%TF.FileFunction,Copper,L2,Inr*%
%TF.FilePolarity,Positive*%
%FSLAX46Y46*%
G04 Gerber Fmt 4.6, Leading zero omitted, Abs format (unit mm)*
G04 Created by KiCad (PCBNEW 10.0.1) date 2026-05-10 20:31:05*
%MOMM*%
%LPD*%
G01*
G04 APERTURE LIST*
G04 Aperture macros list*
%AMRoundRect*
0 Rectangle with rounded corners*
0 $1 Rounding radius*
0 $2 $3 $4 $5 $6 $7 $8 $9 X,Y pos of 4 corners*
0 Add a 4 corners polygon primitive as box body*
4,1,4,$2,$3,$4,$5,$6,$7,$8,$9,$2,$3,0*
0 Add four circle primitives for the rounded corners*
1,1,$1+$1,$2,$3*
1,1,$1+$1,$4,$5*
1,1,$1+$1,$6,$7*
1,1,$1+$1,$8,$9*
0 Add four rect primitives between the rounded corners*
20,1,$1+$1,$2,$3,$4,$5,0*
20,1,$1+$1,$4,$5,$6,$7,0*
20,1,$1+$1,$6,$7,$8,$9,0*
20,1,$1+$1,$8,$9,$2,$3,0*%
G04 Aperture macros list end*
%TA.AperFunction,ComponentPad*%
%ADD10R,1.700000X1.700000*%
%TD*%
%TA.AperFunction,ComponentPad*%
%ADD11C,1.700000*%
%TD*%
%TA.AperFunction,ComponentPad*%
%ADD12RoundRect,0.190500X0.444500X-1.079500X0.444500X1.079500X-0.444500X1.079500X-0.444500X-1.079500X0*%
%TD*%
%TA.AperFunction,ComponentPad*%
%ADD13O,1.270000X2.540000*%
%TD*%
%TA.AperFunction,ComponentPad*%
%ADD14C,1.400000*%
%TD*%
%TA.AperFunction,ComponentPad*%
%ADD15R,1.600000X2.200000*%
%TD*%
%TA.AperFunction,ComponentPad*%
%ADD16C,1.600000*%
%TD*%
%TA.AperFunction,ComponentPad*%
%ADD17C,2.200000*%
%TD*%
%TA.AperFunction,ComponentPad*%
%ADD18RoundRect,0.250000X-0.550000X-0.550000X0.550000X-0.550000X0.550000X0.550000X-0.550000X0.550000X0*%
%TD*%
%TA.AperFunction,ComponentPad*%
%ADD19R,1.600000X1.600000*%
%TD*%
%TA.AperFunction,ViaPad*%
%ADD20C,0.600000*%
%TD*%
%TA.AperFunction,Conductor*%
%ADD21C,0.200000*%
%TD*%
%TA.AperFunction,Conductor*%
%ADD22C,0.381000*%
%TD*%
%TA.AperFunction,Conductor*%
%ADD23C,1.000000*%
%TD*%
G04 APERTURE END LIST*
D10*
X108000000Y-138710000D03*
D11*
X108000000Y-141250000D03*
X108000000Y-143790000D03*
D12*
X119920000Y-89700000D03*
D13*
X122460000Y-89700000D03*
X125000000Y-89700000D03*
X127540000Y-89700000D03*
X130080000Y-89700000D03*
X132620000Y-89700000D03*
X135160000Y-89700000D03*
X135160000Y-77000000D03*
X132620000Y-77000000D03*
X130080000Y-77000000D03*
X127540000Y-77000000D03*
X125000000Y-77000000D03*
X122460000Y-77000000D03*
X119920000Y-77000000D03*
D12*
X100850000Y-99450000D03*
D13*
X103390000Y-99450000D03*
X105930000Y-99450000D03*
X108470000Y-99450000D03*
X111010000Y-99450000D03*
X113550000Y-99450000D03*
X116090000Y-99450000D03*
X116090000Y-86750000D03*
X113550000Y-86750000D03*
X111010000Y-86750000D03*
X108470000Y-86750000D03*
X105930000Y-86750000D03*
X103390000Y-86750000D03*
X100850000Y-86750000D03*
D14*
X102600000Y-158290000D03*
X102600000Y-155750000D03*
D10*
X149250000Y-128710000D03*
D11*
X149250000Y-131250000D03*
X149250000Y-133790000D03*
X149250000Y-136330000D03*
X149250000Y-138870000D03*
D14*
X105750000Y-158290000D03*
X105750000Y-155750000D03*
D10*
X105460000Y-138710000D03*
D11*
X105460000Y-141250000D03*
X105460000Y-143790000D03*
D15*
X117260000Y-126960000D03*
D16*
X117260000Y-129500000D03*
X117260000Y-132040000D03*
X117260000Y-134580000D03*
X117260000Y-137120000D03*
X132500000Y-134580000D03*
X132500000Y-132040000D03*
X132500000Y-129500000D03*
D10*
X102000000Y-107250000D03*
D11*
X102000000Y-109790000D03*
X102000000Y-112330000D03*
X102000000Y-114870000D03*
D16*
X139500000Y-115750000D03*
X144500000Y-115750000D03*
D14*
X108900000Y-158290000D03*
X108900000Y-155750000D03*
D17*
X148500000Y-86000000D03*
X148500000Y-88540000D03*
X148500000Y-91080000D03*
X148500000Y-93620000D03*
D16*
X149290000Y-143000000D03*
X146750000Y-143000000D03*
X144210000Y-143000000D03*
X141670000Y-143000000D03*
X139130000Y-143000000D03*
X136590000Y-143000000D03*
X134050000Y-143000000D03*
X131510000Y-143000000D03*
X128970000Y-143000000D03*
X126430000Y-143000000D03*
X123890000Y-143000000D03*
X121350000Y-143000000D03*
X118810000Y-143000000D03*
X116270000Y-143000000D03*
X116270000Y-158240000D03*
X118810000Y-158240000D03*
X121350000Y-158240000D03*
X123890000Y-158240000D03*
X126430000Y-158240000D03*
X128970000Y-158240000D03*
X131510000Y-158240000D03*
X134050000Y-158240000D03*
X136590000Y-158240000D03*
X139130000Y-158240000D03*
X141670000Y-158240000D03*
X144210000Y-158240000D03*
X146750000Y-158240000D03*
X149290000Y-158240000D03*
D10*
X102920000Y-138710000D03*
D11*
X102920000Y-141250000D03*
X102920000Y-143790000D03*
D10*
X149500000Y-100000000D03*
D11*
X149500000Y-102540000D03*
X149500000Y-105080000D03*
X149500000Y-107620000D03*
X149500000Y-110160000D03*
X149500000Y-112700000D03*
X149500000Y-115240000D03*
X149500000Y-117780000D03*
D18*
X140597349Y-106750000D03*
D16*
X143097349Y-106750000D03*
X133900000Y-117140000D03*
X131360000Y-117140000D03*
X128820000Y-117140000D03*
X126280000Y-117140000D03*
X123740000Y-117140000D03*
X121200000Y-117140000D03*
X118660000Y-117140000D03*
X116120000Y-117140000D03*
D19*
X116120000Y-114600000D03*
D16*
X118660000Y-114600000D03*
X121200000Y-114600000D03*
X123740000Y-114600000D03*
X126280000Y-114600000D03*
X128820000Y-114600000D03*
X131360000Y-114600000D03*
X133900000Y-114600000D03*
D20*
X110200000Y-148600000D03*
X128400000Y-148700000D03*
X126900000Y-124400000D03*
X110200000Y-116300000D03*
X110300000Y-118100000D03*
X125600000Y-125800000D03*
X124200000Y-127200000D03*
X110300000Y-119800000D03*
X122700000Y-128500000D03*
X110300000Y-121700000D03*
D21*
X113000000Y-133700000D02*
X113000000Y-114400000D01*
X113000000Y-114400000D02*
X115300000Y-112100000D01*
X108000000Y-138700000D02*
X113000000Y-133700000D01*
X117800000Y-112100000D02*
X118660000Y-112960000D01*
X115300000Y-112100000D02*
X117800000Y-112100000D01*
X118660000Y-112960000D02*
X118660000Y-114600000D01*
X108000000Y-138710000D02*
X108000000Y-138700000D01*
X108000000Y-141250000D02*
X114200000Y-135050000D01*
X114200000Y-115300000D02*
X114900000Y-114600000D01*
D22*
X114900000Y-114600000D02*
X116120000Y-114600000D01*
D21*
X114200000Y-135050000D02*
X114200000Y-115300000D01*
X119850500Y-115949500D02*
X121200000Y-114600000D01*
X108000000Y-143790000D02*
X115500000Y-136290000D01*
X119850500Y-119049500D02*
X119850500Y-115949500D01*
X115500000Y-136290000D02*
X115500000Y-123400000D01*
X115500000Y-123400000D02*
X119850500Y-119049500D01*
X139130000Y-140630000D02*
X138600000Y-140100000D01*
X141400000Y-116800000D02*
X141400000Y-114200000D01*
X132800000Y-99100000D02*
X125000000Y-91300000D01*
X139130000Y-143000000D02*
X139130000Y-140630000D01*
X138600000Y-140100000D02*
X138600000Y-129400000D01*
X136900000Y-101800000D02*
X134200000Y-99100000D01*
X138600000Y-129400000D02*
X136300000Y-127100000D01*
X136900000Y-109700000D02*
X136900000Y-101800000D01*
X138600000Y-122200000D02*
X138600000Y-119600000D01*
X125000000Y-91300000D02*
X125000000Y-89700000D01*
X136300000Y-124500000D02*
X138600000Y-122200000D01*
X138600000Y-119600000D02*
X141400000Y-116800000D01*
X141400000Y-114200000D02*
X136900000Y-109700000D01*
X136300000Y-127100000D02*
X136300000Y-124500000D01*
X134200000Y-99100000D02*
X132800000Y-99100000D01*
X137500000Y-126500000D02*
X137500000Y-125100000D01*
X134050000Y-143000000D02*
X134050000Y-144250000D01*
X142900000Y-144400000D02*
X142900000Y-140900000D01*
X142800000Y-117000000D02*
X142800000Y-113400000D01*
X138200000Y-109200000D02*
X138200000Y-101400000D01*
X138200000Y-101400000D02*
X134700000Y-97900000D01*
X134050000Y-144250000D02*
X135500000Y-145700000D01*
X142800000Y-113400000D02*
X138600000Y-109200000D01*
X133100000Y-97900000D02*
X127540000Y-92340000D01*
X141600000Y-145700000D02*
X142900000Y-144400000D01*
X139800000Y-128800000D02*
X137500000Y-126500000D01*
X142900000Y-140900000D02*
X139800000Y-137800000D01*
X127540000Y-92340000D02*
X127540000Y-89700000D01*
X139700000Y-119900000D02*
X142600000Y-117000000D01*
X137500000Y-125100000D02*
X139700000Y-122900000D01*
X139700000Y-122900000D02*
X139700000Y-119900000D01*
X139800000Y-137800000D02*
X139800000Y-128800000D01*
X138600000Y-109200000D02*
X138200000Y-109200000D01*
X135500000Y-145700000D02*
X141600000Y-145700000D01*
X142600000Y-117000000D02*
X142800000Y-117000000D01*
X134700000Y-97900000D02*
X133100000Y-97900000D01*
D23*
X127540000Y-79640000D02*
X127540000Y-77000000D01*
X127600000Y-79700000D02*
X127540000Y-79640000D01*
X148500000Y-88540000D02*
X144340000Y-88540000D01*
X135500000Y-79700000D02*
X127600000Y-79700000D01*
X144340000Y-88540000D02*
X135500000Y-79700000D01*
X125000000Y-74600000D02*
X125000000Y-77000000D01*
X144600000Y-86000000D02*
X137700000Y-79100000D01*
X136500000Y-73700000D02*
X125900000Y-73700000D01*
X137700000Y-79100000D02*
X137700000Y-74900000D01*
X148500000Y-86000000D02*
X144600000Y-86000000D01*
X125900000Y-73700000D02*
X125000000Y-74600000D01*
X137700000Y-74900000D02*
X136500000Y-73700000D01*
D21*
X136300000Y-139200000D02*
X135200000Y-140300000D01*
X113900000Y-110100000D02*
X132500000Y-110100000D01*
X136300000Y-120700000D02*
X133900000Y-123100000D01*
X135240500Y-140340500D02*
X135240500Y-143659500D01*
X110700000Y-106900000D02*
X113900000Y-110100000D01*
X136300000Y-113900000D02*
X136300000Y-120700000D01*
X136100000Y-144600000D02*
X140070000Y-144600000D01*
X136300000Y-130600000D02*
X136300000Y-139200000D01*
X110700000Y-105000000D02*
X110700000Y-106900000D01*
X132500000Y-110100000D02*
X136300000Y-113900000D01*
X140070000Y-144600000D02*
X141670000Y-143000000D01*
X135200000Y-140300000D02*
X135240500Y-140340500D01*
X135240500Y-143659500D02*
X135200000Y-143700000D01*
X105930000Y-101430000D02*
X107600000Y-103100000D01*
X107600000Y-103100000D02*
X108800000Y-103100000D01*
X133900000Y-128200000D02*
X136300000Y-130600000D01*
X133900000Y-123100000D02*
X133900000Y-128200000D01*
X108800000Y-103100000D02*
X110700000Y-105000000D01*
X135200000Y-143700000D02*
X136100000Y-144600000D01*
X105930000Y-99450000D02*
X105930000Y-101430000D01*
X112000000Y-104700000D02*
X108470000Y-101170000D01*
X135100000Y-127600000D02*
X135100000Y-123900000D01*
X137500000Y-121500000D02*
X137500000Y-113200000D01*
X137500000Y-113200000D02*
X133200000Y-108900000D01*
X133200000Y-108900000D02*
X114600000Y-108900000D01*
X136590000Y-143000000D02*
X136590000Y-141110000D01*
X135100000Y-123900000D02*
X137500000Y-121500000D01*
X108470000Y-101170000D02*
X108470000Y-99450000D01*
X112000000Y-106300000D02*
X112000000Y-104700000D01*
X137400000Y-140300000D02*
X137400000Y-129900000D01*
X137400000Y-129900000D02*
X135100000Y-127600000D01*
X136590000Y-141110000D02*
X137400000Y-140300000D01*
X114600000Y-108900000D02*
X112000000Y-106300000D01*
D23*
X134200000Y-84100000D02*
X109480000Y-84100000D01*
X108470000Y-85110000D02*
X109480000Y-84100000D01*
X108470000Y-86750000D02*
X108470000Y-85110000D01*
X143720000Y-93620000D02*
X134200000Y-84100000D01*
X148500000Y-93620000D02*
X143720000Y-93620000D01*
X105930000Y-83970000D02*
X108100000Y-81800000D01*
X144080000Y-91080000D02*
X134800000Y-81800000D01*
X105930000Y-86750000D02*
X105930000Y-83970000D01*
X148500000Y-91080000D02*
X144080000Y-91080000D01*
X134800000Y-81800000D02*
X108100000Y-81800000D01*
D21*
X102600000Y-153800000D02*
X99600000Y-150800000D01*
X102600000Y-155750000D02*
X102600000Y-153800000D01*
X99600000Y-142030000D02*
X102920000Y-138710000D01*
X99600000Y-150800000D02*
X99600000Y-142030000D01*
X101000000Y-149200000D02*
X101000000Y-143170000D01*
X105750000Y-153950000D02*
X101000000Y-149200000D01*
X101000000Y-143170000D02*
X102920000Y-141250000D01*
X105750000Y-155750000D02*
X105750000Y-153950000D01*
X137100000Y-160800000D02*
X137800000Y-160100000D01*
X102900000Y-146200000D02*
X102920000Y-146180000D01*
X151200000Y-136800000D02*
X150600000Y-136200000D01*
X108900000Y-155750000D02*
X108900000Y-154600000D01*
X113500000Y-159400000D02*
X114900000Y-160800000D01*
X113500000Y-156800000D02*
X113500000Y-159400000D01*
X114900000Y-160800000D02*
X137100000Y-160800000D01*
X102900000Y-148600000D02*
X102900000Y-146200000D01*
X108900000Y-155750000D02*
X112450000Y-155750000D01*
X108900000Y-154600000D02*
X102900000Y-148600000D01*
X150600000Y-136200000D02*
X150470000Y-136330000D01*
X151200000Y-144400000D02*
X151200000Y-136800000D01*
X150470000Y-136330000D02*
X149250000Y-136330000D01*
X150400000Y-145200000D02*
X151200000Y-144400000D01*
X137800000Y-160100000D02*
X137800000Y-156400000D01*
X102920000Y-146180000D02*
X102920000Y-143790000D01*
X137800000Y-156400000D02*
X149000000Y-145200000D01*
X149000000Y-145200000D02*
X150400000Y-145200000D01*
X112450000Y-155750000D02*
X113500000Y-156800000D01*
X105700000Y-147000000D02*
X104219500Y-145519500D01*
X104219500Y-142490500D02*
X105460000Y-141250000D01*
X144210000Y-144131370D02*
X144210000Y-143000000D01*
X108600000Y-147000000D02*
X105700000Y-147000000D01*
X128400000Y-148700000D02*
X139641370Y-148700000D01*
X110200000Y-148600000D02*
X108600000Y-147000000D01*
X104219500Y-145519500D02*
X104219500Y-142490500D01*
X139641370Y-148700000D02*
X144210000Y-144131370D01*
X118810000Y-158240000D02*
X118810000Y-159290000D01*
X114500000Y-158900000D02*
X114500000Y-153600000D01*
X106100000Y-146000000D02*
X105460000Y-145360000D01*
X115500000Y-159900000D02*
X114500000Y-158900000D01*
X109100000Y-146000000D02*
X106100000Y-146000000D01*
X114500000Y-153600000D02*
X112300000Y-151400000D01*
X118200000Y-159900000D02*
X115500000Y-159900000D01*
X112300000Y-151400000D02*
X112300000Y-149200000D01*
X118810000Y-159290000D02*
X118200000Y-159900000D01*
X105460000Y-145360000D02*
X105460000Y-143790000D01*
X112300000Y-149200000D02*
X109100000Y-146000000D01*
X126900000Y-147300000D02*
X130200000Y-144000000D01*
X110200000Y-115450000D02*
X110200000Y-116300000D01*
X128970000Y-158240000D02*
X128970000Y-154170000D01*
X102000000Y-107250000D02*
X110200000Y-115450000D01*
X128970000Y-154170000D02*
X126900000Y-152100000D01*
X130200000Y-141000000D02*
X127300000Y-138100000D01*
X126900000Y-152100000D02*
X126900000Y-147300000D01*
X127300000Y-124800000D02*
X126900000Y-124400000D01*
X127300000Y-138100000D02*
X127300000Y-124800000D01*
X130200000Y-144000000D02*
X130200000Y-141000000D01*
X125600000Y-138600000D02*
X125600000Y-125800000D01*
X125600000Y-153100000D02*
X125600000Y-146900000D01*
X127600000Y-141000000D02*
X127600000Y-140600000D01*
X127620500Y-141020500D02*
X127600000Y-141000000D01*
X110300000Y-118090000D02*
X110300000Y-118100000D01*
X127600000Y-140600000D02*
X125600000Y-138600000D01*
X127620500Y-144879500D02*
X127620500Y-141020500D01*
X126430000Y-158240000D02*
X126430000Y-153930000D01*
X125600000Y-146900000D02*
X127620500Y-144879500D01*
X102000000Y-109790000D02*
X110300000Y-118090000D01*
X126430000Y-153930000D02*
X125600000Y-153100000D01*
X102000000Y-112330000D02*
X109470000Y-119800000D01*
X124100000Y-139400000D02*
X124200000Y-139300000D01*
X121350000Y-143000000D02*
X122950000Y-144600000D01*
X125080500Y-144019500D02*
X125080500Y-140380500D01*
X124200000Y-139300000D02*
X124200000Y-127200000D01*
X109470000Y-119800000D02*
X110300000Y-119800000D01*
X124500000Y-144600000D02*
X125080500Y-144019500D01*
X125080500Y-140380500D02*
X124100000Y-139400000D01*
X122950000Y-144600000D02*
X124500000Y-144600000D01*
X102000000Y-114870000D02*
X108830000Y-121700000D01*
X122700000Y-139900000D02*
X122700000Y-128500000D01*
X123890000Y-141090000D02*
X122700000Y-139900000D01*
X123890000Y-143000000D02*
X123890000Y-141090000D01*
X108830000Y-121700000D02*
X110300000Y-121700000D01*
X128820000Y-119180000D02*
X128820000Y-117140000D01*
X118810000Y-143000000D02*
X118810000Y-140090000D01*
X120000000Y-138900000D02*
X120000000Y-128000000D01*
X118810000Y-140090000D02*
X120000000Y-138900000D01*
X120000000Y-128000000D02*
X128820000Y-119180000D01*
X116270000Y-144070000D02*
X116900000Y-144700000D01*
X121200000Y-128400000D02*
X131360000Y-118240000D01*
X131360000Y-118240000D02*
X131360000Y-117140000D01*
X120100000Y-140200000D02*
X121200000Y-139100000D01*
X121200000Y-139100000D02*
X121200000Y-128400000D01*
X116900000Y-144700000D02*
X119300000Y-144700000D01*
X119300000Y-144700000D02*
X120100000Y-143900000D01*
X116270000Y-143000000D02*
X116270000Y-144070000D01*
X120100000Y-143900000D02*
X120100000Y-140200000D01*
X126280000Y-119980000D02*
X126280000Y-117140000D01*
X116270000Y-158240000D02*
X116270000Y-153870000D01*
X126300000Y-120000000D02*
X126280000Y-119980000D01*
X118900000Y-137900000D02*
X119000000Y-137900000D01*
X119000000Y-137900000D02*
X119000000Y-127300000D01*
X113400000Y-151000000D02*
X113400000Y-143400000D01*
X113400000Y-143400000D02*
X118900000Y-137900000D01*
X119000000Y-127300000D02*
X126300000Y-120000000D01*
X116270000Y-153870000D02*
X113400000Y-151000000D01*
X145500000Y-144100000D02*
X145500000Y-141000000D01*
X145500000Y-141000000D02*
X141600000Y-137100000D01*
X148200000Y-107600000D02*
X148220000Y-107620000D01*
X141600000Y-129300000D02*
X143900000Y-127000000D01*
X146200000Y-109600000D02*
X148200000Y-107600000D01*
X143900000Y-127000000D02*
X143900000Y-119100000D01*
X134050000Y-158240000D02*
X134050000Y-155550000D01*
X134050000Y-155550000D02*
X145500000Y-144100000D01*
X143900000Y-119100000D02*
X146200000Y-116800000D01*
X146200000Y-116800000D02*
X146200000Y-109600000D01*
X141600000Y-137100000D02*
X141600000Y-129300000D01*
X148220000Y-107620000D02*
X149500000Y-107620000D01*
X147800000Y-112700000D02*
X149500000Y-112700000D01*
X147500000Y-117200000D02*
X147500000Y-113000000D01*
X143100000Y-129800000D02*
X145300000Y-127600000D01*
X145300000Y-127600000D02*
X145300000Y-119400000D01*
X136590000Y-155610000D02*
X148000000Y-144200000D01*
X143100000Y-136800000D02*
X143100000Y-129800000D01*
X136590000Y-158240000D02*
X136590000Y-155610000D01*
X148000000Y-144200000D02*
X148000000Y-141700000D01*
X147500000Y-113000000D02*
X147800000Y-112700000D01*
X148000000Y-141700000D02*
X143100000Y-136800000D01*
X145300000Y-119400000D02*
X147500000Y-117200000D01*
M02*
