%TF.GenerationSoftware,KiCad,Pcbnew,10.0.1*%
%TF.CreationDate,2026-05-10T20:31:06-04:00*%
%TF.ProjectId,TeensyDRV8874-In2_Cu (1),5465656e-7379-4445-9256-383837342d49,rev?*%
%TF.SameCoordinates,Original*%
%TF.FileFunction,Legend,Bot*%
%TF.FilePolarity,Positive*%
%FSLAX46Y46*%
G04 Gerber Fmt 4.6, Leading zero omitted, Abs format (unit mm)*
G04 Created by KiCad (PCBNEW 10.0.1) date 2026-05-10 20:31:06*
%MOMM*%
%LPD*%
G01*
G04 APERTURE LIST*
G04 Aperture macros list*
%AMRoundRect*
0 Rectangle with rounded corners*
0 $1 Rounding radius*
0 $2 $3 $4 $5 $6 $7 $8 $9 X,Y pos of 4 corners*
0 Add a 4 corners polygon primitive as box body*
4,1,4,$2,$3,$4,$5,$6,$7,$8,$9,$2,$3,0*
0 Add four circle primitives for the rounded corners*
1,1,$1+$1,$2,$3*
1,1,$1+$1,$4,$5*
1,1,$1+$1,$6,$7*
1,1,$1+$1,$8,$9*
0 Add four rect primitives between the rounded corners*
20,1,$1+$1,$2,$3,$4,$5,0*
20,1,$1+$1,$4,$5,$6,$7,0*
20,1,$1+$1,$6,$7,$8,$9,0*
20,1,$1+$1,$8,$9,$2,$3,0*%
G04 Aperture macros list end*
%ADD10C,0.100000*%
%ADD11C,0.150000*%
%ADD12R,1.700000X1.700000*%
%ADD13C,1.700000*%
%ADD14C,4.500000*%
%ADD15RoundRect,0.190500X0.444500X-1.079500X0.444500X1.079500X-0.444500X1.079500X-0.444500X-1.079500X0*%
%ADD16O,1.270000X2.540000*%
%ADD17C,3.200000*%
%ADD18C,1.400000*%
%ADD19R,1.600000X2.200000*%
%ADD20C,1.600000*%
%ADD21C,2.200000*%
%ADD22RoundRect,0.250000X-0.550000X-0.550000X0.550000X-0.550000X0.550000X0.550000X-0.550000X0.550000X0*%
%ADD23C,3.300000*%
%ADD24C,9.000000*%
%ADD25R,1.600000X1.600000*%
G04 APERTURE END LIST*
D10*
X124285714Y-121828295D02*
X124761904Y-121828295D01*
X124190476Y-121542580D02*
X124523809Y-122542580D01*
X124523809Y-122542580D02*
X124857142Y-121542580D01*
X125095238Y-122542580D02*
X125714285Y-122542580D01*
X125714285Y-122542580D02*
X125380952Y-122161628D01*
X125380952Y-122161628D02*
X125523809Y-122161628D01*
X125523809Y-122161628D02*
X125619047Y-122114009D01*
X125619047Y-122114009D02*
X125666666Y-122066390D01*
X125666666Y-122066390D02*
X125714285Y-121971152D01*
X125714285Y-121971152D02*
X125714285Y-121733057D01*
X125714285Y-121733057D02*
X125666666Y-121637819D01*
X125666666Y-121637819D02*
X125619047Y-121590200D01*
X125619047Y-121590200D02*
X125523809Y-121542580D01*
X125523809Y-121542580D02*
X125238095Y-121542580D01*
X125238095Y-121542580D02*
X125142857Y-121590200D01*
X125142857Y-121590200D02*
X125095238Y-121637819D01*
D11*
X126960952Y-121830895D02*
X127437142Y-121830895D01*
X126865714Y-121545180D02*
X127199047Y-122545180D01*
X127199047Y-122545180D02*
X127532380Y-121545180D01*
X127818095Y-121592800D02*
X127960952Y-121545180D01*
X127960952Y-121545180D02*
X128199047Y-121545180D01*
X128199047Y-121545180D02*
X128294285Y-121592800D01*
X128294285Y-121592800D02*
X128341904Y-121640419D01*
X128341904Y-121640419D02*
X128389523Y-121735657D01*
X128389523Y-121735657D02*
X128389523Y-121830895D01*
X128389523Y-121830895D02*
X128341904Y-121926133D01*
X128341904Y-121926133D02*
X128294285Y-121973752D01*
X128294285Y-121973752D02*
X128199047Y-122021371D01*
X128199047Y-122021371D02*
X128008571Y-122068990D01*
X128008571Y-122068990D02*
X127913333Y-122116609D01*
X127913333Y-122116609D02*
X127865714Y-122164228D01*
X127865714Y-122164228D02*
X127818095Y-122259466D01*
X127818095Y-122259466D02*
X127818095Y-122354704D01*
X127818095Y-122354704D02*
X127865714Y-122449942D01*
X127865714Y-122449942D02*
X127913333Y-122497561D01*
X127913333Y-122497561D02*
X128008571Y-122545180D01*
X128008571Y-122545180D02*
X128246666Y-122545180D01*
X128246666Y-122545180D02*
X128389523Y-122497561D01*
X129294285Y-122545180D02*
X128818095Y-122545180D01*
X128818095Y-122545180D02*
X128770476Y-122068990D01*
X128770476Y-122068990D02*
X128818095Y-122116609D01*
X128818095Y-122116609D02*
X128913333Y-122164228D01*
X128913333Y-122164228D02*
X129151428Y-122164228D01*
X129151428Y-122164228D02*
X129246666Y-122116609D01*
X129246666Y-122116609D02*
X129294285Y-122068990D01*
X129294285Y-122068990D02*
X129341904Y-121973752D01*
X129341904Y-121973752D02*
X129341904Y-121735657D01*
X129341904Y-121735657D02*
X129294285Y-121640419D01*
X129294285Y-121640419D02*
X129246666Y-121592800D01*
X129246666Y-121592800D02*
X129151428Y-121545180D01*
X129151428Y-121545180D02*
X128913333Y-121545180D01*
X128913333Y-121545180D02*
X128818095Y-121592800D01*
X128818095Y-121592800D02*
X128770476Y-121640419D01*
X129960952Y-122545180D02*
X130056190Y-122545180D01*
X130056190Y-122545180D02*
X130151428Y-122497561D01*
X130151428Y-122497561D02*
X130199047Y-122449942D01*
X130199047Y-122449942D02*
X130246666Y-122354704D01*
X130246666Y-122354704D02*
X130294285Y-122164228D01*
X130294285Y-122164228D02*
X130294285Y-121926133D01*
X130294285Y-121926133D02*
X130246666Y-121735657D01*
X130246666Y-121735657D02*
X130199047Y-121640419D01*
X130199047Y-121640419D02*
X130151428Y-121592800D01*
X130151428Y-121592800D02*
X130056190Y-121545180D01*
X130056190Y-121545180D02*
X129960952Y-121545180D01*
X129960952Y-121545180D02*
X129865714Y-121592800D01*
X129865714Y-121592800D02*
X129818095Y-121640419D01*
X129818095Y-121640419D02*
X129770476Y-121735657D01*
X129770476Y-121735657D02*
X129722857Y-121926133D01*
X129722857Y-121926133D02*
X129722857Y-122164228D01*
X129722857Y-122164228D02*
X129770476Y-122354704D01*
X129770476Y-122354704D02*
X129818095Y-122449942D01*
X129818095Y-122449942D02*
X129865714Y-122497561D01*
X129865714Y-122497561D02*
X129960952Y-122545180D01*
X131151428Y-122211847D02*
X131151428Y-121545180D01*
X130913333Y-122592800D02*
X130675238Y-121878514D01*
X130675238Y-121878514D02*
X131294285Y-121878514D01*
X131580000Y-122545180D02*
X132246666Y-122545180D01*
X132246666Y-122545180D02*
X131818095Y-121545180D01*
X132627619Y-121545180D02*
X132627619Y-122545180D01*
X132627619Y-122545180D02*
X132865714Y-122545180D01*
X132865714Y-122545180D02*
X133008571Y-122497561D01*
X133008571Y-122497561D02*
X133103809Y-122402323D01*
X133103809Y-122402323D02*
X133151428Y-122307085D01*
X133151428Y-122307085D02*
X133199047Y-122116609D01*
X133199047Y-122116609D02*
X133199047Y-121973752D01*
X133199047Y-121973752D02*
X133151428Y-121783276D01*
X133151428Y-121783276D02*
X133103809Y-121688038D01*
X133103809Y-121688038D02*
X133008571Y-121592800D01*
X133008571Y-121592800D02*
X132865714Y-121545180D01*
X132865714Y-121545180D02*
X132627619Y-121545180D01*
D10*
X114000000Y-92084176D02*
X136000000Y-92084176D01*
X136000000Y-119744176D01*
X114000000Y-119744176D01*
X114000000Y-92084176D01*
%LPC*%
D12*
X108000000Y-138710000D03*
D13*
X108000000Y-141250000D03*
X108000000Y-143790000D03*
D14*
X101430000Y-123570000D03*
D15*
X119920000Y-89700000D03*
D16*
X122460000Y-89700000D03*
X125000000Y-89700000D03*
X127540000Y-89700000D03*
X130080000Y-89700000D03*
X132620000Y-89700000D03*
X135160000Y-89700000D03*
X135160000Y-77000000D03*
X132620000Y-77000000D03*
X130080000Y-77000000D03*
X127540000Y-77000000D03*
X125000000Y-77000000D03*
X122460000Y-77000000D03*
X119920000Y-77000000D03*
D15*
X100850000Y-99450000D03*
D16*
X103390000Y-99450000D03*
X105930000Y-99450000D03*
X108470000Y-99450000D03*
X111010000Y-99450000D03*
X113550000Y-99450000D03*
X116090000Y-99450000D03*
X116090000Y-86750000D03*
X113550000Y-86750000D03*
X111010000Y-86750000D03*
X108470000Y-86750000D03*
X105930000Y-86750000D03*
X103390000Y-86750000D03*
X100850000Y-86750000D03*
D17*
X109150000Y-74800000D03*
X140850000Y-74800000D03*
D18*
X102600000Y-158290000D03*
X102600000Y-155750000D03*
D12*
X149250000Y-128710000D03*
D13*
X149250000Y-131250000D03*
X149250000Y-133790000D03*
X149250000Y-136330000D03*
X149250000Y-138870000D03*
D18*
X105750000Y-158290000D03*
X105750000Y-155750000D03*
D12*
X105460000Y-138710000D03*
D13*
X105460000Y-141250000D03*
X105460000Y-143790000D03*
D19*
X117260000Y-126960000D03*
D20*
X117260000Y-129500000D03*
X117260000Y-132040000D03*
X117260000Y-134580000D03*
X117260000Y-137120000D03*
X132500000Y-134580000D03*
X132500000Y-132040000D03*
X132500000Y-129500000D03*
D12*
X102000000Y-107250000D03*
D13*
X102000000Y-109790000D03*
X102000000Y-112330000D03*
X102000000Y-114870000D03*
D17*
X109150000Y-125800000D03*
D20*
X139500000Y-115750000D03*
X144500000Y-115750000D03*
D18*
X108900000Y-158290000D03*
X108900000Y-155750000D03*
D21*
X148500000Y-86000000D03*
X148500000Y-88540000D03*
X148500000Y-91080000D03*
X148500000Y-93620000D03*
D14*
X101430000Y-76430000D03*
D20*
X149290000Y-143000000D03*
X146750000Y-143000000D03*
X144210000Y-143000000D03*
X141670000Y-143000000D03*
X139130000Y-143000000D03*
X136590000Y-143000000D03*
X134050000Y-143000000D03*
X131510000Y-143000000D03*
X128970000Y-143000000D03*
X126430000Y-143000000D03*
X123890000Y-143000000D03*
X121350000Y-143000000D03*
X118810000Y-143000000D03*
X116270000Y-143000000D03*
X116270000Y-158240000D03*
X118810000Y-158240000D03*
X121350000Y-158240000D03*
X123890000Y-158240000D03*
X126430000Y-158240000D03*
X128970000Y-158240000D03*
X131510000Y-158240000D03*
X134050000Y-158240000D03*
X136590000Y-158240000D03*
X139130000Y-158240000D03*
X141670000Y-158240000D03*
X144210000Y-158240000D03*
X146750000Y-158240000D03*
X149290000Y-158240000D03*
D17*
X140850000Y-125800000D03*
D12*
X102920000Y-138710000D03*
D13*
X102920000Y-141250000D03*
X102920000Y-143790000D03*
D12*
X149500000Y-100000000D03*
D13*
X149500000Y-102540000D03*
X149500000Y-105080000D03*
X149500000Y-107620000D03*
X149500000Y-110160000D03*
X149500000Y-112700000D03*
X149500000Y-115240000D03*
X149500000Y-117780000D03*
D22*
X140597349Y-106750000D03*
D20*
X143097349Y-106750000D03*
D14*
X148570000Y-76430000D03*
D23*
X134000000Y-105500000D03*
X134000000Y-94500000D03*
D24*
X125000000Y-100000000D03*
D23*
X116000000Y-105500000D03*
X116000000Y-94500000D03*
D20*
X133900000Y-117140000D03*
X131360000Y-117140000D03*
X128820000Y-117140000D03*
X126280000Y-117140000D03*
X123740000Y-117140000D03*
X121200000Y-117140000D03*
X118660000Y-117140000D03*
X116120000Y-117140000D03*
D25*
X116120000Y-114600000D03*
D20*
X118660000Y-114600000D03*
X121200000Y-114600000D03*
X123740000Y-114600000D03*
X126280000Y-114600000D03*
X128820000Y-114600000D03*
X131360000Y-114600000D03*
X133900000Y-114600000D03*
%LPD*%
M02*
