M48
; DRILL file KiCad 10.0.1 date 2026-05-10T20:31:13
; FORMAT={-:-/ absolute / metric / decimal}
; #@! TF.CreationDate,2026-05-10T20:31:13-04:00
; #@! TF.GenerationSoftware,Kicad,Pcbnew,10.0.1
; #@! TF.FileFunction,Plated,1,4,PTH
FMAT,2
METRIC
; #@! TA.AperFunction,Plated,PTH,ViaDrill
T1C0.300
; #@! TA.AperFunction,Plated,PTH,ComponentDrill
T2C0.700
; #@! TA.AperFunction,Plated,PTH,ComponentDrill
T3C0.800
; #@! TA.AperFunction,Plated,PTH,ComponentDrill
T4C1.000
; #@! TA.AperFunction,Plated,PTH,ComponentDrill
T5C1.100
%
G90
G05
T1
X110.2Y-116.3
X110.2Y-148.6
X110.3Y-118.1
X110.3Y-119.8
X110.3Y-121.7
X122.7Y-128.5
X124.2Y-127.2
X125.6Y-125.8
X126.9Y-124.4
X128.4Y-148.7
T2
X102.6Y-155.75
X102.6Y-158.29
X105.75Y-155.75
X105.75Y-158.29
X108.9Y-155.75
X108.9Y-158.29
T3
X100.85Y-86.75
X100.85Y-99.45
X103.39Y-86.75
X103.39Y-99.45
X105.93Y-86.75
X105.93Y-99.45
X108.47Y-86.75
X108.47Y-99.45
X111.01Y-86.75
X111.01Y-99.45
X113.55Y-86.75
X113.55Y-99.45
X116.09Y-86.75
X116.09Y-99.45
X116.12Y-114.6
X116.12Y-117.14
X118.66Y-114.6
X118.66Y-117.14
X119.92Y-77.0
X119.92Y-89.7
X121.2Y-114.6
X121.2Y-117.14
X122.46Y-77.0
X122.46Y-89.7
X123.74Y-114.6
X123.74Y-117.14
X125.0Y-77.0
X125.0Y-89.7
X126.28Y-114.6
X126.28Y-117.14
X127.54Y-77.0
X127.54Y-89.7
X128.82Y-114.6
X128.82Y-117.14
X130.08Y-77.0
X130.08Y-89.7
X131.36Y-114.6
X131.36Y-117.14
X132.62Y-77.0
X132.62Y-89.7
X133.9Y-114.6
X133.9Y-117.14
X135.16Y-77.0
X135.16Y-89.7
X139.5Y-115.75
X140.597Y-106.75
X143.097Y-106.75
X144.5Y-115.75
T4
X102.0Y-107.25
X102.0Y-109.79
X102.0Y-112.33
X102.0Y-114.87
X102.92Y-138.71
X102.92Y-141.25
X102.92Y-143.79
X105.46Y-138.71
X105.46Y-141.25
X105.46Y-143.79
X108.0Y-138.71
X108.0Y-141.25
X108.0Y-143.79
X149.25Y-128.71
X149.25Y-131.25
X149.25Y-133.79
X149.25Y-136.33
X149.25Y-138.87
X149.5Y-100.0
X149.5Y-102.54
X149.5Y-105.08
X149.5Y-107.62
X149.5Y-110.16
X149.5Y-112.7
X149.5Y-115.24
X149.5Y-117.78
T5
X116.27Y-143.0
X116.27Y-158.24
X117.26Y-126.96
X117.26Y-129.5
X117.26Y-132.04
X117.26Y-134.58
X117.26Y-137.12
X118.81Y-143.0
X118.81Y-158.24
X121.35Y-143.0
X121.35Y-158.24
X123.89Y-143.0
X123.89Y-158.24
X126.43Y-143.0
X126.43Y-158.24
X128.97Y-143.0
X128.97Y-158.24
X131.51Y-143.0
X131.51Y-158.24
X132.5Y-129.5
X132.5Y-132.04
X132.5Y-134.58
X134.05Y-143.0
X134.05Y-158.24
X136.59Y-143.0
X136.59Y-158.24
X139.13Y-143.0
X139.13Y-158.24
X141.67Y-143.0
X141.67Y-158.24
X144.21Y-143.0
X144.21Y-158.24
X146.75Y-143.0
X146.75Y-158.24
X148.5Y-86.0
X148.5Y-88.54
X148.5Y-91.08
X148.5Y-93.62
X149.29Y-143.0
X149.29Y-158.24
M30
