%TF.GenerationSoftware,KiCad,Pcbnew,10.0.1*%
%TF.CreationDate,2026-05-10T20:31:06-04:00*%
%TF.ProjectId,TeensyDRV8874-In2_Cu (1),5465656e-7379-4445-9256-383837342d49,rev?*%
%TF.SameCoordinates,Original*%
%TF.FileFunction,Soldermask,Bot*%
%TF.FilePolarity,Negative*%
%FSLAX46Y46*%
G04 Gerber Fmt 4.6, Leading zero omitted, Abs format (unit mm)*
G04 Created by KiCad (PCBNEW 10.0.1) date 2026-05-10 20:31:06*
%MOMM*%
%LPD*%
G01*
G04 APERTURE LIST*
G04 Aperture macros list*
%AMRoundRect*
0 Rectangle with rounded corners*
0 $1 Rounding radius*
0 $2 $3 $4 $5 $6 $7 $8 $9 X,Y pos of 4 corners*
0 Add a 4 corners polygon primitive as box body*
4,1,4,$2,$3,$4,$5,$6,$7,$8,$9,$2,$3,0*
0 Add four circle primitives for the rounded corners*
1,1,$1+$1,$2,$3*
1,1,$1+$1,$4,$5*
1,1,$1+$1,$6,$7*
1,1,$1+$1,$8,$9*
0 Add four rect primitives between the rounded corners*
20,1,$1+$1,$2,$3,$4,$5,0*
20,1,$1+$1,$4,$5,$6,$7,0*
20,1,$1+$1,$6,$7,$8,$9,0*
20,1,$1+$1,$8,$9,$2,$3,0*%
G04 Aperture macros list end*
%ADD10R,1.700000X1.700000*%
%ADD11C,1.700000*%
%ADD12C,4.500000*%
%ADD13RoundRect,0.190500X0.444500X-1.079500X0.444500X1.079500X-0.444500X1.079500X-0.444500X-1.079500X0*%
%ADD14O,1.270000X2.540000*%
%ADD15C,3.200000*%
%ADD16C,1.400000*%
%ADD17R,1.600000X2.200000*%
%ADD18C,1.600000*%
%ADD19C,2.200000*%
%ADD20RoundRect,0.250000X-0.550000X-0.550000X0.550000X-0.550000X0.550000X0.550000X-0.550000X0.550000X0*%
%ADD21C,3.300000*%
%ADD22C,9.000000*%
%ADD23R,1.600000X1.600000*%
G04 APERTURE END LIST*
D10*
X108000000Y-138710000D03*
D11*
X108000000Y-141250000D03*
X108000000Y-143790000D03*
D12*
X101430000Y-123570000D03*
D13*
X119920000Y-89700000D03*
D14*
X122460000Y-89700000D03*
X125000000Y-89700000D03*
X127540000Y-89700000D03*
X130080000Y-89700000D03*
X132620000Y-89700000D03*
X135160000Y-89700000D03*
X135160000Y-77000000D03*
X132620000Y-77000000D03*
X130080000Y-77000000D03*
X127540000Y-77000000D03*
X125000000Y-77000000D03*
X122460000Y-77000000D03*
X119920000Y-77000000D03*
D13*
X100850000Y-99450000D03*
D14*
X103390000Y-99450000D03*
X105930000Y-99450000D03*
X108470000Y-99450000D03*
X111010000Y-99450000D03*
X113550000Y-99450000D03*
X116090000Y-99450000D03*
X116090000Y-86750000D03*
X113550000Y-86750000D03*
X111010000Y-86750000D03*
X108470000Y-86750000D03*
X105930000Y-86750000D03*
X103390000Y-86750000D03*
X100850000Y-86750000D03*
D15*
X109150000Y-74800000D03*
X140850000Y-74800000D03*
D16*
X102600000Y-158290000D03*
X102600000Y-155750000D03*
D10*
X149250000Y-128710000D03*
D11*
X149250000Y-131250000D03*
X149250000Y-133790000D03*
X149250000Y-136330000D03*
X149250000Y-138870000D03*
D16*
X105750000Y-158290000D03*
X105750000Y-155750000D03*
D10*
X105460000Y-138710000D03*
D11*
X105460000Y-141250000D03*
X105460000Y-143790000D03*
D17*
X117260000Y-126960000D03*
D18*
X117260000Y-129500000D03*
X117260000Y-132040000D03*
X117260000Y-134580000D03*
X117260000Y-137120000D03*
X132500000Y-134580000D03*
X132500000Y-132040000D03*
X132500000Y-129500000D03*
D10*
X102000000Y-107250000D03*
D11*
X102000000Y-109790000D03*
X102000000Y-112330000D03*
X102000000Y-114870000D03*
D15*
X109150000Y-125800000D03*
D18*
X139500000Y-115750000D03*
X144500000Y-115750000D03*
D16*
X108900000Y-158290000D03*
X108900000Y-155750000D03*
D19*
X148500000Y-86000000D03*
X148500000Y-88540000D03*
X148500000Y-91080000D03*
X148500000Y-93620000D03*
D12*
X101430000Y-76430000D03*
D18*
X149290000Y-143000000D03*
X146750000Y-143000000D03*
X144210000Y-143000000D03*
X141670000Y-143000000D03*
X139130000Y-143000000D03*
X136590000Y-143000000D03*
X134050000Y-143000000D03*
X131510000Y-143000000D03*
X128970000Y-143000000D03*
X126430000Y-143000000D03*
X123890000Y-143000000D03*
X121350000Y-143000000D03*
X118810000Y-143000000D03*
X116270000Y-143000000D03*
X116270000Y-158240000D03*
X118810000Y-158240000D03*
X121350000Y-158240000D03*
X123890000Y-158240000D03*
X126430000Y-158240000D03*
X128970000Y-158240000D03*
X131510000Y-158240000D03*
X134050000Y-158240000D03*
X136590000Y-158240000D03*
X139130000Y-158240000D03*
X141670000Y-158240000D03*
X144210000Y-158240000D03*
X146750000Y-158240000D03*
X149290000Y-158240000D03*
D15*
X140850000Y-125800000D03*
D10*
X102920000Y-138710000D03*
D11*
X102920000Y-141250000D03*
X102920000Y-143790000D03*
D10*
X149500000Y-100000000D03*
D11*
X149500000Y-102540000D03*
X149500000Y-105080000D03*
X149500000Y-107620000D03*
X149500000Y-110160000D03*
X149500000Y-112700000D03*
X149500000Y-115240000D03*
X149500000Y-117780000D03*
D20*
X140597349Y-106750000D03*
D18*
X143097349Y-106750000D03*
D12*
X148570000Y-76430000D03*
D21*
X134000000Y-105500000D03*
X134000000Y-94500000D03*
D22*
X125000000Y-100000000D03*
D21*
X116000000Y-105500000D03*
X116000000Y-94500000D03*
D18*
X133900000Y-117140000D03*
X131360000Y-117140000D03*
X128820000Y-117140000D03*
X126280000Y-117140000D03*
X123740000Y-117140000D03*
X121200000Y-117140000D03*
X118660000Y-117140000D03*
X116120000Y-117140000D03*
D23*
X116120000Y-114600000D03*
D18*
X118660000Y-114600000D03*
X121200000Y-114600000D03*
X123740000Y-114600000D03*
X126280000Y-114600000D03*
X128820000Y-114600000D03*
X131360000Y-114600000D03*
X133900000Y-114600000D03*
M02*
