%TF.GenerationSoftware,KiCad,Pcbnew,10.0.1*%
%TF.CreationDate,2026-05-10T20:31:05-04:00*%
%TF.ProjectId,TeensyDRV8874-In2_Cu (1),5465656e-7379-4445-9256-383837342d49,rev?*%
%TF.SameCoordinates,Original*%
%TF.FileFunction,Copper,L1,Top*%
%TF.FilePolarity,Positive*%
%FSLAX46Y46*%
G04 Gerber Fmt 4.6, Leading zero omitted, Abs format (unit mm)*
G04 Created by KiCad (PCBNEW 10.0.1) date 2026-05-10 20:31:05*
%MOMM*%
%LPD*%
G01*
G04 APERTURE LIST*
G04 Aperture macros list*
%AMRoundRect*
0 Rectangle with rounded corners*
0 $1 Rounding radius*
0 $2 $3 $4 $5 $6 $7 $8 $9 X,Y pos of 4 corners*
0 Add a 4 corners polygon primitive as box body*
4,1,4,$2,$3,$4,$5,$6,$7,$8,$9,$2,$3,0*
0 Add four circle primitives for the rounded corners*
1,1,$1+$1,$2,$3*
1,1,$1+$1,$4,$5*
1,1,$1+$1,$6,$7*
1,1,$1+$1,$8,$9*
0 Add four rect primitives between the rounded corners*
20,1,$1+$1,$2,$3,$4,$5,0*
20,1,$1+$1,$4,$5,$6,$7,0*
20,1,$1+$1,$6,$7,$8,$9,0*
20,1,$1+$1,$8,$9,$2,$3,0*%
G04 Aperture macros list end*
%TA.AperFunction,ComponentPad*%
%ADD10R,1.700000X1.700000*%
%TD*%
%TA.AperFunction,ComponentPad*%
%ADD11C,1.700000*%
%TD*%
%TA.AperFunction,ComponentPad*%
%ADD12RoundRect,0.190500X0.444500X-1.079500X0.444500X1.079500X-0.444500X1.079500X-0.444500X-1.079500X0*%
%TD*%
%TA.AperFunction,ComponentPad*%
%ADD13O,1.270000X2.540000*%
%TD*%
%TA.AperFunction,ComponentPad*%
%ADD14C,1.400000*%
%TD*%
%TA.AperFunction,ComponentPad*%
%ADD15R,1.600000X2.200000*%
%TD*%
%TA.AperFunction,ComponentPad*%
%ADD16C,1.600000*%
%TD*%
%TA.AperFunction,ComponentPad*%
%ADD17C,2.200000*%
%TD*%
%TA.AperFunction,ComponentPad*%
%ADD18RoundRect,0.250000X-0.550000X-0.550000X0.550000X-0.550000X0.550000X0.550000X-0.550000X0.550000X0*%
%TD*%
%TA.AperFunction,ComponentPad*%
%ADD19R,1.600000X1.600000*%
%TD*%
%TA.AperFunction,ViaPad*%
%ADD20C,0.600000*%
%TD*%
%TA.AperFunction,Conductor*%
%ADD21C,0.381000*%
%TD*%
%TA.AperFunction,Conductor*%
%ADD22C,2.000000*%
%TD*%
%TA.AperFunction,Conductor*%
%ADD23C,1.000000*%
%TD*%
%TA.AperFunction,Conductor*%
%ADD24C,0.200000*%
%TD*%
G04 APERTURE END LIST*
D10*
X108000000Y-138710000D03*
D11*
X108000000Y-141250000D03*
X108000000Y-143790000D03*
D12*
X119920000Y-89700000D03*
D13*
X122460000Y-89700000D03*
X125000000Y-89700000D03*
X127540000Y-89700000D03*
X130080000Y-89700000D03*
X132620000Y-89700000D03*
X135160000Y-89700000D03*
X135160000Y-77000000D03*
X132620000Y-77000000D03*
X130080000Y-77000000D03*
X127540000Y-77000000D03*
X125000000Y-77000000D03*
X122460000Y-77000000D03*
X119920000Y-77000000D03*
D12*
X100850000Y-99450000D03*
D13*
X103390000Y-99450000D03*
X105930000Y-99450000D03*
X108470000Y-99450000D03*
X111010000Y-99450000D03*
X113550000Y-99450000D03*
X116090000Y-99450000D03*
X116090000Y-86750000D03*
X113550000Y-86750000D03*
X111010000Y-86750000D03*
X108470000Y-86750000D03*
X105930000Y-86750000D03*
X103390000Y-86750000D03*
X100850000Y-86750000D03*
D14*
X102600000Y-158290000D03*
X102600000Y-155750000D03*
D10*
X149250000Y-128710000D03*
D11*
X149250000Y-131250000D03*
X149250000Y-133790000D03*
X149250000Y-136330000D03*
X149250000Y-138870000D03*
D14*
X105750000Y-158290000D03*
X105750000Y-155750000D03*
D10*
X105460000Y-138710000D03*
D11*
X105460000Y-141250000D03*
X105460000Y-143790000D03*
D15*
X117260000Y-126960000D03*
D16*
X117260000Y-129500000D03*
X117260000Y-132040000D03*
X117260000Y-134580000D03*
X117260000Y-137120000D03*
X132500000Y-134580000D03*
X132500000Y-132040000D03*
X132500000Y-129500000D03*
D10*
X102000000Y-107250000D03*
D11*
X102000000Y-109790000D03*
X102000000Y-112330000D03*
X102000000Y-114870000D03*
D16*
X139500000Y-115750000D03*
X144500000Y-115750000D03*
D14*
X108900000Y-158290000D03*
X108900000Y-155750000D03*
D17*
X148500000Y-86000000D03*
X148500000Y-88540000D03*
X148500000Y-91080000D03*
X148500000Y-93620000D03*
D16*
X149290000Y-143000000D03*
X146750000Y-143000000D03*
X144210000Y-143000000D03*
X141670000Y-143000000D03*
X139130000Y-143000000D03*
X136590000Y-143000000D03*
X134050000Y-143000000D03*
X131510000Y-143000000D03*
X128970000Y-143000000D03*
X126430000Y-143000000D03*
X123890000Y-143000000D03*
X121350000Y-143000000D03*
X118810000Y-143000000D03*
X116270000Y-143000000D03*
X116270000Y-158240000D03*
X118810000Y-158240000D03*
X121350000Y-158240000D03*
X123890000Y-158240000D03*
X126430000Y-158240000D03*
X128970000Y-158240000D03*
X131510000Y-158240000D03*
X134050000Y-158240000D03*
X136590000Y-158240000D03*
X139130000Y-158240000D03*
X141670000Y-158240000D03*
X144210000Y-158240000D03*
X146750000Y-158240000D03*
X149290000Y-158240000D03*
D10*
X102920000Y-138710000D03*
D11*
X102920000Y-141250000D03*
X102920000Y-143790000D03*
D10*
X149500000Y-100000000D03*
D11*
X149500000Y-102540000D03*
X149500000Y-105080000D03*
X149500000Y-107620000D03*
X149500000Y-110160000D03*
X149500000Y-112700000D03*
X149500000Y-115240000D03*
X149500000Y-117780000D03*
D18*
X140597349Y-106750000D03*
D16*
X143097349Y-106750000D03*
X133900000Y-117140000D03*
X131360000Y-117140000D03*
X128820000Y-117140000D03*
X126280000Y-117140000D03*
X123740000Y-117140000D03*
X121200000Y-117140000D03*
X118660000Y-117140000D03*
X116120000Y-117140000D03*
D19*
X116120000Y-114600000D03*
D16*
X118660000Y-114600000D03*
X121200000Y-114600000D03*
X123740000Y-114600000D03*
X126280000Y-114600000D03*
X128820000Y-114600000D03*
X131360000Y-114600000D03*
X133900000Y-114600000D03*
D20*
X110200000Y-148600000D03*
X128400000Y-148700000D03*
X126900000Y-124400000D03*
X110200000Y-116300000D03*
X110300000Y-118100000D03*
X125600000Y-125800000D03*
X124200000Y-127200000D03*
X110300000Y-119800000D03*
X122700000Y-128500000D03*
X110300000Y-121700000D03*
D21*
X113500000Y-133300000D02*
X114650000Y-134450000D01*
X112200000Y-151700000D02*
X137670000Y-151700000D01*
X113500000Y-124400000D02*
X113500000Y-133300000D01*
X113550000Y-99450000D02*
X113550000Y-98050000D01*
X114650000Y-134450000D02*
X114780000Y-134580000D01*
X112200000Y-156000000D02*
X112200000Y-151700000D01*
X108900000Y-158290000D02*
X105750000Y-158290000D01*
X113550000Y-98050000D02*
X114600000Y-97000000D01*
X112200000Y-136900000D02*
X114650000Y-134450000D01*
X137670000Y-151700000D02*
X144210000Y-158240000D01*
X112200000Y-151700000D02*
X112200000Y-136900000D01*
X130100000Y-93700000D02*
X132620000Y-91180000D01*
X111700000Y-103300000D02*
X111700000Y-122600000D01*
X109910000Y-158290000D02*
X112200000Y-156000000D01*
X113550000Y-101450000D02*
X111700000Y-103300000D01*
X111700000Y-122600000D02*
X113500000Y-124400000D01*
X122900000Y-93700000D02*
X130100000Y-93700000D01*
X113550000Y-99450000D02*
X113550000Y-101450000D01*
X114600000Y-97000000D02*
X119600000Y-97000000D01*
X114780000Y-134580000D02*
X117260000Y-134580000D01*
X102600000Y-158290000D02*
X105750000Y-158290000D01*
X132620000Y-91180000D02*
X132620000Y-89700000D01*
X119600000Y-97000000D02*
X122900000Y-93700000D01*
X108900000Y-158290000D02*
X109910000Y-158290000D01*
D22*
X100850000Y-86750000D02*
X100850000Y-84340000D01*
X144800000Y-100000000D02*
X140597349Y-104202651D01*
D23*
X140597349Y-111502651D02*
X140597349Y-106750000D01*
D22*
X144800000Y-97300000D02*
X139600000Y-92100000D01*
X103100000Y-81800000D02*
X119700000Y-81800000D01*
X149500000Y-100000000D02*
X144800000Y-100000000D01*
X100850000Y-84340000D02*
X103390000Y-81800000D01*
X139600000Y-92100000D02*
X139600000Y-87600000D01*
X119700000Y-81800000D02*
X119920000Y-81580000D01*
X139600000Y-87600000D02*
X136200000Y-84200000D01*
D23*
X139500000Y-115750000D02*
X139500000Y-112600000D01*
D22*
X136200000Y-84200000D02*
X122100000Y-84200000D01*
D23*
X139500000Y-112600000D02*
X140597349Y-111502651D01*
D22*
X140597349Y-104202651D02*
X140597349Y-106750000D01*
X144800000Y-100000000D02*
X144800000Y-97300000D01*
X119920000Y-81580000D02*
X119920000Y-77000000D01*
X122100000Y-84200000D02*
X119700000Y-81800000D01*
D24*
X101100000Y-156300000D02*
X101650000Y-155750000D01*
X147000000Y-132100000D02*
X147000000Y-140900000D01*
X149200000Y-131200000D02*
X149250000Y-131250000D01*
X150800000Y-148100000D02*
X150800000Y-159000000D01*
X148000000Y-141900000D02*
X148000000Y-145300000D01*
X101400000Y-159800000D02*
X101100000Y-159500000D01*
X148000000Y-145300000D02*
X150800000Y-148100000D01*
X147000000Y-140900000D02*
X148000000Y-141900000D01*
X149250000Y-131250000D02*
X147850000Y-131250000D01*
X150000000Y-159800000D02*
X101400000Y-159800000D01*
X101650000Y-155750000D02*
X102600000Y-155750000D01*
X147850000Y-131250000D02*
X147000000Y-132100000D01*
X150800000Y-159000000D02*
X150000000Y-159800000D01*
X101100000Y-159500000D02*
X101100000Y-156300000D01*
D21*
X140500000Y-120600000D02*
X144500000Y-124600000D01*
X116120000Y-119520000D02*
X117200000Y-120600000D01*
X145500000Y-128400000D02*
X145810000Y-128710000D01*
X116120000Y-117140000D02*
X116120000Y-119520000D01*
X117200000Y-120600000D02*
X140500000Y-120600000D01*
X144500000Y-127400000D02*
X145500000Y-128400000D01*
X144500000Y-124600000D02*
X144500000Y-127400000D01*
X149290000Y-148790000D02*
X145500000Y-145000000D01*
X145500000Y-145000000D02*
X145500000Y-128400000D01*
X149290000Y-158240000D02*
X149290000Y-148790000D01*
X145810000Y-128710000D02*
X149250000Y-128710000D01*
D24*
X102200000Y-154000000D02*
X100300000Y-155900000D01*
X100300000Y-155900000D02*
X100300000Y-159700000D01*
X150700000Y-160500000D02*
X151900000Y-159300000D01*
X105100000Y-154000000D02*
X102200000Y-154000000D01*
X101100000Y-160500000D02*
X150700000Y-160500000D01*
X151900000Y-159300000D02*
X151900000Y-134600000D01*
X105750000Y-155750000D02*
X105750000Y-154650000D01*
X105750000Y-154650000D02*
X105100000Y-154000000D01*
X151900000Y-134600000D02*
X151090000Y-133790000D01*
X100300000Y-159700000D02*
X101100000Y-160500000D01*
X151090000Y-133790000D02*
X149250000Y-133790000D01*
M02*
