%TF.GenerationSoftware,KiCad,Pcbnew,10.0.1*%
%TF.CreationDate,2026-05-10T20:31:05-04:00*%
%TF.ProjectId,TeensyDRV8874-In2_Cu (1),5465656e-7379-4445-9256-383837342d49,rev?*%
%TF.SameCoordinates,Original*%
%TF.FileFunction,Copper,L3,Inr*%
%TF.FilePolarity,Positive*%
%FSLAX46Y46*%
G04 Gerber Fmt 4.6, Leading zero omitted, Abs format (unit mm)*
G04 Created by KiCad (PCBNEW 10.0.1) date 2026-05-10 20:31:05*
%MOMM*%
%LPD*%
G01*
G04 APERTURE LIST*
G04 Aperture macros list*
%AMRoundRect*
0 Rectangle with rounded corners*
0 $1 Rounding radius*
0 $2 $3 $4 $5 $6 $7 $8 $9 X,Y pos of 4 corners*
0 Add a 4 corners polygon primitive as box body*
4,1,4,$2,$3,$4,$5,$6,$7,$8,$9,$2,$3,0*
0 Add four circle primitives for the rounded corners*
1,1,$1+$1,$2,$3*
1,1,$1+$1,$4,$5*
1,1,$1+$1,$6,$7*
1,1,$1+$1,$8,$9*
0 Add four rect primitives between the rounded corners*
20,1,$1+$1,$2,$3,$4,$5,0*
20,1,$1+$1,$4,$5,$6,$7,0*
20,1,$1+$1,$6,$7,$8,$9,0*
20,1,$1+$1,$8,$9,$2,$3,0*%
G04 Aperture macros list end*
%TA.AperFunction,ComponentPad*%
%ADD10R,1.700000X1.700000*%
%TD*%
%TA.AperFunction,ComponentPad*%
%ADD11C,1.700000*%
%TD*%
%TA.AperFunction,ComponentPad*%
%ADD12RoundRect,0.190500X0.444500X-1.079500X0.444500X1.079500X-0.444500X1.079500X-0.444500X-1.079500X0*%
%TD*%
%TA.AperFunction,ComponentPad*%
%ADD13O,1.270000X2.540000*%
%TD*%
%TA.AperFunction,ComponentPad*%
%ADD14C,1.400000*%
%TD*%
%TA.AperFunction,ComponentPad*%
%ADD15R,1.600000X2.200000*%
%TD*%
%TA.AperFunction,ComponentPad*%
%ADD16C,1.600000*%
%TD*%
%TA.AperFunction,ComponentPad*%
%ADD17C,2.200000*%
%TD*%
%TA.AperFunction,ComponentPad*%
%ADD18RoundRect,0.250000X-0.550000X-0.550000X0.550000X-0.550000X0.550000X0.550000X-0.550000X0.550000X0*%
%TD*%
%TA.AperFunction,ComponentPad*%
%ADD19R,1.600000X1.600000*%
%TD*%
%TA.AperFunction,ViaPad*%
%ADD20C,0.600000*%
%TD*%
%TA.AperFunction,Conductor*%
%ADD21C,0.200000*%
%TD*%
G04 APERTURE END LIST*
D10*
X108000000Y-138710000D03*
D11*
X108000000Y-141250000D03*
X108000000Y-143790000D03*
D12*
X119920000Y-89700000D03*
D13*
X122460000Y-89700000D03*
X125000000Y-89700000D03*
X127540000Y-89700000D03*
X130080000Y-89700000D03*
X132620000Y-89700000D03*
X135160000Y-89700000D03*
X135160000Y-77000000D03*
X132620000Y-77000000D03*
X130080000Y-77000000D03*
X127540000Y-77000000D03*
X125000000Y-77000000D03*
X122460000Y-77000000D03*
X119920000Y-77000000D03*
D12*
X100850000Y-99450000D03*
D13*
X103390000Y-99450000D03*
X105930000Y-99450000D03*
X108470000Y-99450000D03*
X111010000Y-99450000D03*
X113550000Y-99450000D03*
X116090000Y-99450000D03*
X116090000Y-86750000D03*
X113550000Y-86750000D03*
X111010000Y-86750000D03*
X108470000Y-86750000D03*
X105930000Y-86750000D03*
X103390000Y-86750000D03*
X100850000Y-86750000D03*
D14*
X102600000Y-158290000D03*
X102600000Y-155750000D03*
D10*
X149250000Y-128710000D03*
D11*
X149250000Y-131250000D03*
X149250000Y-133790000D03*
X149250000Y-136330000D03*
X149250000Y-138870000D03*
D14*
X105750000Y-158290000D03*
X105750000Y-155750000D03*
D10*
X105460000Y-138710000D03*
D11*
X105460000Y-141250000D03*
X105460000Y-143790000D03*
D15*
X117260000Y-126960000D03*
D16*
X117260000Y-129500000D03*
X117260000Y-132040000D03*
X117260000Y-134580000D03*
X117260000Y-137120000D03*
X132500000Y-134580000D03*
X132500000Y-132040000D03*
X132500000Y-129500000D03*
D10*
X102000000Y-107250000D03*
D11*
X102000000Y-109790000D03*
X102000000Y-112330000D03*
X102000000Y-114870000D03*
D16*
X139500000Y-115750000D03*
X144500000Y-115750000D03*
D14*
X108900000Y-158290000D03*
X108900000Y-155750000D03*
D17*
X148500000Y-86000000D03*
X148500000Y-88540000D03*
X148500000Y-91080000D03*
X148500000Y-93620000D03*
D16*
X149290000Y-143000000D03*
X146750000Y-143000000D03*
X144210000Y-143000000D03*
X141670000Y-143000000D03*
X139130000Y-143000000D03*
X136590000Y-143000000D03*
X134050000Y-143000000D03*
X131510000Y-143000000D03*
X128970000Y-143000000D03*
X126430000Y-143000000D03*
X123890000Y-143000000D03*
X121350000Y-143000000D03*
X118810000Y-143000000D03*
X116270000Y-143000000D03*
X116270000Y-158240000D03*
X118810000Y-158240000D03*
X121350000Y-158240000D03*
X123890000Y-158240000D03*
X126430000Y-158240000D03*
X128970000Y-158240000D03*
X131510000Y-158240000D03*
X134050000Y-158240000D03*
X136590000Y-158240000D03*
X139130000Y-158240000D03*
X141670000Y-158240000D03*
X144210000Y-158240000D03*
X146750000Y-158240000D03*
X149290000Y-158240000D03*
D10*
X102920000Y-138710000D03*
D11*
X102920000Y-141250000D03*
X102920000Y-143790000D03*
D10*
X149500000Y-100000000D03*
D11*
X149500000Y-102540000D03*
X149500000Y-105080000D03*
X149500000Y-107620000D03*
X149500000Y-110160000D03*
X149500000Y-112700000D03*
X149500000Y-115240000D03*
X149500000Y-117780000D03*
D18*
X140597349Y-106750000D03*
D16*
X143097349Y-106750000D03*
X133900000Y-117140000D03*
X131360000Y-117140000D03*
X128820000Y-117140000D03*
X126280000Y-117140000D03*
X123740000Y-117140000D03*
X121200000Y-117140000D03*
X118660000Y-117140000D03*
X116120000Y-117140000D03*
D19*
X116120000Y-114600000D03*
D16*
X118660000Y-114600000D03*
X121200000Y-114600000D03*
X123740000Y-114600000D03*
X126280000Y-114600000D03*
X128820000Y-114600000D03*
X131360000Y-114600000D03*
X133900000Y-114600000D03*
D20*
X110200000Y-148600000D03*
X128400000Y-148700000D03*
X126900000Y-124400000D03*
X110200000Y-116300000D03*
X110300000Y-118100000D03*
X125600000Y-125800000D03*
X124200000Y-127200000D03*
X110300000Y-119800000D03*
X122700000Y-128500000D03*
X110300000Y-121700000D03*
D21*
X118500000Y-109700000D02*
X120100000Y-108100000D01*
X123800000Y-87100000D02*
X123800000Y-92300000D01*
X132000000Y-86400000D02*
X124500000Y-86400000D01*
X112800000Y-150500000D02*
X112800000Y-110700000D01*
X113800000Y-109700000D02*
X118500000Y-109700000D01*
X120100000Y-103300000D02*
X118900000Y-102100000D01*
X112800000Y-110700000D02*
X113800000Y-109700000D01*
X118750000Y-153100000D02*
X115400000Y-153100000D01*
X135160000Y-83240000D02*
X132000000Y-86400000D01*
X120100000Y-108100000D02*
X120100000Y-103300000D01*
X123890000Y-158240000D02*
X118750000Y-153100000D01*
X124500000Y-86400000D02*
X123800000Y-87100000D01*
X119900000Y-96200000D02*
X123800000Y-92300000D01*
X118900000Y-102100000D02*
X118900000Y-98400000D01*
X115400000Y-153100000D02*
X112800000Y-150500000D01*
X118900000Y-98400000D02*
X119900000Y-97400000D01*
X119900000Y-97400000D02*
X119900000Y-96200000D01*
X135160000Y-77000000D02*
X135160000Y-83240000D01*
X111800000Y-150800000D02*
X115200000Y-154200000D01*
X117900000Y-103200000D02*
X118900000Y-104200000D01*
X118900000Y-107700000D02*
X118000000Y-108600000D01*
X116090000Y-90590000D02*
X118700000Y-93200000D01*
X113700000Y-108600000D02*
X111800000Y-110500000D01*
X118900000Y-107500000D02*
X118900000Y-107700000D01*
X117900000Y-97800000D02*
X117900000Y-103200000D01*
X118000000Y-108600000D02*
X113700000Y-108600000D01*
X118900000Y-104200000D02*
X118900000Y-107500000D01*
X118500000Y-154200000D02*
X121350000Y-157050000D01*
X118700000Y-97000000D02*
X117900000Y-97800000D01*
X116090000Y-86750000D02*
X116090000Y-90590000D01*
X115200000Y-154200000D02*
X118500000Y-154200000D01*
X121350000Y-157050000D02*
X121350000Y-158240000D01*
X111800000Y-110500000D02*
X111800000Y-150800000D01*
X118700000Y-93200000D02*
X118700000Y-97000000D01*
X101200000Y-160300000D02*
X140900000Y-160300000D01*
X98900000Y-158000000D02*
X101200000Y-160300000D01*
X141670000Y-152230000D02*
X141670000Y-158240000D01*
X140900000Y-160300000D02*
X141700000Y-159500000D01*
X105460000Y-138710000D02*
X105460000Y-135860000D01*
X146750000Y-143000000D02*
X146750000Y-147150000D01*
X105460000Y-135860000D02*
X104100000Y-134500000D01*
X141670000Y-159470000D02*
X141670000Y-158240000D01*
X100600000Y-134500000D02*
X98900000Y-136200000D01*
X141700000Y-159500000D02*
X141670000Y-159470000D01*
X104100000Y-134500000D02*
X100600000Y-134500000D01*
X146750000Y-147150000D02*
X141670000Y-152230000D01*
X98900000Y-136200000D02*
X98900000Y-158000000D01*
X115600000Y-136400000D02*
X115600000Y-138000000D01*
X117260000Y-129500000D02*
X119100000Y-131340000D01*
X129000000Y-142970000D02*
X128970000Y-143000000D01*
X129000000Y-141900000D02*
X129000000Y-142970000D01*
X116229500Y-135770500D02*
X115600000Y-136400000D01*
X119100000Y-135400000D02*
X118729500Y-135770500D01*
X117800000Y-140200000D02*
X127300000Y-140200000D01*
X119100000Y-131340000D02*
X119100000Y-135400000D01*
X127300000Y-140200000D02*
X129000000Y-141900000D01*
X115600000Y-138000000D02*
X117800000Y-140200000D01*
X118729500Y-135770500D02*
X116229500Y-135770500D01*
X126430000Y-141830000D02*
X126430000Y-143000000D01*
X117200000Y-141100000D02*
X125700000Y-141100000D01*
X125700000Y-141100000D02*
X126430000Y-141830000D01*
X117260000Y-132040000D02*
X114700000Y-134600000D01*
X114700000Y-134600000D02*
X114700000Y-138600000D01*
X114700000Y-138600000D02*
X117200000Y-141100000D01*
X119340000Y-139200000D02*
X117260000Y-137120000D01*
X131510000Y-143000000D02*
X131510000Y-140810000D01*
X131510000Y-140810000D02*
X129900000Y-139200000D01*
X129900000Y-139200000D02*
X119340000Y-139200000D01*
X134900000Y-129640000D02*
X134900000Y-126500000D01*
X132500000Y-132040000D02*
X134900000Y-129640000D01*
X134900000Y-126500000D02*
X139400000Y-122000000D01*
X148120000Y-117780000D02*
X149500000Y-117780000D01*
X139400000Y-122000000D02*
X143900000Y-122000000D01*
X143900000Y-122000000D02*
X148120000Y-117780000D01*
X132500000Y-126900000D02*
X132500000Y-129500000D01*
X149500000Y-115240000D02*
X144140000Y-120600000D01*
X144140000Y-120600000D02*
X138800000Y-120600000D01*
X138800000Y-120600000D02*
X132500000Y-126900000D01*
X123740000Y-120760000D02*
X123740000Y-117140000D01*
X131510000Y-156810000D02*
X126600000Y-151900000D01*
X126600000Y-151900000D02*
X116300000Y-151900000D01*
X121400000Y-123100000D02*
X123740000Y-120760000D01*
X131510000Y-158240000D02*
X131510000Y-156810000D01*
X115500000Y-123100000D02*
X121400000Y-123100000D01*
X113700000Y-124900000D02*
X115500000Y-123100000D01*
X116300000Y-151900000D02*
X113700000Y-149300000D01*
X113700000Y-149300000D02*
X113700000Y-124900000D01*
X142300000Y-113500000D02*
X145600000Y-110200000D01*
X146000000Y-110100000D02*
X146060000Y-110160000D01*
X145600000Y-110100000D02*
X146000000Y-110100000D01*
X130200000Y-126300000D02*
X137500000Y-119000000D01*
X137500000Y-119000000D02*
X140400000Y-119000000D01*
X139130000Y-152030000D02*
X132800000Y-145700000D01*
X130300000Y-136000000D02*
X130300000Y-126400000D01*
X130300000Y-126400000D02*
X130200000Y-126300000D01*
X132800000Y-145700000D02*
X132800000Y-138500000D01*
X145600000Y-110200000D02*
X145600000Y-110100000D01*
X139130000Y-158240000D02*
X139130000Y-152030000D01*
X132800000Y-138500000D02*
X130300000Y-136000000D01*
X142300000Y-117100000D02*
X142300000Y-113500000D01*
X140400000Y-119000000D02*
X142300000Y-117100000D01*
X146060000Y-110160000D02*
X149500000Y-110160000D01*
M02*
