%TF.GenerationSoftware,KiCad,Pcbnew,10.0.1*%
%TF.CreationDate,2026-05-10T20:31:06-04:00*%
%TF.ProjectId,TeensyDRV8874-In2_Cu (1),5465656e-7379-4445-9256-383837342d49,rev?*%
%TF.SameCoordinates,Original*%
%TF.FileFunction,Copper,L4,Bot*%
%TF.FilePolarity,Positive*%
%FSLAX46Y46*%
G04 Gerber Fmt 4.6, Leading zero omitted, Abs format (unit mm)*
G04 Created by KiCad (PCBNEW 10.0.1) date 2026-05-10 20:31:06*
%MOMM*%
%LPD*%
G01*
G04 APERTURE LIST*
G04 Aperture macros list*
%AMRoundRect*
0 Rectangle with rounded corners*
0 $1 Rounding radius*
0 $2 $3 $4 $5 $6 $7 $8 $9 X,Y pos of 4 corners*
0 Add a 4 corners polygon primitive as box body*
4,1,4,$2,$3,$4,$5,$6,$7,$8,$9,$2,$3,0*
0 Add four circle primitives for the rounded corners*
1,1,$1+$1,$2,$3*
1,1,$1+$1,$4,$5*
1,1,$1+$1,$6,$7*
1,1,$1+$1,$8,$9*
0 Add four rect primitives between the rounded corners*
20,1,$1+$1,$2,$3,$4,$5,0*
20,1,$1+$1,$4,$5,$6,$7,0*
20,1,$1+$1,$6,$7,$8,$9,0*
20,1,$1+$1,$8,$9,$2,$3,0*%
G04 Aperture macros list end*
%TA.AperFunction,ComponentPad*%
%ADD10R,1.700000X1.700000*%
%TD*%
%TA.AperFunction,ComponentPad*%
%ADD11C,1.700000*%
%TD*%
%TA.AperFunction,ComponentPad*%
%ADD12RoundRect,0.190500X0.444500X-1.079500X0.444500X1.079500X-0.444500X1.079500X-0.444500X-1.079500X0*%
%TD*%
%TA.AperFunction,ComponentPad*%
%ADD13O,1.270000X2.540000*%
%TD*%
%TA.AperFunction,ComponentPad*%
%ADD14C,1.400000*%
%TD*%
%TA.AperFunction,ComponentPad*%
%ADD15R,1.600000X2.200000*%
%TD*%
%TA.AperFunction,ComponentPad*%
%ADD16C,1.600000*%
%TD*%
%TA.AperFunction,ComponentPad*%
%ADD17C,2.200000*%
%TD*%
%TA.AperFunction,ComponentPad*%
%ADD18RoundRect,0.250000X-0.550000X-0.550000X0.550000X-0.550000X0.550000X0.550000X-0.550000X0.550000X0*%
%TD*%
%TA.AperFunction,ComponentPad*%
%ADD19R,1.600000X1.600000*%
%TD*%
%TA.AperFunction,ViaPad*%
%ADD20C,0.600000*%
%TD*%
%TA.AperFunction,Conductor*%
%ADD21C,0.200000*%
%TD*%
G04 APERTURE END LIST*
D10*
X108000000Y-138710000D03*
D11*
X108000000Y-141250000D03*
X108000000Y-143790000D03*
D12*
X119920000Y-89700000D03*
D13*
X122460000Y-89700000D03*
X125000000Y-89700000D03*
X127540000Y-89700000D03*
X130080000Y-89700000D03*
X132620000Y-89700000D03*
X135160000Y-89700000D03*
X135160000Y-77000000D03*
X132620000Y-77000000D03*
X130080000Y-77000000D03*
X127540000Y-77000000D03*
X125000000Y-77000000D03*
X122460000Y-77000000D03*
X119920000Y-77000000D03*
D12*
X100850000Y-99450000D03*
D13*
X103390000Y-99450000D03*
X105930000Y-99450000D03*
X108470000Y-99450000D03*
X111010000Y-99450000D03*
X113550000Y-99450000D03*
X116090000Y-99450000D03*
X116090000Y-86750000D03*
X113550000Y-86750000D03*
X111010000Y-86750000D03*
X108470000Y-86750000D03*
X105930000Y-86750000D03*
X103390000Y-86750000D03*
X100850000Y-86750000D03*
D14*
X102600000Y-158290000D03*
X102600000Y-155750000D03*
D10*
X149250000Y-128710000D03*
D11*
X149250000Y-131250000D03*
X149250000Y-133790000D03*
X149250000Y-136330000D03*
X149250000Y-138870000D03*
D14*
X105750000Y-158290000D03*
X105750000Y-155750000D03*
D10*
X105460000Y-138710000D03*
D11*
X105460000Y-141250000D03*
X105460000Y-143790000D03*
D15*
X117260000Y-126960000D03*
D16*
X117260000Y-129500000D03*
X117260000Y-132040000D03*
X117260000Y-134580000D03*
X117260000Y-137120000D03*
X132500000Y-134580000D03*
X132500000Y-132040000D03*
X132500000Y-129500000D03*
D10*
X102000000Y-107250000D03*
D11*
X102000000Y-109790000D03*
X102000000Y-112330000D03*
X102000000Y-114870000D03*
D16*
X139500000Y-115750000D03*
X144500000Y-115750000D03*
D14*
X108900000Y-158290000D03*
X108900000Y-155750000D03*
D17*
X148500000Y-86000000D03*
X148500000Y-88540000D03*
X148500000Y-91080000D03*
X148500000Y-93620000D03*
D16*
X149290000Y-143000000D03*
X146750000Y-143000000D03*
X144210000Y-143000000D03*
X141670000Y-143000000D03*
X139130000Y-143000000D03*
X136590000Y-143000000D03*
X134050000Y-143000000D03*
X131510000Y-143000000D03*
X128970000Y-143000000D03*
X126430000Y-143000000D03*
X123890000Y-143000000D03*
X121350000Y-143000000D03*
X118810000Y-143000000D03*
X116270000Y-143000000D03*
X116270000Y-158240000D03*
X118810000Y-158240000D03*
X121350000Y-158240000D03*
X123890000Y-158240000D03*
X126430000Y-158240000D03*
X128970000Y-158240000D03*
X131510000Y-158240000D03*
X134050000Y-158240000D03*
X136590000Y-158240000D03*
X139130000Y-158240000D03*
X141670000Y-158240000D03*
X144210000Y-158240000D03*
X146750000Y-158240000D03*
X149290000Y-158240000D03*
D10*
X102920000Y-138710000D03*
D11*
X102920000Y-141250000D03*
X102920000Y-143790000D03*
D10*
X149500000Y-100000000D03*
D11*
X149500000Y-102540000D03*
X149500000Y-105080000D03*
X149500000Y-107620000D03*
X149500000Y-110160000D03*
X149500000Y-112700000D03*
X149500000Y-115240000D03*
X149500000Y-117780000D03*
D18*
X140597349Y-106750000D03*
D16*
X143097349Y-106750000D03*
X133900000Y-117140000D03*
X131360000Y-117140000D03*
X128820000Y-117140000D03*
X126280000Y-117140000D03*
X123740000Y-117140000D03*
X121200000Y-117140000D03*
X118660000Y-117140000D03*
X116120000Y-117140000D03*
D19*
X116120000Y-114600000D03*
D16*
X118660000Y-114600000D03*
X121200000Y-114600000D03*
X123740000Y-114600000D03*
X126280000Y-114600000D03*
X128820000Y-114600000D03*
X131360000Y-114600000D03*
X133900000Y-114600000D03*
D20*
X110200000Y-148600000D03*
X128400000Y-148700000D03*
X126900000Y-124400000D03*
X110200000Y-116300000D03*
X110300000Y-118100000D03*
X125600000Y-125800000D03*
X124200000Y-127200000D03*
X110300000Y-119800000D03*
X122700000Y-128500000D03*
X110300000Y-121700000D03*
D21*
X115000000Y-148700000D02*
X128400000Y-148700000D01*
X114900000Y-148600000D02*
X115000000Y-148700000D01*
X110200000Y-148600000D02*
X114900000Y-148600000D01*
X114200000Y-120300000D02*
X110200000Y-116300000D01*
X122800000Y-120300000D02*
X114200000Y-120300000D01*
X126900000Y-124400000D02*
X122800000Y-120300000D01*
X125600000Y-125800000D02*
X121600000Y-121800000D01*
X114000000Y-121800000D02*
X110300000Y-118100000D01*
X121600000Y-121800000D02*
X114000000Y-121800000D01*
X113600000Y-123100000D02*
X110300000Y-119800000D01*
X120100000Y-123100000D02*
X113600000Y-123100000D01*
X124200000Y-127200000D02*
X120100000Y-123100000D01*
X118600000Y-124400000D02*
X113000000Y-124400000D01*
X113000000Y-124400000D02*
X110300000Y-121700000D01*
X122700000Y-128500000D02*
X118600000Y-124400000D01*
%TA.AperFunction,Conductor*%
G36*
X108163518Y-72618954D02*
G01*
X108244300Y-72672930D01*
X108298276Y-72753712D01*
X108317230Y-72849000D01*
X108298276Y-72944288D01*
X108244300Y-73025070D01*
X108192731Y-73064640D01*
X108046770Y-73148911D01*
X107840711Y-73307025D01*
X107657025Y-73490711D01*
X107498911Y-73696770D01*
X107369032Y-73921725D01*
X107369030Y-73921729D01*
X107269632Y-74161697D01*
X107202403Y-74412603D01*
X107168500Y-74670126D01*
X107168500Y-74929873D01*
X107198151Y-75155102D01*
X107202404Y-75187401D01*
X107221176Y-75257459D01*
X107269632Y-75438302D01*
X107369030Y-75678270D01*
X107369032Y-75678274D01*
X107369033Y-75678276D01*
X107498908Y-75903225D01*
X107498910Y-75903228D01*
X107498911Y-75903229D01*
X107657025Y-76109288D01*
X107657029Y-76109292D01*
X107657033Y-76109297D01*
X107840703Y-76292967D01*
X107840707Y-76292970D01*
X107840711Y-76292974D01*
X108013921Y-76425882D01*
X108046775Y-76451092D01*
X108271724Y-76580967D01*
X108271729Y-76580969D01*
X108511697Y-76680367D01*
X108511701Y-76680368D01*
X108762599Y-76747596D01*
X109020126Y-76781500D01*
X109279874Y-76781500D01*
X109537401Y-76747596D01*
X109788299Y-76680368D01*
X109788300Y-76680367D01*
X109788302Y-76680367D01*
X109868291Y-76647234D01*
X110028276Y-76580967D01*
X110253225Y-76451092D01*
X110459297Y-76292967D01*
X110476640Y-76275624D01*
X118784500Y-76275624D01*
X118784500Y-77724375D01*
X118812459Y-77900894D01*
X118812460Y-77900897D01*
X118867691Y-78070881D01*
X118948833Y-78230132D01*
X119053889Y-78374728D01*
X119180272Y-78501111D01*
X119324868Y-78606167D01*
X119484119Y-78687309D01*
X119654103Y-78742540D01*
X119716190Y-78752373D01*
X119830624Y-78770499D01*
X119830631Y-78770499D01*
X119830634Y-78770500D01*
X119830637Y-78770500D01*
X120009363Y-78770500D01*
X120009366Y-78770500D01*
X120009369Y-78770499D01*
X120009375Y-78770499D01*
X120092765Y-78757290D01*
X120185897Y-78742540D01*
X120355881Y-78687309D01*
X120515132Y-78606167D01*
X120659728Y-78501111D01*
X120786111Y-78374728D01*
X120891167Y-78230132D01*
X120972309Y-78070881D01*
X121027540Y-77900897D01*
X121055500Y-77724366D01*
X121055500Y-76275634D01*
X121055499Y-76275631D01*
X121055499Y-76275624D01*
X123864500Y-76275624D01*
X123864500Y-77724375D01*
X123892459Y-77900894D01*
X123892460Y-77900897D01*
X123947691Y-78070881D01*
X124028833Y-78230132D01*
X124133889Y-78374728D01*
X124260272Y-78501111D01*
X124404868Y-78606167D01*
X124564119Y-78687309D01*
X124734103Y-78742540D01*
X124796190Y-78752373D01*
X124910624Y-78770499D01*
X124910631Y-78770499D01*
X124910634Y-78770500D01*
X124910637Y-78770500D01*
X125089363Y-78770500D01*
X125089366Y-78770500D01*
X125089369Y-78770499D01*
X125089375Y-78770499D01*
X125172765Y-78757290D01*
X125265897Y-78742540D01*
X125435881Y-78687309D01*
X125595132Y-78606167D01*
X125739728Y-78501111D01*
X125866111Y-78374728D01*
X125971167Y-78230132D01*
X126048140Y-78079061D01*
X126108287Y-78002766D01*
X126193054Y-77955294D01*
X126289536Y-77943875D01*
X126383043Y-77970246D01*
X126459341Y-78030394D01*
X126491858Y-78079060D01*
X126568833Y-78230132D01*
X126673889Y-78374728D01*
X126800272Y-78501111D01*
X126944868Y-78606167D01*
X127104119Y-78687309D01*
X127274103Y-78742540D01*
X127336190Y-78752373D01*
X127450624Y-78770499D01*
X127450631Y-78770499D01*
X127450634Y-78770500D01*
X127450637Y-78770500D01*
X127629363Y-78770500D01*
X127629366Y-78770500D01*
X127629369Y-78770499D01*
X127629375Y-78770499D01*
X127712765Y-78757290D01*
X127805897Y-78742540D01*
X127975881Y-78687309D01*
X128135132Y-78606167D01*
X128279728Y-78501111D01*
X128406111Y-78374728D01*
X128511167Y-78230132D01*
X128588140Y-78079061D01*
X128648287Y-78002766D01*
X128733054Y-77955294D01*
X128829536Y-77943875D01*
X128923043Y-77970246D01*
X128999341Y-78030394D01*
X129031858Y-78079060D01*
X129108833Y-78230132D01*
X129213889Y-78374728D01*
X129340272Y-78501111D01*
X129484868Y-78606167D01*
X129644119Y-78687309D01*
X129814103Y-78742540D01*
X129876190Y-78752373D01*
X129990624Y-78770499D01*
X129990631Y-78770499D01*
X129990634Y-78770500D01*
X129990637Y-78770500D01*
X130169363Y-78770500D01*
X130169366Y-78770500D01*
X130169369Y-78770499D01*
X130169375Y-78770499D01*
X130252765Y-78757290D01*
X130345897Y-78742540D01*
X130515881Y-78687309D01*
X130675132Y-78606167D01*
X130819728Y-78501111D01*
X130946111Y-78374728D01*
X131051167Y-78230132D01*
X131128140Y-78079061D01*
X131188287Y-78002766D01*
X131273054Y-77955294D01*
X131369536Y-77943875D01*
X131463043Y-77970246D01*
X131539341Y-78030394D01*
X131571858Y-78079060D01*
X131648833Y-78230132D01*
X131753889Y-78374728D01*
X131880272Y-78501111D01*
X132024868Y-78606167D01*
X132184119Y-78687309D01*
X132354103Y-78742540D01*
X132416190Y-78752373D01*
X132530624Y-78770499D01*
X132530631Y-78770499D01*
X132530634Y-78770500D01*
X132530637Y-78770500D01*
X132709363Y-78770500D01*
X132709366Y-78770500D01*
X132709369Y-78770499D01*
X132709375Y-78770499D01*
X132792765Y-78757290D01*
X132885897Y-78742540D01*
X133055881Y-78687309D01*
X133215132Y-78606167D01*
X133359728Y-78501111D01*
X133486111Y-78374728D01*
X133591167Y-78230132D01*
X133668140Y-78079061D01*
X133728287Y-78002766D01*
X133813054Y-77955294D01*
X133909536Y-77943875D01*
X134003043Y-77970246D01*
X134079341Y-78030394D01*
X134111858Y-78079060D01*
X134188833Y-78230132D01*
X134293889Y-78374728D01*
X134420272Y-78501111D01*
X134564868Y-78606167D01*
X134724119Y-78687309D01*
X134894103Y-78742540D01*
X134956190Y-78752373D01*
X135070624Y-78770499D01*
X135070631Y-78770499D01*
X135070634Y-78770500D01*
X135070637Y-78770500D01*
X135249363Y-78770500D01*
X135249366Y-78770500D01*
X135249369Y-78770499D01*
X135249375Y-78770499D01*
X135332765Y-78757290D01*
X135425897Y-78742540D01*
X135595881Y-78687309D01*
X135755132Y-78606167D01*
X135899728Y-78501111D01*
X136026111Y-78374728D01*
X136131167Y-78230132D01*
X136212309Y-78070881D01*
X136267540Y-77900897D01*
X136295500Y-77724366D01*
X136295500Y-76275634D01*
X136295499Y-76275631D01*
X136295499Y-76275624D01*
X136277373Y-76161190D01*
X136267540Y-76099103D01*
X136212309Y-75929119D01*
X136131167Y-75769868D01*
X136026111Y-75625272D01*
X135899728Y-75498889D01*
X135755132Y-75393833D01*
X135595881Y-75312691D01*
X135425897Y-75257460D01*
X135425894Y-75257459D01*
X135249375Y-75229500D01*
X135249366Y-75229500D01*
X135070634Y-75229500D01*
X135070624Y-75229500D01*
X134894105Y-75257459D01*
X134724124Y-75312689D01*
X134724119Y-75312691D01*
X134564868Y-75393833D01*
X134420274Y-75498887D01*
X134293887Y-75625274D01*
X134239332Y-75700362D01*
X134188833Y-75769868D01*
X134111859Y-75920938D01*
X134051713Y-75997233D01*
X133966945Y-76044705D01*
X133870464Y-76056124D01*
X133776956Y-76029753D01*
X133700659Y-75969605D01*
X133668141Y-75920939D01*
X133591167Y-75769868D01*
X133486111Y-75625272D01*
X133359728Y-75498889D01*
X133215132Y-75393833D01*
X133055881Y-75312691D01*
X132885897Y-75257460D01*
X132885894Y-75257459D01*
X132709375Y-75229500D01*
X132709366Y-75229500D01*
X132530634Y-75229500D01*
X132530624Y-75229500D01*
X132354105Y-75257459D01*
X132184124Y-75312689D01*
X132184119Y-75312691D01*
X132024868Y-75393833D01*
X131880274Y-75498887D01*
X131753887Y-75625274D01*
X131699332Y-75700362D01*
X131648833Y-75769868D01*
X131571859Y-75920938D01*
X131511713Y-75997233D01*
X131426945Y-76044705D01*
X131330464Y-76056124D01*
X131236956Y-76029753D01*
X131160659Y-75969605D01*
X131128141Y-75920939D01*
X131051167Y-75769868D01*
X130946111Y-75625272D01*
X130819728Y-75498889D01*
X130675132Y-75393833D01*
X130515881Y-75312691D01*
X130345897Y-75257460D01*
X130345894Y-75257459D01*
X130169375Y-75229500D01*
X130169366Y-75229500D01*
X129990634Y-75229500D01*
X129990624Y-75229500D01*
X129814105Y-75257459D01*
X129644124Y-75312689D01*
X129644119Y-75312691D01*
X129484868Y-75393833D01*
X129340274Y-75498887D01*
X129213887Y-75625274D01*
X129159332Y-75700362D01*
X129108833Y-75769868D01*
X129031859Y-75920938D01*
X128971713Y-75997233D01*
X128886945Y-76044705D01*
X128790464Y-76056124D01*
X128696956Y-76029753D01*
X128620659Y-75969605D01*
X128588141Y-75920939D01*
X128511167Y-75769868D01*
X128406111Y-75625272D01*
X128279728Y-75498889D01*
X128135132Y-75393833D01*
X127975881Y-75312691D01*
X127805897Y-75257460D01*
X127805894Y-75257459D01*
X127629375Y-75229500D01*
X127629366Y-75229500D01*
X127450634Y-75229500D01*
X127450624Y-75229500D01*
X127274105Y-75257459D01*
X127104124Y-75312689D01*
X127104119Y-75312691D01*
X126944868Y-75393833D01*
X126800274Y-75498887D01*
X126673887Y-75625274D01*
X126619332Y-75700362D01*
X126568833Y-75769868D01*
X126491859Y-75920938D01*
X126431713Y-75997233D01*
X126346945Y-76044705D01*
X126250464Y-76056124D01*
X126156956Y-76029753D01*
X126080659Y-75969605D01*
X126048141Y-75920939D01*
X125971167Y-75769868D01*
X125866111Y-75625272D01*
X125739728Y-75498889D01*
X125595132Y-75393833D01*
X125435881Y-75312691D01*
X125265897Y-75257460D01*
X125265894Y-75257459D01*
X125089375Y-75229500D01*
X125089366Y-75229500D01*
X124910634Y-75229500D01*
X124910624Y-75229500D01*
X124734105Y-75257459D01*
X124564124Y-75312689D01*
X124564119Y-75312691D01*
X124404868Y-75393833D01*
X124260274Y-75498887D01*
X124133887Y-75625274D01*
X124028833Y-75769868D01*
X123947691Y-75929119D01*
X123947689Y-75929124D01*
X123892459Y-76099105D01*
X123864500Y-76275624D01*
X121055499Y-76275624D01*
X121037373Y-76161190D01*
X121027540Y-76099103D01*
X120972309Y-75929119D01*
X120891167Y-75769868D01*
X120786111Y-75625272D01*
X120659728Y-75498889D01*
X120515132Y-75393833D01*
X120355881Y-75312691D01*
X120185897Y-75257460D01*
X120185894Y-75257459D01*
X120009375Y-75229500D01*
X120009366Y-75229500D01*
X119830634Y-75229500D01*
X119830624Y-75229500D01*
X119654105Y-75257459D01*
X119484124Y-75312689D01*
X119484119Y-75312691D01*
X119324868Y-75393833D01*
X119180274Y-75498887D01*
X119053887Y-75625274D01*
X118948833Y-75769868D01*
X118867691Y-75929119D01*
X118867689Y-75929124D01*
X118812459Y-76099105D01*
X118784500Y-76275624D01*
X110476640Y-76275624D01*
X110642967Y-76109297D01*
X110801092Y-75903225D01*
X110930967Y-75678276D01*
X111030368Y-75438299D01*
X111097596Y-75187401D01*
X111131500Y-74929874D01*
X111131500Y-74670126D01*
X111097596Y-74412599D01*
X111030368Y-74161701D01*
X111030367Y-74161697D01*
X110930969Y-73921729D01*
X110930967Y-73921725D01*
X110930967Y-73921724D01*
X110801092Y-73696775D01*
X110775882Y-73663921D01*
X110642974Y-73490711D01*
X110642970Y-73490707D01*
X110642967Y-73490703D01*
X110459297Y-73307033D01*
X110459292Y-73307029D01*
X110459288Y-73307025D01*
X110253229Y-73148911D01*
X110253228Y-73148910D01*
X110253225Y-73148908D01*
X110107268Y-73064639D01*
X110034224Y-73000581D01*
X109991254Y-72913445D01*
X109984900Y-72816498D01*
X110016130Y-72724499D01*
X110080189Y-72651454D01*
X110167325Y-72608484D01*
X110231770Y-72600000D01*
X139768230Y-72600000D01*
X139863518Y-72618954D01*
X139944300Y-72672930D01*
X139998276Y-72753712D01*
X140017230Y-72849000D01*
X139998276Y-72944288D01*
X139944300Y-73025070D01*
X139892731Y-73064640D01*
X139746770Y-73148911D01*
X139540711Y-73307025D01*
X139357025Y-73490711D01*
X139198911Y-73696770D01*
X139069032Y-73921725D01*
X139069030Y-73921729D01*
X138969632Y-74161697D01*
X138902403Y-74412603D01*
X138868500Y-74670126D01*
X138868500Y-74929873D01*
X138898151Y-75155102D01*
X138902404Y-75187401D01*
X138921176Y-75257459D01*
X138969632Y-75438302D01*
X139069030Y-75678270D01*
X139069032Y-75678274D01*
X139069033Y-75678276D01*
X139198908Y-75903225D01*
X139198910Y-75903228D01*
X139198911Y-75903229D01*
X139357025Y-76109288D01*
X139357029Y-76109292D01*
X139357033Y-76109297D01*
X139540703Y-76292967D01*
X139540707Y-76292970D01*
X139540711Y-76292974D01*
X139713921Y-76425882D01*
X139746775Y-76451092D01*
X139971724Y-76580967D01*
X139971729Y-76580969D01*
X140211697Y-76680367D01*
X140211701Y-76680368D01*
X140462599Y-76747596D01*
X140720126Y-76781500D01*
X140979874Y-76781500D01*
X141237401Y-76747596D01*
X141488299Y-76680368D01*
X141488300Y-76680367D01*
X141488302Y-76680367D01*
X141568291Y-76647234D01*
X141728276Y-76580967D01*
X141953225Y-76451092D01*
X142159297Y-76292967D01*
X142170059Y-76282205D01*
X145938500Y-76282205D01*
X145938500Y-76577794D01*
X145971593Y-76871488D01*
X146037361Y-77159637D01*
X146134984Y-77438626D01*
X146236571Y-77649574D01*
X146263221Y-77704912D01*
X146420470Y-77955173D01*
X146604751Y-78186254D01*
X146813746Y-78395249D01*
X147044827Y-78579530D01*
X147295088Y-78736779D01*
X147478695Y-78825199D01*
X147561373Y-78865015D01*
X147561375Y-78865015D01*
X147561382Y-78865019D01*
X147840360Y-78962638D01*
X148128513Y-79028407D01*
X148312073Y-79049089D01*
X148422205Y-79061499D01*
X148422218Y-79061500D01*
X148717782Y-79061500D01*
X148717794Y-79061499D01*
X148801226Y-79052098D01*
X149011487Y-79028407D01*
X149299640Y-78962638D01*
X149578618Y-78865019D01*
X149844912Y-78736779D01*
X150095173Y-78579530D01*
X150326254Y-78395249D01*
X150535249Y-78186254D01*
X150719530Y-77955173D01*
X150876779Y-77704912D01*
X151005019Y-77438618D01*
X151102638Y-77159640D01*
X151168407Y-76871487D01*
X151201500Y-76577782D01*
X151201500Y-76282218D01*
X151200758Y-76275636D01*
X151182016Y-76109297D01*
X151168407Y-75988513D01*
X151102638Y-75700360D01*
X151005019Y-75421382D01*
X150876779Y-75155088D01*
X150719530Y-74904827D01*
X150535249Y-74673746D01*
X150326254Y-74464751D01*
X150095173Y-74280470D01*
X150095174Y-74280470D01*
X150095172Y-74280469D01*
X149986806Y-74212378D01*
X149844912Y-74123221D01*
X149789574Y-74096571D01*
X149578626Y-73994984D01*
X149578619Y-73994981D01*
X149578618Y-73994981D01*
X149299640Y-73897362D01*
X149299639Y-73897361D01*
X149299637Y-73897361D01*
X149011488Y-73831593D01*
X148717794Y-73798500D01*
X148717782Y-73798500D01*
X148422218Y-73798500D01*
X148422205Y-73798500D01*
X148128511Y-73831593D01*
X147840362Y-73897361D01*
X147561373Y-73994984D01*
X147295102Y-74123214D01*
X147295096Y-74123217D01*
X147295088Y-74123221D01*
X147295084Y-74123223D01*
X147295083Y-74123224D01*
X147044827Y-74280469D01*
X146813749Y-74464748D01*
X146813741Y-74464755D01*
X146604755Y-74673741D01*
X146604748Y-74673749D01*
X146420469Y-74904827D01*
X146263224Y-75155083D01*
X146263214Y-75155102D01*
X146134984Y-75421373D01*
X146037361Y-75700362D01*
X145971593Y-75988511D01*
X145938500Y-76282205D01*
X142170059Y-76282205D01*
X142342967Y-76109297D01*
X142501092Y-75903225D01*
X142630967Y-75678276D01*
X142730368Y-75438299D01*
X142797596Y-75187401D01*
X142831500Y-74929874D01*
X142831500Y-74670126D01*
X142797596Y-74412599D01*
X142730368Y-74161701D01*
X142730367Y-74161697D01*
X142630969Y-73921729D01*
X142630967Y-73921725D01*
X142630967Y-73921724D01*
X142501092Y-73696775D01*
X142475882Y-73663921D01*
X142342974Y-73490711D01*
X142342970Y-73490707D01*
X142342967Y-73490703D01*
X142159297Y-73307033D01*
X142159292Y-73307029D01*
X142159288Y-73307025D01*
X141953229Y-73148911D01*
X141953228Y-73148910D01*
X141953225Y-73148908D01*
X141807268Y-73064639D01*
X141734224Y-73000581D01*
X141691254Y-72913445D01*
X141684900Y-72816498D01*
X141716130Y-72724499D01*
X141780189Y-72651454D01*
X141867325Y-72608484D01*
X141931770Y-72600000D01*
X152151233Y-72600000D01*
X152246521Y-72618954D01*
X152327303Y-72672930D01*
X152381279Y-72753712D01*
X152400233Y-72848767D01*
X152482978Y-161113919D01*
X152464113Y-161209224D01*
X152410213Y-161290056D01*
X152329482Y-161344109D01*
X152234211Y-161363152D01*
X98601768Y-161413431D01*
X98598222Y-161413409D01*
X97836352Y-161403270D01*
X97741324Y-161383050D01*
X97661268Y-161328003D01*
X97608371Y-161246511D01*
X97590665Y-161154243D01*
X97591826Y-155655523D01*
X101399500Y-155655523D01*
X101399500Y-155844476D01*
X101399501Y-155844492D01*
X101429059Y-156031114D01*
X101429060Y-156031118D01*
X101487453Y-156210832D01*
X101573240Y-156379199D01*
X101684310Y-156532073D01*
X101817927Y-156665690D01*
X101970801Y-156776760D01*
X102012760Y-156798139D01*
X102012762Y-156798140D01*
X102089059Y-156858288D01*
X102136530Y-156943056D01*
X102147949Y-157039537D01*
X102121577Y-157133045D01*
X102061429Y-157209342D01*
X102012762Y-157241860D01*
X101970802Y-157263239D01*
X101817931Y-157374306D01*
X101684306Y-157507931D01*
X101619033Y-157597772D01*
X101573240Y-157660801D01*
X101487453Y-157829168D01*
X101487451Y-157829172D01*
X101429059Y-158008885D01*
X101399501Y-158195507D01*
X101399500Y-158195523D01*
X101399500Y-158384476D01*
X101399501Y-158384492D01*
X101429059Y-158571114D01*
X101483679Y-158739219D01*
X101487453Y-158750832D01*
X101573240Y-158919199D01*
X101684310Y-159072073D01*
X101817927Y-159205690D01*
X101970801Y-159316760D01*
X102139168Y-159402547D01*
X102318882Y-159460940D01*
X102505519Y-159490500D01*
X102505523Y-159490500D01*
X102694477Y-159490500D01*
X102694481Y-159490500D01*
X102881118Y-159460940D01*
X103060832Y-159402547D01*
X103229199Y-159316760D01*
X103382073Y-159205690D01*
X103515690Y-159072073D01*
X103626760Y-158919199D01*
X103712547Y-158750832D01*
X103770940Y-158571118D01*
X103800500Y-158384481D01*
X103800500Y-158195519D01*
X103770940Y-158008882D01*
X103712547Y-157829168D01*
X103626760Y-157660801D01*
X103515690Y-157507927D01*
X103382073Y-157374310D01*
X103382069Y-157374307D01*
X103382068Y-157374306D01*
X103313628Y-157324582D01*
X103229199Y-157263240D01*
X103187236Y-157241859D01*
X103110941Y-157181713D01*
X103063469Y-157096946D01*
X103052050Y-157000465D01*
X103078421Y-156906957D01*
X103138569Y-156830659D01*
X103187238Y-156798140D01*
X103229199Y-156776760D01*
X103382073Y-156665690D01*
X103515690Y-156532073D01*
X103626760Y-156379199D01*
X103712547Y-156210832D01*
X103770940Y-156031118D01*
X103800500Y-155844481D01*
X103800500Y-155655523D01*
X104549500Y-155655523D01*
X104549500Y-155844476D01*
X104549501Y-155844492D01*
X104579059Y-156031114D01*
X104579060Y-156031118D01*
X104637453Y-156210832D01*
X104723240Y-156379199D01*
X104834310Y-156532073D01*
X104967927Y-156665690D01*
X105120801Y-156776760D01*
X105162760Y-156798139D01*
X105162762Y-156798140D01*
X105239059Y-156858288D01*
X105286530Y-156943056D01*
X105297949Y-157039537D01*
X105271577Y-157133045D01*
X105211429Y-157209342D01*
X105162762Y-157241860D01*
X105120802Y-157263239D01*
X104967931Y-157374306D01*
X104834306Y-157507931D01*
X104769033Y-157597772D01*
X104723240Y-157660801D01*
X104637453Y-157829168D01*
X104637451Y-157829172D01*
X104579059Y-158008885D01*
X104549501Y-158195507D01*
X104549500Y-158195523D01*
X104549500Y-158384476D01*
X104549501Y-158384492D01*
X104579059Y-158571114D01*
X104633679Y-158739219D01*
X104637453Y-158750832D01*
X104723240Y-158919199D01*
X104834310Y-159072073D01*
X104967927Y-159205690D01*
X105120801Y-159316760D01*
X105289168Y-159402547D01*
X105468882Y-159460940D01*
X105655519Y-159490500D01*
X105655523Y-159490500D01*
X105844477Y-159490500D01*
X105844481Y-159490500D01*
X106031118Y-159460940D01*
X106210832Y-159402547D01*
X106379199Y-159316760D01*
X106532073Y-159205690D01*
X106665690Y-159072073D01*
X106776760Y-158919199D01*
X106862547Y-158750832D01*
X106920940Y-158571118D01*
X106950500Y-158384481D01*
X106950500Y-158195519D01*
X106920940Y-158008882D01*
X106862547Y-157829168D01*
X106776760Y-157660801D01*
X106665690Y-157507927D01*
X106532073Y-157374310D01*
X106532069Y-157374307D01*
X106532068Y-157374306D01*
X106463628Y-157324582D01*
X106379199Y-157263240D01*
X106337236Y-157241859D01*
X106260941Y-157181713D01*
X106213469Y-157096946D01*
X106202050Y-157000465D01*
X106228421Y-156906957D01*
X106288569Y-156830659D01*
X106337238Y-156798140D01*
X106379199Y-156776760D01*
X106532073Y-156665690D01*
X106665690Y-156532073D01*
X106776760Y-156379199D01*
X106862547Y-156210832D01*
X106920940Y-156031118D01*
X106950500Y-155844481D01*
X106950500Y-155655523D01*
X107699500Y-155655523D01*
X107699500Y-155844476D01*
X107699501Y-155844492D01*
X107729059Y-156031114D01*
X107729060Y-156031118D01*
X107787453Y-156210832D01*
X107873240Y-156379199D01*
X107984310Y-156532073D01*
X108117927Y-156665690D01*
X108270801Y-156776760D01*
X108312760Y-156798139D01*
X108312762Y-156798140D01*
X108389059Y-156858288D01*
X108436530Y-156943056D01*
X108447949Y-157039537D01*
X108421577Y-157133045D01*
X108361429Y-157209342D01*
X108312762Y-157241860D01*
X108270802Y-157263239D01*
X108117931Y-157374306D01*
X107984306Y-157507931D01*
X107919033Y-157597772D01*
X107873240Y-157660801D01*
X107787453Y-157829168D01*
X107787451Y-157829172D01*
X107729059Y-158008885D01*
X107699501Y-158195507D01*
X107699500Y-158195523D01*
X107699500Y-158384476D01*
X107699501Y-158384492D01*
X107729059Y-158571114D01*
X107783679Y-158739219D01*
X107787453Y-158750832D01*
X107873240Y-158919199D01*
X107984310Y-159072073D01*
X108117927Y-159205690D01*
X108270801Y-159316760D01*
X108439168Y-159402547D01*
X108618882Y-159460940D01*
X108805519Y-159490500D01*
X108805523Y-159490500D01*
X108994477Y-159490500D01*
X108994481Y-159490500D01*
X109181118Y-159460940D01*
X109360832Y-159402547D01*
X109529199Y-159316760D01*
X109682073Y-159205690D01*
X109815690Y-159072073D01*
X109926760Y-158919199D01*
X110012547Y-158750832D01*
X110070940Y-158571118D01*
X110100500Y-158384481D01*
X110100500Y-158195519D01*
X110095954Y-158166815D01*
X110095954Y-158166811D01*
X110091333Y-158137638D01*
X114969500Y-158137638D01*
X114969500Y-158342361D01*
X115001522Y-158544531D01*
X115064778Y-158739214D01*
X115064782Y-158739224D01*
X115157711Y-158921607D01*
X115157713Y-158921610D01*
X115278034Y-159087219D01*
X115422781Y-159231966D01*
X115588390Y-159352287D01*
X115770781Y-159445220D01*
X115965466Y-159508477D01*
X116036575Y-159519739D01*
X116167638Y-159540499D01*
X116167645Y-159540499D01*
X116167648Y-159540500D01*
X116167651Y-159540500D01*
X116372349Y-159540500D01*
X116372352Y-159540500D01*
X116372355Y-159540499D01*
X116372361Y-159540499D01*
X116467870Y-159525371D01*
X116574534Y-159508477D01*
X116769219Y-159445220D01*
X116951610Y-159352287D01*
X117117219Y-159231966D01*
X117261966Y-159087219D01*
X117338555Y-158981801D01*
X117409897Y-158915854D01*
X117501047Y-158882227D01*
X117598127Y-158886041D01*
X117686358Y-158926715D01*
X117741443Y-158981800D01*
X117818034Y-159087219D01*
X117962781Y-159231966D01*
X118128390Y-159352287D01*
X118310781Y-159445220D01*
X118505466Y-159508477D01*
X118576575Y-159519739D01*
X118707638Y-159540499D01*
X118707645Y-159540499D01*
X118707648Y-159540500D01*
X118707651Y-159540500D01*
X118912349Y-159540500D01*
X118912352Y-159540500D01*
X118912355Y-159540499D01*
X118912361Y-159540499D01*
X119007870Y-159525371D01*
X119114534Y-159508477D01*
X119309219Y-159445220D01*
X119491610Y-159352287D01*
X119657219Y-159231966D01*
X119801966Y-159087219D01*
X119878555Y-158981801D01*
X119949897Y-158915854D01*
X120041047Y-158882227D01*
X120138127Y-158886041D01*
X120226358Y-158926715D01*
X120281443Y-158981800D01*
X120358034Y-159087219D01*
X120502781Y-159231966D01*
X120668390Y-159352287D01*
X120850781Y-159445220D01*
X121045466Y-159508477D01*
X121116575Y-159519739D01*
X121247638Y-159540499D01*
X121247645Y-159540499D01*
X121247648Y-159540500D01*
X121247651Y-159540500D01*
X121452349Y-159540500D01*
X121452352Y-159540500D01*
X121452355Y-159540499D01*
X121452361Y-159540499D01*
X121547870Y-159525371D01*
X121654534Y-159508477D01*
X121849219Y-159445220D01*
X122031610Y-159352287D01*
X122197219Y-159231966D01*
X122341966Y-159087219D01*
X122418555Y-158981801D01*
X122489897Y-158915854D01*
X122581047Y-158882227D01*
X122678127Y-158886041D01*
X122766358Y-158926715D01*
X122821443Y-158981800D01*
X122898034Y-159087219D01*
X123042781Y-159231966D01*
X123208390Y-159352287D01*
X123390781Y-159445220D01*
X123585466Y-159508477D01*
X123656575Y-159519739D01*
X123787638Y-159540499D01*
X123787645Y-159540499D01*
X123787648Y-159540500D01*
X123787651Y-159540500D01*
X123992349Y-159540500D01*
X123992352Y-159540500D01*
X123992355Y-159540499D01*
X123992361Y-159540499D01*
X124087870Y-159525371D01*
X124194534Y-159508477D01*
X124389219Y-159445220D01*
X124571610Y-159352287D01*
X124737219Y-159231966D01*
X124881966Y-159087219D01*
X124958555Y-158981801D01*
X125029897Y-158915854D01*
X125121047Y-158882227D01*
X125218127Y-158886041D01*
X125306358Y-158926715D01*
X125361443Y-158981800D01*
X125438034Y-159087219D01*
X125582781Y-159231966D01*
X125748390Y-159352287D01*
X125930781Y-159445220D01*
X126125466Y-159508477D01*
X126196575Y-159519739D01*
X126327638Y-159540499D01*
X126327645Y-159540499D01*
X126327648Y-159540500D01*
X126327651Y-159540500D01*
X126532349Y-159540500D01*
X126532352Y-159540500D01*
X126532355Y-159540499D01*
X126532361Y-159540499D01*
X126627870Y-159525371D01*
X126734534Y-159508477D01*
X126929219Y-159445220D01*
X127111610Y-159352287D01*
X127277219Y-159231966D01*
X127421966Y-159087219D01*
X127498555Y-158981801D01*
X127569897Y-158915854D01*
X127661047Y-158882227D01*
X127758127Y-158886041D01*
X127846358Y-158926715D01*
X127901443Y-158981800D01*
X127978034Y-159087219D01*
X128122781Y-159231966D01*
X128288390Y-159352287D01*
X128470781Y-159445220D01*
X128665466Y-159508477D01*
X128736575Y-159519739D01*
X128867638Y-159540499D01*
X128867645Y-159540499D01*
X128867648Y-159540500D01*
X128867651Y-159540500D01*
X129072349Y-159540500D01*
X129072352Y-159540500D01*
X129072355Y-159540499D01*
X129072361Y-159540499D01*
X129167870Y-159525371D01*
X129274534Y-159508477D01*
X129469219Y-159445220D01*
X129651610Y-159352287D01*
X129817219Y-159231966D01*
X129961966Y-159087219D01*
X130038555Y-158981801D01*
X130109897Y-158915854D01*
X130201047Y-158882227D01*
X130298127Y-158886041D01*
X130386358Y-158926715D01*
X130441443Y-158981800D01*
X130518034Y-159087219D01*
X130662781Y-159231966D01*
X130828390Y-159352287D01*
X131010781Y-159445220D01*
X131205466Y-159508477D01*
X131276575Y-159519739D01*
X131407638Y-159540499D01*
X131407645Y-159540499D01*
X131407648Y-159540500D01*
X131407651Y-159540500D01*
X131612349Y-159540500D01*
X131612352Y-159540500D01*
X131612355Y-159540499D01*
X131612361Y-159540499D01*
X131707870Y-159525371D01*
X131814534Y-159508477D01*
X132009219Y-159445220D01*
X132191610Y-159352287D01*
X132357219Y-159231966D01*
X132501966Y-159087219D01*
X132578555Y-158981801D01*
X132649897Y-158915854D01*
X132741047Y-158882227D01*
X132838127Y-158886041D01*
X132926358Y-158926715D01*
X132981443Y-158981800D01*
X133058034Y-159087219D01*
X133202781Y-159231966D01*
X133368390Y-159352287D01*
X133550781Y-159445220D01*
X133745466Y-159508477D01*
X133816575Y-159519739D01*
X133947638Y-159540499D01*
X133947645Y-159540499D01*
X133947648Y-159540500D01*
X133947651Y-159540500D01*
X134152349Y-159540500D01*
X134152352Y-159540500D01*
X134152355Y-159540499D01*
X134152361Y-159540499D01*
X134247870Y-159525371D01*
X134354534Y-159508477D01*
X134549219Y-159445220D01*
X134731610Y-159352287D01*
X134897219Y-159231966D01*
X135041966Y-159087219D01*
X135118555Y-158981801D01*
X135189897Y-158915854D01*
X135281047Y-158882227D01*
X135378127Y-158886041D01*
X135466358Y-158926715D01*
X135521443Y-158981800D01*
X135598034Y-159087219D01*
X135742781Y-159231966D01*
X135908390Y-159352287D01*
X136090781Y-159445220D01*
X136285466Y-159508477D01*
X136356575Y-159519739D01*
X136487638Y-159540499D01*
X136487645Y-159540499D01*
X136487648Y-159540500D01*
X136487651Y-159540500D01*
X136692349Y-159540500D01*
X136692352Y-159540500D01*
X136692355Y-159540499D01*
X136692361Y-159540499D01*
X136787870Y-159525371D01*
X136894534Y-159508477D01*
X137089219Y-159445220D01*
X137271610Y-159352287D01*
X137437219Y-159231966D01*
X137581966Y-159087219D01*
X137658555Y-158981801D01*
X137729897Y-158915854D01*
X137821047Y-158882227D01*
X137918127Y-158886041D01*
X138006358Y-158926715D01*
X138061443Y-158981800D01*
X138138034Y-159087219D01*
X138282781Y-159231966D01*
X138448390Y-159352287D01*
X138630781Y-159445220D01*
X138825466Y-159508477D01*
X138896575Y-159519739D01*
X139027638Y-159540499D01*
X139027645Y-159540499D01*
X139027648Y-159540500D01*
X139027651Y-159540500D01*
X139232349Y-159540500D01*
X139232352Y-159540500D01*
X139232355Y-159540499D01*
X139232361Y-159540499D01*
X139327870Y-159525371D01*
X139434534Y-159508477D01*
X139629219Y-159445220D01*
X139811610Y-159352287D01*
X139977219Y-159231966D01*
X140121966Y-159087219D01*
X140198555Y-158981801D01*
X140269897Y-158915854D01*
X140361047Y-158882227D01*
X140458127Y-158886041D01*
X140546358Y-158926715D01*
X140601443Y-158981800D01*
X140678034Y-159087219D01*
X140822781Y-159231966D01*
X140988390Y-159352287D01*
X141170781Y-159445220D01*
X141365466Y-159508477D01*
X141436575Y-159519739D01*
X141567638Y-159540499D01*
X141567645Y-159540499D01*
X141567648Y-159540500D01*
X141567651Y-159540500D01*
X141772349Y-159540500D01*
X141772352Y-159540500D01*
X141772355Y-159540499D01*
X141772361Y-159540499D01*
X141867870Y-159525371D01*
X141974534Y-159508477D01*
X142169219Y-159445220D01*
X142351610Y-159352287D01*
X142517219Y-159231966D01*
X142661966Y-159087219D01*
X142738555Y-158981801D01*
X142809897Y-158915854D01*
X142901047Y-158882227D01*
X142998127Y-158886041D01*
X143086358Y-158926715D01*
X143141443Y-158981800D01*
X143218034Y-159087219D01*
X143362781Y-159231966D01*
X143528390Y-159352287D01*
X143710781Y-159445220D01*
X143905466Y-159508477D01*
X143976575Y-159519739D01*
X144107638Y-159540499D01*
X144107645Y-159540499D01*
X144107648Y-159540500D01*
X144107651Y-159540500D01*
X144312349Y-159540500D01*
X144312352Y-159540500D01*
X144312355Y-159540499D01*
X144312361Y-159540499D01*
X144407870Y-159525371D01*
X144514534Y-159508477D01*
X144709219Y-159445220D01*
X144891610Y-159352287D01*
X145057219Y-159231966D01*
X145201966Y-159087219D01*
X145322287Y-158921610D01*
X145415220Y-158739219D01*
X145478477Y-158544534D01*
X145503826Y-158384492D01*
X145510499Y-158342361D01*
X145510500Y-158342349D01*
X145510500Y-158137650D01*
X145510499Y-158137638D01*
X147989500Y-158137638D01*
X147989500Y-158342361D01*
X148021522Y-158544531D01*
X148084778Y-158739214D01*
X148084782Y-158739224D01*
X148177711Y-158921607D01*
X148177713Y-158921610D01*
X148298034Y-159087219D01*
X148442781Y-159231966D01*
X148608390Y-159352287D01*
X148790781Y-159445220D01*
X148985466Y-159508477D01*
X149056575Y-159519739D01*
X149187638Y-159540499D01*
X149187645Y-159540499D01*
X149187648Y-159540500D01*
X149187651Y-159540500D01*
X149392349Y-159540500D01*
X149392352Y-159540500D01*
X149392355Y-159540499D01*
X149392361Y-159540499D01*
X149487870Y-159525371D01*
X149594534Y-159508477D01*
X149789219Y-159445220D01*
X149971610Y-159352287D01*
X150137219Y-159231966D01*
X150281966Y-159087219D01*
X150402287Y-158921610D01*
X150495220Y-158739219D01*
X150558477Y-158544534D01*
X150583826Y-158384492D01*
X150590499Y-158342361D01*
X150590500Y-158342349D01*
X150590500Y-158137650D01*
X150590499Y-158137638D01*
X150558477Y-157935468D01*
X150558477Y-157935466D01*
X150495220Y-157740781D01*
X150402287Y-157558390D01*
X150281966Y-157392781D01*
X150137219Y-157248034D01*
X149971610Y-157127713D01*
X149971609Y-157127712D01*
X149971607Y-157127711D01*
X149789224Y-157034782D01*
X149789214Y-157034778D01*
X149594531Y-156971522D01*
X149392361Y-156939500D01*
X149392352Y-156939500D01*
X149187648Y-156939500D01*
X149187638Y-156939500D01*
X148985468Y-156971522D01*
X148790785Y-157034778D01*
X148790775Y-157034782D01*
X148608392Y-157127711D01*
X148442779Y-157248035D01*
X148298035Y-157392779D01*
X148177711Y-157558392D01*
X148084782Y-157740775D01*
X148084778Y-157740785D01*
X148021522Y-157935468D01*
X147989500Y-158137638D01*
X145510499Y-158137638D01*
X145478477Y-157935468D01*
X145478477Y-157935466D01*
X145415220Y-157740781D01*
X145322287Y-157558390D01*
X145201966Y-157392781D01*
X145057219Y-157248034D01*
X144891610Y-157127713D01*
X144891609Y-157127712D01*
X144891607Y-157127711D01*
X144709224Y-157034782D01*
X144709214Y-157034778D01*
X144514531Y-156971522D01*
X144312361Y-156939500D01*
X144312352Y-156939500D01*
X144107648Y-156939500D01*
X144107638Y-156939500D01*
X143905468Y-156971522D01*
X143710785Y-157034778D01*
X143710775Y-157034782D01*
X143528392Y-157127711D01*
X143362779Y-157248035D01*
X143218033Y-157392781D01*
X143218030Y-157392785D01*
X143141445Y-157498196D01*
X143070102Y-157564145D01*
X142978952Y-157597772D01*
X142881872Y-157593958D01*
X142793642Y-157553283D01*
X142738555Y-157498196D01*
X142661969Y-157392785D01*
X142661966Y-157392781D01*
X142517220Y-157248035D01*
X142508722Y-157241861D01*
X142351610Y-157127713D01*
X142351609Y-157127712D01*
X142351607Y-157127711D01*
X142169224Y-157034782D01*
X142169214Y-157034778D01*
X141974531Y-156971522D01*
X141772361Y-156939500D01*
X141772352Y-156939500D01*
X141567648Y-156939500D01*
X141567638Y-156939500D01*
X141365468Y-156971522D01*
X141170785Y-157034778D01*
X141170775Y-157034782D01*
X140988392Y-157127711D01*
X140822779Y-157248035D01*
X140678033Y-157392781D01*
X140678030Y-157392785D01*
X140601445Y-157498196D01*
X140530102Y-157564145D01*
X140438952Y-157597772D01*
X140341872Y-157593958D01*
X140253642Y-157553283D01*
X140198555Y-157498196D01*
X140121969Y-157392785D01*
X140121966Y-157392781D01*
X139977220Y-157248035D01*
X139968722Y-157241861D01*
X139811610Y-157127713D01*
X139811609Y-157127712D01*
X139811607Y-157127711D01*
X139629224Y-157034782D01*
X139629214Y-157034778D01*
X139434531Y-156971522D01*
X139232361Y-156939500D01*
X139232352Y-156939500D01*
X139027648Y-156939500D01*
X139027638Y-156939500D01*
X138825468Y-156971522D01*
X138630785Y-157034778D01*
X138630775Y-157034782D01*
X138448392Y-157127711D01*
X138282779Y-157248035D01*
X138138033Y-157392781D01*
X138138030Y-157392785D01*
X138061445Y-157498196D01*
X137990102Y-157564145D01*
X137898952Y-157597772D01*
X137801872Y-157593958D01*
X137713642Y-157553283D01*
X137658555Y-157498196D01*
X137581969Y-157392785D01*
X137581966Y-157392781D01*
X137437220Y-157248035D01*
X137428722Y-157241861D01*
X137271610Y-157127713D01*
X137271609Y-157127712D01*
X137271607Y-157127711D01*
X137089224Y-157034782D01*
X137089214Y-157034778D01*
X136894531Y-156971522D01*
X136692361Y-156939500D01*
X136692352Y-156939500D01*
X136487648Y-156939500D01*
X136487638Y-156939500D01*
X136285468Y-156971522D01*
X136090785Y-157034778D01*
X136090775Y-157034782D01*
X135908392Y-157127711D01*
X135742779Y-157248035D01*
X135598033Y-157392781D01*
X135598030Y-157392785D01*
X135521445Y-157498196D01*
X135450102Y-157564145D01*
X135358952Y-157597772D01*
X135261872Y-157593958D01*
X135173642Y-157553283D01*
X135118555Y-157498196D01*
X135041969Y-157392785D01*
X135041966Y-157392781D01*
X134897220Y-157248035D01*
X134888722Y-157241861D01*
X134731610Y-157127713D01*
X134731609Y-157127712D01*
X134731607Y-157127711D01*
X134549224Y-157034782D01*
X134549214Y-157034778D01*
X134354531Y-156971522D01*
X134152361Y-156939500D01*
X134152352Y-156939500D01*
X133947648Y-156939500D01*
X133947638Y-156939500D01*
X133745468Y-156971522D01*
X133550785Y-157034778D01*
X133550775Y-157034782D01*
X133368392Y-157127711D01*
X133202779Y-157248035D01*
X133058033Y-157392781D01*
X133058030Y-157392785D01*
X132981445Y-157498196D01*
X132910102Y-157564145D01*
X132818952Y-157597772D01*
X132721872Y-157593958D01*
X132633642Y-157553283D01*
X132578555Y-157498196D01*
X132501969Y-157392785D01*
X132501966Y-157392781D01*
X132357220Y-157248035D01*
X132348722Y-157241861D01*
X132191610Y-157127713D01*
X132191609Y-157127712D01*
X132191607Y-157127711D01*
X132009224Y-157034782D01*
X132009214Y-157034778D01*
X131814531Y-156971522D01*
X131612361Y-156939500D01*
X131612352Y-156939500D01*
X131407648Y-156939500D01*
X131407638Y-156939500D01*
X131205468Y-156971522D01*
X131010785Y-157034778D01*
X131010775Y-157034782D01*
X130828392Y-157127711D01*
X130662779Y-157248035D01*
X130518033Y-157392781D01*
X130518030Y-157392785D01*
X130441445Y-157498196D01*
X130370102Y-157564145D01*
X130278952Y-157597772D01*
X130181872Y-157593958D01*
X130093642Y-157553283D01*
X130038555Y-157498196D01*
X129961969Y-157392785D01*
X129961966Y-157392781D01*
X129817220Y-157248035D01*
X129808722Y-157241861D01*
X129651610Y-157127713D01*
X129651609Y-157127712D01*
X129651607Y-157127711D01*
X129469224Y-157034782D01*
X129469214Y-157034778D01*
X129274531Y-156971522D01*
X129072361Y-156939500D01*
X129072352Y-156939500D01*
X128867648Y-156939500D01*
X128867638Y-156939500D01*
X128665468Y-156971522D01*
X128470785Y-157034778D01*
X128470775Y-157034782D01*
X128288392Y-157127711D01*
X128122779Y-157248035D01*
X127978033Y-157392781D01*
X127978030Y-157392785D01*
X127901445Y-157498196D01*
X127830102Y-157564145D01*
X127738952Y-157597772D01*
X127641872Y-157593958D01*
X127553642Y-157553283D01*
X127498555Y-157498196D01*
X127421969Y-157392785D01*
X127421966Y-157392781D01*
X127277220Y-157248035D01*
X127268722Y-157241861D01*
X127111610Y-157127713D01*
X127111609Y-157127712D01*
X127111607Y-157127711D01*
X126929224Y-157034782D01*
X126929214Y-157034778D01*
X126734531Y-156971522D01*
X126532361Y-156939500D01*
X126532352Y-156939500D01*
X126327648Y-156939500D01*
X126327638Y-156939500D01*
X126125468Y-156971522D01*
X125930785Y-157034778D01*
X125930775Y-157034782D01*
X125748392Y-157127711D01*
X125582779Y-157248035D01*
X125438033Y-157392781D01*
X125438030Y-157392785D01*
X125361445Y-157498196D01*
X125290102Y-157564145D01*
X125198952Y-157597772D01*
X125101872Y-157593958D01*
X125013642Y-157553283D01*
X124958555Y-157498196D01*
X124881969Y-157392785D01*
X124881966Y-157392781D01*
X124737220Y-157248035D01*
X124728722Y-157241861D01*
X124571610Y-157127713D01*
X124571609Y-157127712D01*
X124571607Y-157127711D01*
X124389224Y-157034782D01*
X124389214Y-157034778D01*
X124194531Y-156971522D01*
X123992361Y-156939500D01*
X123992352Y-156939500D01*
X123787648Y-156939500D01*
X123787638Y-156939500D01*
X123585468Y-156971522D01*
X123390785Y-157034778D01*
X123390775Y-157034782D01*
X123208392Y-157127711D01*
X123042779Y-157248035D01*
X122898033Y-157392781D01*
X122898030Y-157392785D01*
X122821445Y-157498196D01*
X122750102Y-157564145D01*
X122658952Y-157597772D01*
X122561872Y-157593958D01*
X122473642Y-157553283D01*
X122418555Y-157498196D01*
X122341969Y-157392785D01*
X122341966Y-157392781D01*
X122197220Y-157248035D01*
X122188722Y-157241861D01*
X122031610Y-157127713D01*
X122031609Y-157127712D01*
X122031607Y-157127711D01*
X121849224Y-157034782D01*
X121849214Y-157034778D01*
X121654531Y-156971522D01*
X121452361Y-156939500D01*
X121452352Y-156939500D01*
X121247648Y-156939500D01*
X121247638Y-156939500D01*
X121045468Y-156971522D01*
X120850785Y-157034778D01*
X120850775Y-157034782D01*
X120668392Y-157127711D01*
X120502779Y-157248035D01*
X120358033Y-157392781D01*
X120358030Y-157392785D01*
X120281445Y-157498196D01*
X120210102Y-157564145D01*
X120118952Y-157597772D01*
X120021872Y-157593958D01*
X119933642Y-157553283D01*
X119878555Y-157498196D01*
X119801969Y-157392785D01*
X119801966Y-157392781D01*
X119657220Y-157248035D01*
X119648722Y-157241861D01*
X119491610Y-157127713D01*
X119491609Y-157127712D01*
X119491607Y-157127711D01*
X119309224Y-157034782D01*
X119309214Y-157034778D01*
X119114531Y-156971522D01*
X118912361Y-156939500D01*
X118912352Y-156939500D01*
X118707648Y-156939500D01*
X118707638Y-156939500D01*
X118505468Y-156971522D01*
X118310785Y-157034778D01*
X118310775Y-157034782D01*
X118128392Y-157127711D01*
X117962779Y-157248035D01*
X117818033Y-157392781D01*
X117818030Y-157392785D01*
X117741445Y-157498196D01*
X117670102Y-157564145D01*
X117578952Y-157597772D01*
X117481872Y-157593958D01*
X117393642Y-157553283D01*
X117338555Y-157498196D01*
X117261969Y-157392785D01*
X117261966Y-157392781D01*
X117117220Y-157248035D01*
X117108722Y-157241861D01*
X116951610Y-157127713D01*
X116951609Y-157127712D01*
X116951607Y-157127711D01*
X116769224Y-157034782D01*
X116769214Y-157034778D01*
X116574531Y-156971522D01*
X116372361Y-156939500D01*
X116372352Y-156939500D01*
X116167648Y-156939500D01*
X116167638Y-156939500D01*
X115965468Y-156971522D01*
X115770785Y-157034778D01*
X115770775Y-157034782D01*
X115588392Y-157127711D01*
X115422779Y-157248035D01*
X115278035Y-157392779D01*
X115157711Y-157558392D01*
X115064782Y-157740775D01*
X115064778Y-157740785D01*
X115001522Y-157935468D01*
X114969500Y-158137638D01*
X110091333Y-158137638D01*
X110070940Y-158008885D01*
X110070940Y-158008882D01*
X110012547Y-157829168D01*
X109926760Y-157660801D01*
X109815690Y-157507927D01*
X109682073Y-157374310D01*
X109682069Y-157374307D01*
X109682068Y-157374306D01*
X109613628Y-157324582D01*
X109529199Y-157263240D01*
X109487236Y-157241859D01*
X109410941Y-157181713D01*
X109363469Y-157096946D01*
X109352050Y-157000465D01*
X109378421Y-156906957D01*
X109438569Y-156830659D01*
X109487238Y-156798140D01*
X109529199Y-156776760D01*
X109682073Y-156665690D01*
X109815690Y-156532073D01*
X109926760Y-156379199D01*
X110012547Y-156210832D01*
X110070940Y-156031118D01*
X110100500Y-155844481D01*
X110100500Y-155655519D01*
X110070940Y-155468882D01*
X110012547Y-155289168D01*
X109926760Y-155120801D01*
X109815690Y-154967927D01*
X109682073Y-154834310D01*
X109682069Y-154834307D01*
X109682068Y-154834306D01*
X109641005Y-154804472D01*
X109529199Y-154723240D01*
X109360832Y-154637453D01*
X109360829Y-154637452D01*
X109360827Y-154637451D01*
X109260893Y-154604980D01*
X109181118Y-154579060D01*
X109181116Y-154579059D01*
X109181114Y-154579059D01*
X108994492Y-154549501D01*
X108994483Y-154549500D01*
X108994481Y-154549500D01*
X108805519Y-154549500D01*
X108805516Y-154549500D01*
X108805507Y-154549501D01*
X108618885Y-154579059D01*
X108439172Y-154637451D01*
X108439168Y-154637452D01*
X108439168Y-154637453D01*
X108270801Y-154723240D01*
X108270800Y-154723241D01*
X108117931Y-154834306D01*
X107984306Y-154967931D01*
X107873241Y-155120800D01*
X107787451Y-155289172D01*
X107729059Y-155468885D01*
X107699501Y-155655507D01*
X107699500Y-155655523D01*
X106950500Y-155655523D01*
X106950500Y-155655519D01*
X106920940Y-155468882D01*
X106862547Y-155289168D01*
X106776760Y-155120801D01*
X106665690Y-154967927D01*
X106532073Y-154834310D01*
X106532069Y-154834307D01*
X106532068Y-154834306D01*
X106491005Y-154804472D01*
X106379199Y-154723240D01*
X106210832Y-154637453D01*
X106210829Y-154637452D01*
X106210827Y-154637451D01*
X106110893Y-154604980D01*
X106031118Y-154579060D01*
X106031116Y-154579059D01*
X106031114Y-154579059D01*
X105844492Y-154549501D01*
X105844483Y-154549500D01*
X105844481Y-154549500D01*
X105655519Y-154549500D01*
X105655516Y-154549500D01*
X105655507Y-154549501D01*
X105468885Y-154579059D01*
X105289172Y-154637451D01*
X105289168Y-154637452D01*
X105289168Y-154637453D01*
X105120801Y-154723240D01*
X105120800Y-154723241D01*
X104967931Y-154834306D01*
X104834306Y-154967931D01*
X104723241Y-155120800D01*
X104637451Y-155289172D01*
X104579059Y-155468885D01*
X104549501Y-155655507D01*
X104549500Y-155655523D01*
X103800500Y-155655523D01*
X103800500Y-155655519D01*
X103770940Y-155468882D01*
X103712547Y-155289168D01*
X103626760Y-155120801D01*
X103515690Y-154967927D01*
X103382073Y-154834310D01*
X103382069Y-154834307D01*
X103382068Y-154834306D01*
X103341005Y-154804472D01*
X103229199Y-154723240D01*
X103060832Y-154637453D01*
X103060829Y-154637452D01*
X103060827Y-154637451D01*
X102960893Y-154604980D01*
X102881118Y-154579060D01*
X102881116Y-154579059D01*
X102881114Y-154579059D01*
X102694492Y-154549501D01*
X102694483Y-154549500D01*
X102694481Y-154549500D01*
X102505519Y-154549500D01*
X102505516Y-154549500D01*
X102505507Y-154549501D01*
X102318885Y-154579059D01*
X102139172Y-154637451D01*
X102139168Y-154637452D01*
X102139168Y-154637453D01*
X101970801Y-154723240D01*
X101970800Y-154723241D01*
X101817931Y-154834306D01*
X101684306Y-154967931D01*
X101573241Y-155120800D01*
X101487451Y-155289172D01*
X101429059Y-155468885D01*
X101399501Y-155655507D01*
X101399500Y-155655523D01*
X97591826Y-155655523D01*
X97593333Y-148521153D01*
X109399500Y-148521153D01*
X109399500Y-148678846D01*
X109430261Y-148833492D01*
X109430263Y-148833497D01*
X109490603Y-148979173D01*
X109490606Y-148979180D01*
X109578208Y-149110285D01*
X109578211Y-149110289D01*
X109689711Y-149221789D01*
X109689714Y-149221791D01*
X109820819Y-149309393D01*
X109820820Y-149309393D01*
X109820821Y-149309394D01*
X109966503Y-149369737D01*
X109966505Y-149369737D01*
X109966507Y-149369738D01*
X110117148Y-149399702D01*
X110121158Y-149400500D01*
X110278842Y-149400500D01*
X110433497Y-149369737D01*
X110579179Y-149309394D01*
X110679347Y-149242464D01*
X110769107Y-149205284D01*
X110817684Y-149200500D01*
X114599172Y-149200500D01*
X114686033Y-149216141D01*
X114705592Y-149223421D01*
X114768216Y-149259577D01*
X114880019Y-149289534D01*
X114920942Y-149300500D01*
X114920943Y-149300500D01*
X127782316Y-149300500D01*
X127877604Y-149319454D01*
X127920654Y-149342464D01*
X128020821Y-149409394D01*
X128166503Y-149469737D01*
X128166505Y-149469737D01*
X128166507Y-149469738D01*
X128317148Y-149499702D01*
X128321158Y-149500500D01*
X128478842Y-149500500D01*
X128633497Y-149469737D01*
X128779179Y-149409394D01*
X128910289Y-149321789D01*
X129021789Y-149210289D01*
X129109394Y-149079179D01*
X129169737Y-148933497D01*
X129200500Y-148778842D01*
X129200500Y-148621158D01*
X129169737Y-148466503D01*
X129109394Y-148320821D01*
X129021789Y-148189711D01*
X128910289Y-148078211D01*
X128897043Y-148069360D01*
X128779180Y-147990606D01*
X128779173Y-147990603D01*
X128633497Y-147930263D01*
X128633492Y-147930261D01*
X128478846Y-147899500D01*
X128478842Y-147899500D01*
X128321158Y-147899500D01*
X128321153Y-147899500D01*
X128166507Y-147930261D01*
X128166502Y-147930263D01*
X128020826Y-147990603D01*
X128020819Y-147990607D01*
X127920653Y-148057536D01*
X127830893Y-148094716D01*
X127782316Y-148099500D01*
X115300828Y-148099500D01*
X115205540Y-148080546D01*
X115176328Y-148066140D01*
X115131784Y-148040422D01*
X115131781Y-148040421D01*
X114979057Y-147999499D01*
X114820943Y-147999499D01*
X114805682Y-147999499D01*
X114805666Y-147999500D01*
X110817684Y-147999500D01*
X110722396Y-147980546D01*
X110679347Y-147957536D01*
X110638527Y-147930261D01*
X110579179Y-147890606D01*
X110579176Y-147890604D01*
X110579173Y-147890603D01*
X110433497Y-147830263D01*
X110433492Y-147830261D01*
X110278846Y-147799500D01*
X110278842Y-147799500D01*
X110121158Y-147799500D01*
X110121153Y-147799500D01*
X109966507Y-147830261D01*
X109966502Y-147830263D01*
X109820826Y-147890603D01*
X109820819Y-147890606D01*
X109689714Y-147978208D01*
X109578208Y-148089714D01*
X109490606Y-148220819D01*
X109490603Y-148220826D01*
X109430263Y-148366502D01*
X109430261Y-148366507D01*
X109399500Y-148521153D01*
X97593333Y-148521153D01*
X97595594Y-137812123D01*
X101569500Y-137812123D01*
X101569500Y-139607865D01*
X101569500Y-139607868D01*
X101569501Y-139607872D01*
X101571567Y-139627093D01*
X101575908Y-139667480D01*
X101575909Y-139667483D01*
X101626204Y-139802331D01*
X101712454Y-139917546D01*
X101827669Y-140003796D01*
X101827670Y-140003796D01*
X101841927Y-140014469D01*
X101839572Y-140017614D01*
X101888869Y-140058825D01*
X101933889Y-140144919D01*
X101942536Y-140241689D01*
X101913492Y-140334401D01*
X101894739Y-140361633D01*
X101895647Y-140362293D01*
X101764950Y-140542182D01*
X101668441Y-140731592D01*
X101602753Y-140933759D01*
X101569500Y-141143703D01*
X101569500Y-141356296D01*
X101602753Y-141566240D01*
X101656456Y-141731522D01*
X101668443Y-141768412D01*
X101764949Y-141957816D01*
X101851446Y-142076869D01*
X101889897Y-142129793D01*
X102040207Y-142280103D01*
X102093131Y-142318555D01*
X102159080Y-142389899D01*
X102192707Y-142481049D01*
X102188892Y-142578129D01*
X102148217Y-142666359D01*
X102093131Y-142721445D01*
X102040207Y-142759896D01*
X101889897Y-142910206D01*
X101764950Y-143082182D01*
X101668441Y-143271592D01*
X101602753Y-143473759D01*
X101569500Y-143683703D01*
X101569500Y-143896296D01*
X101602753Y-144106240D01*
X101602754Y-144106243D01*
X101668443Y-144308412D01*
X101764949Y-144497816D01*
X101889896Y-144669792D01*
X102040208Y-144820104D01*
X102212184Y-144945051D01*
X102401588Y-145041557D01*
X102603757Y-145107246D01*
X102677601Y-145118941D01*
X102813703Y-145140499D01*
X102813710Y-145140499D01*
X102813713Y-145140500D01*
X102813716Y-145140500D01*
X103026284Y-145140500D01*
X103026287Y-145140500D01*
X103026290Y-145140499D01*
X103026296Y-145140499D01*
X103125476Y-145124789D01*
X103236243Y-145107246D01*
X103438412Y-145041557D01*
X103627816Y-144945051D01*
X103799792Y-144820104D01*
X103950104Y-144669792D01*
X103988555Y-144616867D01*
X104059897Y-144550920D01*
X104151047Y-144517293D01*
X104248127Y-144521107D01*
X104336358Y-144561781D01*
X104391444Y-144616867D01*
X104429896Y-144669792D01*
X104580208Y-144820104D01*
X104752184Y-144945051D01*
X104941588Y-145041557D01*
X105143757Y-145107246D01*
X105217601Y-145118941D01*
X105353703Y-145140499D01*
X105353710Y-145140499D01*
X105353713Y-145140500D01*
X105353716Y-145140500D01*
X105566284Y-145140500D01*
X105566287Y-145140500D01*
X105566290Y-145140499D01*
X105566296Y-145140499D01*
X105665476Y-145124789D01*
X105776243Y-145107246D01*
X105978412Y-145041557D01*
X106167816Y-144945051D01*
X106339792Y-144820104D01*
X106490104Y-144669792D01*
X106528555Y-144616867D01*
X106599897Y-144550920D01*
X106691047Y-144517293D01*
X106788127Y-144521107D01*
X106876358Y-144561781D01*
X106931444Y-144616867D01*
X106969896Y-144669792D01*
X107120208Y-144820104D01*
X107292184Y-144945051D01*
X107481588Y-145041557D01*
X107683757Y-145107246D01*
X107757601Y-145118941D01*
X107893703Y-145140499D01*
X107893710Y-145140499D01*
X107893713Y-145140500D01*
X107893716Y-145140500D01*
X108106284Y-145140500D01*
X108106287Y-145140500D01*
X108106290Y-145140499D01*
X108106296Y-145140499D01*
X108205476Y-145124789D01*
X108316243Y-145107246D01*
X108518412Y-145041557D01*
X108707816Y-144945051D01*
X108879792Y-144820104D01*
X109030104Y-144669792D01*
X109155051Y-144497816D01*
X109251557Y-144308412D01*
X109317246Y-144106243D01*
X109350500Y-143896287D01*
X109350500Y-143683713D01*
X109350499Y-143683710D01*
X109350499Y-143683703D01*
X109328941Y-143547601D01*
X109317246Y-143473757D01*
X109251557Y-143271588D01*
X109155051Y-143082184D01*
X109030104Y-142910208D01*
X109017534Y-142897638D01*
X114969500Y-142897638D01*
X114969500Y-143102361D01*
X115001522Y-143304531D01*
X115064778Y-143499214D01*
X115064782Y-143499224D01*
X115154780Y-143675854D01*
X115157713Y-143681610D01*
X115278034Y-143847219D01*
X115422781Y-143991966D01*
X115588390Y-144112287D01*
X115770781Y-144205220D01*
X115965466Y-144268477D01*
X116036575Y-144279739D01*
X116167638Y-144300499D01*
X116167645Y-144300499D01*
X116167648Y-144300500D01*
X116167651Y-144300500D01*
X116372349Y-144300500D01*
X116372352Y-144300500D01*
X116372355Y-144300499D01*
X116372361Y-144300499D01*
X116467870Y-144285371D01*
X116574534Y-144268477D01*
X116769219Y-144205220D01*
X116951610Y-144112287D01*
X117117219Y-143991966D01*
X117261966Y-143847219D01*
X117338555Y-143741801D01*
X117409897Y-143675854D01*
X117501047Y-143642227D01*
X117598127Y-143646041D01*
X117686358Y-143686715D01*
X117741443Y-143741800D01*
X117818034Y-143847219D01*
X117962781Y-143991966D01*
X118128390Y-144112287D01*
X118310781Y-144205220D01*
X118505466Y-144268477D01*
X118576575Y-144279739D01*
X118707638Y-144300499D01*
X118707645Y-144300499D01*
X118707648Y-144300500D01*
X118707651Y-144300500D01*
X118912349Y-144300500D01*
X118912352Y-144300500D01*
X118912355Y-144300499D01*
X118912361Y-144300499D01*
X119007870Y-144285371D01*
X119114534Y-144268477D01*
X119309219Y-144205220D01*
X119491610Y-144112287D01*
X119657219Y-143991966D01*
X119801966Y-143847219D01*
X119878555Y-143741801D01*
X119949897Y-143675854D01*
X120041047Y-143642227D01*
X120138127Y-143646041D01*
X120226358Y-143686715D01*
X120281443Y-143741800D01*
X120358034Y-143847219D01*
X120502781Y-143991966D01*
X120668390Y-144112287D01*
X120850781Y-144205220D01*
X121045466Y-144268477D01*
X121116575Y-144279739D01*
X121247638Y-144300499D01*
X121247645Y-144300499D01*
X121247648Y-144300500D01*
X121247651Y-144300500D01*
X121452349Y-144300500D01*
X121452352Y-144300500D01*
X121452355Y-144300499D01*
X121452361Y-144300499D01*
X121547870Y-144285371D01*
X121654534Y-144268477D01*
X121849219Y-144205220D01*
X122031610Y-144112287D01*
X122197219Y-143991966D01*
X122341966Y-143847219D01*
X122418555Y-143741801D01*
X122489897Y-143675854D01*
X122581047Y-143642227D01*
X122678127Y-143646041D01*
X122766358Y-143686715D01*
X122821443Y-143741800D01*
X122898034Y-143847219D01*
X123042781Y-143991966D01*
X123208390Y-144112287D01*
X123390781Y-144205220D01*
X123585466Y-144268477D01*
X123656575Y-144279739D01*
X123787638Y-144300499D01*
X123787645Y-144300499D01*
X123787648Y-144300500D01*
X123787651Y-144300500D01*
X123992349Y-144300500D01*
X123992352Y-144300500D01*
X123992355Y-144300499D01*
X123992361Y-144300499D01*
X124087870Y-144285371D01*
X124194534Y-144268477D01*
X124389219Y-144205220D01*
X124571610Y-144112287D01*
X124737219Y-143991966D01*
X124881966Y-143847219D01*
X124958555Y-143741801D01*
X125029897Y-143675854D01*
X125121047Y-143642227D01*
X125218127Y-143646041D01*
X125306358Y-143686715D01*
X125361443Y-143741800D01*
X125438034Y-143847219D01*
X125582781Y-143991966D01*
X125748390Y-144112287D01*
X125930781Y-144205220D01*
X126125466Y-144268477D01*
X126196575Y-144279739D01*
X126327638Y-144300499D01*
X126327645Y-144300499D01*
X126327648Y-144300500D01*
X126327651Y-144300500D01*
X126532349Y-144300500D01*
X126532352Y-144300500D01*
X126532355Y-144300499D01*
X126532361Y-144300499D01*
X126627870Y-144285371D01*
X126734534Y-144268477D01*
X126929219Y-144205220D01*
X127111610Y-144112287D01*
X127277219Y-143991966D01*
X127421966Y-143847219D01*
X127498555Y-143741801D01*
X127569897Y-143675854D01*
X127661047Y-143642227D01*
X127758127Y-143646041D01*
X127846358Y-143686715D01*
X127901443Y-143741800D01*
X127978034Y-143847219D01*
X128122781Y-143991966D01*
X128288390Y-144112287D01*
X128470781Y-144205220D01*
X128665466Y-144268477D01*
X128736575Y-144279739D01*
X128867638Y-144300499D01*
X128867645Y-144300499D01*
X128867648Y-144300500D01*
X128867651Y-144300500D01*
X129072349Y-144300500D01*
X129072352Y-144300500D01*
X129072355Y-144300499D01*
X129072361Y-144300499D01*
X129167870Y-144285371D01*
X129274534Y-144268477D01*
X129469219Y-144205220D01*
X129651610Y-144112287D01*
X129817219Y-143991966D01*
X129961966Y-143847219D01*
X130038555Y-143741801D01*
X130109897Y-143675854D01*
X130201047Y-143642227D01*
X130298127Y-143646041D01*
X130386358Y-143686715D01*
X130441443Y-143741800D01*
X130518034Y-143847219D01*
X130662781Y-143991966D01*
X130828390Y-144112287D01*
X131010781Y-144205220D01*
X131205466Y-144268477D01*
X131276575Y-144279739D01*
X131407638Y-144300499D01*
X131407645Y-144300499D01*
X131407648Y-144300500D01*
X131407651Y-144300500D01*
X131612349Y-144300500D01*
X131612352Y-144300500D01*
X131612355Y-144300499D01*
X131612361Y-144300499D01*
X131707870Y-144285371D01*
X131814534Y-144268477D01*
X132009219Y-144205220D01*
X132191610Y-144112287D01*
X132357219Y-143991966D01*
X132501966Y-143847219D01*
X132578555Y-143741801D01*
X132649897Y-143675854D01*
X132741047Y-143642227D01*
X132838127Y-143646041D01*
X132926358Y-143686715D01*
X132981443Y-143741800D01*
X133058034Y-143847219D01*
X133202781Y-143991966D01*
X133368390Y-144112287D01*
X133550781Y-144205220D01*
X133745466Y-144268477D01*
X133816575Y-144279739D01*
X133947638Y-144300499D01*
X133947645Y-144300499D01*
X133947648Y-144300500D01*
X133947651Y-144300500D01*
X134152349Y-144300500D01*
X134152352Y-144300500D01*
X134152355Y-144300499D01*
X134152361Y-144300499D01*
X134247870Y-144285371D01*
X134354534Y-144268477D01*
X134549219Y-144205220D01*
X134731610Y-144112287D01*
X134897219Y-143991966D01*
X135041966Y-143847219D01*
X135118555Y-143741801D01*
X135189897Y-143675854D01*
X135281047Y-143642227D01*
X135378127Y-143646041D01*
X135466358Y-143686715D01*
X135521443Y-143741800D01*
X135598034Y-143847219D01*
X135742781Y-143991966D01*
X135908390Y-144112287D01*
X136090781Y-144205220D01*
X136285466Y-144268477D01*
X136356575Y-144279739D01*
X136487638Y-144300499D01*
X136487645Y-144300499D01*
X136487648Y-144300500D01*
X136487651Y-144300500D01*
X136692349Y-144300500D01*
X136692352Y-144300500D01*
X136692355Y-144300499D01*
X136692361Y-144300499D01*
X136787870Y-144285371D01*
X136894534Y-144268477D01*
X137089219Y-144205220D01*
X137271610Y-144112287D01*
X137437219Y-143991966D01*
X137581966Y-143847219D01*
X137658555Y-143741801D01*
X137729897Y-143675854D01*
X137821047Y-143642227D01*
X137918127Y-143646041D01*
X138006358Y-143686715D01*
X138061443Y-143741800D01*
X138138034Y-143847219D01*
X138282781Y-143991966D01*
X138448390Y-144112287D01*
X138630781Y-144205220D01*
X138825466Y-144268477D01*
X138896575Y-144279739D01*
X139027638Y-144300499D01*
X139027645Y-144300499D01*
X139027648Y-144300500D01*
X139027651Y-144300500D01*
X139232349Y-144300500D01*
X139232352Y-144300500D01*
X139232355Y-144300499D01*
X139232361Y-144300499D01*
X139327870Y-144285371D01*
X139434534Y-144268477D01*
X139629219Y-144205220D01*
X139811610Y-144112287D01*
X139977219Y-143991966D01*
X140121966Y-143847219D01*
X140198555Y-143741801D01*
X140269897Y-143675854D01*
X140361047Y-143642227D01*
X140458127Y-143646041D01*
X140546358Y-143686715D01*
X140601443Y-143741800D01*
X140678034Y-143847219D01*
X140822781Y-143991966D01*
X140988390Y-144112287D01*
X141170781Y-144205220D01*
X141365466Y-144268477D01*
X141436575Y-144279739D01*
X141567638Y-144300499D01*
X141567645Y-144300499D01*
X141567648Y-144300500D01*
X141567651Y-144300500D01*
X141772349Y-144300500D01*
X141772352Y-144300500D01*
X141772355Y-144300499D01*
X141772361Y-144300499D01*
X141867870Y-144285371D01*
X141974534Y-144268477D01*
X142169219Y-144205220D01*
X142351610Y-144112287D01*
X142517219Y-143991966D01*
X142661966Y-143847219D01*
X142738555Y-143741801D01*
X142809897Y-143675854D01*
X142901047Y-143642227D01*
X142998127Y-143646041D01*
X143086358Y-143686715D01*
X143141443Y-143741800D01*
X143218034Y-143847219D01*
X143362781Y-143991966D01*
X143528390Y-144112287D01*
X143710781Y-144205220D01*
X143905466Y-144268477D01*
X143976575Y-144279739D01*
X144107638Y-144300499D01*
X144107645Y-144300499D01*
X144107648Y-144300500D01*
X144107651Y-144300500D01*
X144312349Y-144300500D01*
X144312352Y-144300500D01*
X144312355Y-144300499D01*
X144312361Y-144300499D01*
X144407870Y-144285371D01*
X144514534Y-144268477D01*
X144709219Y-144205220D01*
X144891610Y-144112287D01*
X145057219Y-143991966D01*
X145201966Y-143847219D01*
X145278555Y-143741801D01*
X145349897Y-143675854D01*
X145441047Y-143642227D01*
X145538127Y-143646041D01*
X145626358Y-143686715D01*
X145681443Y-143741800D01*
X145758034Y-143847219D01*
X145902781Y-143991966D01*
X146068390Y-144112287D01*
X146250781Y-144205220D01*
X146445466Y-144268477D01*
X146516575Y-144279739D01*
X146647638Y-144300499D01*
X146647645Y-144300499D01*
X146647648Y-144300500D01*
X146647651Y-144300500D01*
X146852349Y-144300500D01*
X146852352Y-144300500D01*
X146852355Y-144300499D01*
X146852361Y-144300499D01*
X146947870Y-144285371D01*
X147054534Y-144268477D01*
X147249219Y-144205220D01*
X147431610Y-144112287D01*
X147597219Y-143991966D01*
X147741966Y-143847219D01*
X147862287Y-143681610D01*
X147955220Y-143499219D01*
X148018477Y-143304534D01*
X148050500Y-143102352D01*
X148050500Y-142897648D01*
X148050499Y-142897645D01*
X148050499Y-142897638D01*
X148020000Y-142705081D01*
X148018477Y-142695466D01*
X147955220Y-142500781D01*
X147862287Y-142318390D01*
X147741966Y-142152781D01*
X147597219Y-142008034D01*
X147431610Y-141887713D01*
X147431609Y-141887712D01*
X147431607Y-141887711D01*
X147249224Y-141794782D01*
X147249214Y-141794778D01*
X147054531Y-141731522D01*
X146852361Y-141699500D01*
X146852352Y-141699500D01*
X146647648Y-141699500D01*
X146647638Y-141699500D01*
X146445468Y-141731522D01*
X146250785Y-141794778D01*
X146250775Y-141794782D01*
X146068392Y-141887711D01*
X145902779Y-142008035D01*
X145758033Y-142152781D01*
X145758030Y-142152785D01*
X145681445Y-142258196D01*
X145610102Y-142324145D01*
X145518952Y-142357772D01*
X145421872Y-142353958D01*
X145333642Y-142313283D01*
X145278555Y-142258196D01*
X145201969Y-142152785D01*
X145201966Y-142152781D01*
X145057220Y-142008035D01*
X144988100Y-141957817D01*
X144891610Y-141887713D01*
X144891609Y-141887712D01*
X144891607Y-141887711D01*
X144709224Y-141794782D01*
X144709214Y-141794778D01*
X144514531Y-141731522D01*
X144312361Y-141699500D01*
X144312352Y-141699500D01*
X144107648Y-141699500D01*
X144107638Y-141699500D01*
X143905468Y-141731522D01*
X143710785Y-141794778D01*
X143710775Y-141794782D01*
X143528392Y-141887711D01*
X143362779Y-142008035D01*
X143218033Y-142152781D01*
X143218030Y-142152785D01*
X143141445Y-142258196D01*
X143070102Y-142324145D01*
X142978952Y-142357772D01*
X142881872Y-142353958D01*
X142793642Y-142313283D01*
X142738555Y-142258196D01*
X142661969Y-142152785D01*
X142661966Y-142152781D01*
X142517220Y-142008035D01*
X142448100Y-141957817D01*
X142351610Y-141887713D01*
X142351609Y-141887712D01*
X142351607Y-141887711D01*
X142169224Y-141794782D01*
X142169214Y-141794778D01*
X141974531Y-141731522D01*
X141772361Y-141699500D01*
X141772352Y-141699500D01*
X141567648Y-141699500D01*
X141567638Y-141699500D01*
X141365468Y-141731522D01*
X141170785Y-141794778D01*
X141170775Y-141794782D01*
X140988392Y-141887711D01*
X140822779Y-142008035D01*
X140678033Y-142152781D01*
X140678030Y-142152785D01*
X140601445Y-142258196D01*
X140530102Y-142324145D01*
X140438952Y-142357772D01*
X140341872Y-142353958D01*
X140253642Y-142313283D01*
X140198555Y-142258196D01*
X140121969Y-142152785D01*
X140121966Y-142152781D01*
X139977220Y-142008035D01*
X139908100Y-141957817D01*
X139811610Y-141887713D01*
X139811609Y-141887712D01*
X139811607Y-141887711D01*
X139629224Y-141794782D01*
X139629214Y-141794778D01*
X139434531Y-141731522D01*
X139232361Y-141699500D01*
X139232352Y-141699500D01*
X139027648Y-141699500D01*
X139027638Y-141699500D01*
X138825468Y-141731522D01*
X138630785Y-141794778D01*
X138630775Y-141794782D01*
X138448392Y-141887711D01*
X138282779Y-142008035D01*
X138138033Y-142152781D01*
X138138030Y-142152785D01*
X138061445Y-142258196D01*
X137990102Y-142324145D01*
X137898952Y-142357772D01*
X137801872Y-142353958D01*
X137713642Y-142313283D01*
X137658555Y-142258196D01*
X137581969Y-142152785D01*
X137581966Y-142152781D01*
X137437220Y-142008035D01*
X137368100Y-141957817D01*
X137271610Y-141887713D01*
X137271609Y-141887712D01*
X137271607Y-141887711D01*
X137089224Y-141794782D01*
X137089214Y-141794778D01*
X136894531Y-141731522D01*
X136692361Y-141699500D01*
X136692352Y-141699500D01*
X136487648Y-141699500D01*
X136487638Y-141699500D01*
X136285468Y-141731522D01*
X136090785Y-141794778D01*
X136090775Y-141794782D01*
X135908392Y-141887711D01*
X135742779Y-142008035D01*
X135598033Y-142152781D01*
X135598030Y-142152785D01*
X135521445Y-142258196D01*
X135450102Y-142324145D01*
X135358952Y-142357772D01*
X135261872Y-142353958D01*
X135173642Y-142313283D01*
X135118555Y-142258196D01*
X135041969Y-142152785D01*
X135041966Y-142152781D01*
X134897220Y-142008035D01*
X134828100Y-141957817D01*
X134731610Y-141887713D01*
X134731609Y-141887712D01*
X134731607Y-141887711D01*
X134549224Y-141794782D01*
X134549214Y-141794778D01*
X134354531Y-141731522D01*
X134152361Y-141699500D01*
X134152352Y-141699500D01*
X133947648Y-141699500D01*
X133947638Y-141699500D01*
X133745468Y-141731522D01*
X133550785Y-141794778D01*
X133550775Y-141794782D01*
X133368392Y-141887711D01*
X133202779Y-142008035D01*
X133058033Y-142152781D01*
X133058030Y-142152785D01*
X132981445Y-142258196D01*
X132910102Y-142324145D01*
X132818952Y-142357772D01*
X132721872Y-142353958D01*
X132633642Y-142313283D01*
X132578555Y-142258196D01*
X132501969Y-142152785D01*
X132501966Y-142152781D01*
X132357220Y-142008035D01*
X132288100Y-141957817D01*
X132191610Y-141887713D01*
X132191609Y-141887712D01*
X132191607Y-141887711D01*
X132009224Y-141794782D01*
X132009214Y-141794778D01*
X131814531Y-141731522D01*
X131612361Y-141699500D01*
X131612352Y-141699500D01*
X131407648Y-141699500D01*
X131407638Y-141699500D01*
X131205468Y-141731522D01*
X131010785Y-141794778D01*
X131010775Y-141794782D01*
X130828392Y-141887711D01*
X130662779Y-142008035D01*
X130518033Y-142152781D01*
X130518030Y-142152785D01*
X130441445Y-142258196D01*
X130370102Y-142324145D01*
X130278952Y-142357772D01*
X130181872Y-142353958D01*
X130093642Y-142313283D01*
X130038555Y-142258196D01*
X129961969Y-142152785D01*
X129961966Y-142152781D01*
X129817220Y-142008035D01*
X129748100Y-141957817D01*
X129651610Y-141887713D01*
X129651609Y-141887712D01*
X129651607Y-141887711D01*
X129469224Y-141794782D01*
X129469214Y-141794778D01*
X129274531Y-141731522D01*
X129072361Y-141699500D01*
X129072352Y-141699500D01*
X128867648Y-141699500D01*
X128867638Y-141699500D01*
X128665468Y-141731522D01*
X128470785Y-141794778D01*
X128470775Y-141794782D01*
X128288392Y-141887711D01*
X128122779Y-142008035D01*
X127978033Y-142152781D01*
X127978030Y-142152785D01*
X127901445Y-142258196D01*
X127830102Y-142324145D01*
X127738952Y-142357772D01*
X127641872Y-142353958D01*
X127553642Y-142313283D01*
X127498555Y-142258196D01*
X127421969Y-142152785D01*
X127421966Y-142152781D01*
X127277220Y-142008035D01*
X127208100Y-141957817D01*
X127111610Y-141887713D01*
X127111609Y-141887712D01*
X127111607Y-141887711D01*
X126929224Y-141794782D01*
X126929214Y-141794778D01*
X126734531Y-141731522D01*
X126532361Y-141699500D01*
X126532352Y-141699500D01*
X126327648Y-141699500D01*
X126327638Y-141699500D01*
X126125468Y-141731522D01*
X125930785Y-141794778D01*
X125930775Y-141794782D01*
X125748392Y-141887711D01*
X125582779Y-142008035D01*
X125438033Y-142152781D01*
X125438030Y-142152785D01*
X125361445Y-142258196D01*
X125290102Y-142324145D01*
X125198952Y-142357772D01*
X125101872Y-142353958D01*
X125013642Y-142313283D01*
X124958555Y-142258196D01*
X124881969Y-142152785D01*
X124881966Y-142152781D01*
X124737220Y-142008035D01*
X124668100Y-141957817D01*
X124571610Y-141887713D01*
X124571609Y-141887712D01*
X124571607Y-141887711D01*
X124389224Y-141794782D01*
X124389214Y-141794778D01*
X124194531Y-141731522D01*
X123992361Y-141699500D01*
X123992352Y-141699500D01*
X123787648Y-141699500D01*
X123787638Y-141699500D01*
X123585468Y-141731522D01*
X123390785Y-141794778D01*
X123390775Y-141794782D01*
X123208392Y-141887711D01*
X123042779Y-142008035D01*
X122898033Y-142152781D01*
X122898030Y-142152785D01*
X122821445Y-142258196D01*
X122750102Y-142324145D01*
X122658952Y-142357772D01*
X122561872Y-142353958D01*
X122473642Y-142313283D01*
X122418555Y-142258196D01*
X122341969Y-142152785D01*
X122341966Y-142152781D01*
X122197220Y-142008035D01*
X122128100Y-141957817D01*
X122031610Y-141887713D01*
X122031609Y-141887712D01*
X122031607Y-141887711D01*
X121849224Y-141794782D01*
X121849214Y-141794778D01*
X121654531Y-141731522D01*
X121452361Y-141699500D01*
X121452352Y-141699500D01*
X121247648Y-141699500D01*
X121247638Y-141699500D01*
X121045468Y-141731522D01*
X120850785Y-141794778D01*
X120850775Y-141794782D01*
X120668392Y-141887711D01*
X120502779Y-142008035D01*
X120358033Y-142152781D01*
X120358030Y-142152785D01*
X120281445Y-142258196D01*
X120210102Y-142324145D01*
X120118952Y-142357772D01*
X120021872Y-142353958D01*
X119933642Y-142313283D01*
X119878555Y-142258196D01*
X119801969Y-142152785D01*
X119801966Y-142152781D01*
X119657220Y-142008035D01*
X119588100Y-141957817D01*
X119491610Y-141887713D01*
X119491609Y-141887712D01*
X119491607Y-141887711D01*
X119309224Y-141794782D01*
X119309214Y-141794778D01*
X119114531Y-141731522D01*
X118912361Y-141699500D01*
X118912352Y-141699500D01*
X118707648Y-141699500D01*
X118707638Y-141699500D01*
X118505468Y-141731522D01*
X118310785Y-141794778D01*
X118310775Y-141794782D01*
X118128392Y-141887711D01*
X117962779Y-142008035D01*
X117818033Y-142152781D01*
X117818030Y-142152785D01*
X117741445Y-142258196D01*
X117670102Y-142324145D01*
X117578952Y-142357772D01*
X117481872Y-142353958D01*
X117393642Y-142313283D01*
X117338555Y-142258196D01*
X117261969Y-142152785D01*
X117261966Y-142152781D01*
X117117220Y-142008035D01*
X117048100Y-141957817D01*
X116951610Y-141887713D01*
X116951609Y-141887712D01*
X116951607Y-141887711D01*
X116769224Y-141794782D01*
X116769214Y-141794778D01*
X116574531Y-141731522D01*
X116372361Y-141699500D01*
X116372352Y-141699500D01*
X116167648Y-141699500D01*
X116167638Y-141699500D01*
X115965468Y-141731522D01*
X115770785Y-141794778D01*
X115770775Y-141794782D01*
X115588392Y-141887711D01*
X115422779Y-142008035D01*
X115278035Y-142152779D01*
X115157711Y-142318392D01*
X115064782Y-142500775D01*
X115064778Y-142500785D01*
X115001522Y-142695468D01*
X114969500Y-142897638D01*
X109017534Y-142897638D01*
X108879792Y-142759896D01*
X108826867Y-142721444D01*
X108760920Y-142650103D01*
X108727293Y-142558953D01*
X108731107Y-142461873D01*
X108771781Y-142373642D01*
X108826867Y-142318555D01*
X108879792Y-142280104D01*
X109030104Y-142129792D01*
X109155051Y-141957816D01*
X109251557Y-141768412D01*
X109317246Y-141566243D01*
X109350500Y-141356287D01*
X109350500Y-141143713D01*
X109350499Y-141143710D01*
X109350499Y-141143703D01*
X109317246Y-140933759D01*
X109317246Y-140933757D01*
X109251557Y-140731588D01*
X109155051Y-140542184D01*
X109030104Y-140370208D01*
X109030102Y-140370206D01*
X109024353Y-140362293D01*
X109026655Y-140360620D01*
X108988214Y-140291966D01*
X108976802Y-140195484D01*
X109003180Y-140101979D01*
X109063334Y-140025685D01*
X109078597Y-140015169D01*
X109078073Y-140014469D01*
X109092329Y-140003796D01*
X109092331Y-140003796D01*
X109207546Y-139917546D01*
X109293796Y-139802331D01*
X109344091Y-139667483D01*
X109350500Y-139607873D01*
X109350499Y-137812128D01*
X109344091Y-137752517D01*
X109293796Y-137617669D01*
X109207546Y-137502454D01*
X109092331Y-137416204D01*
X109012117Y-137386286D01*
X108957481Y-137365908D01*
X108897873Y-137359500D01*
X107102134Y-137359500D01*
X107102130Y-137359500D01*
X107102128Y-137359501D01*
X107089314Y-137360878D01*
X107042519Y-137365908D01*
X107042515Y-137365909D01*
X106907668Y-137416204D01*
X106879221Y-137437500D01*
X106791581Y-137479431D01*
X106694565Y-137484632D01*
X106602944Y-137452310D01*
X106580779Y-137437500D01*
X106552332Y-137416205D01*
X106552331Y-137416204D01*
X106456363Y-137380410D01*
X106417481Y-137365908D01*
X106357873Y-137359500D01*
X104562134Y-137359500D01*
X104562130Y-137359500D01*
X104562128Y-137359501D01*
X104549314Y-137360878D01*
X104502519Y-137365908D01*
X104502515Y-137365909D01*
X104367668Y-137416204D01*
X104339221Y-137437500D01*
X104251581Y-137479431D01*
X104154565Y-137484632D01*
X104062944Y-137452310D01*
X104040779Y-137437500D01*
X104012332Y-137416205D01*
X104012331Y-137416204D01*
X103916363Y-137380410D01*
X103877481Y-137365908D01*
X103817873Y-137359500D01*
X102022134Y-137359500D01*
X102022130Y-137359500D01*
X102022128Y-137359501D01*
X102009314Y-137360878D01*
X101962519Y-137365908D01*
X101962515Y-137365909D01*
X101827670Y-137416203D01*
X101712455Y-137502453D01*
X101712453Y-137502455D01*
X101626204Y-137617669D01*
X101575908Y-137752518D01*
X101569500Y-137812123D01*
X97595594Y-137812123D01*
X97597370Y-129397638D01*
X115959500Y-129397638D01*
X115959500Y-129602361D01*
X115991522Y-129804531D01*
X116054778Y-129999214D01*
X116054782Y-129999224D01*
X116147711Y-130181607D01*
X116147713Y-130181610D01*
X116258721Y-130334401D01*
X116268035Y-130347220D01*
X116412781Y-130491966D01*
X116412785Y-130491969D01*
X116518196Y-130568555D01*
X116584145Y-130639898D01*
X116617772Y-130731048D01*
X116613958Y-130828128D01*
X116573283Y-130916358D01*
X116518196Y-130971445D01*
X116412785Y-131048030D01*
X116412781Y-131048033D01*
X116268035Y-131192779D01*
X116147711Y-131358392D01*
X116054782Y-131540775D01*
X116054778Y-131540785D01*
X115991522Y-131735468D01*
X115959500Y-131937638D01*
X115959500Y-132142361D01*
X115991522Y-132344531D01*
X116054778Y-132539214D01*
X116054782Y-132539224D01*
X116147711Y-132721607D01*
X116268035Y-132887220D01*
X116412781Y-133031966D01*
X116412785Y-133031969D01*
X116518196Y-133108555D01*
X116584145Y-133179898D01*
X116617772Y-133271048D01*
X116613958Y-133368128D01*
X116573283Y-133456358D01*
X116518196Y-133511445D01*
X116412785Y-133588030D01*
X116412781Y-133588033D01*
X116268035Y-133732779D01*
X116147711Y-133898392D01*
X116054782Y-134080775D01*
X116054778Y-134080785D01*
X115991522Y-134275468D01*
X115959500Y-134477638D01*
X115959500Y-134682361D01*
X115991522Y-134884531D01*
X116054778Y-135079214D01*
X116054782Y-135079224D01*
X116147711Y-135261607D01*
X116268035Y-135427220D01*
X116412781Y-135571966D01*
X116412785Y-135571969D01*
X116518196Y-135648555D01*
X116584145Y-135719898D01*
X116617772Y-135811048D01*
X116613958Y-135908128D01*
X116573283Y-135996358D01*
X116518196Y-136051445D01*
X116412785Y-136128030D01*
X116412781Y-136128033D01*
X116268035Y-136272779D01*
X116147711Y-136438392D01*
X116054782Y-136620775D01*
X116054778Y-136620785D01*
X115991522Y-136815468D01*
X115959500Y-137017638D01*
X115959500Y-137222361D01*
X115991522Y-137424531D01*
X116054778Y-137619214D01*
X116054782Y-137619224D01*
X116147711Y-137801607D01*
X116147713Y-137801610D01*
X116268034Y-137967219D01*
X116412781Y-138111966D01*
X116578390Y-138232287D01*
X116760781Y-138325220D01*
X116955466Y-138388477D01*
X117026575Y-138399739D01*
X117157638Y-138420499D01*
X117157645Y-138420499D01*
X117157648Y-138420500D01*
X117157651Y-138420500D01*
X117362349Y-138420500D01*
X117362352Y-138420500D01*
X117362355Y-138420499D01*
X117362361Y-138420499D01*
X117457870Y-138405371D01*
X117564534Y-138388477D01*
X117759219Y-138325220D01*
X117941610Y-138232287D01*
X118107219Y-138111966D01*
X118251966Y-137967219D01*
X118372287Y-137801610D01*
X118465220Y-137619219D01*
X118528477Y-137424534D01*
X118560500Y-137222352D01*
X118560500Y-137017648D01*
X118560499Y-137017645D01*
X118560499Y-137017638D01*
X118528477Y-136815468D01*
X118528477Y-136815466D01*
X118465220Y-136620781D01*
X118372287Y-136438390D01*
X118251966Y-136272781D01*
X118107219Y-136128034D01*
X118001801Y-136051444D01*
X117935854Y-135980103D01*
X117902227Y-135888953D01*
X117906041Y-135791873D01*
X117946715Y-135703642D01*
X118001802Y-135648555D01*
X118107219Y-135571966D01*
X118251966Y-135427219D01*
X118372287Y-135261610D01*
X118465220Y-135079219D01*
X118528477Y-134884534D01*
X118560500Y-134682352D01*
X118560500Y-134477648D01*
X118560499Y-134477645D01*
X118560499Y-134477638D01*
X118528477Y-134275468D01*
X118528477Y-134275466D01*
X118465220Y-134080781D01*
X118372287Y-133898390D01*
X118251966Y-133732781D01*
X118107219Y-133588034D01*
X118001801Y-133511444D01*
X117935854Y-133440103D01*
X117902227Y-133348953D01*
X117906041Y-133251873D01*
X117946715Y-133163642D01*
X118001802Y-133108555D01*
X118107219Y-133031966D01*
X118251966Y-132887219D01*
X118372287Y-132721610D01*
X118465220Y-132539219D01*
X118528477Y-132344534D01*
X118560500Y-132142352D01*
X118560500Y-131937648D01*
X118560499Y-131937645D01*
X118560499Y-131937638D01*
X118528477Y-131735468D01*
X118528477Y-131735466D01*
X118465220Y-131540781D01*
X118372287Y-131358390D01*
X118251966Y-131192781D01*
X118107219Y-131048034D01*
X118001801Y-130971444D01*
X117935854Y-130900103D01*
X117902227Y-130808953D01*
X117906041Y-130711873D01*
X117946715Y-130623642D01*
X118001802Y-130568555D01*
X118107219Y-130491966D01*
X118251966Y-130347219D01*
X118372287Y-130181610D01*
X118465220Y-129999219D01*
X118528477Y-129804534D01*
X118550184Y-129667483D01*
X118560499Y-129602361D01*
X118560500Y-129602349D01*
X118560500Y-129397650D01*
X118560499Y-129397638D01*
X131199500Y-129397638D01*
X131199500Y-129602361D01*
X131231522Y-129804531D01*
X131294778Y-129999214D01*
X131294782Y-129999224D01*
X131387711Y-130181607D01*
X131387713Y-130181610D01*
X131498721Y-130334401D01*
X131508035Y-130347220D01*
X131652781Y-130491966D01*
X131652785Y-130491969D01*
X131758196Y-130568555D01*
X131824145Y-130639898D01*
X131857772Y-130731048D01*
X131853958Y-130828128D01*
X131813283Y-130916358D01*
X131758196Y-130971445D01*
X131652785Y-131048030D01*
X131652781Y-131048033D01*
X131508035Y-131192779D01*
X131387711Y-131358392D01*
X131294782Y-131540775D01*
X131294778Y-131540785D01*
X131231522Y-131735468D01*
X131199500Y-131937638D01*
X131199500Y-132142361D01*
X131231522Y-132344531D01*
X131294778Y-132539214D01*
X131294782Y-132539224D01*
X131387629Y-132721446D01*
X131387713Y-132721610D01*
X131508034Y-132887219D01*
X131652781Y-133031966D01*
X131818390Y-133152287D01*
X132000781Y-133245220D01*
X132195466Y-133308477D01*
X132266575Y-133319739D01*
X132397638Y-133340499D01*
X132397645Y-133340499D01*
X132397648Y-133340500D01*
X132397651Y-133340500D01*
X132602349Y-133340500D01*
X132602352Y-133340500D01*
X132602355Y-133340499D01*
X132602361Y-133340499D01*
X132697870Y-133325371D01*
X132804534Y-133308477D01*
X132999219Y-133245220D01*
X133181610Y-133152287D01*
X133347219Y-133031966D01*
X133491966Y-132887219D01*
X133612287Y-132721610D01*
X133705220Y-132539219D01*
X133768477Y-132344534D01*
X133800500Y-132142352D01*
X133800500Y-131937648D01*
X133800499Y-131937645D01*
X133800499Y-131937638D01*
X133768477Y-131735468D01*
X133768477Y-131735466D01*
X133705220Y-131540781D01*
X133612287Y-131358390D01*
X133491966Y-131192781D01*
X133347219Y-131048034D01*
X133241801Y-130971444D01*
X133175854Y-130900103D01*
X133142227Y-130808953D01*
X133146041Y-130711873D01*
X133186715Y-130623642D01*
X133241802Y-130568555D01*
X133347219Y-130491966D01*
X133491966Y-130347219D01*
X133612287Y-130181610D01*
X133705220Y-129999219D01*
X133768477Y-129804534D01*
X133790184Y-129667483D01*
X133800499Y-129602361D01*
X133800500Y-129602349D01*
X133800500Y-129397650D01*
X133800499Y-129397638D01*
X133770683Y-129209393D01*
X133768477Y-129195466D01*
X133705220Y-129000781D01*
X133612287Y-128818390D01*
X133491966Y-128652781D01*
X133347219Y-128508034D01*
X133181610Y-128387713D01*
X133181609Y-128387712D01*
X133181607Y-128387711D01*
X132999224Y-128294782D01*
X132999214Y-128294778D01*
X132804531Y-128231522D01*
X132602361Y-128199500D01*
X132602352Y-128199500D01*
X132397648Y-128199500D01*
X132397638Y-128199500D01*
X132195468Y-128231522D01*
X132000785Y-128294778D01*
X132000775Y-128294782D01*
X131818392Y-128387711D01*
X131652779Y-128508035D01*
X131508035Y-128652779D01*
X131387711Y-128818392D01*
X131294782Y-129000775D01*
X131294778Y-129000785D01*
X131231522Y-129195468D01*
X131199500Y-129397638D01*
X118560499Y-129397638D01*
X118530683Y-129209393D01*
X118528477Y-129195466D01*
X118465220Y-129000781D01*
X118372287Y-128818390D01*
X118251966Y-128652781D01*
X118107219Y-128508034D01*
X117941610Y-128387713D01*
X117941609Y-128387712D01*
X117941607Y-128387711D01*
X117759224Y-128294782D01*
X117759214Y-128294778D01*
X117564531Y-128231522D01*
X117362361Y-128199500D01*
X117362352Y-128199500D01*
X117157648Y-128199500D01*
X117157638Y-128199500D01*
X116955468Y-128231522D01*
X116760785Y-128294778D01*
X116760775Y-128294782D01*
X116578392Y-128387711D01*
X116412779Y-128508035D01*
X116268035Y-128652779D01*
X116147711Y-128818392D01*
X116054782Y-129000775D01*
X116054778Y-129000785D01*
X115991522Y-129195468D01*
X115959500Y-129397638D01*
X97597370Y-129397638D01*
X97598632Y-123422205D01*
X98798500Y-123422205D01*
X98798500Y-123717794D01*
X98831593Y-124011488D01*
X98857631Y-124125570D01*
X98897362Y-124299640D01*
X98960067Y-124478841D01*
X98994984Y-124578626D01*
X99091563Y-124779173D01*
X99123221Y-124844912D01*
X99164300Y-124910289D01*
X99280469Y-125095172D01*
X99366405Y-125202932D01*
X99464751Y-125326254D01*
X99673746Y-125535249D01*
X99904827Y-125719530D01*
X100155088Y-125876779D01*
X100338695Y-125965199D01*
X100421373Y-126005015D01*
X100421375Y-126005015D01*
X100421382Y-126005019D01*
X100700360Y-126102638D01*
X100988513Y-126168407D01*
X101172073Y-126189089D01*
X101282205Y-126201499D01*
X101282218Y-126201500D01*
X101577782Y-126201500D01*
X101577794Y-126201499D01*
X101664128Y-126191771D01*
X101871487Y-126168407D01*
X102159640Y-126102638D01*
X102438618Y-126005019D01*
X102704912Y-125876779D01*
X102955173Y-125719530D01*
X103017124Y-125670126D01*
X107168500Y-125670126D01*
X107168500Y-125929873D01*
X107201321Y-126179180D01*
X107202404Y-126187401D01*
X107219372Y-126250728D01*
X107269632Y-126438302D01*
X107369030Y-126678270D01*
X107369032Y-126678274D01*
X107369033Y-126678276D01*
X107498908Y-126903225D01*
X107498910Y-126903228D01*
X107498911Y-126903229D01*
X107657025Y-127109288D01*
X107657029Y-127109292D01*
X107657033Y-127109297D01*
X107840703Y-127292967D01*
X107840707Y-127292970D01*
X107840711Y-127292974D01*
X108001307Y-127416203D01*
X108046775Y-127451092D01*
X108271724Y-127580967D01*
X108271729Y-127580969D01*
X108511697Y-127680367D01*
X108511701Y-127680368D01*
X108762599Y-127747596D01*
X109020126Y-127781500D01*
X109279874Y-127781500D01*
X109537401Y-127747596D01*
X109788299Y-127680368D01*
X109788300Y-127680367D01*
X109788302Y-127680367D01*
X109889100Y-127638615D01*
X110028276Y-127580967D01*
X110253225Y-127451092D01*
X110459297Y-127292967D01*
X110642967Y-127109297D01*
X110801092Y-126903225D01*
X110930967Y-126678276D01*
X111030368Y-126438299D01*
X111097596Y-126187401D01*
X111131500Y-125929874D01*
X111131500Y-125670126D01*
X111097596Y-125412599D01*
X111030368Y-125161701D01*
X111030367Y-125161697D01*
X110930969Y-124921729D01*
X110930967Y-124921725D01*
X110930967Y-124921724D01*
X110801092Y-124696775D01*
X110661872Y-124515340D01*
X110642974Y-124490711D01*
X110642970Y-124490707D01*
X110642967Y-124490703D01*
X110459297Y-124307033D01*
X110459292Y-124307029D01*
X110459288Y-124307025D01*
X110253229Y-124148911D01*
X110253228Y-124148910D01*
X110253225Y-124148908D01*
X110028276Y-124019033D01*
X110028274Y-124019032D01*
X110028270Y-124019030D01*
X109788302Y-123919632D01*
X109645415Y-123881346D01*
X109537401Y-123852404D01*
X109537396Y-123852403D01*
X109537397Y-123852403D01*
X109279874Y-123818500D01*
X109020126Y-123818500D01*
X108762603Y-123852403D01*
X108762599Y-123852403D01*
X108762599Y-123852404D01*
X108746850Y-123856623D01*
X108511697Y-123919632D01*
X108271729Y-124019030D01*
X108271725Y-124019032D01*
X108046770Y-124148911D01*
X107840711Y-124307025D01*
X107657025Y-124490711D01*
X107498911Y-124696770D01*
X107369032Y-124921725D01*
X107369030Y-124921729D01*
X107269632Y-125161697D01*
X107202403Y-125412603D01*
X107168500Y-125670126D01*
X103017124Y-125670126D01*
X103186254Y-125535249D01*
X103395249Y-125326254D01*
X103579530Y-125095173D01*
X103736779Y-124844912D01*
X103865019Y-124578618D01*
X103962638Y-124299640D01*
X104028407Y-124011487D01*
X104061500Y-123717782D01*
X104061500Y-123422218D01*
X104028407Y-123128513D01*
X103962638Y-122840360D01*
X103865019Y-122561382D01*
X103736779Y-122295088D01*
X103579530Y-122044827D01*
X103395249Y-121813746D01*
X103186254Y-121604751D01*
X102968736Y-121431286D01*
X102955172Y-121420469D01*
X102794448Y-121319480D01*
X102704912Y-121263221D01*
X102572594Y-121199500D01*
X102438626Y-121134984D01*
X102438619Y-121134981D01*
X102438618Y-121134981D01*
X102159640Y-121037362D01*
X102159639Y-121037361D01*
X102159637Y-121037361D01*
X101871488Y-120971593D01*
X101577794Y-120938500D01*
X101577782Y-120938500D01*
X101282218Y-120938500D01*
X101282205Y-120938500D01*
X100988511Y-120971593D01*
X100700362Y-121037361D01*
X100421373Y-121134984D01*
X100155102Y-121263214D01*
X100155096Y-121263217D01*
X100155088Y-121263221D01*
X100155084Y-121263223D01*
X100155083Y-121263224D01*
X99904827Y-121420469D01*
X99673749Y-121604748D01*
X99673741Y-121604755D01*
X99464755Y-121813741D01*
X99464748Y-121813749D01*
X99280469Y-122044827D01*
X99123224Y-122295083D01*
X99123214Y-122295102D01*
X98994984Y-122561373D01*
X98897361Y-122840362D01*
X98831593Y-123128511D01*
X98798500Y-123422205D01*
X97598632Y-123422205D01*
X97600153Y-116221153D01*
X109399500Y-116221153D01*
X109399500Y-116378846D01*
X109430261Y-116533492D01*
X109430263Y-116533497D01*
X109490603Y-116679173D01*
X109490606Y-116679180D01*
X109537858Y-116749897D01*
X109578211Y-116810289D01*
X109689711Y-116921789D01*
X109820821Y-117009394D01*
X109820824Y-117009395D01*
X109826967Y-117012679D01*
X109902068Y-117074314D01*
X109947867Y-117159997D01*
X109957389Y-117256685D01*
X109929186Y-117349656D01*
X109867551Y-117424757D01*
X109847926Y-117439312D01*
X109789715Y-117478207D01*
X109678208Y-117589714D01*
X109590606Y-117720819D01*
X109590603Y-117720826D01*
X109530263Y-117866502D01*
X109530261Y-117866507D01*
X109499500Y-118021153D01*
X109499500Y-118178846D01*
X109530261Y-118333492D01*
X109530263Y-118333497D01*
X109590603Y-118479173D01*
X109590606Y-118479180D01*
X109678208Y-118610285D01*
X109678211Y-118610289D01*
X109789711Y-118721789D01*
X109789715Y-118721792D01*
X109789714Y-118721792D01*
X109821402Y-118742965D01*
X109890101Y-118811664D01*
X109927280Y-118901424D01*
X109927279Y-118998579D01*
X109890099Y-119088338D01*
X109821402Y-119157035D01*
X109789715Y-119178207D01*
X109678208Y-119289714D01*
X109590606Y-119420819D01*
X109590603Y-119420826D01*
X109530263Y-119566502D01*
X109530261Y-119566507D01*
X109499500Y-119721153D01*
X109499500Y-119878846D01*
X109530261Y-120033492D01*
X109530263Y-120033497D01*
X109590603Y-120179173D01*
X109590606Y-120179180D01*
X109678208Y-120310285D01*
X109678211Y-120310289D01*
X109789711Y-120421789D01*
X109789714Y-120421791D01*
X109920819Y-120509393D01*
X109920821Y-120509394D01*
X109943090Y-120518618D01*
X109946315Y-120519954D01*
X110027097Y-120573930D01*
X110081073Y-120654712D01*
X110100027Y-120750000D01*
X110081073Y-120845288D01*
X110027097Y-120926070D01*
X109946315Y-120980046D01*
X109920823Y-120990605D01*
X109920819Y-120990606D01*
X109789714Y-121078208D01*
X109678208Y-121189714D01*
X109590606Y-121320819D01*
X109590603Y-121320826D01*
X109530263Y-121466502D01*
X109530261Y-121466507D01*
X109499500Y-121621153D01*
X109499500Y-121778846D01*
X109530261Y-121933492D01*
X109530263Y-121933497D01*
X109590603Y-122079173D01*
X109590606Y-122079180D01*
X109678208Y-122210285D01*
X109678211Y-122210289D01*
X109789711Y-122321789D01*
X109789714Y-122321791D01*
X109920819Y-122409393D01*
X109920820Y-122409393D01*
X109920821Y-122409394D01*
X110066503Y-122469737D01*
X110066505Y-122469737D01*
X110066507Y-122469738D01*
X110184658Y-122493240D01*
X110274417Y-122530419D01*
X110312149Y-122561384D01*
X112631284Y-124880520D01*
X112631286Y-124880521D01*
X112768212Y-124959575D01*
X112768213Y-124959575D01*
X112768216Y-124959577D01*
X112920943Y-125000501D01*
X113094319Y-125000501D01*
X113094335Y-125000500D01*
X118248125Y-125000500D01*
X118343413Y-125019454D01*
X118424195Y-125073430D01*
X121838614Y-128487849D01*
X121892590Y-128568631D01*
X121906759Y-128615340D01*
X121930262Y-128733494D01*
X121930263Y-128733497D01*
X121990603Y-128879173D01*
X121990606Y-128879180D01*
X122078208Y-129010285D01*
X122078211Y-129010289D01*
X122189711Y-129121789D01*
X122189714Y-129121791D01*
X122320819Y-129209393D01*
X122320820Y-129209393D01*
X122320821Y-129209394D01*
X122466503Y-129269737D01*
X122466505Y-129269737D01*
X122466507Y-129269738D01*
X122617148Y-129299702D01*
X122621158Y-129300500D01*
X122778842Y-129300500D01*
X122933497Y-129269737D01*
X123079179Y-129209394D01*
X123210289Y-129121789D01*
X123321789Y-129010289D01*
X123409394Y-128879179D01*
X123469737Y-128733497D01*
X123500500Y-128578842D01*
X123500500Y-128421158D01*
X123469737Y-128266503D01*
X123444978Y-128206730D01*
X123426026Y-128111444D01*
X123444981Y-128016156D01*
X123498958Y-127935375D01*
X123579739Y-127881399D01*
X123675028Y-127862446D01*
X123770316Y-127881401D01*
X123813367Y-127904413D01*
X123820821Y-127909394D01*
X123966503Y-127969737D01*
X123966505Y-127969737D01*
X123966507Y-127969738D01*
X124066918Y-127989711D01*
X124121158Y-128000500D01*
X124278842Y-128000500D01*
X124433497Y-127969737D01*
X124579179Y-127909394D01*
X124710289Y-127821789D01*
X124719955Y-127812123D01*
X147899500Y-127812123D01*
X147899500Y-129607865D01*
X147899500Y-129607868D01*
X147899501Y-129607872D01*
X147901567Y-129627093D01*
X147905908Y-129667480D01*
X147905909Y-129667483D01*
X147956204Y-129802331D01*
X148042454Y-129917546D01*
X148157669Y-130003796D01*
X148157670Y-130003796D01*
X148171927Y-130014469D01*
X148169572Y-130017614D01*
X148218869Y-130058825D01*
X148263889Y-130144919D01*
X148272536Y-130241689D01*
X148243492Y-130334401D01*
X148224739Y-130361633D01*
X148225647Y-130362293D01*
X148094950Y-130542182D01*
X147998441Y-130731592D01*
X147932753Y-130933759D01*
X147899500Y-131143703D01*
X147899500Y-131356296D01*
X147932753Y-131566240D01*
X147987738Y-131735468D01*
X147998443Y-131768412D01*
X148084668Y-131937638D01*
X148094950Y-131957817D01*
X148219897Y-132129793D01*
X148370207Y-132280103D01*
X148423131Y-132318555D01*
X148489080Y-132389899D01*
X148522707Y-132481049D01*
X148518892Y-132578129D01*
X148478217Y-132666359D01*
X148423131Y-132721445D01*
X148370207Y-132759896D01*
X148219897Y-132910206D01*
X148094950Y-133082182D01*
X147998441Y-133271592D01*
X147932753Y-133473759D01*
X147899500Y-133683703D01*
X147899500Y-133896296D01*
X147932753Y-134106240D01*
X147987738Y-134275468D01*
X147998443Y-134308412D01*
X148084668Y-134477638D01*
X148094950Y-134497817D01*
X148219897Y-134669793D01*
X148370207Y-134820103D01*
X148423131Y-134858555D01*
X148489080Y-134929899D01*
X148522707Y-135021049D01*
X148518892Y-135118129D01*
X148478217Y-135206359D01*
X148423131Y-135261445D01*
X148370207Y-135299896D01*
X148219897Y-135450206D01*
X148094950Y-135622182D01*
X147998441Y-135811592D01*
X147932753Y-136013759D01*
X147899500Y-136223703D01*
X147899500Y-136436296D01*
X147932753Y-136646240D01*
X147987738Y-136815468D01*
X147998443Y-136848412D01*
X148094949Y-137037816D01*
X148219896Y-137209792D01*
X148370208Y-137360104D01*
X148542184Y-137485051D01*
X148731588Y-137581557D01*
X148933757Y-137647246D01*
X149007601Y-137658941D01*
X149143703Y-137680499D01*
X149143710Y-137680499D01*
X149143713Y-137680500D01*
X149143716Y-137680500D01*
X149356284Y-137680500D01*
X149356287Y-137680500D01*
X149356290Y-137680499D01*
X149356296Y-137680499D01*
X149455476Y-137664789D01*
X149566243Y-137647246D01*
X149768412Y-137581557D01*
X149957816Y-137485051D01*
X150129792Y-137360104D01*
X150280104Y-137209792D01*
X150405051Y-137037816D01*
X150501557Y-136848412D01*
X150567246Y-136646243D01*
X150600500Y-136436287D01*
X150600500Y-136223713D01*
X150600499Y-136223710D01*
X150600499Y-136223703D01*
X150567246Y-136013759D01*
X150567246Y-136013757D01*
X150501557Y-135811588D01*
X150405051Y-135622184D01*
X150280104Y-135450208D01*
X150129792Y-135299896D01*
X150076867Y-135261444D01*
X150010920Y-135190103D01*
X149977293Y-135098953D01*
X149981107Y-135001873D01*
X150021781Y-134913642D01*
X150076867Y-134858555D01*
X150129792Y-134820104D01*
X150280104Y-134669792D01*
X150405051Y-134497816D01*
X150501557Y-134308412D01*
X150567246Y-134106243D01*
X150600500Y-133896287D01*
X150600500Y-133683713D01*
X150600499Y-133683710D01*
X150600499Y-133683703D01*
X150567246Y-133473759D01*
X150567246Y-133473757D01*
X150501557Y-133271588D01*
X150405051Y-133082184D01*
X150280104Y-132910208D01*
X150129792Y-132759896D01*
X150076867Y-132721444D01*
X150010920Y-132650103D01*
X149977293Y-132558953D01*
X149981107Y-132461873D01*
X150021781Y-132373642D01*
X150076867Y-132318555D01*
X150129792Y-132280104D01*
X150280104Y-132129792D01*
X150405051Y-131957816D01*
X150501557Y-131768412D01*
X150567246Y-131566243D01*
X150600500Y-131356287D01*
X150600500Y-131143713D01*
X150600499Y-131143710D01*
X150600499Y-131143703D01*
X150567246Y-130933759D01*
X150567246Y-130933757D01*
X150501557Y-130731588D01*
X150405051Y-130542184D01*
X150280104Y-130370208D01*
X150280102Y-130370206D01*
X150274353Y-130362293D01*
X150276655Y-130360620D01*
X150238214Y-130291966D01*
X150226802Y-130195484D01*
X150253180Y-130101979D01*
X150313334Y-130025685D01*
X150328597Y-130015169D01*
X150328073Y-130014469D01*
X150342329Y-130003796D01*
X150342331Y-130003796D01*
X150457546Y-129917546D01*
X150543796Y-129802331D01*
X150594091Y-129667483D01*
X150600500Y-129607873D01*
X150600499Y-127812128D01*
X150594091Y-127752517D01*
X150543796Y-127617669D01*
X150457546Y-127502454D01*
X150342331Y-127416204D01*
X150262117Y-127386286D01*
X150207481Y-127365908D01*
X150147873Y-127359500D01*
X148352134Y-127359500D01*
X148352130Y-127359500D01*
X148352128Y-127359501D01*
X148339314Y-127360878D01*
X148292519Y-127365908D01*
X148292515Y-127365909D01*
X148157670Y-127416203D01*
X148042455Y-127502453D01*
X148042453Y-127502455D01*
X147956204Y-127617669D01*
X147905908Y-127752518D01*
X147899500Y-127812123D01*
X124719955Y-127812123D01*
X124821789Y-127710289D01*
X124909394Y-127579179D01*
X124969737Y-127433497D01*
X125000500Y-127278842D01*
X125000500Y-127121158D01*
X124969737Y-126966503D01*
X124919227Y-126844560D01*
X124900273Y-126749272D01*
X124919227Y-126653984D01*
X124973204Y-126573203D01*
X125053986Y-126519227D01*
X125149274Y-126500273D01*
X125244560Y-126519227D01*
X125366503Y-126569737D01*
X125366505Y-126569737D01*
X125366507Y-126569738D01*
X125409104Y-126578211D01*
X125521158Y-126600500D01*
X125678842Y-126600500D01*
X125833497Y-126569737D01*
X125979179Y-126509394D01*
X126110289Y-126421789D01*
X126221789Y-126310289D01*
X126309394Y-126179179D01*
X126369737Y-126033497D01*
X126400500Y-125878842D01*
X126400500Y-125721158D01*
X126390349Y-125670126D01*
X138868500Y-125670126D01*
X138868500Y-125929873D01*
X138901321Y-126179180D01*
X138902404Y-126187401D01*
X138919372Y-126250728D01*
X138969632Y-126438302D01*
X139069030Y-126678270D01*
X139069032Y-126678274D01*
X139069033Y-126678276D01*
X139198908Y-126903225D01*
X139198910Y-126903228D01*
X139198911Y-126903229D01*
X139357025Y-127109288D01*
X139357029Y-127109292D01*
X139357033Y-127109297D01*
X139540703Y-127292967D01*
X139540707Y-127292970D01*
X139540711Y-127292974D01*
X139701307Y-127416203D01*
X139746775Y-127451092D01*
X139971724Y-127580967D01*
X139971729Y-127580969D01*
X140211697Y-127680367D01*
X140211701Y-127680368D01*
X140462599Y-127747596D01*
X140720126Y-127781500D01*
X140979874Y-127781500D01*
X141237401Y-127747596D01*
X141488299Y-127680368D01*
X141488300Y-127680367D01*
X141488302Y-127680367D01*
X141589100Y-127638615D01*
X141728276Y-127580967D01*
X141953225Y-127451092D01*
X142159297Y-127292967D01*
X142342967Y-127109297D01*
X142501092Y-126903225D01*
X142630967Y-126678276D01*
X142730368Y-126438299D01*
X142797596Y-126187401D01*
X142831500Y-125929874D01*
X142831500Y-125670126D01*
X142797596Y-125412599D01*
X142730368Y-125161701D01*
X142730367Y-125161697D01*
X142630969Y-124921729D01*
X142630967Y-124921725D01*
X142630967Y-124921724D01*
X142501092Y-124696775D01*
X142361872Y-124515340D01*
X142342974Y-124490711D01*
X142342970Y-124490707D01*
X142342967Y-124490703D01*
X142159297Y-124307033D01*
X142159292Y-124307029D01*
X142159288Y-124307025D01*
X141953229Y-124148911D01*
X141953228Y-124148910D01*
X141953225Y-124148908D01*
X141728276Y-124019033D01*
X141728274Y-124019032D01*
X141728270Y-124019030D01*
X141488302Y-123919632D01*
X141345415Y-123881346D01*
X141237401Y-123852404D01*
X141237396Y-123852403D01*
X141237397Y-123852403D01*
X140979874Y-123818500D01*
X140720126Y-123818500D01*
X140462603Y-123852403D01*
X140462599Y-123852403D01*
X140462599Y-123852404D01*
X140446850Y-123856623D01*
X140211697Y-123919632D01*
X139971729Y-124019030D01*
X139971725Y-124019032D01*
X139746770Y-124148911D01*
X139540711Y-124307025D01*
X139357025Y-124490711D01*
X139198911Y-124696770D01*
X139069032Y-124921725D01*
X139069030Y-124921729D01*
X138969632Y-125161697D01*
X138902403Y-125412603D01*
X138868500Y-125670126D01*
X126390349Y-125670126D01*
X126369737Y-125566503D01*
X126334069Y-125480393D01*
X126329985Y-125465618D01*
X126327526Y-125432168D01*
X126320983Y-125399271D01*
X126323995Y-125384124D01*
X126322864Y-125368725D01*
X126333392Y-125336883D01*
X126339937Y-125303983D01*
X126348517Y-125291141D01*
X126353365Y-125276482D01*
X126375277Y-125251093D01*
X126393914Y-125223202D01*
X126406754Y-125214622D01*
X126416844Y-125202932D01*
X126446806Y-125187860D01*
X126474695Y-125169226D01*
X126489841Y-125166213D01*
X126503637Y-125159274D01*
X126537086Y-125156815D01*
X126569984Y-125150272D01*
X126585130Y-125153284D01*
X126600530Y-125152153D01*
X126632371Y-125162681D01*
X126654527Y-125167088D01*
X126654801Y-125166187D01*
X126663955Y-125168964D01*
X126665266Y-125169224D01*
X126666503Y-125169737D01*
X126666506Y-125169737D01*
X126666507Y-125169738D01*
X126817148Y-125199702D01*
X126821158Y-125200500D01*
X126978842Y-125200500D01*
X127133497Y-125169737D01*
X127279179Y-125109394D01*
X127410289Y-125021789D01*
X127521789Y-124910289D01*
X127609394Y-124779179D01*
X127669737Y-124633497D01*
X127700500Y-124478842D01*
X127700500Y-124321158D01*
X127669737Y-124166503D01*
X127609394Y-124020821D01*
X127608199Y-124019033D01*
X127521791Y-123889714D01*
X127521789Y-123889711D01*
X127410289Y-123778211D01*
X127403134Y-123773430D01*
X127279180Y-123690606D01*
X127279173Y-123690603D01*
X127185470Y-123651790D01*
X127185465Y-123651788D01*
X127133497Y-123630263D01*
X127008038Y-123605307D01*
X127000818Y-123603416D01*
X126963710Y-123585373D01*
X126925583Y-123569581D01*
X126917373Y-123562843D01*
X126913444Y-123560933D01*
X126909161Y-123556103D01*
X126887851Y-123538615D01*
X126771441Y-123422205D01*
X145938500Y-123422205D01*
X145938500Y-123717794D01*
X145971593Y-124011488D01*
X145997631Y-124125570D01*
X146037362Y-124299640D01*
X146100067Y-124478841D01*
X146134984Y-124578626D01*
X146231563Y-124779173D01*
X146263221Y-124844912D01*
X146304300Y-124910289D01*
X146420469Y-125095172D01*
X146506405Y-125202932D01*
X146604751Y-125326254D01*
X146813746Y-125535249D01*
X147044827Y-125719530D01*
X147295088Y-125876779D01*
X147478695Y-125965199D01*
X147561373Y-126005015D01*
X147561375Y-126005015D01*
X147561382Y-126005019D01*
X147840360Y-126102638D01*
X148128513Y-126168407D01*
X148312073Y-126189089D01*
X148422205Y-126201499D01*
X148422218Y-126201500D01*
X148717782Y-126201500D01*
X148717794Y-126201499D01*
X148804128Y-126191771D01*
X149011487Y-126168407D01*
X149299640Y-126102638D01*
X149578618Y-126005019D01*
X149844912Y-125876779D01*
X150095173Y-125719530D01*
X150326254Y-125535249D01*
X150535249Y-125326254D01*
X150719530Y-125095173D01*
X150876779Y-124844912D01*
X151005019Y-124578618D01*
X151102638Y-124299640D01*
X151168407Y-124011487D01*
X151201500Y-123717782D01*
X151201500Y-123422218D01*
X151168407Y-123128513D01*
X151102638Y-122840360D01*
X151005019Y-122561382D01*
X150876779Y-122295088D01*
X150719530Y-122044827D01*
X150535249Y-121813746D01*
X150326254Y-121604751D01*
X150108736Y-121431286D01*
X150095172Y-121420469D01*
X149934448Y-121319480D01*
X149844912Y-121263221D01*
X149712594Y-121199500D01*
X149578626Y-121134984D01*
X149578619Y-121134981D01*
X149578618Y-121134981D01*
X149299640Y-121037362D01*
X149299639Y-121037361D01*
X149299637Y-121037361D01*
X149011488Y-120971593D01*
X148717794Y-120938500D01*
X148717782Y-120938500D01*
X148422218Y-120938500D01*
X148422205Y-120938500D01*
X148128511Y-120971593D01*
X147840362Y-121037361D01*
X147561373Y-121134984D01*
X147295102Y-121263214D01*
X147295096Y-121263217D01*
X147295088Y-121263221D01*
X147295084Y-121263223D01*
X147295083Y-121263224D01*
X147044827Y-121420469D01*
X146813749Y-121604748D01*
X146813741Y-121604755D01*
X146604755Y-121813741D01*
X146604748Y-121813749D01*
X146420469Y-122044827D01*
X146263224Y-122295083D01*
X146263214Y-122295102D01*
X146134984Y-122561373D01*
X146037361Y-122840362D01*
X145971593Y-123128511D01*
X145938500Y-123422205D01*
X126771441Y-123422205D01*
X123280521Y-119931286D01*
X123280520Y-119931284D01*
X123168716Y-119819480D01*
X123081906Y-119769361D01*
X123081903Y-119769358D01*
X123031784Y-119740422D01*
X123031781Y-119740421D01*
X122879057Y-119699499D01*
X122720943Y-119699499D01*
X122705682Y-119699499D01*
X122705666Y-119699500D01*
X114551875Y-119699500D01*
X114456587Y-119680546D01*
X114375805Y-119626570D01*
X111061385Y-116312150D01*
X111007409Y-116231368D01*
X110993240Y-116184658D01*
X110969738Y-116066507D01*
X110969737Y-116066505D01*
X110969737Y-116066503D01*
X110909394Y-115920821D01*
X110895815Y-115900499D01*
X110821791Y-115789714D01*
X110821789Y-115789711D01*
X110710289Y-115678211D01*
X110695838Y-115668555D01*
X110579180Y-115590606D01*
X110579173Y-115590603D01*
X110433497Y-115530263D01*
X110433492Y-115530261D01*
X110278846Y-115499500D01*
X110278842Y-115499500D01*
X110121158Y-115499500D01*
X110121153Y-115499500D01*
X109966507Y-115530261D01*
X109966502Y-115530263D01*
X109820826Y-115590603D01*
X109820819Y-115590606D01*
X109689714Y-115678208D01*
X109578208Y-115789714D01*
X109490606Y-115920819D01*
X109490603Y-115920826D01*
X109430263Y-116066502D01*
X109430261Y-116066507D01*
X109399500Y-116221153D01*
X97600153Y-116221153D01*
X97602237Y-106352123D01*
X100649500Y-106352123D01*
X100649500Y-108147865D01*
X100649500Y-108147868D01*
X100649501Y-108147872D01*
X100651567Y-108167093D01*
X100655908Y-108207480D01*
X100655909Y-108207484D01*
X100706203Y-108342329D01*
X100706204Y-108342331D01*
X100792454Y-108457546D01*
X100907669Y-108543796D01*
X100907670Y-108543796D01*
X100921927Y-108554469D01*
X100919572Y-108557614D01*
X100968869Y-108598825D01*
X101013889Y-108684919D01*
X101022536Y-108781689D01*
X100993492Y-108874401D01*
X100974739Y-108901633D01*
X100975647Y-108902293D01*
X100844950Y-109082182D01*
X100748441Y-109271592D01*
X100682753Y-109473759D01*
X100649500Y-109683703D01*
X100649500Y-109896296D01*
X100682753Y-110106240D01*
X100734758Y-110266296D01*
X100748443Y-110308412D01*
X100844949Y-110497816D01*
X100844950Y-110497817D01*
X100969897Y-110669793D01*
X101120207Y-110820103D01*
X101173131Y-110858555D01*
X101239080Y-110929899D01*
X101272707Y-111021049D01*
X101268892Y-111118129D01*
X101228217Y-111206359D01*
X101173131Y-111261445D01*
X101120207Y-111299896D01*
X100969897Y-111450206D01*
X100844950Y-111622182D01*
X100748441Y-111811592D01*
X100682753Y-112013759D01*
X100649500Y-112223703D01*
X100649500Y-112436296D01*
X100682753Y-112646240D01*
X100734758Y-112806296D01*
X100748443Y-112848412D01*
X100844949Y-113037816D01*
X100844950Y-113037817D01*
X100969897Y-113209793D01*
X101120207Y-113360103D01*
X101173131Y-113398555D01*
X101239080Y-113469899D01*
X101272707Y-113561049D01*
X101268892Y-113658129D01*
X101228217Y-113746359D01*
X101173131Y-113801445D01*
X101120207Y-113839896D01*
X100969897Y-113990206D01*
X100844950Y-114162182D01*
X100748441Y-114351592D01*
X100682753Y-114553759D01*
X100649500Y-114763703D01*
X100649500Y-114976296D01*
X100682753Y-115186240D01*
X100734758Y-115346296D01*
X100748443Y-115388412D01*
X100844949Y-115577816D01*
X100969896Y-115749792D01*
X101120208Y-115900104D01*
X101292184Y-116025051D01*
X101481588Y-116121557D01*
X101683757Y-116187246D01*
X101757601Y-116198941D01*
X101893703Y-116220499D01*
X101893710Y-116220499D01*
X101893713Y-116220500D01*
X101893716Y-116220500D01*
X102106284Y-116220500D01*
X102106287Y-116220500D01*
X102106290Y-116220499D01*
X102106296Y-116220499D01*
X102205476Y-116204789D01*
X102316243Y-116187246D01*
X102518412Y-116121557D01*
X102707816Y-116025051D01*
X102879792Y-115900104D01*
X103030104Y-115749792D01*
X103155051Y-115577816D01*
X103251557Y-115388412D01*
X103317246Y-115186243D01*
X103350500Y-114976287D01*
X103350500Y-114763713D01*
X103350499Y-114763710D01*
X103350499Y-114763703D01*
X103317246Y-114553759D01*
X103317246Y-114553757D01*
X103251557Y-114351588D01*
X103155051Y-114162184D01*
X103030104Y-113990208D01*
X102879792Y-113839896D01*
X102817145Y-113794381D01*
X102808154Y-113786419D01*
X102785895Y-113757120D01*
X102781276Y-113752123D01*
X114819500Y-113752123D01*
X114819500Y-115447865D01*
X114819501Y-115447869D01*
X114825908Y-115507480D01*
X114825909Y-115507484D01*
X114856912Y-115590606D01*
X114876204Y-115642331D01*
X114962454Y-115757546D01*
X115077669Y-115843796D01*
X115078337Y-115844045D01*
X115079953Y-115845043D01*
X115093298Y-115852330D01*
X115092907Y-115853044D01*
X115160991Y-115895097D01*
X115217820Y-115973898D01*
X115240168Y-116068448D01*
X115224632Y-116164352D01*
X115173577Y-116247011D01*
X115167398Y-116253415D01*
X115128037Y-116292776D01*
X115007711Y-116458392D01*
X114914782Y-116640775D01*
X114914778Y-116640785D01*
X114851522Y-116835468D01*
X114819500Y-117037638D01*
X114819500Y-117242361D01*
X114851522Y-117444531D01*
X114914778Y-117639214D01*
X114914782Y-117639224D01*
X115004780Y-117815854D01*
X115007713Y-117821610D01*
X115128034Y-117987219D01*
X115272781Y-118131966D01*
X115438390Y-118252287D01*
X115438392Y-118252288D01*
X115597763Y-118333492D01*
X115620781Y-118345220D01*
X115815466Y-118408477D01*
X115886575Y-118419739D01*
X116017638Y-118440499D01*
X116017645Y-118440499D01*
X116017648Y-118440500D01*
X116017651Y-118440500D01*
X116222349Y-118440500D01*
X116222352Y-118440500D01*
X116222355Y-118440499D01*
X116222361Y-118440499D01*
X116317870Y-118425371D01*
X116424534Y-118408477D01*
X116619219Y-118345220D01*
X116801610Y-118252287D01*
X116967219Y-118131966D01*
X117111966Y-117987219D01*
X117188555Y-117881801D01*
X117259897Y-117815854D01*
X117351047Y-117782227D01*
X117448127Y-117786041D01*
X117536358Y-117826715D01*
X117591443Y-117881800D01*
X117668034Y-117987219D01*
X117812781Y-118131966D01*
X117978390Y-118252287D01*
X117978392Y-118252288D01*
X118137763Y-118333492D01*
X118160781Y-118345220D01*
X118355466Y-118408477D01*
X118426575Y-118419739D01*
X118557638Y-118440499D01*
X118557645Y-118440499D01*
X118557648Y-118440500D01*
X118557651Y-118440500D01*
X118762349Y-118440500D01*
X118762352Y-118440500D01*
X118762355Y-118440499D01*
X118762361Y-118440499D01*
X118857870Y-118425371D01*
X118964534Y-118408477D01*
X119159219Y-118345220D01*
X119341610Y-118252287D01*
X119507219Y-118131966D01*
X119651966Y-117987219D01*
X119772287Y-117821610D01*
X119865220Y-117639219D01*
X119928477Y-117444534D01*
X119946576Y-117330263D01*
X119960499Y-117242361D01*
X119960500Y-117242349D01*
X119960500Y-117037650D01*
X119960499Y-117037638D01*
X119928477Y-116835468D01*
X119928477Y-116835466D01*
X119865220Y-116640781D01*
X119772287Y-116458390D01*
X119651966Y-116292781D01*
X119507219Y-116148034D01*
X119401801Y-116071444D01*
X119335854Y-116000103D01*
X119302227Y-115908953D01*
X119306041Y-115811873D01*
X119346715Y-115723642D01*
X119401802Y-115668555D01*
X119507219Y-115591966D01*
X119651966Y-115447219D01*
X119728555Y-115341801D01*
X119799897Y-115275854D01*
X119891047Y-115242227D01*
X119988127Y-115246041D01*
X120076358Y-115286715D01*
X120131443Y-115341800D01*
X120208034Y-115447219D01*
X120352781Y-115591966D01*
X120518390Y-115712287D01*
X120700781Y-115805220D01*
X120895466Y-115868477D01*
X120966575Y-115879739D01*
X121097638Y-115900499D01*
X121097645Y-115900499D01*
X121097648Y-115900500D01*
X121097651Y-115900500D01*
X121302349Y-115900500D01*
X121302352Y-115900500D01*
X121302355Y-115900499D01*
X121302361Y-115900499D01*
X121407455Y-115883853D01*
X121504534Y-115868477D01*
X121699219Y-115805220D01*
X121881610Y-115712287D01*
X122047219Y-115591966D01*
X122191966Y-115447219D01*
X122268555Y-115341801D01*
X122339897Y-115275854D01*
X122431047Y-115242227D01*
X122528127Y-115246041D01*
X122616358Y-115286715D01*
X122671443Y-115341800D01*
X122746762Y-115445468D01*
X122748035Y-115447220D01*
X122892781Y-115591966D01*
X122892785Y-115591969D01*
X122998196Y-115668555D01*
X123064145Y-115739898D01*
X123097772Y-115831048D01*
X123093958Y-115928128D01*
X123053283Y-116016358D01*
X122998196Y-116071445D01*
X122892785Y-116148030D01*
X122892781Y-116148033D01*
X122748035Y-116292779D01*
X122627711Y-116458392D01*
X122534782Y-116640775D01*
X122534778Y-116640785D01*
X122471522Y-116835468D01*
X122439500Y-117037638D01*
X122439500Y-117242361D01*
X122471522Y-117444531D01*
X122534778Y-117639214D01*
X122534782Y-117639224D01*
X122624780Y-117815854D01*
X122627713Y-117821610D01*
X122748034Y-117987219D01*
X122892781Y-118131966D01*
X123058390Y-118252287D01*
X123058392Y-118252288D01*
X123217763Y-118333492D01*
X123240781Y-118345220D01*
X123435466Y-118408477D01*
X123506575Y-118419739D01*
X123637638Y-118440499D01*
X123637645Y-118440499D01*
X123637648Y-118440500D01*
X123637651Y-118440500D01*
X123842349Y-118440500D01*
X123842352Y-118440500D01*
X123842355Y-118440499D01*
X123842361Y-118440499D01*
X123937870Y-118425371D01*
X124044534Y-118408477D01*
X124239219Y-118345220D01*
X124421610Y-118252287D01*
X124587219Y-118131966D01*
X124731966Y-117987219D01*
X124808555Y-117881801D01*
X124879897Y-117815854D01*
X124971047Y-117782227D01*
X125068127Y-117786041D01*
X125156358Y-117826715D01*
X125211443Y-117881800D01*
X125288034Y-117987219D01*
X125432781Y-118131966D01*
X125598390Y-118252287D01*
X125598392Y-118252288D01*
X125757763Y-118333492D01*
X125780781Y-118345220D01*
X125975466Y-118408477D01*
X126046575Y-118419739D01*
X126177638Y-118440499D01*
X126177645Y-118440499D01*
X126177648Y-118440500D01*
X126177651Y-118440500D01*
X126382349Y-118440500D01*
X126382352Y-118440500D01*
X126382355Y-118440499D01*
X126382361Y-118440499D01*
X126477870Y-118425371D01*
X126584534Y-118408477D01*
X126779219Y-118345220D01*
X126961610Y-118252287D01*
X127127219Y-118131966D01*
X127271966Y-117987219D01*
X127348555Y-117881801D01*
X127419897Y-117815854D01*
X127511047Y-117782227D01*
X127608127Y-117786041D01*
X127696358Y-117826715D01*
X127751443Y-117881800D01*
X127828034Y-117987219D01*
X127972781Y-118131966D01*
X128138390Y-118252287D01*
X128138392Y-118252288D01*
X128297763Y-118333492D01*
X128320781Y-118345220D01*
X128515466Y-118408477D01*
X128586575Y-118419739D01*
X128717638Y-118440499D01*
X128717645Y-118440499D01*
X128717648Y-118440500D01*
X128717651Y-118440500D01*
X128922349Y-118440500D01*
X128922352Y-118440500D01*
X128922355Y-118440499D01*
X128922361Y-118440499D01*
X129017870Y-118425371D01*
X129124534Y-118408477D01*
X129319219Y-118345220D01*
X129501610Y-118252287D01*
X129667219Y-118131966D01*
X129811966Y-117987219D01*
X129888555Y-117881801D01*
X129959897Y-117815854D01*
X130051047Y-117782227D01*
X130148127Y-117786041D01*
X130236358Y-117826715D01*
X130291443Y-117881800D01*
X130368034Y-117987219D01*
X130512781Y-118131966D01*
X130678390Y-118252287D01*
X130678392Y-118252288D01*
X130837763Y-118333492D01*
X130860781Y-118345220D01*
X131055466Y-118408477D01*
X131126575Y-118419739D01*
X131257638Y-118440499D01*
X131257645Y-118440499D01*
X131257648Y-118440500D01*
X131257651Y-118440500D01*
X131462349Y-118440500D01*
X131462352Y-118440500D01*
X131462355Y-118440499D01*
X131462361Y-118440499D01*
X131557870Y-118425371D01*
X131664534Y-118408477D01*
X131859219Y-118345220D01*
X132041610Y-118252287D01*
X132207219Y-118131966D01*
X132351966Y-117987219D01*
X132472287Y-117821610D01*
X132565220Y-117639219D01*
X132628477Y-117444534D01*
X132646576Y-117330263D01*
X132660499Y-117242361D01*
X132660500Y-117242349D01*
X132660500Y-117037650D01*
X132660499Y-117037638D01*
X132628477Y-116835468D01*
X132628477Y-116835466D01*
X132565220Y-116640781D01*
X132472287Y-116458390D01*
X132351966Y-116292781D01*
X132207219Y-116148034D01*
X132101801Y-116071444D01*
X132035854Y-116000103D01*
X132002227Y-115908953D01*
X132006041Y-115811873D01*
X132046715Y-115723642D01*
X132101802Y-115668555D01*
X132207219Y-115591966D01*
X132351966Y-115447219D01*
X132428555Y-115341801D01*
X132499897Y-115275854D01*
X132591047Y-115242227D01*
X132688127Y-115246041D01*
X132776358Y-115286715D01*
X132831443Y-115341800D01*
X132908034Y-115447219D01*
X133052781Y-115591966D01*
X133218390Y-115712287D01*
X133400781Y-115805220D01*
X133595466Y-115868477D01*
X133666575Y-115879739D01*
X133797638Y-115900499D01*
X133797645Y-115900499D01*
X133797648Y-115900500D01*
X133797651Y-115900500D01*
X134002349Y-115900500D01*
X134002352Y-115900500D01*
X134002355Y-115900499D01*
X134002361Y-115900499D01*
X134107455Y-115883853D01*
X134204534Y-115868477D01*
X134399219Y-115805220D01*
X134581610Y-115712287D01*
X134670592Y-115647638D01*
X138199500Y-115647638D01*
X138199500Y-115852361D01*
X138231522Y-116054531D01*
X138294778Y-116249214D01*
X138294782Y-116249224D01*
X138375967Y-116408558D01*
X138387713Y-116431610D01*
X138508034Y-116597219D01*
X138652781Y-116741966D01*
X138818390Y-116862287D01*
X139000781Y-116955220D01*
X139195466Y-117018477D01*
X139266575Y-117029739D01*
X139397638Y-117050499D01*
X139397645Y-117050499D01*
X139397648Y-117050500D01*
X139397651Y-117050500D01*
X139602349Y-117050500D01*
X139602352Y-117050500D01*
X139602355Y-117050499D01*
X139602361Y-117050499D01*
X139697870Y-117035371D01*
X139804534Y-117018477D01*
X139999219Y-116955220D01*
X140181610Y-116862287D01*
X140347219Y-116741966D01*
X140491966Y-116597219D01*
X140612287Y-116431610D01*
X140705220Y-116249219D01*
X140768477Y-116054534D01*
X140785380Y-115947816D01*
X140800499Y-115852361D01*
X140800500Y-115852349D01*
X140800500Y-115647650D01*
X140800499Y-115647638D01*
X140776757Y-115497743D01*
X140768477Y-115445466D01*
X140705220Y-115250781D01*
X140612287Y-115068390D01*
X140491966Y-114902781D01*
X140347219Y-114758034D01*
X140181610Y-114637713D01*
X140181609Y-114637712D01*
X140181607Y-114637711D01*
X139999224Y-114544782D01*
X139999214Y-114544778D01*
X139804531Y-114481522D01*
X139602361Y-114449500D01*
X139602352Y-114449500D01*
X139397648Y-114449500D01*
X139397638Y-114449500D01*
X139195468Y-114481522D01*
X139000785Y-114544778D01*
X139000775Y-114544782D01*
X138818392Y-114637711D01*
X138652779Y-114758035D01*
X138508035Y-114902779D01*
X138387711Y-115068392D01*
X138294782Y-115250775D01*
X138294778Y-115250785D01*
X138231522Y-115445468D01*
X138199500Y-115647638D01*
X134670592Y-115647638D01*
X134747219Y-115591966D01*
X134891966Y-115447219D01*
X135012287Y-115281610D01*
X135105220Y-115099219D01*
X135168477Y-114904534D01*
X135197453Y-114721592D01*
X135200499Y-114702361D01*
X135200500Y-114702349D01*
X135200500Y-114497650D01*
X135200499Y-114497638D01*
X135168477Y-114295468D01*
X135168477Y-114295466D01*
X135105220Y-114100781D01*
X135012287Y-113918390D01*
X134891966Y-113752781D01*
X134747219Y-113608034D01*
X134581610Y-113487713D01*
X134581609Y-113487712D01*
X134581607Y-113487711D01*
X134399224Y-113394782D01*
X134399214Y-113394778D01*
X134204531Y-113331522D01*
X134002361Y-113299500D01*
X134002352Y-113299500D01*
X133797648Y-113299500D01*
X133797638Y-113299500D01*
X133595468Y-113331522D01*
X133400785Y-113394778D01*
X133400775Y-113394782D01*
X133218392Y-113487711D01*
X133052779Y-113608035D01*
X132908033Y-113752781D01*
X132908030Y-113752785D01*
X132831445Y-113858196D01*
X132760102Y-113924145D01*
X132668952Y-113957772D01*
X132571872Y-113953958D01*
X132483642Y-113913283D01*
X132428555Y-113858196D01*
X132351969Y-113752785D01*
X132351966Y-113752781D01*
X132207220Y-113608035D01*
X132138809Y-113558332D01*
X132041610Y-113487713D01*
X132041609Y-113487712D01*
X132041607Y-113487711D01*
X131859224Y-113394782D01*
X131859214Y-113394778D01*
X131664531Y-113331522D01*
X131462361Y-113299500D01*
X131462352Y-113299500D01*
X131257648Y-113299500D01*
X131257638Y-113299500D01*
X131055468Y-113331522D01*
X130860785Y-113394778D01*
X130860775Y-113394782D01*
X130678392Y-113487711D01*
X130512779Y-113608035D01*
X130368033Y-113752781D01*
X130368030Y-113752785D01*
X130291445Y-113858196D01*
X130220102Y-113924145D01*
X130128952Y-113957772D01*
X130031872Y-113953958D01*
X129943642Y-113913283D01*
X129888555Y-113858196D01*
X129811969Y-113752785D01*
X129811966Y-113752781D01*
X129667220Y-113608035D01*
X129598809Y-113558332D01*
X129501610Y-113487713D01*
X129501609Y-113487712D01*
X129501607Y-113487711D01*
X129319224Y-113394782D01*
X129319214Y-113394778D01*
X129124531Y-113331522D01*
X128922361Y-113299500D01*
X128922352Y-113299500D01*
X128717648Y-113299500D01*
X128717638Y-113299500D01*
X128515468Y-113331522D01*
X128320785Y-113394778D01*
X128320775Y-113394782D01*
X128138392Y-113487711D01*
X127972779Y-113608035D01*
X127828033Y-113752781D01*
X127828030Y-113752785D01*
X127751445Y-113858196D01*
X127680102Y-113924145D01*
X127588952Y-113957772D01*
X127491872Y-113953958D01*
X127403642Y-113913283D01*
X127348555Y-113858196D01*
X127271969Y-113752785D01*
X127271966Y-113752781D01*
X127127220Y-113608035D01*
X127058809Y-113558332D01*
X126961610Y-113487713D01*
X126961609Y-113487712D01*
X126961607Y-113487711D01*
X126779224Y-113394782D01*
X126779214Y-113394778D01*
X126584531Y-113331522D01*
X126382361Y-113299500D01*
X126382352Y-113299500D01*
X126177648Y-113299500D01*
X126177638Y-113299500D01*
X125975468Y-113331522D01*
X125780785Y-113394778D01*
X125780775Y-113394782D01*
X125598392Y-113487711D01*
X125432779Y-113608035D01*
X125288033Y-113752781D01*
X125288030Y-113752785D01*
X125211445Y-113858196D01*
X125140102Y-113924145D01*
X125048952Y-113957772D01*
X124951872Y-113953958D01*
X124863642Y-113913283D01*
X124808555Y-113858196D01*
X124731969Y-113752785D01*
X124731966Y-113752781D01*
X124587220Y-113608035D01*
X124518809Y-113558332D01*
X124421610Y-113487713D01*
X124421609Y-113487712D01*
X124421607Y-113487711D01*
X124239224Y-113394782D01*
X124239214Y-113394778D01*
X124044531Y-113331522D01*
X123842361Y-113299500D01*
X123842352Y-113299500D01*
X123637648Y-113299500D01*
X123637638Y-113299500D01*
X123435468Y-113331522D01*
X123240785Y-113394778D01*
X123240775Y-113394782D01*
X123058392Y-113487711D01*
X122892779Y-113608035D01*
X122748033Y-113752781D01*
X122748030Y-113752785D01*
X122671445Y-113858196D01*
X122600102Y-113924145D01*
X122508952Y-113957772D01*
X122411872Y-113953958D01*
X122323642Y-113913283D01*
X122268555Y-113858196D01*
X122191969Y-113752785D01*
X122191966Y-113752781D01*
X122047220Y-113608035D01*
X121978809Y-113558332D01*
X121881610Y-113487713D01*
X121881609Y-113487712D01*
X121881607Y-113487711D01*
X121699224Y-113394782D01*
X121699214Y-113394778D01*
X121504531Y-113331522D01*
X121302361Y-113299500D01*
X121302352Y-113299500D01*
X121097648Y-113299500D01*
X121097638Y-113299500D01*
X120895468Y-113331522D01*
X120700785Y-113394778D01*
X120700775Y-113394782D01*
X120518392Y-113487711D01*
X120352779Y-113608035D01*
X120208033Y-113752781D01*
X120208030Y-113752785D01*
X120131445Y-113858196D01*
X120060102Y-113924145D01*
X119968952Y-113957772D01*
X119871872Y-113953958D01*
X119783642Y-113913283D01*
X119728555Y-113858196D01*
X119651969Y-113752785D01*
X119651966Y-113752781D01*
X119507220Y-113608035D01*
X119438809Y-113558332D01*
X119341610Y-113487713D01*
X119341609Y-113487712D01*
X119341607Y-113487711D01*
X119159224Y-113394782D01*
X119159214Y-113394778D01*
X118964531Y-113331522D01*
X118762361Y-113299500D01*
X118762352Y-113299500D01*
X118557648Y-113299500D01*
X118557638Y-113299500D01*
X118355468Y-113331522D01*
X118160785Y-113394778D01*
X118160775Y-113394782D01*
X117978392Y-113487711D01*
X117812776Y-113608037D01*
X117773415Y-113647398D01*
X117692633Y-113701374D01*
X117597344Y-113720327D01*
X117502056Y-113701372D01*
X117421276Y-113647395D01*
X117367300Y-113566613D01*
X117364066Y-113558394D01*
X117363796Y-113557669D01*
X117277546Y-113442454D01*
X117162331Y-113356204D01*
X117082117Y-113326286D01*
X117027481Y-113305908D01*
X116967873Y-113299500D01*
X115272134Y-113299500D01*
X115272130Y-113299500D01*
X115272128Y-113299501D01*
X115259314Y-113300878D01*
X115212519Y-113305908D01*
X115212515Y-113305909D01*
X115077670Y-113356203D01*
X114962455Y-113442453D01*
X114962453Y-113442455D01*
X114876204Y-113557669D01*
X114825908Y-113692518D01*
X114819500Y-113752123D01*
X102781276Y-113752123D01*
X102760920Y-113730103D01*
X102756720Y-113718720D01*
X102749380Y-113709058D01*
X102740027Y-113673470D01*
X102727293Y-113638953D01*
X102727769Y-113626828D01*
X102724685Y-113615093D01*
X102729662Y-113578635D01*
X102731107Y-113541873D01*
X102736186Y-113530854D01*
X102737828Y-113518832D01*
X102756377Y-113487056D01*
X102771781Y-113453642D01*
X102781635Y-113443787D01*
X102786808Y-113434927D01*
X102802157Y-113423265D01*
X102826867Y-113398555D01*
X102879792Y-113360104D01*
X103030104Y-113209792D01*
X103155051Y-113037816D01*
X103251557Y-112848412D01*
X103317246Y-112646243D01*
X103350500Y-112436287D01*
X103350500Y-112223713D01*
X103350499Y-112223710D01*
X103350499Y-112223703D01*
X103317246Y-112013759D01*
X103317246Y-112013757D01*
X103251557Y-111811588D01*
X103155051Y-111622184D01*
X103030104Y-111450208D01*
X102879792Y-111299896D01*
X102826867Y-111261444D01*
X102760920Y-111190103D01*
X102727293Y-111098953D01*
X102731107Y-111001873D01*
X102771781Y-110913642D01*
X102826867Y-110858555D01*
X102879792Y-110820104D01*
X103030104Y-110669792D01*
X103155051Y-110497816D01*
X103251557Y-110308412D01*
X103317246Y-110106243D01*
X103350500Y-109896287D01*
X103350500Y-109683713D01*
X103350499Y-109683710D01*
X103350499Y-109683703D01*
X103317246Y-109473759D01*
X103317246Y-109473757D01*
X103251557Y-109271588D01*
X103155051Y-109082184D01*
X103030104Y-108910208D01*
X103030102Y-108910206D01*
X103024353Y-108902293D01*
X103026655Y-108900620D01*
X102988214Y-108831966D01*
X102976802Y-108735484D01*
X103003180Y-108641979D01*
X103063334Y-108565685D01*
X103078597Y-108555169D01*
X103078073Y-108554469D01*
X103092329Y-108543796D01*
X103092331Y-108543796D01*
X103207546Y-108457546D01*
X103293796Y-108342331D01*
X103344091Y-108207483D01*
X103350500Y-108147873D01*
X103350499Y-106352128D01*
X103344091Y-106292517D01*
X103293796Y-106157669D01*
X103207546Y-106042454D01*
X103092331Y-105956204D01*
X103012117Y-105926286D01*
X102957481Y-105905908D01*
X102897873Y-105899500D01*
X101102134Y-105899500D01*
X101102130Y-105899500D01*
X101102128Y-105899501D01*
X101089314Y-105900878D01*
X101042519Y-105905908D01*
X101042515Y-105905909D01*
X100907670Y-105956203D01*
X100792455Y-106042453D01*
X100792453Y-106042455D01*
X100706204Y-106157669D01*
X100655908Y-106292518D01*
X100649500Y-106352123D01*
X97602237Y-106352123D01*
X97602445Y-105366848D01*
X113968500Y-105366848D01*
X113968500Y-105633151D01*
X114003259Y-105897179D01*
X114072181Y-106154399D01*
X114174090Y-106400429D01*
X114174092Y-106400433D01*
X114307242Y-106631058D01*
X114307250Y-106631071D01*
X114469352Y-106842326D01*
X114469356Y-106842330D01*
X114469360Y-106842335D01*
X114657665Y-107030640D01*
X114657669Y-107030643D01*
X114657673Y-107030647D01*
X114868928Y-107192749D01*
X114868933Y-107192752D01*
X114868937Y-107192755D01*
X115099563Y-107325906D01*
X115345595Y-107427816D01*
X115345598Y-107427816D01*
X115345601Y-107427818D01*
X115345600Y-107427818D01*
X115602820Y-107496740D01*
X115602824Y-107496741D01*
X115866848Y-107531500D01*
X116133152Y-107531500D01*
X116397176Y-107496741D01*
X116482919Y-107473766D01*
X116654399Y-107427818D01*
X116654401Y-107427816D01*
X116654405Y-107427816D01*
X116900437Y-107325906D01*
X117131063Y-107192755D01*
X117342335Y-107030640D01*
X117530640Y-106842335D01*
X117609005Y-106740208D01*
X117692749Y-106631071D01*
X117692749Y-106631070D01*
X117692755Y-106631063D01*
X117825906Y-106400437D01*
X117927816Y-106154405D01*
X117928999Y-106149993D01*
X117996740Y-105897179D01*
X117996741Y-105897176D01*
X118031500Y-105633152D01*
X118031500Y-105366848D01*
X131968500Y-105366848D01*
X131968500Y-105633151D01*
X132003259Y-105897179D01*
X132072181Y-106154399D01*
X132174090Y-106400429D01*
X132174092Y-106400433D01*
X132307242Y-106631058D01*
X132307250Y-106631071D01*
X132469352Y-106842326D01*
X132469356Y-106842330D01*
X132469360Y-106842335D01*
X132657665Y-107030640D01*
X132657669Y-107030643D01*
X132657673Y-107030647D01*
X132868928Y-107192749D01*
X132868933Y-107192752D01*
X132868937Y-107192755D01*
X133099563Y-107325906D01*
X133345595Y-107427816D01*
X133345598Y-107427816D01*
X133345601Y-107427818D01*
X133345600Y-107427818D01*
X133602820Y-107496740D01*
X133602824Y-107496741D01*
X133866848Y-107531500D01*
X134133152Y-107531500D01*
X134397176Y-107496741D01*
X134482919Y-107473766D01*
X134654399Y-107427818D01*
X134654401Y-107427816D01*
X134654405Y-107427816D01*
X134900437Y-107325906D01*
X135131063Y-107192755D01*
X135342335Y-107030640D01*
X135530640Y-106842335D01*
X135609005Y-106740208D01*
X135692749Y-106631071D01*
X135692749Y-106631070D01*
X135692755Y-106631063D01*
X135825906Y-106400437D01*
X135927816Y-106154405D01*
X135929000Y-106149988D01*
X139296849Y-106149988D01*
X139296849Y-107350006D01*
X139307350Y-107452800D01*
X139362534Y-107619331D01*
X139362535Y-107619334D01*
X139454637Y-107768656D01*
X139578693Y-107892712D01*
X139728015Y-107984814D01*
X139728018Y-107984815D01*
X139728016Y-107984815D01*
X139891659Y-108039040D01*
X139894552Y-108039999D01*
X139997340Y-108050500D01*
X141197357Y-108050499D01*
X141300146Y-108039999D01*
X141466683Y-107984814D01*
X141616005Y-107892712D01*
X141740061Y-107768656D01*
X141832163Y-107619334D01*
X141887348Y-107452797D01*
X141897849Y-107350009D01*
X141897848Y-106149992D01*
X141887348Y-106047203D01*
X141885774Y-106042454D01*
X141857194Y-105956204D01*
X141832163Y-105880666D01*
X141740061Y-105731344D01*
X141616005Y-105607288D01*
X141466683Y-105515186D01*
X141466681Y-105515185D01*
X141466679Y-105515184D01*
X141466681Y-105515184D01*
X141300151Y-105460002D01*
X141300147Y-105460001D01*
X141300146Y-105460001D01*
X141197358Y-105449500D01*
X141197354Y-105449500D01*
X139997342Y-105449500D01*
X139894548Y-105460001D01*
X139728016Y-105515185D01*
X139578695Y-105607286D01*
X139454635Y-105731346D01*
X139362533Y-105880668D01*
X139307351Y-106047197D01*
X139307350Y-106047204D01*
X139296849Y-106149988D01*
X135929000Y-106149988D01*
X135996741Y-105897176D01*
X136031500Y-105633152D01*
X136031500Y-105366848D01*
X135996741Y-105102824D01*
X135976793Y-105028376D01*
X135962143Y-104973703D01*
X148149500Y-104973703D01*
X148149500Y-105186296D01*
X148182753Y-105396240D01*
X148182754Y-105396243D01*
X148248443Y-105598412D01*
X148344949Y-105787816D01*
X148467289Y-105956203D01*
X148469897Y-105959793D01*
X148620207Y-106110103D01*
X148673131Y-106148555D01*
X148739080Y-106219899D01*
X148772707Y-106311049D01*
X148768892Y-106408129D01*
X148728217Y-106496359D01*
X148673131Y-106551445D01*
X148620207Y-106589896D01*
X148469897Y-106740206D01*
X148344950Y-106912182D01*
X148248441Y-107101592D01*
X148182753Y-107303759D01*
X148149500Y-107513703D01*
X148149500Y-107726296D01*
X148182753Y-107936240D01*
X148219878Y-108050500D01*
X148248443Y-108138412D01*
X148344949Y-108327816D01*
X148439202Y-108457544D01*
X148469897Y-108499793D01*
X148620207Y-108650103D01*
X148673131Y-108688555D01*
X148739080Y-108759899D01*
X148772707Y-108851049D01*
X148768892Y-108948129D01*
X148728217Y-109036359D01*
X148673131Y-109091445D01*
X148620207Y-109129896D01*
X148469897Y-109280206D01*
X148344950Y-109452182D01*
X148248441Y-109641592D01*
X148182753Y-109843759D01*
X148149500Y-110053703D01*
X148149500Y-110266296D01*
X148182753Y-110476240D01*
X148245642Y-110669793D01*
X148248443Y-110678412D01*
X148344949Y-110867816D01*
X148442347Y-111001873D01*
X148469897Y-111039793D01*
X148620207Y-111190103D01*
X148620206Y-111190103D01*
X148673131Y-111228555D01*
X148739080Y-111299899D01*
X148772707Y-111391049D01*
X148768892Y-111488129D01*
X148728217Y-111576359D01*
X148673131Y-111631445D01*
X148620207Y-111669896D01*
X148469897Y-111820206D01*
X148344950Y-111992182D01*
X148248441Y-112181592D01*
X148182753Y-112383759D01*
X148149500Y-112593703D01*
X148149500Y-112806296D01*
X148182753Y-113016240D01*
X148245642Y-113209793D01*
X148248443Y-113218412D01*
X148344949Y-113407816D01*
X148469056Y-113578635D01*
X148469897Y-113579793D01*
X148620207Y-113730103D01*
X148620206Y-113730103D01*
X148673131Y-113768555D01*
X148739080Y-113839899D01*
X148772707Y-113931049D01*
X148768892Y-114028129D01*
X148728217Y-114116359D01*
X148673131Y-114171445D01*
X148620207Y-114209896D01*
X148469897Y-114360206D01*
X148344950Y-114532182D01*
X148248441Y-114721592D01*
X148182753Y-114923759D01*
X148149500Y-115133703D01*
X148149500Y-115346296D01*
X148182753Y-115556240D01*
X148248161Y-115757546D01*
X148248443Y-115758412D01*
X148344949Y-115947816D01*
X148431183Y-116066507D01*
X148469897Y-116119793D01*
X148620207Y-116270103D01*
X148673131Y-116308555D01*
X148739080Y-116379899D01*
X148772707Y-116471049D01*
X148768892Y-116568129D01*
X148728217Y-116656359D01*
X148673131Y-116711445D01*
X148620207Y-116749896D01*
X148469897Y-116900206D01*
X148344950Y-117072182D01*
X148248441Y-117261592D01*
X148182753Y-117463759D01*
X148149500Y-117673703D01*
X148149500Y-117886296D01*
X148182753Y-118096240D01*
X148194360Y-118131964D01*
X148248443Y-118298412D01*
X148344949Y-118487816D01*
X148469896Y-118659792D01*
X148620208Y-118810104D01*
X148792184Y-118935051D01*
X148981588Y-119031557D01*
X149183757Y-119097246D01*
X149257601Y-119108941D01*
X149393703Y-119130499D01*
X149393710Y-119130499D01*
X149393713Y-119130500D01*
X149393716Y-119130500D01*
X149606284Y-119130500D01*
X149606287Y-119130500D01*
X149606290Y-119130499D01*
X149606296Y-119130499D01*
X149705476Y-119114789D01*
X149816243Y-119097246D01*
X150018412Y-119031557D01*
X150207816Y-118935051D01*
X150379792Y-118810104D01*
X150530104Y-118659792D01*
X150655051Y-118487816D01*
X150751557Y-118298412D01*
X150817246Y-118096243D01*
X150850500Y-117886287D01*
X150850500Y-117673713D01*
X150850499Y-117673710D01*
X150850499Y-117673703D01*
X150819535Y-117478211D01*
X150817246Y-117463757D01*
X150751557Y-117261588D01*
X150655051Y-117072184D01*
X150530104Y-116900208D01*
X150379792Y-116749896D01*
X150326867Y-116711444D01*
X150260920Y-116640103D01*
X150227293Y-116548953D01*
X150231107Y-116451873D01*
X150271781Y-116363642D01*
X150326867Y-116308555D01*
X150379792Y-116270104D01*
X150530104Y-116119792D01*
X150655051Y-115947816D01*
X150751557Y-115758412D01*
X150817246Y-115556243D01*
X150850500Y-115346287D01*
X150850500Y-115133713D01*
X150850499Y-115133710D01*
X150850499Y-115133703D01*
X150825566Y-114976287D01*
X150817246Y-114923757D01*
X150751557Y-114721588D01*
X150655051Y-114532184D01*
X150530104Y-114360208D01*
X150379792Y-114209896D01*
X150326867Y-114171444D01*
X150260920Y-114100103D01*
X150227293Y-114008953D01*
X150231107Y-113911873D01*
X150271781Y-113823642D01*
X150326867Y-113768555D01*
X150379792Y-113730104D01*
X150530104Y-113579792D01*
X150655051Y-113407816D01*
X150751557Y-113218412D01*
X150817246Y-113016243D01*
X150850500Y-112806287D01*
X150850500Y-112593713D01*
X150850499Y-112593710D01*
X150850499Y-112593703D01*
X150825566Y-112436287D01*
X150817246Y-112383757D01*
X150751557Y-112181588D01*
X150655051Y-111992184D01*
X150530104Y-111820208D01*
X150379792Y-111669896D01*
X150326867Y-111631444D01*
X150260920Y-111560103D01*
X150227293Y-111468953D01*
X150231107Y-111371873D01*
X150271781Y-111283642D01*
X150326867Y-111228555D01*
X150379792Y-111190104D01*
X150530104Y-111039792D01*
X150655051Y-110867816D01*
X150751557Y-110678412D01*
X150817246Y-110476243D01*
X150850500Y-110266287D01*
X150850500Y-110053713D01*
X150850499Y-110053710D01*
X150850499Y-110053703D01*
X150825566Y-109896287D01*
X150817246Y-109843757D01*
X150751557Y-109641588D01*
X150655051Y-109452184D01*
X150530104Y-109280208D01*
X150379792Y-109129896D01*
X150326867Y-109091444D01*
X150260920Y-109020103D01*
X150227293Y-108928953D01*
X150231107Y-108831873D01*
X150271781Y-108743642D01*
X150326867Y-108688555D01*
X150379792Y-108650104D01*
X150530104Y-108499792D01*
X150655051Y-108327816D01*
X150751557Y-108138412D01*
X150817246Y-107936243D01*
X150834789Y-107825476D01*
X150850499Y-107726296D01*
X150850500Y-107726284D01*
X150850500Y-107513715D01*
X150850499Y-107513703D01*
X150824571Y-107350006D01*
X150817246Y-107303757D01*
X150751557Y-107101588D01*
X150655051Y-106912184D01*
X150530104Y-106740208D01*
X150379792Y-106589896D01*
X150326867Y-106551444D01*
X150260920Y-106480103D01*
X150227293Y-106388953D01*
X150231107Y-106291873D01*
X150271781Y-106203642D01*
X150326867Y-106148555D01*
X150379792Y-106110104D01*
X150530104Y-105959792D01*
X150655051Y-105787816D01*
X150751557Y-105598412D01*
X150817246Y-105396243D01*
X150850500Y-105186287D01*
X150850500Y-104973713D01*
X150850499Y-104973710D01*
X150850499Y-104973703D01*
X150817246Y-104763759D01*
X150817246Y-104763757D01*
X150751557Y-104561588D01*
X150655051Y-104372184D01*
X150530104Y-104200208D01*
X150379792Y-104049896D01*
X150207816Y-103924949D01*
X150018412Y-103828443D01*
X150018409Y-103828442D01*
X150018407Y-103828441D01*
X149816240Y-103762753D01*
X149606296Y-103729500D01*
X149606287Y-103729500D01*
X149393713Y-103729500D01*
X149393703Y-103729500D01*
X149183759Y-103762753D01*
X148981592Y-103828441D01*
X148792182Y-103924950D01*
X148620206Y-104049897D01*
X148469897Y-104200206D01*
X148344950Y-104372182D01*
X148248441Y-104561592D01*
X148182753Y-104763759D01*
X148149500Y-104973703D01*
X135962143Y-104973703D01*
X135927818Y-104845600D01*
X135825909Y-104599570D01*
X135825907Y-104599566D01*
X135825906Y-104599563D01*
X135692755Y-104368937D01*
X135692752Y-104368933D01*
X135692749Y-104368928D01*
X135530647Y-104157673D01*
X135530643Y-104157669D01*
X135530640Y-104157665D01*
X135342335Y-103969360D01*
X135342330Y-103969356D01*
X135342326Y-103969352D01*
X135131071Y-103807250D01*
X135131058Y-103807242D01*
X135054000Y-103762753D01*
X134900437Y-103674094D01*
X134900435Y-103674093D01*
X134900433Y-103674092D01*
X134900429Y-103674090D01*
X134654398Y-103572181D01*
X134654399Y-103572181D01*
X134397179Y-103503259D01*
X134133152Y-103468500D01*
X133866848Y-103468500D01*
X133602820Y-103503259D01*
X133345600Y-103572181D01*
X133099570Y-103674090D01*
X133099566Y-103674092D01*
X132868941Y-103807242D01*
X132868928Y-103807250D01*
X132657673Y-103969352D01*
X132469352Y-104157673D01*
X132307250Y-104368928D01*
X132307242Y-104368941D01*
X132174092Y-104599566D01*
X132174090Y-104599570D01*
X132072181Y-104845600D01*
X132003259Y-105102820D01*
X131968500Y-105366848D01*
X118031500Y-105366848D01*
X117996741Y-105102824D01*
X117962146Y-104973715D01*
X117927818Y-104845600D01*
X117825909Y-104599570D01*
X117825907Y-104599566D01*
X117825906Y-104599563D01*
X117692755Y-104368937D01*
X117692752Y-104368933D01*
X117692749Y-104368928D01*
X117530647Y-104157673D01*
X117530643Y-104157669D01*
X117530640Y-104157665D01*
X117342335Y-103969360D01*
X117342330Y-103969356D01*
X117342326Y-103969352D01*
X117131071Y-103807250D01*
X117131058Y-103807242D01*
X117054000Y-103762753D01*
X116900437Y-103674094D01*
X116900435Y-103674093D01*
X116900433Y-103674092D01*
X116900429Y-103674090D01*
X116654398Y-103572181D01*
X116654399Y-103572181D01*
X116397179Y-103503259D01*
X116133152Y-103468500D01*
X115866848Y-103468500D01*
X115602820Y-103503259D01*
X115345600Y-103572181D01*
X115099570Y-103674090D01*
X115099566Y-103674092D01*
X114868941Y-103807242D01*
X114868928Y-103807250D01*
X114657673Y-103969352D01*
X114469352Y-104157673D01*
X114307250Y-104368928D01*
X114307242Y-104368941D01*
X114174092Y-104599566D01*
X114174090Y-104599570D01*
X114072181Y-104845600D01*
X114003259Y-105102820D01*
X113968500Y-105366848D01*
X97602445Y-105366848D01*
X97603934Y-98314639D01*
X99714500Y-98314639D01*
X99714500Y-100585335D01*
X99714502Y-100585365D01*
X99720826Y-100654969D01*
X99720827Y-100654971D01*
X99770749Y-100815178D01*
X99857561Y-100958783D01*
X99976217Y-101077439D01*
X100119822Y-101164251D01*
X100280029Y-101214173D01*
X100349653Y-101220500D01*
X101350346Y-101220499D01*
X101350350Y-101220499D01*
X101396762Y-101216281D01*
X101419971Y-101214173D01*
X101580178Y-101164251D01*
X101723783Y-101077439D01*
X101842439Y-100958783D01*
X101929251Y-100815178D01*
X101979173Y-100654971D01*
X101984095Y-100600801D01*
X101985499Y-100585360D01*
X101985499Y-100585358D01*
X101985500Y-100585347D01*
X101985499Y-98725624D01*
X104794500Y-98725624D01*
X104794500Y-100174375D01*
X104822459Y-100350894D01*
X104822460Y-100350897D01*
X104877691Y-100520881D01*
X104958833Y-100680132D01*
X105063889Y-100824728D01*
X105190272Y-100951111D01*
X105334868Y-101056167D01*
X105494119Y-101137309D01*
X105664103Y-101192540D01*
X105726190Y-101202373D01*
X105840624Y-101220499D01*
X105840631Y-101220499D01*
X105840634Y-101220500D01*
X105840637Y-101220500D01*
X106019363Y-101220500D01*
X106019366Y-101220500D01*
X106019369Y-101220499D01*
X106019375Y-101220499D01*
X106102765Y-101207290D01*
X106195897Y-101192540D01*
X106365881Y-101137309D01*
X106525132Y-101056167D01*
X106669728Y-100951111D01*
X106796111Y-100824728D01*
X106901167Y-100680132D01*
X106978140Y-100529061D01*
X107038287Y-100452766D01*
X107123054Y-100405294D01*
X107219536Y-100393875D01*
X107313043Y-100420246D01*
X107389341Y-100480394D01*
X107421858Y-100529060D01*
X107498833Y-100680132D01*
X107603889Y-100824728D01*
X107730272Y-100951111D01*
X107874868Y-101056167D01*
X108034119Y-101137309D01*
X108204103Y-101192540D01*
X108266190Y-101202373D01*
X108380624Y-101220499D01*
X108380631Y-101220499D01*
X108380634Y-101220500D01*
X108380637Y-101220500D01*
X108559363Y-101220500D01*
X108559366Y-101220500D01*
X108559369Y-101220499D01*
X108559375Y-101220499D01*
X108642765Y-101207290D01*
X108735897Y-101192540D01*
X108905881Y-101137309D01*
X109065132Y-101056167D01*
X109209728Y-100951111D01*
X109336111Y-100824728D01*
X109441167Y-100680132D01*
X109522309Y-100520881D01*
X109577540Y-100350897D01*
X109599360Y-100213131D01*
X109605499Y-100174375D01*
X109605500Y-100174363D01*
X109605500Y-98725636D01*
X109605499Y-98725624D01*
X112414500Y-98725624D01*
X112414500Y-100174375D01*
X112442459Y-100350894D01*
X112442460Y-100350897D01*
X112497691Y-100520881D01*
X112578833Y-100680132D01*
X112683889Y-100824728D01*
X112810272Y-100951111D01*
X112954868Y-101056167D01*
X113114119Y-101137309D01*
X113284103Y-101192540D01*
X113346190Y-101202373D01*
X113460624Y-101220499D01*
X113460631Y-101220499D01*
X113460634Y-101220500D01*
X113460637Y-101220500D01*
X113639363Y-101220500D01*
X113639366Y-101220500D01*
X113639369Y-101220499D01*
X113639375Y-101220499D01*
X113722765Y-101207290D01*
X113815897Y-101192540D01*
X113985881Y-101137309D01*
X114145132Y-101056167D01*
X114289728Y-100951111D01*
X114416111Y-100824728D01*
X114521167Y-100680132D01*
X114598140Y-100529061D01*
X114658287Y-100452766D01*
X114743054Y-100405294D01*
X114839536Y-100393875D01*
X114933043Y-100420246D01*
X115009341Y-100480394D01*
X115041858Y-100529060D01*
X115118833Y-100680132D01*
X115223889Y-100824728D01*
X115350272Y-100951111D01*
X115494868Y-101056167D01*
X115654119Y-101137309D01*
X115824103Y-101192540D01*
X115886190Y-101202373D01*
X116000624Y-101220499D01*
X116000631Y-101220499D01*
X116000634Y-101220500D01*
X116000637Y-101220500D01*
X116179363Y-101220500D01*
X116179366Y-101220500D01*
X116179369Y-101220499D01*
X116179375Y-101220499D01*
X116262765Y-101207290D01*
X116355897Y-101192540D01*
X116525881Y-101137309D01*
X116685132Y-101056167D01*
X116829728Y-100951111D01*
X116956111Y-100824728D01*
X117061167Y-100680132D01*
X117142309Y-100520881D01*
X117197540Y-100350897D01*
X117219360Y-100213131D01*
X117225499Y-100174375D01*
X117225500Y-100174363D01*
X117225500Y-99786858D01*
X120118500Y-99786858D01*
X120118500Y-100213141D01*
X120155649Y-100637756D01*
X120155652Y-100637785D01*
X120229667Y-101057543D01*
X120229674Y-101057576D01*
X120339994Y-101469293D01*
X120339997Y-101469301D01*
X120485783Y-101869845D01*
X120485789Y-101869860D01*
X120665925Y-102256162D01*
X120665940Y-102256191D01*
X120879053Y-102625313D01*
X120879059Y-102625322D01*
X120879062Y-102625327D01*
X121123556Y-102974500D01*
X121397552Y-103301036D01*
X121698964Y-103602448D01*
X121698970Y-103602453D01*
X121698972Y-103602455D01*
X122025494Y-103876439D01*
X122025500Y-103876444D01*
X122374673Y-104120938D01*
X122374680Y-104120942D01*
X122374686Y-104120946D01*
X122743808Y-104334059D01*
X122743837Y-104334074D01*
X123130139Y-104514210D01*
X123130147Y-104514213D01*
X123130151Y-104514215D01*
X123364643Y-104599563D01*
X123530698Y-104660002D01*
X123530706Y-104660005D01*
X123942423Y-104770325D01*
X123942429Y-104770326D01*
X123942443Y-104770330D01*
X124073354Y-104793413D01*
X124362214Y-104844347D01*
X124362222Y-104844347D01*
X124362229Y-104844349D01*
X124786869Y-104881500D01*
X124786870Y-104881500D01*
X125213130Y-104881500D01*
X125213131Y-104881500D01*
X125637771Y-104844349D01*
X125637778Y-104844347D01*
X125637785Y-104844347D01*
X125847664Y-104807339D01*
X126057557Y-104770330D01*
X126469294Y-104660005D01*
X126869849Y-104514215D01*
X127256173Y-104334069D01*
X127256184Y-104334062D01*
X127256191Y-104334059D01*
X127625313Y-104120946D01*
X127625312Y-104120946D01*
X127625327Y-104120938D01*
X127974500Y-103876444D01*
X128301036Y-103602448D01*
X128602448Y-103301036D01*
X128876444Y-102974500D01*
X129120938Y-102625327D01*
X129334069Y-102256173D01*
X129514215Y-101869849D01*
X129660005Y-101469294D01*
X129770330Y-101057557D01*
X129836880Y-100680131D01*
X129844347Y-100637785D01*
X129844347Y-100637778D01*
X129844349Y-100637771D01*
X129881500Y-100213131D01*
X129881500Y-99786869D01*
X129844349Y-99362229D01*
X129844347Y-99362222D01*
X129844347Y-99362214D01*
X129804935Y-99138696D01*
X129798486Y-99102123D01*
X148149500Y-99102123D01*
X148149500Y-100897865D01*
X148149500Y-100897868D01*
X148149501Y-100897872D01*
X148151567Y-100917093D01*
X148155908Y-100957480D01*
X148155909Y-100957484D01*
X148206203Y-101092329D01*
X148206204Y-101092331D01*
X148292454Y-101207546D01*
X148407669Y-101293796D01*
X148542517Y-101344091D01*
X148602127Y-101350500D01*
X150397872Y-101350499D01*
X150457483Y-101344091D01*
X150592331Y-101293796D01*
X150707546Y-101207546D01*
X150793796Y-101092331D01*
X150844091Y-100957483D01*
X150850500Y-100897873D01*
X150850499Y-99102128D01*
X150844091Y-99042517D01*
X150793796Y-98907669D01*
X150707546Y-98792454D01*
X150592331Y-98706204D01*
X150512117Y-98676286D01*
X150457481Y-98655908D01*
X150397873Y-98649500D01*
X148602134Y-98649500D01*
X148602130Y-98649500D01*
X148602128Y-98649501D01*
X148589314Y-98650878D01*
X148542519Y-98655908D01*
X148542515Y-98655909D01*
X148407670Y-98706203D01*
X148292455Y-98792453D01*
X148292453Y-98792455D01*
X148206204Y-98907669D01*
X148155908Y-99042518D01*
X148149500Y-99102123D01*
X129798486Y-99102123D01*
X129770332Y-98942456D01*
X129770330Y-98942443D01*
X129761012Y-98907669D01*
X129660005Y-98530706D01*
X129660002Y-98530698D01*
X129629623Y-98447233D01*
X129514215Y-98130151D01*
X129514213Y-98130147D01*
X129514210Y-98130139D01*
X129334074Y-97743837D01*
X129334059Y-97743808D01*
X129120946Y-97374686D01*
X129120940Y-97374677D01*
X129120938Y-97374673D01*
X128876444Y-97025500D01*
X128602448Y-96698964D01*
X128301036Y-96397552D01*
X128301029Y-96397546D01*
X128301027Y-96397544D01*
X127974505Y-96123560D01*
X127974503Y-96123559D01*
X127974500Y-96123556D01*
X127625327Y-95879062D01*
X127625322Y-95879059D01*
X127625313Y-95879053D01*
X127256191Y-95665940D01*
X127256162Y-95665925D01*
X126869860Y-95485789D01*
X126869845Y-95485783D01*
X126469301Y-95339997D01*
X126469293Y-95339994D01*
X126057576Y-95229674D01*
X126057543Y-95229667D01*
X125637785Y-95155652D01*
X125637756Y-95155649D01*
X125213141Y-95118500D01*
X125213131Y-95118500D01*
X124786869Y-95118500D01*
X124786858Y-95118500D01*
X124362243Y-95155649D01*
X124362214Y-95155652D01*
X123942456Y-95229667D01*
X123942423Y-95229674D01*
X123530706Y-95339994D01*
X123530698Y-95339997D01*
X123130154Y-95485783D01*
X123130139Y-95485789D01*
X122743837Y-95665925D01*
X122743808Y-95665940D01*
X122374686Y-95879053D01*
X122374677Y-95879059D01*
X122025494Y-96123560D01*
X121698972Y-96397544D01*
X121397544Y-96698972D01*
X121123560Y-97025494D01*
X120879059Y-97374677D01*
X120879053Y-97374686D01*
X120665940Y-97743808D01*
X120665925Y-97743837D01*
X120485789Y-98130139D01*
X120485783Y-98130154D01*
X120339997Y-98530698D01*
X120339994Y-98530706D01*
X120229674Y-98942423D01*
X120229667Y-98942456D01*
X120155652Y-99362214D01*
X120155649Y-99362243D01*
X120118500Y-99786858D01*
X117225500Y-99786858D01*
X117225500Y-98725636D01*
X117225499Y-98725624D01*
X117197540Y-98549105D01*
X117197540Y-98549103D01*
X117142309Y-98379119D01*
X117061167Y-98219868D01*
X116956111Y-98075272D01*
X116829728Y-97948889D01*
X116685132Y-97843833D01*
X116525881Y-97762691D01*
X116467823Y-97743827D01*
X116355894Y-97707459D01*
X116179375Y-97679500D01*
X116179366Y-97679500D01*
X116000634Y-97679500D01*
X116000624Y-97679500D01*
X115824105Y-97707459D01*
X115654124Y-97762689D01*
X115654119Y-97762691D01*
X115494868Y-97843833D01*
X115350274Y-97948887D01*
X115223887Y-98075274D01*
X115118834Y-98219866D01*
X115118833Y-98219868D01*
X115041859Y-98370938D01*
X114981713Y-98447233D01*
X114896945Y-98494705D01*
X114800464Y-98506124D01*
X114706956Y-98479753D01*
X114630659Y-98419605D01*
X114598141Y-98370939D01*
X114521167Y-98219868D01*
X114416111Y-98075272D01*
X114289728Y-97948889D01*
X114145132Y-97843833D01*
X113985881Y-97762691D01*
X113927823Y-97743827D01*
X113815894Y-97707459D01*
X113639375Y-97679500D01*
X113639366Y-97679500D01*
X113460634Y-97679500D01*
X113460624Y-97679500D01*
X113284105Y-97707459D01*
X113114124Y-97762689D01*
X113114119Y-97762691D01*
X112954868Y-97843833D01*
X112810274Y-97948887D01*
X112683887Y-98075274D01*
X112578833Y-98219868D01*
X112497691Y-98379119D01*
X112497689Y-98379124D01*
X112442459Y-98549105D01*
X112414500Y-98725624D01*
X109605499Y-98725624D01*
X109577540Y-98549105D01*
X109577540Y-98549103D01*
X109522309Y-98379119D01*
X109441167Y-98219868D01*
X109336111Y-98075272D01*
X109209728Y-97948889D01*
X109065132Y-97843833D01*
X108905881Y-97762691D01*
X108847823Y-97743827D01*
X108735894Y-97707459D01*
X108559375Y-97679500D01*
X108559366Y-97679500D01*
X108380634Y-97679500D01*
X108380624Y-97679500D01*
X108204105Y-97707459D01*
X108034124Y-97762689D01*
X108034119Y-97762691D01*
X107874868Y-97843833D01*
X107730274Y-97948887D01*
X107603887Y-98075274D01*
X107498834Y-98219866D01*
X107498833Y-98219868D01*
X107421859Y-98370938D01*
X107361713Y-98447233D01*
X107276945Y-98494705D01*
X107180464Y-98506124D01*
X107086956Y-98479753D01*
X107010659Y-98419605D01*
X106978141Y-98370939D01*
X106901167Y-98219868D01*
X106796111Y-98075272D01*
X106669728Y-97948889D01*
X106525132Y-97843833D01*
X106365881Y-97762691D01*
X106307823Y-97743827D01*
X106195894Y-97707459D01*
X106019375Y-97679500D01*
X106019366Y-97679500D01*
X105840634Y-97679500D01*
X105840624Y-97679500D01*
X105664105Y-97707459D01*
X105494124Y-97762689D01*
X105494119Y-97762691D01*
X105334868Y-97843833D01*
X105190274Y-97948887D01*
X105063887Y-98075274D01*
X104958833Y-98219868D01*
X104877691Y-98379119D01*
X104877689Y-98379124D01*
X104822459Y-98549105D01*
X104794500Y-98725624D01*
X101985499Y-98725624D01*
X101985499Y-98314654D01*
X101979173Y-98245029D01*
X101929251Y-98084822D01*
X101842439Y-97941217D01*
X101723783Y-97822561D01*
X101624746Y-97762691D01*
X101580177Y-97735748D01*
X101469892Y-97701382D01*
X101419971Y-97685827D01*
X101419968Y-97685826D01*
X101419964Y-97685826D01*
X101350350Y-97679500D01*
X100349649Y-97679500D01*
X100280030Y-97685826D01*
X100119821Y-97735749D01*
X99976218Y-97822560D01*
X99857560Y-97941218D01*
X99770748Y-98084822D01*
X99720827Y-98245029D01*
X99720826Y-98245035D01*
X99714500Y-98314639D01*
X97603934Y-98314639D01*
X97604768Y-94363571D01*
X113918500Y-94363571D01*
X113918500Y-94636429D01*
X113954115Y-94906952D01*
X114024736Y-95170512D01*
X114045442Y-95220500D01*
X114129151Y-95422593D01*
X114129156Y-95422604D01*
X114265577Y-95658891D01*
X114265588Y-95658909D01*
X114431680Y-95875364D01*
X114431684Y-95875368D01*
X114431688Y-95875373D01*
X114624627Y-96068312D01*
X114624631Y-96068315D01*
X114624635Y-96068319D01*
X114841090Y-96234411D01*
X114841095Y-96234414D01*
X114841099Y-96234417D01*
X114841108Y-96234422D01*
X115077395Y-96370843D01*
X115077398Y-96370844D01*
X115077401Y-96370846D01*
X115329488Y-96475264D01*
X115593048Y-96545885D01*
X115863571Y-96581500D01*
X116136429Y-96581500D01*
X116406952Y-96545885D01*
X116670512Y-96475264D01*
X116922599Y-96370846D01*
X117158901Y-96234417D01*
X117303373Y-96123560D01*
X117375364Y-96068319D01*
X117375364Y-96068318D01*
X117375373Y-96068312D01*
X117568312Y-95875373D01*
X117734417Y-95658901D01*
X117870846Y-95422599D01*
X117975264Y-95170512D01*
X118045885Y-94906952D01*
X118081500Y-94636429D01*
X118081500Y-94366848D01*
X131968500Y-94366848D01*
X131968500Y-94633152D01*
X131972384Y-94662652D01*
X132003259Y-94897179D01*
X132072181Y-95154399D01*
X132174090Y-95400429D01*
X132174092Y-95400433D01*
X132307242Y-95631058D01*
X132307250Y-95631071D01*
X132469352Y-95842326D01*
X132469356Y-95842330D01*
X132469360Y-95842335D01*
X132657665Y-96030640D01*
X132657669Y-96030643D01*
X132657673Y-96030647D01*
X132868928Y-96192749D01*
X132868933Y-96192752D01*
X132868937Y-96192755D01*
X133099563Y-96325906D01*
X133345595Y-96427816D01*
X133345598Y-96427816D01*
X133345601Y-96427818D01*
X133345600Y-96427818D01*
X133602820Y-96496740D01*
X133602824Y-96496741D01*
X133866848Y-96531500D01*
X134133152Y-96531500D01*
X134397176Y-96496741D01*
X134482919Y-96473766D01*
X134654399Y-96427818D01*
X134654401Y-96427816D01*
X134654405Y-96427816D01*
X134900437Y-96325906D01*
X135131063Y-96192755D01*
X135342335Y-96030640D01*
X135530640Y-95842335D01*
X135666000Y-95665931D01*
X135692749Y-95631071D01*
X135692749Y-95631070D01*
X135692755Y-95631063D01*
X135825906Y-95400437D01*
X135927816Y-95154405D01*
X135941526Y-95103241D01*
X135973766Y-94982919D01*
X135996741Y-94897176D01*
X136031500Y-94633152D01*
X136031500Y-94366848D01*
X135996741Y-94102824D01*
X135967791Y-93994782D01*
X135927818Y-93845600D01*
X135825909Y-93599570D01*
X135825907Y-93599566D01*
X135825906Y-93599563D01*
X135692755Y-93368937D01*
X135692752Y-93368933D01*
X135692749Y-93368928D01*
X135530647Y-93157673D01*
X135530643Y-93157669D01*
X135530640Y-93157665D01*
X135342335Y-92969360D01*
X135342330Y-92969356D01*
X135342326Y-92969352D01*
X135131071Y-92807250D01*
X135131058Y-92807242D01*
X135058891Y-92765577D01*
X134900437Y-92674094D01*
X134900435Y-92674093D01*
X134900433Y-92674092D01*
X134900429Y-92674090D01*
X134654398Y-92572181D01*
X134654399Y-92572181D01*
X134397179Y-92503259D01*
X134133152Y-92468500D01*
X133866848Y-92468500D01*
X133602820Y-92503259D01*
X133345600Y-92572181D01*
X133099570Y-92674090D01*
X133099566Y-92674092D01*
X132868941Y-92807242D01*
X132868928Y-92807250D01*
X132657673Y-92969352D01*
X132469352Y-93157673D01*
X132307250Y-93368928D01*
X132307242Y-93368941D01*
X132174092Y-93599566D01*
X132174090Y-93599570D01*
X132072181Y-93845600D01*
X132003259Y-94102820D01*
X131968931Y-94363571D01*
X131968500Y-94366848D01*
X118081500Y-94366848D01*
X118081500Y-94363571D01*
X118045885Y-94093048D01*
X117975264Y-93829488D01*
X117870846Y-93577401D01*
X117822716Y-93494038D01*
X117774950Y-93411305D01*
X117734417Y-93341099D01*
X117734414Y-93341095D01*
X117734411Y-93341090D01*
X117568319Y-93124635D01*
X117568315Y-93124631D01*
X117568312Y-93124627D01*
X117375373Y-92931688D01*
X117375368Y-92931684D01*
X117375364Y-92931680D01*
X117158909Y-92765588D01*
X117158891Y-92765577D01*
X116922604Y-92629156D01*
X116922593Y-92629151D01*
X116782915Y-92571295D01*
X116670512Y-92524736D01*
X116406952Y-92454115D01*
X116406945Y-92454114D01*
X116136429Y-92418500D01*
X115863571Y-92418500D01*
X115593054Y-92454114D01*
X115593052Y-92454114D01*
X115593048Y-92454115D01*
X115409641Y-92503259D01*
X115329491Y-92524735D01*
X115329488Y-92524736D01*
X115077406Y-92629151D01*
X115077395Y-92629156D01*
X114841108Y-92765577D01*
X114841090Y-92765588D01*
X114624635Y-92931680D01*
X114431680Y-93124635D01*
X114265588Y-93341090D01*
X114265577Y-93341108D01*
X114129156Y-93577395D01*
X114129151Y-93577406D01*
X114059330Y-93745971D01*
X114024736Y-93829488D01*
X113954115Y-94093048D01*
X113918500Y-94363571D01*
X97604768Y-94363571D01*
X97605993Y-88564639D01*
X118784500Y-88564639D01*
X118784500Y-90835335D01*
X118784502Y-90835365D01*
X118790826Y-90904969D01*
X118806117Y-90954040D01*
X118840749Y-91065178D01*
X118927561Y-91208783D01*
X119046217Y-91327439D01*
X119189822Y-91414251D01*
X119350029Y-91464173D01*
X119419653Y-91470500D01*
X120420346Y-91470499D01*
X120420350Y-91470499D01*
X120466762Y-91466281D01*
X120489971Y-91464173D01*
X120650178Y-91414251D01*
X120793783Y-91327439D01*
X120912439Y-91208783D01*
X120999251Y-91065178D01*
X121049173Y-90904971D01*
X121054095Y-90850801D01*
X121055499Y-90835360D01*
X121055499Y-90835358D01*
X121055500Y-90835347D01*
X121055499Y-88975624D01*
X123864500Y-88975624D01*
X123864500Y-90424375D01*
X123892459Y-90600894D01*
X123926355Y-90705217D01*
X123947691Y-90770881D01*
X124028833Y-90930132D01*
X124133889Y-91074728D01*
X124260272Y-91201111D01*
X124404868Y-91306167D01*
X124564119Y-91387309D01*
X124734103Y-91442540D01*
X124796190Y-91452373D01*
X124910624Y-91470499D01*
X124910631Y-91470499D01*
X124910634Y-91470500D01*
X124910637Y-91470500D01*
X125089363Y-91470500D01*
X125089366Y-91470500D01*
X125089369Y-91470499D01*
X125089375Y-91470499D01*
X125172765Y-91457290D01*
X125265897Y-91442540D01*
X125435881Y-91387309D01*
X125595132Y-91306167D01*
X125739728Y-91201111D01*
X125866111Y-91074728D01*
X125971167Y-90930132D01*
X126048140Y-90779061D01*
X126108287Y-90702766D01*
X126193054Y-90655294D01*
X126289536Y-90643875D01*
X126383043Y-90670246D01*
X126459341Y-90730394D01*
X126491858Y-90779060D01*
X126568833Y-90930132D01*
X126673889Y-91074728D01*
X126800272Y-91201111D01*
X126944868Y-91306167D01*
X127104119Y-91387309D01*
X127274103Y-91442540D01*
X127336190Y-91452373D01*
X127450624Y-91470499D01*
X127450631Y-91470499D01*
X127450634Y-91470500D01*
X127450637Y-91470500D01*
X127629363Y-91470500D01*
X127629366Y-91470500D01*
X127629369Y-91470499D01*
X127629375Y-91470499D01*
X127712765Y-91457290D01*
X127805897Y-91442540D01*
X127975881Y-91387309D01*
X128135132Y-91306167D01*
X128279728Y-91201111D01*
X128406111Y-91074728D01*
X128511167Y-90930132D01*
X128592309Y-90770881D01*
X128647540Y-90600897D01*
X128675500Y-90424366D01*
X128675500Y-88975634D01*
X128675499Y-88975631D01*
X128675499Y-88975624D01*
X131484500Y-88975624D01*
X131484500Y-90424375D01*
X131512459Y-90600894D01*
X131546355Y-90705217D01*
X131567691Y-90770881D01*
X131648833Y-90930132D01*
X131753889Y-91074728D01*
X131880272Y-91201111D01*
X132024868Y-91306167D01*
X132184119Y-91387309D01*
X132354103Y-91442540D01*
X132416190Y-91452373D01*
X132530624Y-91470499D01*
X132530631Y-91470499D01*
X132530634Y-91470500D01*
X132530637Y-91470500D01*
X132709363Y-91470500D01*
X132709366Y-91470500D01*
X132709369Y-91470499D01*
X132709375Y-91470499D01*
X132792765Y-91457290D01*
X132885897Y-91442540D01*
X133055881Y-91387309D01*
X133215132Y-91306167D01*
X133359728Y-91201111D01*
X133486111Y-91074728D01*
X133591167Y-90930132D01*
X133668140Y-90779061D01*
X133728287Y-90702766D01*
X133813054Y-90655294D01*
X133909536Y-90643875D01*
X134003043Y-90670246D01*
X134079341Y-90730394D01*
X134111858Y-90779060D01*
X134188833Y-90930132D01*
X134293889Y-91074728D01*
X134420272Y-91201111D01*
X134564868Y-91306167D01*
X134724119Y-91387309D01*
X134894103Y-91442540D01*
X134956190Y-91452373D01*
X135070624Y-91470499D01*
X135070631Y-91470499D01*
X135070634Y-91470500D01*
X135070637Y-91470500D01*
X135249363Y-91470500D01*
X135249366Y-91470500D01*
X135249369Y-91470499D01*
X135249375Y-91470499D01*
X135332765Y-91457290D01*
X135425897Y-91442540D01*
X135595881Y-91387309D01*
X135755132Y-91306167D01*
X135899728Y-91201111D01*
X136026111Y-91074728D01*
X136131167Y-90930132D01*
X136212309Y-90770881D01*
X136267540Y-90600897D01*
X136295500Y-90424366D01*
X136295500Y-88975634D01*
X136295499Y-88975631D01*
X136295499Y-88975624D01*
X136267540Y-88799105D01*
X136267540Y-88799103D01*
X136212309Y-88629119D01*
X136131167Y-88469868D01*
X136026111Y-88325272D01*
X135899728Y-88198889D01*
X135755132Y-88093833D01*
X135595881Y-88012691D01*
X135495674Y-87980132D01*
X135425894Y-87957459D01*
X135249375Y-87929500D01*
X135249366Y-87929500D01*
X135070634Y-87929500D01*
X135070624Y-87929500D01*
X134894105Y-87957459D01*
X134724124Y-88012689D01*
X134724119Y-88012691D01*
X134564868Y-88093833D01*
X134420274Y-88198887D01*
X134293887Y-88325274D01*
X134188834Y-88469866D01*
X134188833Y-88469868D01*
X134111859Y-88620938D01*
X134051713Y-88697233D01*
X133966945Y-88744705D01*
X133870464Y-88756124D01*
X133776956Y-88729753D01*
X133700659Y-88669605D01*
X133668141Y-88620939D01*
X133591167Y-88469868D01*
X133486111Y-88325272D01*
X133359728Y-88198889D01*
X133215132Y-88093833D01*
X133055881Y-88012691D01*
X132955674Y-87980132D01*
X132885894Y-87957459D01*
X132709375Y-87929500D01*
X132709366Y-87929500D01*
X132530634Y-87929500D01*
X132530624Y-87929500D01*
X132354105Y-87957459D01*
X132184124Y-88012689D01*
X132184119Y-88012691D01*
X132024868Y-88093833D01*
X131880274Y-88198887D01*
X131753887Y-88325274D01*
X131648833Y-88469868D01*
X131567691Y-88629119D01*
X131567689Y-88629124D01*
X131512459Y-88799105D01*
X131484500Y-88975624D01*
X128675499Y-88975624D01*
X128647540Y-88799105D01*
X128647540Y-88799103D01*
X128592309Y-88629119D01*
X128511167Y-88469868D01*
X128406111Y-88325272D01*
X128279728Y-88198889D01*
X128135132Y-88093833D01*
X127975881Y-88012691D01*
X127875674Y-87980132D01*
X127805894Y-87957459D01*
X127629375Y-87929500D01*
X127629366Y-87929500D01*
X127450634Y-87929500D01*
X127450624Y-87929500D01*
X127274105Y-87957459D01*
X127104124Y-88012689D01*
X127104119Y-88012691D01*
X126944868Y-88093833D01*
X126800274Y-88198887D01*
X126673887Y-88325274D01*
X126568834Y-88469866D01*
X126568833Y-88469868D01*
X126491859Y-88620938D01*
X126431713Y-88697233D01*
X126346945Y-88744705D01*
X126250464Y-88756124D01*
X126156956Y-88729753D01*
X126080659Y-88669605D01*
X126048141Y-88620939D01*
X125971167Y-88469868D01*
X125866111Y-88325272D01*
X125739728Y-88198889D01*
X125595132Y-88093833D01*
X125435881Y-88012691D01*
X125335674Y-87980132D01*
X125265894Y-87957459D01*
X125089375Y-87929500D01*
X125089366Y-87929500D01*
X124910634Y-87929500D01*
X124910624Y-87929500D01*
X124734105Y-87957459D01*
X124564124Y-88012689D01*
X124564119Y-88012691D01*
X124404868Y-88093833D01*
X124260274Y-88198887D01*
X124133887Y-88325274D01*
X124028833Y-88469868D01*
X123947691Y-88629119D01*
X123947689Y-88629124D01*
X123892459Y-88799105D01*
X123864500Y-88975624D01*
X121055499Y-88975624D01*
X121055499Y-88564654D01*
X121049173Y-88495029D01*
X120999251Y-88334822D01*
X120912439Y-88191217D01*
X120793783Y-88072561D01*
X120694746Y-88012691D01*
X120650177Y-87985748D01*
X120539892Y-87951382D01*
X120489971Y-87935827D01*
X120489968Y-87935826D01*
X120489964Y-87935826D01*
X120420350Y-87929500D01*
X119419649Y-87929500D01*
X119350030Y-87935826D01*
X119189821Y-87985749D01*
X119046218Y-88072560D01*
X118927560Y-88191218D01*
X118840748Y-88334822D01*
X118790827Y-88495029D01*
X118790826Y-88495035D01*
X118784500Y-88564639D01*
X97605993Y-88564639D01*
X97606529Y-86025624D01*
X99714500Y-86025624D01*
X99714500Y-87474375D01*
X99742459Y-87650894D01*
X99742460Y-87650897D01*
X99797691Y-87820881D01*
X99878833Y-87980132D01*
X99983889Y-88124728D01*
X100110272Y-88251111D01*
X100254868Y-88356167D01*
X100414119Y-88437309D01*
X100584103Y-88492540D01*
X100646190Y-88502373D01*
X100760624Y-88520499D01*
X100760631Y-88520499D01*
X100760634Y-88520500D01*
X100760637Y-88520500D01*
X100939363Y-88520500D01*
X100939366Y-88520500D01*
X100939369Y-88520499D01*
X100939375Y-88520499D01*
X101022765Y-88507290D01*
X101115897Y-88492540D01*
X101285881Y-88437309D01*
X101445132Y-88356167D01*
X101589728Y-88251111D01*
X101716111Y-88124728D01*
X101821167Y-87980132D01*
X101902309Y-87820881D01*
X101957540Y-87650897D01*
X101985500Y-87474366D01*
X101985500Y-86025634D01*
X101985499Y-86025631D01*
X101985499Y-86025624D01*
X104794500Y-86025624D01*
X104794500Y-87474375D01*
X104822459Y-87650894D01*
X104822460Y-87650897D01*
X104877691Y-87820881D01*
X104958833Y-87980132D01*
X105063889Y-88124728D01*
X105190272Y-88251111D01*
X105334868Y-88356167D01*
X105494119Y-88437309D01*
X105664103Y-88492540D01*
X105726190Y-88502373D01*
X105840624Y-88520499D01*
X105840631Y-88520499D01*
X105840634Y-88520500D01*
X105840637Y-88520500D01*
X106019363Y-88520500D01*
X106019366Y-88520500D01*
X106019369Y-88520499D01*
X106019375Y-88520499D01*
X106102765Y-88507290D01*
X106195897Y-88492540D01*
X106365881Y-88437309D01*
X106525132Y-88356167D01*
X106669728Y-88251111D01*
X106796111Y-88124728D01*
X106901167Y-87980132D01*
X106978140Y-87829061D01*
X107038287Y-87752766D01*
X107123054Y-87705294D01*
X107219536Y-87693875D01*
X107313043Y-87720246D01*
X107389341Y-87780394D01*
X107421858Y-87829060D01*
X107498833Y-87980132D01*
X107603889Y-88124728D01*
X107730272Y-88251111D01*
X107874868Y-88356167D01*
X108034119Y-88437309D01*
X108204103Y-88492540D01*
X108266190Y-88502373D01*
X108380624Y-88520499D01*
X108380631Y-88520499D01*
X108380634Y-88520500D01*
X108380637Y-88520500D01*
X108559363Y-88520500D01*
X108559366Y-88520500D01*
X108559369Y-88520499D01*
X108559375Y-88520499D01*
X108642765Y-88507290D01*
X108735897Y-88492540D01*
X108905881Y-88437309D01*
X109065132Y-88356167D01*
X109209728Y-88251111D01*
X109336111Y-88124728D01*
X109441167Y-87980132D01*
X109518140Y-87829061D01*
X109578287Y-87752766D01*
X109663054Y-87705294D01*
X109759536Y-87693875D01*
X109853043Y-87720246D01*
X109929341Y-87780394D01*
X109961858Y-87829060D01*
X110038833Y-87980132D01*
X110143889Y-88124728D01*
X110270272Y-88251111D01*
X110414868Y-88356167D01*
X110574119Y-88437309D01*
X110744103Y-88492540D01*
X110806190Y-88502373D01*
X110920624Y-88520499D01*
X110920631Y-88520499D01*
X110920634Y-88520500D01*
X110920637Y-88520500D01*
X111099363Y-88520500D01*
X111099366Y-88520500D01*
X111099369Y-88520499D01*
X111099375Y-88520499D01*
X111182765Y-88507290D01*
X111275897Y-88492540D01*
X111445881Y-88437309D01*
X111605132Y-88356167D01*
X111749728Y-88251111D01*
X111876111Y-88124728D01*
X111981167Y-87980132D01*
X112058140Y-87829061D01*
X112118287Y-87752766D01*
X112203054Y-87705294D01*
X112299536Y-87693875D01*
X112393043Y-87720246D01*
X112469341Y-87780394D01*
X112501858Y-87829060D01*
X112578833Y-87980132D01*
X112683889Y-88124728D01*
X112810272Y-88251111D01*
X112954868Y-88356167D01*
X113114119Y-88437309D01*
X113284103Y-88492540D01*
X113346190Y-88502373D01*
X113460624Y-88520499D01*
X113460631Y-88520499D01*
X113460634Y-88520500D01*
X113460637Y-88520500D01*
X113639363Y-88520500D01*
X113639366Y-88520500D01*
X113639369Y-88520499D01*
X113639375Y-88520499D01*
X113722765Y-88507290D01*
X113815897Y-88492540D01*
X113985881Y-88437309D01*
X114145132Y-88356167D01*
X114289728Y-88251111D01*
X114416111Y-88124728D01*
X114521167Y-87980132D01*
X114598140Y-87829061D01*
X114658287Y-87752766D01*
X114743054Y-87705294D01*
X114839536Y-87693875D01*
X114933043Y-87720246D01*
X115009341Y-87780394D01*
X115041858Y-87829060D01*
X115118833Y-87980132D01*
X115223889Y-88124728D01*
X115350272Y-88251111D01*
X115494868Y-88356167D01*
X115654119Y-88437309D01*
X115824103Y-88492540D01*
X115886190Y-88502373D01*
X116000624Y-88520499D01*
X116000631Y-88520499D01*
X116000634Y-88520500D01*
X116000637Y-88520500D01*
X116179363Y-88520500D01*
X116179366Y-88520500D01*
X116179369Y-88520499D01*
X116179375Y-88520499D01*
X116262765Y-88507290D01*
X116355897Y-88492540D01*
X116525881Y-88437309D01*
X116685132Y-88356167D01*
X116829728Y-88251111D01*
X116956111Y-88124728D01*
X117061167Y-87980132D01*
X117142309Y-87820881D01*
X117197540Y-87650897D01*
X117225500Y-87474366D01*
X117225500Y-86025634D01*
X117223075Y-86010324D01*
X117206110Y-85903207D01*
X117201488Y-85874028D01*
X146899500Y-85874028D01*
X146899500Y-86125971D01*
X146938909Y-86374782D01*
X146938910Y-86374785D01*
X147016759Y-86614379D01*
X147131130Y-86838845D01*
X147279207Y-87042656D01*
X147330484Y-87093933D01*
X147384458Y-87174712D01*
X147403412Y-87270000D01*
X147384458Y-87365288D01*
X147330484Y-87446066D01*
X147302188Y-87474363D01*
X147279204Y-87497347D01*
X147131134Y-87701148D01*
X147131131Y-87701153D01*
X147131130Y-87701155D01*
X147121403Y-87720246D01*
X147016757Y-87925625D01*
X146938909Y-88165217D01*
X146899500Y-88414028D01*
X146899500Y-88665971D01*
X146938909Y-88914782D01*
X146938910Y-88914785D01*
X147016759Y-89154379D01*
X147131130Y-89378845D01*
X147279207Y-89582656D01*
X147330484Y-89633933D01*
X147384458Y-89714712D01*
X147403412Y-89810000D01*
X147384458Y-89905288D01*
X147330484Y-89986066D01*
X147279207Y-90037344D01*
X147279204Y-90037347D01*
X147131134Y-90241148D01*
X147131131Y-90241153D01*
X147131130Y-90241155D01*
X147037775Y-90424375D01*
X147016757Y-90465625D01*
X146938909Y-90705217D01*
X146899500Y-90954028D01*
X146899500Y-91205971D01*
X146938909Y-91454782D01*
X146938910Y-91454785D01*
X147016759Y-91694379D01*
X147131130Y-91918845D01*
X147279207Y-92122656D01*
X147330484Y-92173933D01*
X147384458Y-92254712D01*
X147403412Y-92350000D01*
X147384458Y-92445288D01*
X147330484Y-92526066D01*
X147284370Y-92572181D01*
X147279204Y-92577347D01*
X147131134Y-92781148D01*
X147131131Y-92781153D01*
X147131130Y-92781155D01*
X147117834Y-92807250D01*
X147016757Y-93005625D01*
X146938909Y-93245217D01*
X146899500Y-93494028D01*
X146899500Y-93745971D01*
X146938909Y-93994782D01*
X146970839Y-94093054D01*
X147016759Y-94234379D01*
X147131130Y-94458845D01*
X147279207Y-94662656D01*
X147457344Y-94840793D01*
X147661155Y-94988870D01*
X147885621Y-95103241D01*
X148125215Y-95181090D01*
X148212729Y-95194951D01*
X148374028Y-95220499D01*
X148374035Y-95220499D01*
X148374038Y-95220500D01*
X148374041Y-95220500D01*
X148625959Y-95220500D01*
X148625962Y-95220500D01*
X148625965Y-95220499D01*
X148625971Y-95220499D01*
X148743513Y-95201881D01*
X148874785Y-95181090D01*
X149114379Y-95103241D01*
X149338845Y-94988870D01*
X149542656Y-94840793D01*
X149720793Y-94662656D01*
X149868870Y-94458845D01*
X149983241Y-94234379D01*
X150061090Y-93994785D01*
X150100500Y-93745962D01*
X150100500Y-93494038D01*
X150100499Y-93494035D01*
X150100499Y-93494028D01*
X150061090Y-93245217D01*
X150061090Y-93245215D01*
X149983241Y-93005621D01*
X149868870Y-92781155D01*
X149720793Y-92577344D01*
X149669515Y-92526066D01*
X149615542Y-92445288D01*
X149596588Y-92350000D01*
X149615542Y-92254712D01*
X149669515Y-92173933D01*
X149720793Y-92122656D01*
X149868870Y-91918845D01*
X149983241Y-91694379D01*
X150061090Y-91454785D01*
X150084629Y-91306166D01*
X150100499Y-91205971D01*
X150100500Y-91205959D01*
X150100500Y-90954040D01*
X150100499Y-90954028D01*
X150072787Y-90779064D01*
X150061090Y-90705215D01*
X149983241Y-90465621D01*
X149868870Y-90241155D01*
X149720793Y-90037344D01*
X149669515Y-89986066D01*
X149615542Y-89905288D01*
X149596588Y-89810000D01*
X149615542Y-89714712D01*
X149669515Y-89633933D01*
X149720793Y-89582656D01*
X149868870Y-89378845D01*
X149983241Y-89154379D01*
X150061090Y-88914785D01*
X150088028Y-88744705D01*
X150100499Y-88665971D01*
X150100500Y-88665959D01*
X150100500Y-88414040D01*
X150100499Y-88414028D01*
X150066423Y-88198887D01*
X150061090Y-88165215D01*
X149983241Y-87925621D01*
X149868870Y-87701155D01*
X149720793Y-87497344D01*
X149669515Y-87446066D01*
X149615542Y-87365288D01*
X149596588Y-87270000D01*
X149615542Y-87174712D01*
X149669515Y-87093933D01*
X149720793Y-87042656D01*
X149868870Y-86838845D01*
X149983241Y-86614379D01*
X150061090Y-86374785D01*
X150100500Y-86125962D01*
X150100500Y-85874038D01*
X150100499Y-85874035D01*
X150100499Y-85874028D01*
X150069628Y-85679119D01*
X150061090Y-85625215D01*
X149983241Y-85385621D01*
X149868870Y-85161155D01*
X149720793Y-84957344D01*
X149542656Y-84779207D01*
X149338845Y-84631130D01*
X149114379Y-84516759D01*
X149114376Y-84516758D01*
X149114374Y-84516757D01*
X148874782Y-84438909D01*
X148625971Y-84399500D01*
X148625962Y-84399500D01*
X148374038Y-84399500D01*
X148374028Y-84399500D01*
X148125217Y-84438909D01*
X147885625Y-84516757D01*
X147885621Y-84516758D01*
X147885621Y-84516759D01*
X147661155Y-84631130D01*
X147661153Y-84631131D01*
X147661148Y-84631134D01*
X147457347Y-84779204D01*
X147279204Y-84957347D01*
X147131134Y-85161148D01*
X147131131Y-85161153D01*
X147131130Y-85161155D01*
X147022032Y-85375272D01*
X147016757Y-85385625D01*
X146938909Y-85625217D01*
X146899500Y-85874028D01*
X117201488Y-85874028D01*
X117197540Y-85849105D01*
X117197540Y-85849103D01*
X117142309Y-85679119D01*
X117061167Y-85519868D01*
X116956111Y-85375272D01*
X116829728Y-85248889D01*
X116685132Y-85143833D01*
X116525881Y-85062691D01*
X116355897Y-85007460D01*
X116355894Y-85007459D01*
X116179375Y-84979500D01*
X116179366Y-84979500D01*
X116000634Y-84979500D01*
X116000624Y-84979500D01*
X115824105Y-85007459D01*
X115654124Y-85062689D01*
X115654119Y-85062691D01*
X115494868Y-85143833D01*
X115350274Y-85248887D01*
X115223887Y-85375274D01*
X115216367Y-85385625D01*
X115118833Y-85519868D01*
X115041859Y-85670938D01*
X114981713Y-85747233D01*
X114896945Y-85794705D01*
X114800464Y-85806124D01*
X114706956Y-85779753D01*
X114630659Y-85719605D01*
X114598141Y-85670939D01*
X114521167Y-85519868D01*
X114416111Y-85375272D01*
X114289728Y-85248889D01*
X114145132Y-85143833D01*
X113985881Y-85062691D01*
X113815897Y-85007460D01*
X113815894Y-85007459D01*
X113639375Y-84979500D01*
X113639366Y-84979500D01*
X113460634Y-84979500D01*
X113460624Y-84979500D01*
X113284105Y-85007459D01*
X113114124Y-85062689D01*
X113114119Y-85062691D01*
X112954868Y-85143833D01*
X112810274Y-85248887D01*
X112683887Y-85375274D01*
X112676367Y-85385625D01*
X112578833Y-85519868D01*
X112501859Y-85670938D01*
X112441713Y-85747233D01*
X112356945Y-85794705D01*
X112260464Y-85806124D01*
X112166956Y-85779753D01*
X112090659Y-85719605D01*
X112058141Y-85670939D01*
X111981167Y-85519868D01*
X111876111Y-85375272D01*
X111749728Y-85248889D01*
X111605132Y-85143833D01*
X111445881Y-85062691D01*
X111275897Y-85007460D01*
X111275894Y-85007459D01*
X111099375Y-84979500D01*
X111099366Y-84979500D01*
X110920634Y-84979500D01*
X110920624Y-84979500D01*
X110744105Y-85007459D01*
X110574124Y-85062689D01*
X110574119Y-85062691D01*
X110414868Y-85143833D01*
X110270274Y-85248887D01*
X110143887Y-85375274D01*
X110136367Y-85385625D01*
X110038833Y-85519868D01*
X109961859Y-85670938D01*
X109901713Y-85747233D01*
X109816945Y-85794705D01*
X109720464Y-85806124D01*
X109626956Y-85779753D01*
X109550659Y-85719605D01*
X109518141Y-85670939D01*
X109441167Y-85519868D01*
X109336111Y-85375272D01*
X109209728Y-85248889D01*
X109065132Y-85143833D01*
X108905881Y-85062691D01*
X108735897Y-85007460D01*
X108735894Y-85007459D01*
X108559375Y-84979500D01*
X108559366Y-84979500D01*
X108380634Y-84979500D01*
X108380624Y-84979500D01*
X108204105Y-85007459D01*
X108034124Y-85062689D01*
X108034119Y-85062691D01*
X107874868Y-85143833D01*
X107730274Y-85248887D01*
X107603887Y-85375274D01*
X107596367Y-85385625D01*
X107498833Y-85519868D01*
X107421859Y-85670938D01*
X107361713Y-85747233D01*
X107276945Y-85794705D01*
X107180464Y-85806124D01*
X107086956Y-85779753D01*
X107010659Y-85719605D01*
X106978141Y-85670939D01*
X106901167Y-85519868D01*
X106796111Y-85375272D01*
X106669728Y-85248889D01*
X106525132Y-85143833D01*
X106365881Y-85062691D01*
X106195897Y-85007460D01*
X106195894Y-85007459D01*
X106019375Y-84979500D01*
X106019366Y-84979500D01*
X105840634Y-84979500D01*
X105840624Y-84979500D01*
X105664105Y-85007459D01*
X105494124Y-85062689D01*
X105494119Y-85062691D01*
X105334868Y-85143833D01*
X105190274Y-85248887D01*
X105063887Y-85375274D01*
X104958833Y-85519868D01*
X104877691Y-85679119D01*
X104877689Y-85679124D01*
X104822459Y-85849105D01*
X104794500Y-86025624D01*
X101985499Y-86025624D01*
X101966109Y-85903207D01*
X101957540Y-85849103D01*
X101902309Y-85679119D01*
X101821167Y-85519868D01*
X101716111Y-85375272D01*
X101589728Y-85248889D01*
X101445132Y-85143833D01*
X101285881Y-85062691D01*
X101115897Y-85007460D01*
X101115894Y-85007459D01*
X100939375Y-84979500D01*
X100939366Y-84979500D01*
X100760634Y-84979500D01*
X100760624Y-84979500D01*
X100584105Y-85007459D01*
X100414124Y-85062689D01*
X100414119Y-85062691D01*
X100254868Y-85143833D01*
X100110274Y-85248887D01*
X99983887Y-85375274D01*
X99878833Y-85519868D01*
X99797691Y-85679119D01*
X99797689Y-85679124D01*
X99742459Y-85849105D01*
X99714500Y-86025624D01*
X97606529Y-86025624D01*
X97608586Y-76282205D01*
X98798500Y-76282205D01*
X98798500Y-76577794D01*
X98831593Y-76871488D01*
X98897361Y-77159637D01*
X98994984Y-77438626D01*
X99096571Y-77649574D01*
X99123221Y-77704912D01*
X99280470Y-77955173D01*
X99464751Y-78186254D01*
X99673746Y-78395249D01*
X99904827Y-78579530D01*
X100155088Y-78736779D01*
X100338695Y-78825199D01*
X100421373Y-78865015D01*
X100421375Y-78865015D01*
X100421382Y-78865019D01*
X100700360Y-78962638D01*
X100988513Y-79028407D01*
X101172073Y-79049089D01*
X101282205Y-79061499D01*
X101282218Y-79061500D01*
X101577782Y-79061500D01*
X101577794Y-79061499D01*
X101661226Y-79052098D01*
X101871487Y-79028407D01*
X102159640Y-78962638D01*
X102438618Y-78865019D01*
X102704912Y-78736779D01*
X102955173Y-78579530D01*
X103186254Y-78395249D01*
X103395249Y-78186254D01*
X103579530Y-77955173D01*
X103736779Y-77704912D01*
X103865019Y-77438618D01*
X103962638Y-77159640D01*
X104028407Y-76871487D01*
X104061500Y-76577782D01*
X104061500Y-76282218D01*
X104060758Y-76275636D01*
X104042016Y-76109297D01*
X104028407Y-75988513D01*
X103962638Y-75700360D01*
X103865019Y-75421382D01*
X103736779Y-75155088D01*
X103579530Y-74904827D01*
X103395249Y-74673746D01*
X103186254Y-74464751D01*
X102955173Y-74280470D01*
X102955174Y-74280470D01*
X102955172Y-74280469D01*
X102846806Y-74212378D01*
X102704912Y-74123221D01*
X102649574Y-74096571D01*
X102438626Y-73994984D01*
X102438619Y-73994981D01*
X102438618Y-73994981D01*
X102159640Y-73897362D01*
X102159639Y-73897361D01*
X102159637Y-73897361D01*
X101871488Y-73831593D01*
X101577794Y-73798500D01*
X101577782Y-73798500D01*
X101282218Y-73798500D01*
X101282205Y-73798500D01*
X100988511Y-73831593D01*
X100700362Y-73897361D01*
X100421373Y-73994984D01*
X100155102Y-74123214D01*
X100155096Y-74123217D01*
X100155088Y-74123221D01*
X100155084Y-74123223D01*
X100155083Y-74123224D01*
X99904827Y-74280469D01*
X99673749Y-74464748D01*
X99673741Y-74464755D01*
X99464755Y-74673741D01*
X99464748Y-74673749D01*
X99280469Y-74904827D01*
X99123224Y-75155083D01*
X99123214Y-75155102D01*
X98994984Y-75421373D01*
X98897361Y-75700362D01*
X98831593Y-75988511D01*
X98798500Y-76282205D01*
X97608586Y-76282205D01*
X97609311Y-72848944D01*
X97628285Y-72753663D01*
X97682279Y-72672893D01*
X97763071Y-72618934D01*
X97858311Y-72600000D01*
X108068230Y-72600000D01*
X108163518Y-72618954D01*
G37*
%TD.AperFunction*%
M02*
