%TF.GenerationSoftware,KiCad,Pcbnew,10.0.1*%
%TF.CreationDate,2026-05-10T20:31:06-04:00*%
%TF.ProjectId,TeensyDRV8874-In2_Cu (1),5465656e-7379-4445-9256-383837342d49,rev?*%
%TF.SameCoordinates,Original*%
%TF.FileFunction,Legend,Top*%
%TF.FilePolarity,Positive*%
%FSLAX46Y46*%
G04 Gerber Fmt 4.6, Leading zero omitted, Abs format (unit mm)*
G04 Created by KiCad (PCBNEW 10.0.1) date 2026-05-10 20:31:06*
%MOMM*%
%LPD*%
G01*
G04 APERTURE LIST*
G04 Aperture macros list*
%AMRoundRect*
0 Rectangle with rounded corners*
0 $1 Rounding radius*
0 $2 $3 $4 $5 $6 $7 $8 $9 X,Y pos of 4 corners*
0 Add a 4 corners polygon primitive as box body*
4,1,4,$2,$3,$4,$5,$6,$7,$8,$9,$2,$3,0*
0 Add four circle primitives for the rounded corners*
1,1,$1+$1,$2,$3*
1,1,$1+$1,$4,$5*
1,1,$1+$1,$6,$7*
1,1,$1+$1,$8,$9*
0 Add four rect primitives between the rounded corners*
20,1,$1+$1,$2,$3,$4,$5,0*
20,1,$1+$1,$4,$5,$6,$7,0*
20,1,$1+$1,$6,$7,$8,$9,0*
20,1,$1+$1,$8,$9,$2,$3,0*%
G04 Aperture macros list end*
%ADD10C,0.150000*%
%ADD11C,0.100000*%
%ADD12C,0.120000*%
%ADD13C,0.000000*%
%ADD14R,1.700000X1.700000*%
%ADD15C,1.700000*%
%ADD16C,4.500000*%
%ADD17RoundRect,0.190500X0.444500X-1.079500X0.444500X1.079500X-0.444500X1.079500X-0.444500X-1.079500X0*%
%ADD18O,1.270000X2.540000*%
%ADD19C,3.200000*%
%ADD20C,1.400000*%
%ADD21R,1.600000X2.200000*%
%ADD22C,1.600000*%
%ADD23C,2.200000*%
%ADD24RoundRect,0.250000X-0.550000X-0.550000X0.550000X-0.550000X0.550000X0.550000X-0.550000X0.550000X0*%
%ADD25C,3.300000*%
%ADD26C,9.000000*%
%ADD27R,1.600000X1.600000*%
G04 APERTURE END LIST*
D10*
X105188095Y-106654660D02*
X105111905Y-106616565D01*
X105111905Y-106616565D02*
X104997619Y-106616565D01*
X104997619Y-106616565D02*
X104883333Y-106654660D01*
X104883333Y-106654660D02*
X104807143Y-106730850D01*
X104807143Y-106730850D02*
X104769048Y-106807041D01*
X104769048Y-106807041D02*
X104730952Y-106959422D01*
X104730952Y-106959422D02*
X104730952Y-107073708D01*
X104730952Y-107073708D02*
X104769048Y-107226089D01*
X104769048Y-107226089D02*
X104807143Y-107302279D01*
X104807143Y-107302279D02*
X104883333Y-107378470D01*
X104883333Y-107378470D02*
X104997619Y-107416565D01*
X104997619Y-107416565D02*
X105073810Y-107416565D01*
X105073810Y-107416565D02*
X105188095Y-107378470D01*
X105188095Y-107378470D02*
X105226191Y-107340374D01*
X105226191Y-107340374D02*
X105226191Y-107073708D01*
X105226191Y-107073708D02*
X105073810Y-107073708D01*
X105569048Y-107416565D02*
X105569048Y-106616565D01*
X105569048Y-106616565D02*
X105873810Y-106616565D01*
X105873810Y-106616565D02*
X105950000Y-106654660D01*
X105950000Y-106654660D02*
X105988095Y-106692755D01*
X105988095Y-106692755D02*
X106026191Y-106768946D01*
X106026191Y-106768946D02*
X106026191Y-106883231D01*
X106026191Y-106883231D02*
X105988095Y-106959422D01*
X105988095Y-106959422D02*
X105950000Y-106997517D01*
X105950000Y-106997517D02*
X105873810Y-107035612D01*
X105873810Y-107035612D02*
X105569048Y-107035612D01*
X106369048Y-107416565D02*
X106369048Y-106616565D01*
X106902381Y-106616565D02*
X107054762Y-106616565D01*
X107054762Y-106616565D02*
X107130952Y-106654660D01*
X107130952Y-106654660D02*
X107207143Y-106730850D01*
X107207143Y-106730850D02*
X107245238Y-106883231D01*
X107245238Y-106883231D02*
X107245238Y-107149898D01*
X107245238Y-107149898D02*
X107207143Y-107302279D01*
X107207143Y-107302279D02*
X107130952Y-107378470D01*
X107130952Y-107378470D02*
X107054762Y-107416565D01*
X107054762Y-107416565D02*
X106902381Y-107416565D01*
X106902381Y-107416565D02*
X106826190Y-107378470D01*
X106826190Y-107378470D02*
X106750000Y-107302279D01*
X106750000Y-107302279D02*
X106711904Y-107149898D01*
X106711904Y-107149898D02*
X106711904Y-106883231D01*
X106711904Y-106883231D02*
X106750000Y-106730850D01*
X106750000Y-106730850D02*
X106826190Y-106654660D01*
X106826190Y-106654660D02*
X106902381Y-106616565D01*
X108007142Y-107416565D02*
X107549999Y-107416565D01*
X107778571Y-107416565D02*
X107778571Y-106616565D01*
X107778571Y-106616565D02*
X107702380Y-106730850D01*
X107702380Y-106730850D02*
X107626190Y-106807041D01*
X107626190Y-106807041D02*
X107549999Y-106845136D01*
X108464285Y-106959422D02*
X108388095Y-106921327D01*
X108388095Y-106921327D02*
X108350000Y-106883231D01*
X108350000Y-106883231D02*
X108311904Y-106807041D01*
X108311904Y-106807041D02*
X108311904Y-106768946D01*
X108311904Y-106768946D02*
X108350000Y-106692755D01*
X108350000Y-106692755D02*
X108388095Y-106654660D01*
X108388095Y-106654660D02*
X108464285Y-106616565D01*
X108464285Y-106616565D02*
X108616666Y-106616565D01*
X108616666Y-106616565D02*
X108692857Y-106654660D01*
X108692857Y-106654660D02*
X108730952Y-106692755D01*
X108730952Y-106692755D02*
X108769047Y-106768946D01*
X108769047Y-106768946D02*
X108769047Y-106807041D01*
X108769047Y-106807041D02*
X108730952Y-106883231D01*
X108730952Y-106883231D02*
X108692857Y-106921327D01*
X108692857Y-106921327D02*
X108616666Y-106959422D01*
X108616666Y-106959422D02*
X108464285Y-106959422D01*
X108464285Y-106959422D02*
X108388095Y-106997517D01*
X108388095Y-106997517D02*
X108350000Y-107035612D01*
X108350000Y-107035612D02*
X108311904Y-107111803D01*
X108311904Y-107111803D02*
X108311904Y-107264184D01*
X108311904Y-107264184D02*
X108350000Y-107340374D01*
X108350000Y-107340374D02*
X108388095Y-107378470D01*
X108388095Y-107378470D02*
X108464285Y-107416565D01*
X108464285Y-107416565D02*
X108616666Y-107416565D01*
X108616666Y-107416565D02*
X108692857Y-107378470D01*
X108692857Y-107378470D02*
X108730952Y-107340374D01*
X108730952Y-107340374D02*
X108769047Y-107264184D01*
X108769047Y-107264184D02*
X108769047Y-107111803D01*
X108769047Y-107111803D02*
X108730952Y-107035612D01*
X108730952Y-107035612D02*
X108692857Y-106997517D01*
X108692857Y-106997517D02*
X108616666Y-106959422D01*
X105188095Y-109230570D02*
X105111905Y-109192475D01*
X105111905Y-109192475D02*
X104997619Y-109192475D01*
X104997619Y-109192475D02*
X104883333Y-109230570D01*
X104883333Y-109230570D02*
X104807143Y-109306760D01*
X104807143Y-109306760D02*
X104769048Y-109382951D01*
X104769048Y-109382951D02*
X104730952Y-109535332D01*
X104730952Y-109535332D02*
X104730952Y-109649618D01*
X104730952Y-109649618D02*
X104769048Y-109801999D01*
X104769048Y-109801999D02*
X104807143Y-109878189D01*
X104807143Y-109878189D02*
X104883333Y-109954380D01*
X104883333Y-109954380D02*
X104997619Y-109992475D01*
X104997619Y-109992475D02*
X105073810Y-109992475D01*
X105073810Y-109992475D02*
X105188095Y-109954380D01*
X105188095Y-109954380D02*
X105226191Y-109916284D01*
X105226191Y-109916284D02*
X105226191Y-109649618D01*
X105226191Y-109649618D02*
X105073810Y-109649618D01*
X105569048Y-109992475D02*
X105569048Y-109192475D01*
X105569048Y-109192475D02*
X105873810Y-109192475D01*
X105873810Y-109192475D02*
X105950000Y-109230570D01*
X105950000Y-109230570D02*
X105988095Y-109268665D01*
X105988095Y-109268665D02*
X106026191Y-109344856D01*
X106026191Y-109344856D02*
X106026191Y-109459141D01*
X106026191Y-109459141D02*
X105988095Y-109535332D01*
X105988095Y-109535332D02*
X105950000Y-109573427D01*
X105950000Y-109573427D02*
X105873810Y-109611522D01*
X105873810Y-109611522D02*
X105569048Y-109611522D01*
X106369048Y-109992475D02*
X106369048Y-109192475D01*
X106902381Y-109192475D02*
X107054762Y-109192475D01*
X107054762Y-109192475D02*
X107130952Y-109230570D01*
X107130952Y-109230570D02*
X107207143Y-109306760D01*
X107207143Y-109306760D02*
X107245238Y-109459141D01*
X107245238Y-109459141D02*
X107245238Y-109725808D01*
X107245238Y-109725808D02*
X107207143Y-109878189D01*
X107207143Y-109878189D02*
X107130952Y-109954380D01*
X107130952Y-109954380D02*
X107054762Y-109992475D01*
X107054762Y-109992475D02*
X106902381Y-109992475D01*
X106902381Y-109992475D02*
X106826190Y-109954380D01*
X106826190Y-109954380D02*
X106750000Y-109878189D01*
X106750000Y-109878189D02*
X106711904Y-109725808D01*
X106711904Y-109725808D02*
X106711904Y-109459141D01*
X106711904Y-109459141D02*
X106750000Y-109306760D01*
X106750000Y-109306760D02*
X106826190Y-109230570D01*
X106826190Y-109230570D02*
X106902381Y-109192475D01*
X108007142Y-109992475D02*
X107549999Y-109992475D01*
X107778571Y-109992475D02*
X107778571Y-109192475D01*
X107778571Y-109192475D02*
X107702380Y-109306760D01*
X107702380Y-109306760D02*
X107626190Y-109382951D01*
X107626190Y-109382951D02*
X107549999Y-109421046D01*
X108273809Y-109192475D02*
X108807143Y-109192475D01*
X108807143Y-109192475D02*
X108464285Y-109992475D01*
X105188095Y-111806480D02*
X105111905Y-111768385D01*
X105111905Y-111768385D02*
X104997619Y-111768385D01*
X104997619Y-111768385D02*
X104883333Y-111806480D01*
X104883333Y-111806480D02*
X104807143Y-111882670D01*
X104807143Y-111882670D02*
X104769048Y-111958861D01*
X104769048Y-111958861D02*
X104730952Y-112111242D01*
X104730952Y-112111242D02*
X104730952Y-112225528D01*
X104730952Y-112225528D02*
X104769048Y-112377909D01*
X104769048Y-112377909D02*
X104807143Y-112454099D01*
X104807143Y-112454099D02*
X104883333Y-112530290D01*
X104883333Y-112530290D02*
X104997619Y-112568385D01*
X104997619Y-112568385D02*
X105073810Y-112568385D01*
X105073810Y-112568385D02*
X105188095Y-112530290D01*
X105188095Y-112530290D02*
X105226191Y-112492194D01*
X105226191Y-112492194D02*
X105226191Y-112225528D01*
X105226191Y-112225528D02*
X105073810Y-112225528D01*
X105569048Y-112568385D02*
X105569048Y-111768385D01*
X105569048Y-111768385D02*
X105873810Y-111768385D01*
X105873810Y-111768385D02*
X105950000Y-111806480D01*
X105950000Y-111806480D02*
X105988095Y-111844575D01*
X105988095Y-111844575D02*
X106026191Y-111920766D01*
X106026191Y-111920766D02*
X106026191Y-112035051D01*
X106026191Y-112035051D02*
X105988095Y-112111242D01*
X105988095Y-112111242D02*
X105950000Y-112149337D01*
X105950000Y-112149337D02*
X105873810Y-112187432D01*
X105873810Y-112187432D02*
X105569048Y-112187432D01*
X106369048Y-112568385D02*
X106369048Y-111768385D01*
X106902381Y-111768385D02*
X107054762Y-111768385D01*
X107054762Y-111768385D02*
X107130952Y-111806480D01*
X107130952Y-111806480D02*
X107207143Y-111882670D01*
X107207143Y-111882670D02*
X107245238Y-112035051D01*
X107245238Y-112035051D02*
X107245238Y-112301718D01*
X107245238Y-112301718D02*
X107207143Y-112454099D01*
X107207143Y-112454099D02*
X107130952Y-112530290D01*
X107130952Y-112530290D02*
X107054762Y-112568385D01*
X107054762Y-112568385D02*
X106902381Y-112568385D01*
X106902381Y-112568385D02*
X106826190Y-112530290D01*
X106826190Y-112530290D02*
X106750000Y-112454099D01*
X106750000Y-112454099D02*
X106711904Y-112301718D01*
X106711904Y-112301718D02*
X106711904Y-112035051D01*
X106711904Y-112035051D02*
X106750000Y-111882670D01*
X106750000Y-111882670D02*
X106826190Y-111806480D01*
X106826190Y-111806480D02*
X106902381Y-111768385D01*
X108007142Y-112568385D02*
X107549999Y-112568385D01*
X107778571Y-112568385D02*
X107778571Y-111768385D01*
X107778571Y-111768385D02*
X107702380Y-111882670D01*
X107702380Y-111882670D02*
X107626190Y-111958861D01*
X107626190Y-111958861D02*
X107549999Y-111996956D01*
X108502381Y-111768385D02*
X108578571Y-111768385D01*
X108578571Y-111768385D02*
X108654762Y-111806480D01*
X108654762Y-111806480D02*
X108692857Y-111844575D01*
X108692857Y-111844575D02*
X108730952Y-111920766D01*
X108730952Y-111920766D02*
X108769047Y-112073147D01*
X108769047Y-112073147D02*
X108769047Y-112263623D01*
X108769047Y-112263623D02*
X108730952Y-112416004D01*
X108730952Y-112416004D02*
X108692857Y-112492194D01*
X108692857Y-112492194D02*
X108654762Y-112530290D01*
X108654762Y-112530290D02*
X108578571Y-112568385D01*
X108578571Y-112568385D02*
X108502381Y-112568385D01*
X108502381Y-112568385D02*
X108426190Y-112530290D01*
X108426190Y-112530290D02*
X108388095Y-112492194D01*
X108388095Y-112492194D02*
X108350000Y-112416004D01*
X108350000Y-112416004D02*
X108311904Y-112263623D01*
X108311904Y-112263623D02*
X108311904Y-112073147D01*
X108311904Y-112073147D02*
X108350000Y-111920766D01*
X108350000Y-111920766D02*
X108388095Y-111844575D01*
X108388095Y-111844575D02*
X108426190Y-111806480D01*
X108426190Y-111806480D02*
X108502381Y-111768385D01*
X105569047Y-114382390D02*
X105492857Y-114344295D01*
X105492857Y-114344295D02*
X105378571Y-114344295D01*
X105378571Y-114344295D02*
X105264285Y-114382390D01*
X105264285Y-114382390D02*
X105188095Y-114458580D01*
X105188095Y-114458580D02*
X105150000Y-114534771D01*
X105150000Y-114534771D02*
X105111904Y-114687152D01*
X105111904Y-114687152D02*
X105111904Y-114801438D01*
X105111904Y-114801438D02*
X105150000Y-114953819D01*
X105150000Y-114953819D02*
X105188095Y-115030009D01*
X105188095Y-115030009D02*
X105264285Y-115106200D01*
X105264285Y-115106200D02*
X105378571Y-115144295D01*
X105378571Y-115144295D02*
X105454762Y-115144295D01*
X105454762Y-115144295D02*
X105569047Y-115106200D01*
X105569047Y-115106200D02*
X105607143Y-115068104D01*
X105607143Y-115068104D02*
X105607143Y-114801438D01*
X105607143Y-114801438D02*
X105454762Y-114801438D01*
X105950000Y-115144295D02*
X105950000Y-114344295D01*
X105950000Y-114344295D02*
X106254762Y-114344295D01*
X106254762Y-114344295D02*
X106330952Y-114382390D01*
X106330952Y-114382390D02*
X106369047Y-114420485D01*
X106369047Y-114420485D02*
X106407143Y-114496676D01*
X106407143Y-114496676D02*
X106407143Y-114610961D01*
X106407143Y-114610961D02*
X106369047Y-114687152D01*
X106369047Y-114687152D02*
X106330952Y-114725247D01*
X106330952Y-114725247D02*
X106254762Y-114763342D01*
X106254762Y-114763342D02*
X105950000Y-114763342D01*
X106750000Y-115144295D02*
X106750000Y-114344295D01*
X107283333Y-114344295D02*
X107435714Y-114344295D01*
X107435714Y-114344295D02*
X107511904Y-114382390D01*
X107511904Y-114382390D02*
X107588095Y-114458580D01*
X107588095Y-114458580D02*
X107626190Y-114610961D01*
X107626190Y-114610961D02*
X107626190Y-114877628D01*
X107626190Y-114877628D02*
X107588095Y-115030009D01*
X107588095Y-115030009D02*
X107511904Y-115106200D01*
X107511904Y-115106200D02*
X107435714Y-115144295D01*
X107435714Y-115144295D02*
X107283333Y-115144295D01*
X107283333Y-115144295D02*
X107207142Y-115106200D01*
X107207142Y-115106200D02*
X107130952Y-115030009D01*
X107130952Y-115030009D02*
X107092856Y-114877628D01*
X107092856Y-114877628D02*
X107092856Y-114610961D01*
X107092856Y-114610961D02*
X107130952Y-114458580D01*
X107130952Y-114458580D02*
X107207142Y-114382390D01*
X107207142Y-114382390D02*
X107283333Y-114344295D01*
X108007142Y-115144295D02*
X108159523Y-115144295D01*
X108159523Y-115144295D02*
X108235713Y-115106200D01*
X108235713Y-115106200D02*
X108273809Y-115068104D01*
X108273809Y-115068104D02*
X108349999Y-114953819D01*
X108349999Y-114953819D02*
X108388094Y-114801438D01*
X108388094Y-114801438D02*
X108388094Y-114496676D01*
X108388094Y-114496676D02*
X108349999Y-114420485D01*
X108349999Y-114420485D02*
X108311904Y-114382390D01*
X108311904Y-114382390D02*
X108235713Y-114344295D01*
X108235713Y-114344295D02*
X108083332Y-114344295D01*
X108083332Y-114344295D02*
X108007142Y-114382390D01*
X108007142Y-114382390D02*
X107969047Y-114420485D01*
X107969047Y-114420485D02*
X107930951Y-114496676D01*
X107930951Y-114496676D02*
X107930951Y-114687152D01*
X107930951Y-114687152D02*
X107969047Y-114763342D01*
X107969047Y-114763342D02*
X108007142Y-114801438D01*
X108007142Y-114801438D02*
X108083332Y-114839533D01*
X108083332Y-114839533D02*
X108235713Y-114839533D01*
X108235713Y-114839533D02*
X108311904Y-114801438D01*
X108311904Y-114801438D02*
X108349999Y-114763342D01*
X108349999Y-114763342D02*
X108388094Y-114687152D01*
X146097619Y-128290655D02*
X145716667Y-128290655D01*
X145716667Y-128290655D02*
X145678571Y-128671607D01*
X145678571Y-128671607D02*
X145716667Y-128633512D01*
X145716667Y-128633512D02*
X145792857Y-128595417D01*
X145792857Y-128595417D02*
X145983333Y-128595417D01*
X145983333Y-128595417D02*
X146059524Y-128633512D01*
X146059524Y-128633512D02*
X146097619Y-128671607D01*
X146097619Y-128671607D02*
X146135714Y-128747798D01*
X146135714Y-128747798D02*
X146135714Y-128938274D01*
X146135714Y-128938274D02*
X146097619Y-129014464D01*
X146097619Y-129014464D02*
X146059524Y-129052560D01*
X146059524Y-129052560D02*
X145983333Y-129090655D01*
X145983333Y-129090655D02*
X145792857Y-129090655D01*
X145792857Y-129090655D02*
X145716667Y-129052560D01*
X145716667Y-129052560D02*
X145678571Y-129014464D01*
X146364286Y-128290655D02*
X146630953Y-129090655D01*
X146630953Y-129090655D02*
X146897619Y-128290655D01*
X146059523Y-131437993D02*
X146440476Y-131437993D01*
X145983333Y-131666565D02*
X146250000Y-130866565D01*
X146250000Y-130866565D02*
X146516666Y-131666565D01*
X146307142Y-133823427D02*
X146421428Y-133861522D01*
X146421428Y-133861522D02*
X146459523Y-133899618D01*
X146459523Y-133899618D02*
X146497619Y-133975808D01*
X146497619Y-133975808D02*
X146497619Y-134090094D01*
X146497619Y-134090094D02*
X146459523Y-134166284D01*
X146459523Y-134166284D02*
X146421428Y-134204380D01*
X146421428Y-134204380D02*
X146345238Y-134242475D01*
X146345238Y-134242475D02*
X146040476Y-134242475D01*
X146040476Y-134242475D02*
X146040476Y-133442475D01*
X146040476Y-133442475D02*
X146307142Y-133442475D01*
X146307142Y-133442475D02*
X146383333Y-133480570D01*
X146383333Y-133480570D02*
X146421428Y-133518665D01*
X146421428Y-133518665D02*
X146459523Y-133594856D01*
X146459523Y-133594856D02*
X146459523Y-133671046D01*
X146459523Y-133671046D02*
X146421428Y-133747237D01*
X146421428Y-133747237D02*
X146383333Y-133785332D01*
X146383333Y-133785332D02*
X146307142Y-133823427D01*
X146307142Y-133823427D02*
X146040476Y-133823427D01*
X146250000Y-136818385D02*
X146250000Y-136018385D01*
X145640476Y-138632390D02*
X145564286Y-138594295D01*
X145564286Y-138594295D02*
X145450000Y-138594295D01*
X145450000Y-138594295D02*
X145335714Y-138632390D01*
X145335714Y-138632390D02*
X145259524Y-138708580D01*
X145259524Y-138708580D02*
X145221429Y-138784771D01*
X145221429Y-138784771D02*
X145183333Y-138937152D01*
X145183333Y-138937152D02*
X145183333Y-139051438D01*
X145183333Y-139051438D02*
X145221429Y-139203819D01*
X145221429Y-139203819D02*
X145259524Y-139280009D01*
X145259524Y-139280009D02*
X145335714Y-139356200D01*
X145335714Y-139356200D02*
X145450000Y-139394295D01*
X145450000Y-139394295D02*
X145526191Y-139394295D01*
X145526191Y-139394295D02*
X145640476Y-139356200D01*
X145640476Y-139356200D02*
X145678572Y-139318104D01*
X145678572Y-139318104D02*
X145678572Y-139051438D01*
X145678572Y-139051438D02*
X145526191Y-139051438D01*
X146021429Y-139394295D02*
X146021429Y-138594295D01*
X146021429Y-138594295D02*
X146478572Y-139394295D01*
X146478572Y-139394295D02*
X146478572Y-138594295D01*
X146859524Y-139394295D02*
X146859524Y-138594295D01*
X146859524Y-138594295D02*
X147050000Y-138594295D01*
X147050000Y-138594295D02*
X147164286Y-138632390D01*
X147164286Y-138632390D02*
X147240476Y-138708580D01*
X147240476Y-138708580D02*
X147278571Y-138784771D01*
X147278571Y-138784771D02*
X147316667Y-138937152D01*
X147316667Y-138937152D02*
X147316667Y-139051438D01*
X147316667Y-139051438D02*
X147278571Y-139203819D01*
X147278571Y-139203819D02*
X147240476Y-139280009D01*
X147240476Y-139280009D02*
X147164286Y-139356200D01*
X147164286Y-139356200D02*
X147050000Y-139394295D01*
X147050000Y-139394295D02*
X146859524Y-139394295D01*
D11*
X143356265Y-85886704D02*
X143832455Y-85886704D01*
X143261027Y-86172419D02*
X143594360Y-85172419D01*
X143594360Y-85172419D02*
X143927693Y-86172419D01*
X144261027Y-85791466D02*
X145022932Y-85791466D01*
X144641979Y-86172419D02*
X144641979Y-85410514D01*
X143737217Y-91248609D02*
X143880074Y-91296228D01*
X143880074Y-91296228D02*
X143927693Y-91343847D01*
X143927693Y-91343847D02*
X143975312Y-91439085D01*
X143975312Y-91439085D02*
X143975312Y-91581942D01*
X143975312Y-91581942D02*
X143927693Y-91677180D01*
X143927693Y-91677180D02*
X143880074Y-91724800D01*
X143880074Y-91724800D02*
X143784836Y-91772419D01*
X143784836Y-91772419D02*
X143403884Y-91772419D01*
X143403884Y-91772419D02*
X143403884Y-90772419D01*
X143403884Y-90772419D02*
X143737217Y-90772419D01*
X143737217Y-90772419D02*
X143832455Y-90820038D01*
X143832455Y-90820038D02*
X143880074Y-90867657D01*
X143880074Y-90867657D02*
X143927693Y-90962895D01*
X143927693Y-90962895D02*
X143927693Y-91058133D01*
X143927693Y-91058133D02*
X143880074Y-91153371D01*
X143880074Y-91153371D02*
X143832455Y-91200990D01*
X143832455Y-91200990D02*
X143737217Y-91248609D01*
X143737217Y-91248609D02*
X143403884Y-91248609D01*
X144403884Y-91391466D02*
X145165789Y-91391466D01*
X144784836Y-91772419D02*
X144784836Y-91010514D01*
X143737217Y-93648609D02*
X143880074Y-93696228D01*
X143880074Y-93696228D02*
X143927693Y-93743847D01*
X143927693Y-93743847D02*
X143975312Y-93839085D01*
X143975312Y-93839085D02*
X143975312Y-93981942D01*
X143975312Y-93981942D02*
X143927693Y-94077180D01*
X143927693Y-94077180D02*
X143880074Y-94124800D01*
X143880074Y-94124800D02*
X143784836Y-94172419D01*
X143784836Y-94172419D02*
X143403884Y-94172419D01*
X143403884Y-94172419D02*
X143403884Y-93172419D01*
X143403884Y-93172419D02*
X143737217Y-93172419D01*
X143737217Y-93172419D02*
X143832455Y-93220038D01*
X143832455Y-93220038D02*
X143880074Y-93267657D01*
X143880074Y-93267657D02*
X143927693Y-93362895D01*
X143927693Y-93362895D02*
X143927693Y-93458133D01*
X143927693Y-93458133D02*
X143880074Y-93553371D01*
X143880074Y-93553371D02*
X143832455Y-93600990D01*
X143832455Y-93600990D02*
X143737217Y-93648609D01*
X143737217Y-93648609D02*
X143403884Y-93648609D01*
X144403884Y-93791466D02*
X145165789Y-93791466D01*
X143456265Y-88586704D02*
X143932455Y-88586704D01*
X143361027Y-88872419D02*
X143694360Y-87872419D01*
X143694360Y-87872419D02*
X144027693Y-88872419D01*
X144361027Y-88491466D02*
X145122932Y-88491466D01*
X145927693Y-101820038D02*
X145832455Y-101772419D01*
X145832455Y-101772419D02*
X145689598Y-101772419D01*
X145689598Y-101772419D02*
X145546741Y-101820038D01*
X145546741Y-101820038D02*
X145451503Y-101915276D01*
X145451503Y-101915276D02*
X145403884Y-102010514D01*
X145403884Y-102010514D02*
X145356265Y-102200990D01*
X145356265Y-102200990D02*
X145356265Y-102343847D01*
X145356265Y-102343847D02*
X145403884Y-102534323D01*
X145403884Y-102534323D02*
X145451503Y-102629561D01*
X145451503Y-102629561D02*
X145546741Y-102724800D01*
X145546741Y-102724800D02*
X145689598Y-102772419D01*
X145689598Y-102772419D02*
X145784836Y-102772419D01*
X145784836Y-102772419D02*
X145927693Y-102724800D01*
X145927693Y-102724800D02*
X145975312Y-102677180D01*
X145975312Y-102677180D02*
X145975312Y-102343847D01*
X145975312Y-102343847D02*
X145784836Y-102343847D01*
X146403884Y-102105752D02*
X146403884Y-102772419D01*
X146403884Y-102200990D02*
X146451503Y-102153371D01*
X146451503Y-102153371D02*
X146546741Y-102105752D01*
X146546741Y-102105752D02*
X146689598Y-102105752D01*
X146689598Y-102105752D02*
X146784836Y-102153371D01*
X146784836Y-102153371D02*
X146832455Y-102248609D01*
X146832455Y-102248609D02*
X146832455Y-102772419D01*
X147737217Y-102772419D02*
X147737217Y-101772419D01*
X147737217Y-102724800D02*
X147641979Y-102772419D01*
X147641979Y-102772419D02*
X147451503Y-102772419D01*
X147451503Y-102772419D02*
X147356265Y-102724800D01*
X147356265Y-102724800D02*
X147308646Y-102677180D01*
X147308646Y-102677180D02*
X147261027Y-102581942D01*
X147261027Y-102581942D02*
X147261027Y-102296228D01*
X147261027Y-102296228D02*
X147308646Y-102200990D01*
X147308646Y-102200990D02*
X147356265Y-102153371D01*
X147356265Y-102153371D02*
X147451503Y-102105752D01*
X147451503Y-102105752D02*
X147641979Y-102105752D01*
X147641979Y-102105752D02*
X147737217Y-102153371D01*
X145561027Y-99372419D02*
X145894360Y-100372419D01*
X145894360Y-100372419D02*
X146227693Y-99372419D01*
X146561027Y-100372419D02*
X146561027Y-99705752D01*
X146561027Y-99800990D02*
X146608646Y-99753371D01*
X146608646Y-99753371D02*
X146703884Y-99705752D01*
X146703884Y-99705752D02*
X146846741Y-99705752D01*
X146846741Y-99705752D02*
X146941979Y-99753371D01*
X146941979Y-99753371D02*
X146989598Y-99848609D01*
X146989598Y-99848609D02*
X146989598Y-100372419D01*
X146989598Y-99848609D02*
X147037217Y-99753371D01*
X147037217Y-99753371D02*
X147132455Y-99705752D01*
X147132455Y-99705752D02*
X147275312Y-99705752D01*
X147275312Y-99705752D02*
X147370551Y-99753371D01*
X147370551Y-99753371D02*
X147418170Y-99848609D01*
X147418170Y-99848609D02*
X147418170Y-100372419D01*
X145656265Y-110524800D02*
X145799122Y-110572419D01*
X145799122Y-110572419D02*
X146037217Y-110572419D01*
X146037217Y-110572419D02*
X146132455Y-110524800D01*
X146132455Y-110524800D02*
X146180074Y-110477180D01*
X146180074Y-110477180D02*
X146227693Y-110381942D01*
X146227693Y-110381942D02*
X146227693Y-110286704D01*
X146227693Y-110286704D02*
X146180074Y-110191466D01*
X146180074Y-110191466D02*
X146132455Y-110143847D01*
X146132455Y-110143847D02*
X146037217Y-110096228D01*
X146037217Y-110096228D02*
X145846741Y-110048609D01*
X145846741Y-110048609D02*
X145751503Y-110000990D01*
X145751503Y-110000990D02*
X145703884Y-109953371D01*
X145703884Y-109953371D02*
X145656265Y-109858133D01*
X145656265Y-109858133D02*
X145656265Y-109762895D01*
X145656265Y-109762895D02*
X145703884Y-109667657D01*
X145703884Y-109667657D02*
X145751503Y-109620038D01*
X145751503Y-109620038D02*
X145846741Y-109572419D01*
X145846741Y-109572419D02*
X146084836Y-109572419D01*
X146084836Y-109572419D02*
X146227693Y-109620038D01*
X146513408Y-109905752D02*
X146894360Y-109905752D01*
X146656265Y-109572419D02*
X146656265Y-110429561D01*
X146656265Y-110429561D02*
X146703884Y-110524800D01*
X146703884Y-110524800D02*
X146799122Y-110572419D01*
X146799122Y-110572419D02*
X146894360Y-110572419D01*
X147227694Y-109905752D02*
X147227694Y-110905752D01*
X147227694Y-109953371D02*
X147322932Y-109905752D01*
X147322932Y-109905752D02*
X147513408Y-109905752D01*
X147513408Y-109905752D02*
X147608646Y-109953371D01*
X147608646Y-109953371D02*
X147656265Y-110000990D01*
X147656265Y-110000990D02*
X147703884Y-110096228D01*
X147703884Y-110096228D02*
X147703884Y-110381942D01*
X147703884Y-110381942D02*
X147656265Y-110477180D01*
X147656265Y-110477180D02*
X147608646Y-110524800D01*
X147608646Y-110524800D02*
X147513408Y-110572419D01*
X147513408Y-110572419D02*
X147322932Y-110572419D01*
X147322932Y-110572419D02*
X147227694Y-110524800D01*
X145903884Y-118072419D02*
X145903884Y-117072419D01*
X145903884Y-117072419D02*
X146141979Y-117072419D01*
X146141979Y-117072419D02*
X146284836Y-117120038D01*
X146284836Y-117120038D02*
X146380074Y-117215276D01*
X146380074Y-117215276D02*
X146427693Y-117310514D01*
X146427693Y-117310514D02*
X146475312Y-117500990D01*
X146475312Y-117500990D02*
X146475312Y-117643847D01*
X146475312Y-117643847D02*
X146427693Y-117834323D01*
X146427693Y-117834323D02*
X146380074Y-117929561D01*
X146380074Y-117929561D02*
X146284836Y-118024800D01*
X146284836Y-118024800D02*
X146141979Y-118072419D01*
X146141979Y-118072419D02*
X145903884Y-118072419D01*
X146903884Y-117691466D02*
X147665789Y-117691466D01*
X146003884Y-113172419D02*
X146003884Y-112172419D01*
X146003884Y-112172419D02*
X146241979Y-112172419D01*
X146241979Y-112172419D02*
X146384836Y-112220038D01*
X146384836Y-112220038D02*
X146480074Y-112315276D01*
X146480074Y-112315276D02*
X146527693Y-112410514D01*
X146527693Y-112410514D02*
X146575312Y-112600990D01*
X146575312Y-112600990D02*
X146575312Y-112743847D01*
X146575312Y-112743847D02*
X146527693Y-112934323D01*
X146527693Y-112934323D02*
X146480074Y-113029561D01*
X146480074Y-113029561D02*
X146384836Y-113124800D01*
X146384836Y-113124800D02*
X146241979Y-113172419D01*
X146241979Y-113172419D02*
X146003884Y-113172419D01*
X147003884Y-113172419D02*
X147003884Y-112505752D01*
X147003884Y-112172419D02*
X146956265Y-112220038D01*
X146956265Y-112220038D02*
X147003884Y-112267657D01*
X147003884Y-112267657D02*
X147051503Y-112220038D01*
X147051503Y-112220038D02*
X147003884Y-112172419D01*
X147003884Y-112172419D02*
X147003884Y-112267657D01*
X147480074Y-113172419D02*
X147480074Y-112505752D01*
X147480074Y-112696228D02*
X147527693Y-112600990D01*
X147527693Y-112600990D02*
X147575312Y-112553371D01*
X147575312Y-112553371D02*
X147670550Y-112505752D01*
X147670550Y-112505752D02*
X147765788Y-112505752D01*
X146003884Y-115672419D02*
X146003884Y-114672419D01*
X146003884Y-114672419D02*
X146241979Y-114672419D01*
X146241979Y-114672419D02*
X146384836Y-114720038D01*
X146384836Y-114720038D02*
X146480074Y-114815276D01*
X146480074Y-114815276D02*
X146527693Y-114910514D01*
X146527693Y-114910514D02*
X146575312Y-115100990D01*
X146575312Y-115100990D02*
X146575312Y-115243847D01*
X146575312Y-115243847D02*
X146527693Y-115434323D01*
X146527693Y-115434323D02*
X146480074Y-115529561D01*
X146480074Y-115529561D02*
X146384836Y-115624800D01*
X146384836Y-115624800D02*
X146241979Y-115672419D01*
X146241979Y-115672419D02*
X146003884Y-115672419D01*
X147003884Y-115291466D02*
X147765789Y-115291466D01*
X147384836Y-115672419D02*
X147384836Y-114910514D01*
X146403884Y-107548609D02*
X146737217Y-107548609D01*
X146880074Y-108072419D02*
X146403884Y-108072419D01*
X146403884Y-108072419D02*
X146403884Y-107072419D01*
X146403884Y-107072419D02*
X146880074Y-107072419D01*
X147308646Y-107405752D02*
X147308646Y-108072419D01*
X147308646Y-107500990D02*
X147356265Y-107453371D01*
X147356265Y-107453371D02*
X147451503Y-107405752D01*
X147451503Y-107405752D02*
X147594360Y-107405752D01*
X147594360Y-107405752D02*
X147689598Y-107453371D01*
X147689598Y-107453371D02*
X147737217Y-107548609D01*
X147737217Y-107548609D02*
X147737217Y-108072419D01*
X146503884Y-104858752D02*
X146503884Y-105525419D01*
X146503884Y-104953990D02*
X146551503Y-104906371D01*
X146551503Y-104906371D02*
X146646741Y-104858752D01*
X146646741Y-104858752D02*
X146789598Y-104858752D01*
X146789598Y-104858752D02*
X146884836Y-104906371D01*
X146884836Y-104906371D02*
X146932455Y-105001609D01*
X146932455Y-105001609D02*
X146932455Y-105525419D01*
X147837217Y-105477800D02*
X147741979Y-105525419D01*
X147741979Y-105525419D02*
X147551503Y-105525419D01*
X147551503Y-105525419D02*
X147456265Y-105477800D01*
X147456265Y-105477800D02*
X147408646Y-105430180D01*
X147408646Y-105430180D02*
X147361027Y-105334942D01*
X147361027Y-105334942D02*
X147361027Y-105049228D01*
X147361027Y-105049228D02*
X147408646Y-104953990D01*
X147408646Y-104953990D02*
X147456265Y-104906371D01*
X147456265Y-104906371D02*
X147551503Y-104858752D01*
X147551503Y-104858752D02*
X147741979Y-104858752D01*
X147741979Y-104858752D02*
X147837217Y-104906371D01*
D10*
X101796779Y-133596009D02*
X102130112Y-133596009D01*
X102272969Y-134119819D02*
X101796779Y-134119819D01*
X101796779Y-134119819D02*
X101796779Y-133119819D01*
X101796779Y-133119819D02*
X102272969Y-133119819D01*
X102701541Y-133453152D02*
X102701541Y-134119819D01*
X102701541Y-133548390D02*
X102749160Y-133500771D01*
X102749160Y-133500771D02*
X102844398Y-133453152D01*
X102844398Y-133453152D02*
X102987255Y-133453152D01*
X102987255Y-133453152D02*
X103082493Y-133500771D01*
X103082493Y-133500771D02*
X103130112Y-133596009D01*
X103130112Y-133596009D02*
X103130112Y-134119819D01*
X104034874Y-134072200D02*
X103939636Y-134119819D01*
X103939636Y-134119819D02*
X103749160Y-134119819D01*
X103749160Y-134119819D02*
X103653922Y-134072200D01*
X103653922Y-134072200D02*
X103606303Y-134024580D01*
X103606303Y-134024580D02*
X103558684Y-133929342D01*
X103558684Y-133929342D02*
X103558684Y-133643628D01*
X103558684Y-133643628D02*
X103606303Y-133548390D01*
X103606303Y-133548390D02*
X103653922Y-133500771D01*
X103653922Y-133500771D02*
X103749160Y-133453152D01*
X103749160Y-133453152D02*
X103939636Y-133453152D01*
X103939636Y-133453152D02*
X104034874Y-133500771D01*
X105177732Y-134072200D02*
X105320589Y-134119819D01*
X105320589Y-134119819D02*
X105558684Y-134119819D01*
X105558684Y-134119819D02*
X105653922Y-134072200D01*
X105653922Y-134072200D02*
X105701541Y-134024580D01*
X105701541Y-134024580D02*
X105749160Y-133929342D01*
X105749160Y-133929342D02*
X105749160Y-133834104D01*
X105749160Y-133834104D02*
X105701541Y-133738866D01*
X105701541Y-133738866D02*
X105653922Y-133691247D01*
X105653922Y-133691247D02*
X105558684Y-133643628D01*
X105558684Y-133643628D02*
X105368208Y-133596009D01*
X105368208Y-133596009D02*
X105272970Y-133548390D01*
X105272970Y-133548390D02*
X105225351Y-133500771D01*
X105225351Y-133500771D02*
X105177732Y-133405533D01*
X105177732Y-133405533D02*
X105177732Y-133310295D01*
X105177732Y-133310295D02*
X105225351Y-133215057D01*
X105225351Y-133215057D02*
X105272970Y-133167438D01*
X105272970Y-133167438D02*
X105368208Y-133119819D01*
X105368208Y-133119819D02*
X105606303Y-133119819D01*
X105606303Y-133119819D02*
X105749160Y-133167438D01*
X106558684Y-134072200D02*
X106463446Y-134119819D01*
X106463446Y-134119819D02*
X106272970Y-134119819D01*
X106272970Y-134119819D02*
X106177732Y-134072200D01*
X106177732Y-134072200D02*
X106130113Y-133976961D01*
X106130113Y-133976961D02*
X106130113Y-133596009D01*
X106130113Y-133596009D02*
X106177732Y-133500771D01*
X106177732Y-133500771D02*
X106272970Y-133453152D01*
X106272970Y-133453152D02*
X106463446Y-133453152D01*
X106463446Y-133453152D02*
X106558684Y-133500771D01*
X106558684Y-133500771D02*
X106606303Y-133596009D01*
X106606303Y-133596009D02*
X106606303Y-133691247D01*
X106606303Y-133691247D02*
X106130113Y-133786485D01*
X107177732Y-134119819D02*
X107082494Y-134072200D01*
X107082494Y-134072200D02*
X107034875Y-133976961D01*
X107034875Y-133976961D02*
X107034875Y-133119819D01*
X107939637Y-134072200D02*
X107844399Y-134119819D01*
X107844399Y-134119819D02*
X107653923Y-134119819D01*
X107653923Y-134119819D02*
X107558685Y-134072200D01*
X107558685Y-134072200D02*
X107511066Y-133976961D01*
X107511066Y-133976961D02*
X107511066Y-133596009D01*
X107511066Y-133596009D02*
X107558685Y-133500771D01*
X107558685Y-133500771D02*
X107653923Y-133453152D01*
X107653923Y-133453152D02*
X107844399Y-133453152D01*
X107844399Y-133453152D02*
X107939637Y-133500771D01*
X107939637Y-133500771D02*
X107987256Y-133596009D01*
X107987256Y-133596009D02*
X107987256Y-133691247D01*
X107987256Y-133691247D02*
X107511066Y-133786485D01*
X108844399Y-134072200D02*
X108749161Y-134119819D01*
X108749161Y-134119819D02*
X108558685Y-134119819D01*
X108558685Y-134119819D02*
X108463447Y-134072200D01*
X108463447Y-134072200D02*
X108415828Y-134024580D01*
X108415828Y-134024580D02*
X108368209Y-133929342D01*
X108368209Y-133929342D02*
X108368209Y-133643628D01*
X108368209Y-133643628D02*
X108415828Y-133548390D01*
X108415828Y-133548390D02*
X108463447Y-133500771D01*
X108463447Y-133500771D02*
X108558685Y-133453152D01*
X108558685Y-133453152D02*
X108749161Y-133453152D01*
X108749161Y-133453152D02*
X108844399Y-133500771D01*
X109130114Y-133453152D02*
X109511066Y-133453152D01*
X109272971Y-133119819D02*
X109272971Y-133976961D01*
X109272971Y-133976961D02*
X109320590Y-134072200D01*
X109320590Y-134072200D02*
X109415828Y-134119819D01*
X109415828Y-134119819D02*
X109511066Y-134119819D01*
X100011905Y-138184328D02*
X100488095Y-138184328D01*
X99916667Y-138470043D02*
X100250000Y-137470043D01*
X100250000Y-137470043D02*
X100583333Y-138470043D01*
X100321428Y-141166121D02*
X100464285Y-141213740D01*
X100464285Y-141213740D02*
X100511904Y-141261359D01*
X100511904Y-141261359D02*
X100559523Y-141356597D01*
X100559523Y-141356597D02*
X100559523Y-141499454D01*
X100559523Y-141499454D02*
X100511904Y-141594692D01*
X100511904Y-141594692D02*
X100464285Y-141642312D01*
X100464285Y-141642312D02*
X100369047Y-141689931D01*
X100369047Y-141689931D02*
X99988095Y-141689931D01*
X99988095Y-141689931D02*
X99988095Y-140689931D01*
X99988095Y-140689931D02*
X100321428Y-140689931D01*
X100321428Y-140689931D02*
X100416666Y-140737550D01*
X100416666Y-140737550D02*
X100464285Y-140785169D01*
X100464285Y-140785169D02*
X100511904Y-140880407D01*
X100511904Y-140880407D02*
X100511904Y-140975645D01*
X100511904Y-140975645D02*
X100464285Y-141070883D01*
X100464285Y-141070883D02*
X100416666Y-141118502D01*
X100416666Y-141118502D02*
X100321428Y-141166121D01*
X100321428Y-141166121D02*
X99988095Y-141166121D01*
X100250000Y-144909819D02*
X100250000Y-143909819D01*
X137749931Y-92758458D02*
X138749931Y-92520363D01*
X138749931Y-92520363D02*
X138035645Y-92329887D01*
X138035645Y-92329887D02*
X138749931Y-92139411D01*
X138749931Y-92139411D02*
X137749931Y-91901316D01*
X138749931Y-91091792D02*
X138226121Y-91091792D01*
X138226121Y-91091792D02*
X138130883Y-91139411D01*
X138130883Y-91139411D02*
X138083264Y-91234649D01*
X138083264Y-91234649D02*
X138083264Y-91425125D01*
X138083264Y-91425125D02*
X138130883Y-91520363D01*
X138702312Y-91091792D02*
X138749931Y-91187030D01*
X138749931Y-91187030D02*
X138749931Y-91425125D01*
X138749931Y-91425125D02*
X138702312Y-91520363D01*
X138702312Y-91520363D02*
X138607073Y-91567982D01*
X138607073Y-91567982D02*
X138511835Y-91567982D01*
X138511835Y-91567982D02*
X138416597Y-91520363D01*
X138416597Y-91520363D02*
X138368978Y-91425125D01*
X138368978Y-91425125D02*
X138368978Y-91187030D01*
X138368978Y-91187030D02*
X138321359Y-91091792D01*
X138083264Y-90758458D02*
X138083264Y-90377506D01*
X137749931Y-90615601D02*
X138607073Y-90615601D01*
X138607073Y-90615601D02*
X138702312Y-90567982D01*
X138702312Y-90567982D02*
X138749931Y-90472744D01*
X138749931Y-90472744D02*
X138749931Y-90377506D01*
X138702312Y-89615601D02*
X138749931Y-89710839D01*
X138749931Y-89710839D02*
X138749931Y-89901315D01*
X138749931Y-89901315D02*
X138702312Y-89996553D01*
X138702312Y-89996553D02*
X138654692Y-90044172D01*
X138654692Y-90044172D02*
X138559454Y-90091791D01*
X138559454Y-90091791D02*
X138273740Y-90091791D01*
X138273740Y-90091791D02*
X138178502Y-90044172D01*
X138178502Y-90044172D02*
X138130883Y-89996553D01*
X138130883Y-89996553D02*
X138083264Y-89901315D01*
X138083264Y-89901315D02*
X138083264Y-89710839D01*
X138083264Y-89710839D02*
X138130883Y-89615601D01*
X138749931Y-89187029D02*
X137749931Y-89187029D01*
X138749931Y-88758458D02*
X138226121Y-88758458D01*
X138226121Y-88758458D02*
X138130883Y-88806077D01*
X138130883Y-88806077D02*
X138083264Y-88901315D01*
X138083264Y-88901315D02*
X138083264Y-89044172D01*
X138083264Y-89044172D02*
X138130883Y-89139410D01*
X138130883Y-89139410D02*
X138178502Y-89187029D01*
X137749931Y-87329886D02*
X137749931Y-87139410D01*
X137749931Y-87139410D02*
X137797550Y-87044172D01*
X137797550Y-87044172D02*
X137892788Y-86948934D01*
X137892788Y-86948934D02*
X138083264Y-86901315D01*
X138083264Y-86901315D02*
X138416597Y-86901315D01*
X138416597Y-86901315D02*
X138607073Y-86948934D01*
X138607073Y-86948934D02*
X138702312Y-87044172D01*
X138702312Y-87044172D02*
X138749931Y-87139410D01*
X138749931Y-87139410D02*
X138749931Y-87329886D01*
X138749931Y-87329886D02*
X138702312Y-87425124D01*
X138702312Y-87425124D02*
X138607073Y-87520362D01*
X138607073Y-87520362D02*
X138416597Y-87567981D01*
X138416597Y-87567981D02*
X138083264Y-87567981D01*
X138083264Y-87567981D02*
X137892788Y-87520362D01*
X137892788Y-87520362D02*
X137797550Y-87425124D01*
X137797550Y-87425124D02*
X137749931Y-87329886D01*
X138749931Y-86472743D02*
X137749931Y-86472743D01*
X138130883Y-86472743D02*
X138083264Y-86377505D01*
X138083264Y-86377505D02*
X138083264Y-86187029D01*
X138083264Y-86187029D02*
X138130883Y-86091791D01*
X138130883Y-86091791D02*
X138178502Y-86044172D01*
X138178502Y-86044172D02*
X138273740Y-85996553D01*
X138273740Y-85996553D02*
X138559454Y-85996553D01*
X138559454Y-85996553D02*
X138654692Y-86044172D01*
X138654692Y-86044172D02*
X138702312Y-86091791D01*
X138702312Y-86091791D02*
X138749931Y-86187029D01*
X138749931Y-86187029D02*
X138749931Y-86377505D01*
X138749931Y-86377505D02*
X138702312Y-86472743D01*
X138702312Y-85615600D02*
X138749931Y-85520362D01*
X138749931Y-85520362D02*
X138749931Y-85329886D01*
X138749931Y-85329886D02*
X138702312Y-85234648D01*
X138702312Y-85234648D02*
X138607073Y-85187029D01*
X138607073Y-85187029D02*
X138559454Y-85187029D01*
X138559454Y-85187029D02*
X138464216Y-85234648D01*
X138464216Y-85234648D02*
X138416597Y-85329886D01*
X138416597Y-85329886D02*
X138416597Y-85472743D01*
X138416597Y-85472743D02*
X138368978Y-85567981D01*
X138368978Y-85567981D02*
X138273740Y-85615600D01*
X138273740Y-85615600D02*
X138226121Y-85615600D01*
X138226121Y-85615600D02*
X138130883Y-85567981D01*
X138130883Y-85567981D02*
X138083264Y-85472743D01*
X138083264Y-85472743D02*
X138083264Y-85329886D01*
X138083264Y-85329886D02*
X138130883Y-85234648D01*
X138702312Y-84377505D02*
X138749931Y-84472743D01*
X138749931Y-84472743D02*
X138749931Y-84663219D01*
X138749931Y-84663219D02*
X138702312Y-84758457D01*
X138702312Y-84758457D02*
X138607073Y-84806076D01*
X138607073Y-84806076D02*
X138226121Y-84806076D01*
X138226121Y-84806076D02*
X138130883Y-84758457D01*
X138130883Y-84758457D02*
X138083264Y-84663219D01*
X138083264Y-84663219D02*
X138083264Y-84472743D01*
X138083264Y-84472743D02*
X138130883Y-84377505D01*
X138130883Y-84377505D02*
X138226121Y-84329886D01*
X138226121Y-84329886D02*
X138321359Y-84329886D01*
X138321359Y-84329886D02*
X138416597Y-84806076D01*
X138749931Y-83901314D02*
X138083264Y-83901314D01*
X138273740Y-83901314D02*
X138178502Y-83853695D01*
X138178502Y-83853695D02*
X138130883Y-83806076D01*
X138130883Y-83806076D02*
X138083264Y-83710838D01*
X138083264Y-83710838D02*
X138083264Y-83615600D01*
X138083264Y-83377504D02*
X138749931Y-83139409D01*
X138749931Y-83139409D02*
X138083264Y-82901314D01*
X138749931Y-82091790D02*
X138226121Y-82091790D01*
X138226121Y-82091790D02*
X138130883Y-82139409D01*
X138130883Y-82139409D02*
X138083264Y-82234647D01*
X138083264Y-82234647D02*
X138083264Y-82425123D01*
X138083264Y-82425123D02*
X138130883Y-82520361D01*
X138702312Y-82091790D02*
X138749931Y-82187028D01*
X138749931Y-82187028D02*
X138749931Y-82425123D01*
X138749931Y-82425123D02*
X138702312Y-82520361D01*
X138702312Y-82520361D02*
X138607073Y-82567980D01*
X138607073Y-82567980D02*
X138511835Y-82567980D01*
X138511835Y-82567980D02*
X138416597Y-82520361D01*
X138416597Y-82520361D02*
X138368978Y-82425123D01*
X138368978Y-82425123D02*
X138368978Y-82187028D01*
X138368978Y-82187028D02*
X138321359Y-82091790D01*
X138083264Y-81758456D02*
X138083264Y-81377504D01*
X137749931Y-81615599D02*
X138607073Y-81615599D01*
X138607073Y-81615599D02*
X138702312Y-81567980D01*
X138702312Y-81567980D02*
X138749931Y-81472742D01*
X138749931Y-81472742D02*
X138749931Y-81377504D01*
X138749931Y-80901313D02*
X138702312Y-80996551D01*
X138702312Y-80996551D02*
X138654692Y-81044170D01*
X138654692Y-81044170D02*
X138559454Y-81091789D01*
X138559454Y-81091789D02*
X138273740Y-81091789D01*
X138273740Y-81091789D02*
X138178502Y-81044170D01*
X138178502Y-81044170D02*
X138130883Y-80996551D01*
X138130883Y-80996551D02*
X138083264Y-80901313D01*
X138083264Y-80901313D02*
X138083264Y-80758456D01*
X138083264Y-80758456D02*
X138130883Y-80663218D01*
X138130883Y-80663218D02*
X138178502Y-80615599D01*
X138178502Y-80615599D02*
X138273740Y-80567980D01*
X138273740Y-80567980D02*
X138559454Y-80567980D01*
X138559454Y-80567980D02*
X138654692Y-80615599D01*
X138654692Y-80615599D02*
X138702312Y-80663218D01*
X138702312Y-80663218D02*
X138749931Y-80758456D01*
X138749931Y-80758456D02*
X138749931Y-80901313D01*
X138749931Y-80139408D02*
X138083264Y-80139408D01*
X138273740Y-80139408D02*
X138178502Y-80091789D01*
X138178502Y-80091789D02*
X138130883Y-80044170D01*
X138130883Y-80044170D02*
X138083264Y-79948932D01*
X138083264Y-79948932D02*
X138083264Y-79853694D01*
X138083264Y-79615598D02*
X138749931Y-79377503D01*
X138083264Y-79139408D02*
X138749931Y-79377503D01*
X138749931Y-79377503D02*
X138988026Y-79472741D01*
X138988026Y-79472741D02*
X139035645Y-79520360D01*
X139035645Y-79520360D02*
X139083264Y-79615598D01*
X140312256Y-92710839D02*
X140359875Y-92567982D01*
X140359875Y-92567982D02*
X140359875Y-92329887D01*
X140359875Y-92329887D02*
X140312256Y-92234649D01*
X140312256Y-92234649D02*
X140264636Y-92187030D01*
X140264636Y-92187030D02*
X140169398Y-92139411D01*
X140169398Y-92139411D02*
X140074160Y-92139411D01*
X140074160Y-92139411D02*
X139978922Y-92187030D01*
X139978922Y-92187030D02*
X139931303Y-92234649D01*
X139931303Y-92234649D02*
X139883684Y-92329887D01*
X139883684Y-92329887D02*
X139836065Y-92520363D01*
X139836065Y-92520363D02*
X139788446Y-92615601D01*
X139788446Y-92615601D02*
X139740827Y-92663220D01*
X139740827Y-92663220D02*
X139645589Y-92710839D01*
X139645589Y-92710839D02*
X139550351Y-92710839D01*
X139550351Y-92710839D02*
X139455113Y-92663220D01*
X139455113Y-92663220D02*
X139407494Y-92615601D01*
X139407494Y-92615601D02*
X139359875Y-92520363D01*
X139359875Y-92520363D02*
X139359875Y-92282268D01*
X139359875Y-92282268D02*
X139407494Y-92139411D01*
X139693208Y-91853696D02*
X139693208Y-91472744D01*
X139359875Y-91710839D02*
X140217017Y-91710839D01*
X140217017Y-91710839D02*
X140312256Y-91663220D01*
X140312256Y-91663220D02*
X140359875Y-91567982D01*
X140359875Y-91567982D02*
X140359875Y-91472744D01*
X140312256Y-90758458D02*
X140359875Y-90853696D01*
X140359875Y-90853696D02*
X140359875Y-91044172D01*
X140359875Y-91044172D02*
X140312256Y-91139410D01*
X140312256Y-91139410D02*
X140217017Y-91187029D01*
X140217017Y-91187029D02*
X139836065Y-91187029D01*
X139836065Y-91187029D02*
X139740827Y-91139410D01*
X139740827Y-91139410D02*
X139693208Y-91044172D01*
X139693208Y-91044172D02*
X139693208Y-90853696D01*
X139693208Y-90853696D02*
X139740827Y-90758458D01*
X139740827Y-90758458D02*
X139836065Y-90710839D01*
X139836065Y-90710839D02*
X139931303Y-90710839D01*
X139931303Y-90710839D02*
X140026541Y-91187029D01*
X139693208Y-90282267D02*
X140693208Y-90282267D01*
X139740827Y-90282267D02*
X139693208Y-90187029D01*
X139693208Y-90187029D02*
X139693208Y-89996553D01*
X139693208Y-89996553D02*
X139740827Y-89901315D01*
X139740827Y-89901315D02*
X139788446Y-89853696D01*
X139788446Y-89853696D02*
X139883684Y-89806077D01*
X139883684Y-89806077D02*
X140169398Y-89806077D01*
X140169398Y-89806077D02*
X140264636Y-89853696D01*
X140264636Y-89853696D02*
X140312256Y-89901315D01*
X140312256Y-89901315D02*
X140359875Y-89996553D01*
X140359875Y-89996553D02*
X140359875Y-90187029D01*
X140359875Y-90187029D02*
X140312256Y-90282267D01*
X139693208Y-89377505D02*
X140693208Y-89377505D01*
X139740827Y-89377505D02*
X139693208Y-89282267D01*
X139693208Y-89282267D02*
X139693208Y-89091791D01*
X139693208Y-89091791D02*
X139740827Y-88996553D01*
X139740827Y-88996553D02*
X139788446Y-88948934D01*
X139788446Y-88948934D02*
X139883684Y-88901315D01*
X139883684Y-88901315D02*
X140169398Y-88901315D01*
X140169398Y-88901315D02*
X140264636Y-88948934D01*
X140264636Y-88948934D02*
X140312256Y-88996553D01*
X140312256Y-88996553D02*
X140359875Y-89091791D01*
X140359875Y-89091791D02*
X140359875Y-89282267D01*
X140359875Y-89282267D02*
X140312256Y-89377505D01*
X140312256Y-88091791D02*
X140359875Y-88187029D01*
X140359875Y-88187029D02*
X140359875Y-88377505D01*
X140359875Y-88377505D02*
X140312256Y-88472743D01*
X140312256Y-88472743D02*
X140217017Y-88520362D01*
X140217017Y-88520362D02*
X139836065Y-88520362D01*
X139836065Y-88520362D02*
X139740827Y-88472743D01*
X139740827Y-88472743D02*
X139693208Y-88377505D01*
X139693208Y-88377505D02*
X139693208Y-88187029D01*
X139693208Y-88187029D02*
X139740827Y-88091791D01*
X139740827Y-88091791D02*
X139836065Y-88044172D01*
X139836065Y-88044172D02*
X139931303Y-88044172D01*
X139931303Y-88044172D02*
X140026541Y-88520362D01*
X140359875Y-87615600D02*
X139693208Y-87615600D01*
X139883684Y-87615600D02*
X139788446Y-87567981D01*
X139788446Y-87567981D02*
X139740827Y-87520362D01*
X139740827Y-87520362D02*
X139693208Y-87425124D01*
X139693208Y-87425124D02*
X139693208Y-87329886D01*
X140359875Y-86234647D02*
X139359875Y-86234647D01*
X139359875Y-86234647D02*
X139359875Y-85996552D01*
X139359875Y-85996552D02*
X139407494Y-85853695D01*
X139407494Y-85853695D02*
X139502732Y-85758457D01*
X139502732Y-85758457D02*
X139597970Y-85710838D01*
X139597970Y-85710838D02*
X139788446Y-85663219D01*
X139788446Y-85663219D02*
X139931303Y-85663219D01*
X139931303Y-85663219D02*
X140121779Y-85710838D01*
X140121779Y-85710838D02*
X140217017Y-85758457D01*
X140217017Y-85758457D02*
X140312256Y-85853695D01*
X140312256Y-85853695D02*
X140359875Y-85996552D01*
X140359875Y-85996552D02*
X140359875Y-86234647D01*
X140359875Y-84663219D02*
X139883684Y-84996552D01*
X140359875Y-85234647D02*
X139359875Y-85234647D01*
X139359875Y-85234647D02*
X139359875Y-84853695D01*
X139359875Y-84853695D02*
X139407494Y-84758457D01*
X139407494Y-84758457D02*
X139455113Y-84710838D01*
X139455113Y-84710838D02*
X139550351Y-84663219D01*
X139550351Y-84663219D02*
X139693208Y-84663219D01*
X139693208Y-84663219D02*
X139788446Y-84710838D01*
X139788446Y-84710838D02*
X139836065Y-84758457D01*
X139836065Y-84758457D02*
X139883684Y-84853695D01*
X139883684Y-84853695D02*
X139883684Y-85234647D01*
X139359875Y-84377504D02*
X140359875Y-84044171D01*
X140359875Y-84044171D02*
X139359875Y-83710838D01*
X139788446Y-83234647D02*
X139740827Y-83329885D01*
X139740827Y-83329885D02*
X139693208Y-83377504D01*
X139693208Y-83377504D02*
X139597970Y-83425123D01*
X139597970Y-83425123D02*
X139550351Y-83425123D01*
X139550351Y-83425123D02*
X139455113Y-83377504D01*
X139455113Y-83377504D02*
X139407494Y-83329885D01*
X139407494Y-83329885D02*
X139359875Y-83234647D01*
X139359875Y-83234647D02*
X139359875Y-83044171D01*
X139359875Y-83044171D02*
X139407494Y-82948933D01*
X139407494Y-82948933D02*
X139455113Y-82901314D01*
X139455113Y-82901314D02*
X139550351Y-82853695D01*
X139550351Y-82853695D02*
X139597970Y-82853695D01*
X139597970Y-82853695D02*
X139693208Y-82901314D01*
X139693208Y-82901314D02*
X139740827Y-82948933D01*
X139740827Y-82948933D02*
X139788446Y-83044171D01*
X139788446Y-83044171D02*
X139788446Y-83234647D01*
X139788446Y-83234647D02*
X139836065Y-83329885D01*
X139836065Y-83329885D02*
X139883684Y-83377504D01*
X139883684Y-83377504D02*
X139978922Y-83425123D01*
X139978922Y-83425123D02*
X140169398Y-83425123D01*
X140169398Y-83425123D02*
X140264636Y-83377504D01*
X140264636Y-83377504D02*
X140312256Y-83329885D01*
X140312256Y-83329885D02*
X140359875Y-83234647D01*
X140359875Y-83234647D02*
X140359875Y-83044171D01*
X140359875Y-83044171D02*
X140312256Y-82948933D01*
X140312256Y-82948933D02*
X140264636Y-82901314D01*
X140264636Y-82901314D02*
X140169398Y-82853695D01*
X140169398Y-82853695D02*
X139978922Y-82853695D01*
X139978922Y-82853695D02*
X139883684Y-82901314D01*
X139883684Y-82901314D02*
X139836065Y-82948933D01*
X139836065Y-82948933D02*
X139788446Y-83044171D01*
X139788446Y-82282266D02*
X139740827Y-82377504D01*
X139740827Y-82377504D02*
X139693208Y-82425123D01*
X139693208Y-82425123D02*
X139597970Y-82472742D01*
X139597970Y-82472742D02*
X139550351Y-82472742D01*
X139550351Y-82472742D02*
X139455113Y-82425123D01*
X139455113Y-82425123D02*
X139407494Y-82377504D01*
X139407494Y-82377504D02*
X139359875Y-82282266D01*
X139359875Y-82282266D02*
X139359875Y-82091790D01*
X139359875Y-82091790D02*
X139407494Y-81996552D01*
X139407494Y-81996552D02*
X139455113Y-81948933D01*
X139455113Y-81948933D02*
X139550351Y-81901314D01*
X139550351Y-81901314D02*
X139597970Y-81901314D01*
X139597970Y-81901314D02*
X139693208Y-81948933D01*
X139693208Y-81948933D02*
X139740827Y-81996552D01*
X139740827Y-81996552D02*
X139788446Y-82091790D01*
X139788446Y-82091790D02*
X139788446Y-82282266D01*
X139788446Y-82282266D02*
X139836065Y-82377504D01*
X139836065Y-82377504D02*
X139883684Y-82425123D01*
X139883684Y-82425123D02*
X139978922Y-82472742D01*
X139978922Y-82472742D02*
X140169398Y-82472742D01*
X140169398Y-82472742D02*
X140264636Y-82425123D01*
X140264636Y-82425123D02*
X140312256Y-82377504D01*
X140312256Y-82377504D02*
X140359875Y-82282266D01*
X140359875Y-82282266D02*
X140359875Y-82091790D01*
X140359875Y-82091790D02*
X140312256Y-81996552D01*
X140312256Y-81996552D02*
X140264636Y-81948933D01*
X140264636Y-81948933D02*
X140169398Y-81901314D01*
X140169398Y-81901314D02*
X139978922Y-81901314D01*
X139978922Y-81901314D02*
X139883684Y-81948933D01*
X139883684Y-81948933D02*
X139836065Y-81996552D01*
X139836065Y-81996552D02*
X139788446Y-82091790D01*
X139359875Y-81567980D02*
X139359875Y-80901314D01*
X139359875Y-80901314D02*
X140359875Y-81329885D01*
X139693208Y-80091790D02*
X140359875Y-80091790D01*
X139312256Y-80329885D02*
X140026541Y-80567980D01*
X140026541Y-80567980D02*
X140026541Y-79948933D01*
X141969819Y-92091792D02*
X141493628Y-92425125D01*
X141969819Y-92663220D02*
X140969819Y-92663220D01*
X140969819Y-92663220D02*
X140969819Y-92282268D01*
X140969819Y-92282268D02*
X141017438Y-92187030D01*
X141017438Y-92187030D02*
X141065057Y-92139411D01*
X141065057Y-92139411D02*
X141160295Y-92091792D01*
X141160295Y-92091792D02*
X141303152Y-92091792D01*
X141303152Y-92091792D02*
X141398390Y-92139411D01*
X141398390Y-92139411D02*
X141446009Y-92187030D01*
X141446009Y-92187030D02*
X141493628Y-92282268D01*
X141493628Y-92282268D02*
X141493628Y-92663220D01*
X141922200Y-91282268D02*
X141969819Y-91377506D01*
X141969819Y-91377506D02*
X141969819Y-91567982D01*
X141969819Y-91567982D02*
X141922200Y-91663220D01*
X141922200Y-91663220D02*
X141826961Y-91710839D01*
X141826961Y-91710839D02*
X141446009Y-91710839D01*
X141446009Y-91710839D02*
X141350771Y-91663220D01*
X141350771Y-91663220D02*
X141303152Y-91567982D01*
X141303152Y-91567982D02*
X141303152Y-91377506D01*
X141303152Y-91377506D02*
X141350771Y-91282268D01*
X141350771Y-91282268D02*
X141446009Y-91234649D01*
X141446009Y-91234649D02*
X141541247Y-91234649D01*
X141541247Y-91234649D02*
X141636485Y-91710839D01*
X141303152Y-90901315D02*
X141969819Y-90663220D01*
X141969819Y-90663220D02*
X141303152Y-90425125D01*
X141969819Y-88758458D02*
X141969819Y-89329886D01*
X141969819Y-89044172D02*
X140969819Y-89044172D01*
X140969819Y-89044172D02*
X141112676Y-89139410D01*
X141112676Y-89139410D02*
X141207914Y-89234648D01*
X141207914Y-89234648D02*
X141255533Y-89329886D01*
X141874580Y-88329886D02*
X141922200Y-88282267D01*
X141922200Y-88282267D02*
X141969819Y-88329886D01*
X141969819Y-88329886D02*
X141922200Y-88377505D01*
X141922200Y-88377505D02*
X141874580Y-88329886D01*
X141874580Y-88329886D02*
X141969819Y-88329886D01*
X140969819Y-87663220D02*
X140969819Y-87567982D01*
X140969819Y-87567982D02*
X141017438Y-87472744D01*
X141017438Y-87472744D02*
X141065057Y-87425125D01*
X141065057Y-87425125D02*
X141160295Y-87377506D01*
X141160295Y-87377506D02*
X141350771Y-87329887D01*
X141350771Y-87329887D02*
X141588866Y-87329887D01*
X141588866Y-87329887D02*
X141779342Y-87377506D01*
X141779342Y-87377506D02*
X141874580Y-87425125D01*
X141874580Y-87425125D02*
X141922200Y-87472744D01*
X141922200Y-87472744D02*
X141969819Y-87567982D01*
X141969819Y-87567982D02*
X141969819Y-87663220D01*
X141969819Y-87663220D02*
X141922200Y-87758458D01*
X141922200Y-87758458D02*
X141874580Y-87806077D01*
X141874580Y-87806077D02*
X141779342Y-87853696D01*
X141779342Y-87853696D02*
X141588866Y-87901315D01*
X141588866Y-87901315D02*
X141350771Y-87901315D01*
X141350771Y-87901315D02*
X141160295Y-87853696D01*
X141160295Y-87853696D02*
X141065057Y-87806077D01*
X141065057Y-87806077D02*
X141017438Y-87758458D01*
X141017438Y-87758458D02*
X140969819Y-87663220D01*
X140969819Y-85187029D02*
X140969819Y-85091791D01*
X140969819Y-85091791D02*
X141017438Y-84996553D01*
X141017438Y-84996553D02*
X141065057Y-84948934D01*
X141065057Y-84948934D02*
X141160295Y-84901315D01*
X141160295Y-84901315D02*
X141350771Y-84853696D01*
X141350771Y-84853696D02*
X141588866Y-84853696D01*
X141588866Y-84853696D02*
X141779342Y-84901315D01*
X141779342Y-84901315D02*
X141874580Y-84948934D01*
X141874580Y-84948934D02*
X141922200Y-84996553D01*
X141922200Y-84996553D02*
X141969819Y-85091791D01*
X141969819Y-85091791D02*
X141969819Y-85187029D01*
X141969819Y-85187029D02*
X141922200Y-85282267D01*
X141922200Y-85282267D02*
X141874580Y-85329886D01*
X141874580Y-85329886D02*
X141779342Y-85377505D01*
X141779342Y-85377505D02*
X141588866Y-85425124D01*
X141588866Y-85425124D02*
X141350771Y-85425124D01*
X141350771Y-85425124D02*
X141160295Y-85377505D01*
X141160295Y-85377505D02*
X141065057Y-85329886D01*
X141065057Y-85329886D02*
X141017438Y-85282267D01*
X141017438Y-85282267D02*
X140969819Y-85187029D01*
X140969819Y-83948934D02*
X140969819Y-84425124D01*
X140969819Y-84425124D02*
X141446009Y-84472743D01*
X141446009Y-84472743D02*
X141398390Y-84425124D01*
X141398390Y-84425124D02*
X141350771Y-84329886D01*
X141350771Y-84329886D02*
X141350771Y-84091791D01*
X141350771Y-84091791D02*
X141398390Y-83996553D01*
X141398390Y-83996553D02*
X141446009Y-83948934D01*
X141446009Y-83948934D02*
X141541247Y-83901315D01*
X141541247Y-83901315D02*
X141779342Y-83901315D01*
X141779342Y-83901315D02*
X141874580Y-83948934D01*
X141874580Y-83948934D02*
X141922200Y-83996553D01*
X141922200Y-83996553D02*
X141969819Y-84091791D01*
X141969819Y-84091791D02*
X141969819Y-84329886D01*
X141969819Y-84329886D02*
X141922200Y-84425124D01*
X141922200Y-84425124D02*
X141874580Y-84472743D01*
X140922200Y-82758458D02*
X142207914Y-83615600D01*
X141065057Y-82472743D02*
X141017438Y-82425124D01*
X141017438Y-82425124D02*
X140969819Y-82329886D01*
X140969819Y-82329886D02*
X140969819Y-82091791D01*
X140969819Y-82091791D02*
X141017438Y-81996553D01*
X141017438Y-81996553D02*
X141065057Y-81948934D01*
X141065057Y-81948934D02*
X141160295Y-81901315D01*
X141160295Y-81901315D02*
X141255533Y-81901315D01*
X141255533Y-81901315D02*
X141398390Y-81948934D01*
X141398390Y-81948934D02*
X141969819Y-82520362D01*
X141969819Y-82520362D02*
X141969819Y-81901315D01*
X140969819Y-81044172D02*
X140969819Y-81234648D01*
X140969819Y-81234648D02*
X141017438Y-81329886D01*
X141017438Y-81329886D02*
X141065057Y-81377505D01*
X141065057Y-81377505D02*
X141207914Y-81472743D01*
X141207914Y-81472743D02*
X141398390Y-81520362D01*
X141398390Y-81520362D02*
X141779342Y-81520362D01*
X141779342Y-81520362D02*
X141874580Y-81472743D01*
X141874580Y-81472743D02*
X141922200Y-81425124D01*
X141922200Y-81425124D02*
X141969819Y-81329886D01*
X141969819Y-81329886D02*
X141969819Y-81139410D01*
X141969819Y-81139410D02*
X141922200Y-81044172D01*
X141922200Y-81044172D02*
X141874580Y-80996553D01*
X141874580Y-80996553D02*
X141779342Y-80948934D01*
X141779342Y-80948934D02*
X141541247Y-80948934D01*
X141541247Y-80948934D02*
X141446009Y-80996553D01*
X141446009Y-80996553D02*
X141398390Y-81044172D01*
X141398390Y-81044172D02*
X141350771Y-81139410D01*
X141350771Y-81139410D02*
X141350771Y-81329886D01*
X141350771Y-81329886D02*
X141398390Y-81425124D01*
X141398390Y-81425124D02*
X141446009Y-81472743D01*
X141446009Y-81472743D02*
X141541247Y-81520362D01*
X107666666Y-135784819D02*
X107666666Y-136499104D01*
X107666666Y-136499104D02*
X107619047Y-136641961D01*
X107619047Y-136641961D02*
X107523809Y-136737200D01*
X107523809Y-136737200D02*
X107380952Y-136784819D01*
X107380952Y-136784819D02*
X107285714Y-136784819D01*
X108619047Y-135784819D02*
X108142857Y-135784819D01*
X108142857Y-135784819D02*
X108095238Y-136261009D01*
X108095238Y-136261009D02*
X108142857Y-136213390D01*
X108142857Y-136213390D02*
X108238095Y-136165771D01*
X108238095Y-136165771D02*
X108476190Y-136165771D01*
X108476190Y-136165771D02*
X108571428Y-136213390D01*
X108571428Y-136213390D02*
X108619047Y-136261009D01*
X108619047Y-136261009D02*
X108666666Y-136356247D01*
X108666666Y-136356247D02*
X108666666Y-136594342D01*
X108666666Y-136594342D02*
X108619047Y-136689580D01*
X108619047Y-136689580D02*
X108571428Y-136737200D01*
X108571428Y-136737200D02*
X108476190Y-136784819D01*
X108476190Y-136784819D02*
X108238095Y-136784819D01*
X108238095Y-136784819D02*
X108142857Y-136737200D01*
X108142857Y-136737200D02*
X108095238Y-136689580D01*
X108454819Y-151031428D02*
X107454819Y-151031428D01*
X107454819Y-151031428D02*
X108169104Y-150698095D01*
X108169104Y-150698095D02*
X107454819Y-150364762D01*
X107454819Y-150364762D02*
X108454819Y-150364762D01*
X108454819Y-149460000D02*
X107931009Y-149460000D01*
X107931009Y-149460000D02*
X107835771Y-149507619D01*
X107835771Y-149507619D02*
X107788152Y-149602857D01*
X107788152Y-149602857D02*
X107788152Y-149793333D01*
X107788152Y-149793333D02*
X107835771Y-149888571D01*
X108407200Y-149460000D02*
X108454819Y-149555238D01*
X108454819Y-149555238D02*
X108454819Y-149793333D01*
X108454819Y-149793333D02*
X108407200Y-149888571D01*
X108407200Y-149888571D02*
X108311961Y-149936190D01*
X108311961Y-149936190D02*
X108216723Y-149936190D01*
X108216723Y-149936190D02*
X108121485Y-149888571D01*
X108121485Y-149888571D02*
X108073866Y-149793333D01*
X108073866Y-149793333D02*
X108073866Y-149555238D01*
X108073866Y-149555238D02*
X108026247Y-149460000D01*
X107788152Y-148555238D02*
X108597676Y-148555238D01*
X108597676Y-148555238D02*
X108692914Y-148602857D01*
X108692914Y-148602857D02*
X108740533Y-148650476D01*
X108740533Y-148650476D02*
X108788152Y-148745714D01*
X108788152Y-148745714D02*
X108788152Y-148888571D01*
X108788152Y-148888571D02*
X108740533Y-148983809D01*
X108407200Y-148555238D02*
X108454819Y-148650476D01*
X108454819Y-148650476D02*
X108454819Y-148840952D01*
X108454819Y-148840952D02*
X108407200Y-148936190D01*
X108407200Y-148936190D02*
X108359580Y-148983809D01*
X108359580Y-148983809D02*
X108264342Y-149031428D01*
X108264342Y-149031428D02*
X107978628Y-149031428D01*
X107978628Y-149031428D02*
X107883390Y-148983809D01*
X107883390Y-148983809D02*
X107835771Y-148936190D01*
X107835771Y-148936190D02*
X107788152Y-148840952D01*
X107788152Y-148840952D02*
X107788152Y-148650476D01*
X107788152Y-148650476D02*
X107835771Y-148555238D01*
X107931009Y-148079047D02*
X107931009Y-147745714D01*
X108454819Y-147602857D02*
X108454819Y-148079047D01*
X108454819Y-148079047D02*
X107454819Y-148079047D01*
X107454819Y-148079047D02*
X107454819Y-147602857D01*
X107788152Y-147174285D02*
X108454819Y-147174285D01*
X107883390Y-147174285D02*
X107835771Y-147126666D01*
X107835771Y-147126666D02*
X107788152Y-147031428D01*
X107788152Y-147031428D02*
X107788152Y-146888571D01*
X107788152Y-146888571D02*
X107835771Y-146793333D01*
X107835771Y-146793333D02*
X107931009Y-146745714D01*
X107931009Y-146745714D02*
X108454819Y-146745714D01*
X108407200Y-145840952D02*
X108454819Y-145936190D01*
X108454819Y-145936190D02*
X108454819Y-146126666D01*
X108454819Y-146126666D02*
X108407200Y-146221904D01*
X108407200Y-146221904D02*
X108359580Y-146269523D01*
X108359580Y-146269523D02*
X108264342Y-146317142D01*
X108264342Y-146317142D02*
X107978628Y-146317142D01*
X107978628Y-146317142D02*
X107883390Y-146269523D01*
X107883390Y-146269523D02*
X107835771Y-146221904D01*
X107835771Y-146221904D02*
X107788152Y-146126666D01*
X107788152Y-146126666D02*
X107788152Y-145936190D01*
X107788152Y-145936190D02*
X107835771Y-145840952D01*
X116035714Y-76419104D02*
X116511904Y-76419104D01*
X115940476Y-76704819D02*
X116273809Y-75704819D01*
X116273809Y-75704819D02*
X116607142Y-76704819D01*
X117464285Y-76704819D02*
X116892857Y-76704819D01*
X117178571Y-76704819D02*
X117178571Y-75704819D01*
X117178571Y-75704819D02*
X117083333Y-75847676D01*
X117083333Y-75847676D02*
X116988095Y-75942914D01*
X116988095Y-75942914D02*
X116892857Y-75990533D01*
D11*
X100175714Y-82921704D02*
X100651904Y-82921704D01*
X100080476Y-83207419D02*
X100413809Y-82207419D01*
X100413809Y-82207419D02*
X100747142Y-83207419D01*
X101032857Y-82302657D02*
X101080476Y-82255038D01*
X101080476Y-82255038D02*
X101175714Y-82207419D01*
X101175714Y-82207419D02*
X101413809Y-82207419D01*
X101413809Y-82207419D02*
X101509047Y-82255038D01*
X101509047Y-82255038D02*
X101556666Y-82302657D01*
X101556666Y-82302657D02*
X101604285Y-82397895D01*
X101604285Y-82397895D02*
X101604285Y-82493133D01*
X101604285Y-82493133D02*
X101556666Y-82635990D01*
X101556666Y-82635990D02*
X100985238Y-83207419D01*
X100985238Y-83207419D02*
X101604285Y-83207419D01*
D10*
X102333333Y-160994819D02*
X102000000Y-160518628D01*
X101761905Y-160994819D02*
X101761905Y-159994819D01*
X101761905Y-159994819D02*
X102142857Y-159994819D01*
X102142857Y-159994819D02*
X102238095Y-160042438D01*
X102238095Y-160042438D02*
X102285714Y-160090057D01*
X102285714Y-160090057D02*
X102333333Y-160185295D01*
X102333333Y-160185295D02*
X102333333Y-160328152D01*
X102333333Y-160328152D02*
X102285714Y-160423390D01*
X102285714Y-160423390D02*
X102238095Y-160471009D01*
X102238095Y-160471009D02*
X102142857Y-160518628D01*
X102142857Y-160518628D02*
X101761905Y-160518628D01*
X103285714Y-160994819D02*
X102714286Y-160994819D01*
X103000000Y-160994819D02*
X103000000Y-159994819D01*
X103000000Y-159994819D02*
X102904762Y-160137676D01*
X102904762Y-160137676D02*
X102809524Y-160232914D01*
X102809524Y-160232914D02*
X102714286Y-160280533D01*
X143204819Y-138083333D02*
X143919104Y-138083333D01*
X143919104Y-138083333D02*
X144061961Y-138130952D01*
X144061961Y-138130952D02*
X144157200Y-138226190D01*
X144157200Y-138226190D02*
X144204819Y-138369047D01*
X144204819Y-138369047D02*
X144204819Y-138464285D01*
X143204819Y-137178571D02*
X143204819Y-137369047D01*
X143204819Y-137369047D02*
X143252438Y-137464285D01*
X143252438Y-137464285D02*
X143300057Y-137511904D01*
X143300057Y-137511904D02*
X143442914Y-137607142D01*
X143442914Y-137607142D02*
X143633390Y-137654761D01*
X143633390Y-137654761D02*
X144014342Y-137654761D01*
X144014342Y-137654761D02*
X144109580Y-137607142D01*
X144109580Y-137607142D02*
X144157200Y-137559523D01*
X144157200Y-137559523D02*
X144204819Y-137464285D01*
X144204819Y-137464285D02*
X144204819Y-137273809D01*
X144204819Y-137273809D02*
X144157200Y-137178571D01*
X144157200Y-137178571D02*
X144109580Y-137130952D01*
X144109580Y-137130952D02*
X144014342Y-137083333D01*
X144014342Y-137083333D02*
X143776247Y-137083333D01*
X143776247Y-137083333D02*
X143681009Y-137130952D01*
X143681009Y-137130952D02*
X143633390Y-137178571D01*
X143633390Y-137178571D02*
X143585771Y-137273809D01*
X143585771Y-137273809D02*
X143585771Y-137464285D01*
X143585771Y-137464285D02*
X143633390Y-137559523D01*
X143633390Y-137559523D02*
X143681009Y-137607142D01*
X143681009Y-137607142D02*
X143776247Y-137654761D01*
X143931009Y-135142857D02*
X143931009Y-134809524D01*
X144454819Y-134666667D02*
X144454819Y-135142857D01*
X144454819Y-135142857D02*
X143454819Y-135142857D01*
X143454819Y-135142857D02*
X143454819Y-134666667D01*
X144454819Y-134333333D02*
X143788152Y-133809524D01*
X143788152Y-134333333D02*
X144454819Y-133809524D01*
X143788152Y-133571428D02*
X143788152Y-133190476D01*
X143454819Y-133428571D02*
X144311961Y-133428571D01*
X144311961Y-133428571D02*
X144407200Y-133380952D01*
X144407200Y-133380952D02*
X144454819Y-133285714D01*
X144454819Y-133285714D02*
X144454819Y-133190476D01*
X144407200Y-132476190D02*
X144454819Y-132571428D01*
X144454819Y-132571428D02*
X144454819Y-132761904D01*
X144454819Y-132761904D02*
X144407200Y-132857142D01*
X144407200Y-132857142D02*
X144311961Y-132904761D01*
X144311961Y-132904761D02*
X143931009Y-132904761D01*
X143931009Y-132904761D02*
X143835771Y-132857142D01*
X143835771Y-132857142D02*
X143788152Y-132761904D01*
X143788152Y-132761904D02*
X143788152Y-132571428D01*
X143788152Y-132571428D02*
X143835771Y-132476190D01*
X143835771Y-132476190D02*
X143931009Y-132428571D01*
X143931009Y-132428571D02*
X144026247Y-132428571D01*
X144026247Y-132428571D02*
X144121485Y-132904761D01*
X144454819Y-131999999D02*
X143788152Y-131999999D01*
X143978628Y-131999999D02*
X143883390Y-131952380D01*
X143883390Y-131952380D02*
X143835771Y-131904761D01*
X143835771Y-131904761D02*
X143788152Y-131809523D01*
X143788152Y-131809523D02*
X143788152Y-131714285D01*
X143788152Y-131380951D02*
X144454819Y-131380951D01*
X143883390Y-131380951D02*
X143835771Y-131333332D01*
X143835771Y-131333332D02*
X143788152Y-131238094D01*
X143788152Y-131238094D02*
X143788152Y-131095237D01*
X143788152Y-131095237D02*
X143835771Y-130999999D01*
X143835771Y-130999999D02*
X143931009Y-130952380D01*
X143931009Y-130952380D02*
X144454819Y-130952380D01*
X144454819Y-130047618D02*
X143931009Y-130047618D01*
X143931009Y-130047618D02*
X143835771Y-130095237D01*
X143835771Y-130095237D02*
X143788152Y-130190475D01*
X143788152Y-130190475D02*
X143788152Y-130380951D01*
X143788152Y-130380951D02*
X143835771Y-130476189D01*
X144407200Y-130047618D02*
X144454819Y-130142856D01*
X144454819Y-130142856D02*
X144454819Y-130380951D01*
X144454819Y-130380951D02*
X144407200Y-130476189D01*
X144407200Y-130476189D02*
X144311961Y-130523808D01*
X144311961Y-130523808D02*
X144216723Y-130523808D01*
X144216723Y-130523808D02*
X144121485Y-130476189D01*
X144121485Y-130476189D02*
X144073866Y-130380951D01*
X144073866Y-130380951D02*
X144073866Y-130142856D01*
X144073866Y-130142856D02*
X144026247Y-130047618D01*
X144454819Y-129428570D02*
X144407200Y-129523808D01*
X144407200Y-129523808D02*
X144311961Y-129571427D01*
X144311961Y-129571427D02*
X143454819Y-129571427D01*
X143931009Y-129047617D02*
X143931009Y-128714284D01*
X144454819Y-128571427D02*
X144454819Y-129047617D01*
X144454819Y-129047617D02*
X143454819Y-129047617D01*
X143454819Y-129047617D02*
X143454819Y-128571427D01*
X143788152Y-128142855D02*
X144454819Y-128142855D01*
X143883390Y-128142855D02*
X143835771Y-128095236D01*
X143835771Y-128095236D02*
X143788152Y-127999998D01*
X143788152Y-127999998D02*
X143788152Y-127857141D01*
X143788152Y-127857141D02*
X143835771Y-127761903D01*
X143835771Y-127761903D02*
X143931009Y-127714284D01*
X143931009Y-127714284D02*
X144454819Y-127714284D01*
X144407200Y-126809522D02*
X144454819Y-126904760D01*
X144454819Y-126904760D02*
X144454819Y-127095236D01*
X144454819Y-127095236D02*
X144407200Y-127190474D01*
X144407200Y-127190474D02*
X144359580Y-127238093D01*
X144359580Y-127238093D02*
X144264342Y-127285712D01*
X144264342Y-127285712D02*
X143978628Y-127285712D01*
X143978628Y-127285712D02*
X143883390Y-127238093D01*
X143883390Y-127238093D02*
X143835771Y-127190474D01*
X143835771Y-127190474D02*
X143788152Y-127095236D01*
X143788152Y-127095236D02*
X143788152Y-126904760D01*
X143788152Y-126904760D02*
X143835771Y-126809522D01*
X105583333Y-160994819D02*
X105250000Y-160518628D01*
X105011905Y-160994819D02*
X105011905Y-159994819D01*
X105011905Y-159994819D02*
X105392857Y-159994819D01*
X105392857Y-159994819D02*
X105488095Y-160042438D01*
X105488095Y-160042438D02*
X105535714Y-160090057D01*
X105535714Y-160090057D02*
X105583333Y-160185295D01*
X105583333Y-160185295D02*
X105583333Y-160328152D01*
X105583333Y-160328152D02*
X105535714Y-160423390D01*
X105535714Y-160423390D02*
X105488095Y-160471009D01*
X105488095Y-160471009D02*
X105392857Y-160518628D01*
X105392857Y-160518628D02*
X105011905Y-160518628D01*
X105964286Y-160090057D02*
X106011905Y-160042438D01*
X106011905Y-160042438D02*
X106107143Y-159994819D01*
X106107143Y-159994819D02*
X106345238Y-159994819D01*
X106345238Y-159994819D02*
X106440476Y-160042438D01*
X106440476Y-160042438D02*
X106488095Y-160090057D01*
X106488095Y-160090057D02*
X106535714Y-160185295D01*
X106535714Y-160185295D02*
X106535714Y-160280533D01*
X106535714Y-160280533D02*
X106488095Y-160423390D01*
X106488095Y-160423390D02*
X105916667Y-160994819D01*
X105916667Y-160994819D02*
X106535714Y-160994819D01*
X105126666Y-135784819D02*
X105126666Y-136499104D01*
X105126666Y-136499104D02*
X105079047Y-136641961D01*
X105079047Y-136641961D02*
X104983809Y-136737200D01*
X104983809Y-136737200D02*
X104840952Y-136784819D01*
X104840952Y-136784819D02*
X104745714Y-136784819D01*
X105507619Y-135784819D02*
X106126666Y-135784819D01*
X106126666Y-135784819D02*
X105793333Y-136165771D01*
X105793333Y-136165771D02*
X105936190Y-136165771D01*
X105936190Y-136165771D02*
X106031428Y-136213390D01*
X106031428Y-136213390D02*
X106079047Y-136261009D01*
X106079047Y-136261009D02*
X106126666Y-136356247D01*
X106126666Y-136356247D02*
X106126666Y-136594342D01*
X106126666Y-136594342D02*
X106079047Y-136689580D01*
X106079047Y-136689580D02*
X106031428Y-136737200D01*
X106031428Y-136737200D02*
X105936190Y-136784819D01*
X105936190Y-136784819D02*
X105650476Y-136784819D01*
X105650476Y-136784819D02*
X105555238Y-136737200D01*
X105555238Y-136737200D02*
X105507619Y-136689580D01*
X105914819Y-150281428D02*
X104914819Y-150281428D01*
X105248152Y-149805238D02*
X105914819Y-149805238D01*
X105343390Y-149805238D02*
X105295771Y-149757619D01*
X105295771Y-149757619D02*
X105248152Y-149662381D01*
X105248152Y-149662381D02*
X105248152Y-149519524D01*
X105248152Y-149519524D02*
X105295771Y-149424286D01*
X105295771Y-149424286D02*
X105391009Y-149376667D01*
X105391009Y-149376667D02*
X105914819Y-149376667D01*
X105248152Y-149043333D02*
X105248152Y-148662381D01*
X104914819Y-148900476D02*
X105771961Y-148900476D01*
X105771961Y-148900476D02*
X105867200Y-148852857D01*
X105867200Y-148852857D02*
X105914819Y-148757619D01*
X105914819Y-148757619D02*
X105914819Y-148662381D01*
X105391009Y-148329047D02*
X105391009Y-147995714D01*
X105914819Y-147852857D02*
X105914819Y-148329047D01*
X105914819Y-148329047D02*
X104914819Y-148329047D01*
X104914819Y-148329047D02*
X104914819Y-147852857D01*
X105248152Y-147424285D02*
X105914819Y-147424285D01*
X105343390Y-147424285D02*
X105295771Y-147376666D01*
X105295771Y-147376666D02*
X105248152Y-147281428D01*
X105248152Y-147281428D02*
X105248152Y-147138571D01*
X105248152Y-147138571D02*
X105295771Y-147043333D01*
X105295771Y-147043333D02*
X105391009Y-146995714D01*
X105391009Y-146995714D02*
X105914819Y-146995714D01*
X105867200Y-146090952D02*
X105914819Y-146186190D01*
X105914819Y-146186190D02*
X105914819Y-146376666D01*
X105914819Y-146376666D02*
X105867200Y-146471904D01*
X105867200Y-146471904D02*
X105819580Y-146519523D01*
X105819580Y-146519523D02*
X105724342Y-146567142D01*
X105724342Y-146567142D02*
X105438628Y-146567142D01*
X105438628Y-146567142D02*
X105343390Y-146519523D01*
X105343390Y-146519523D02*
X105295771Y-146471904D01*
X105295771Y-146471904D02*
X105248152Y-146376666D01*
X105248152Y-146376666D02*
X105248152Y-146186190D01*
X105248152Y-146186190D02*
X105295771Y-146090952D01*
D11*
X116035714Y-122921704D02*
X116511904Y-122921704D01*
X115940476Y-123207419D02*
X116273809Y-122207419D01*
X116273809Y-122207419D02*
X116607142Y-123207419D01*
X117369047Y-122540752D02*
X117369047Y-123207419D01*
X117130952Y-122159800D02*
X116892857Y-122874085D01*
X116892857Y-122874085D02*
X117511904Y-122874085D01*
D10*
X119654761Y-123204819D02*
X119321428Y-122728628D01*
X119083333Y-123204819D02*
X119083333Y-122204819D01*
X119083333Y-122204819D02*
X119464285Y-122204819D01*
X119464285Y-122204819D02*
X119559523Y-122252438D01*
X119559523Y-122252438D02*
X119607142Y-122300057D01*
X119607142Y-122300057D02*
X119654761Y-122395295D01*
X119654761Y-122395295D02*
X119654761Y-122538152D01*
X119654761Y-122538152D02*
X119607142Y-122633390D01*
X119607142Y-122633390D02*
X119559523Y-122681009D01*
X119559523Y-122681009D02*
X119464285Y-122728628D01*
X119464285Y-122728628D02*
X119083333Y-122728628D01*
X120035714Y-123157200D02*
X120178571Y-123204819D01*
X120178571Y-123204819D02*
X120416666Y-123204819D01*
X120416666Y-123204819D02*
X120511904Y-123157200D01*
X120511904Y-123157200D02*
X120559523Y-123109580D01*
X120559523Y-123109580D02*
X120607142Y-123014342D01*
X120607142Y-123014342D02*
X120607142Y-122919104D01*
X120607142Y-122919104D02*
X120559523Y-122823866D01*
X120559523Y-122823866D02*
X120511904Y-122776247D01*
X120511904Y-122776247D02*
X120416666Y-122728628D01*
X120416666Y-122728628D02*
X120226190Y-122681009D01*
X120226190Y-122681009D02*
X120130952Y-122633390D01*
X120130952Y-122633390D02*
X120083333Y-122585771D01*
X120083333Y-122585771D02*
X120035714Y-122490533D01*
X120035714Y-122490533D02*
X120035714Y-122395295D01*
X120035714Y-122395295D02*
X120083333Y-122300057D01*
X120083333Y-122300057D02*
X120130952Y-122252438D01*
X120130952Y-122252438D02*
X120226190Y-122204819D01*
X120226190Y-122204819D02*
X120464285Y-122204819D01*
X120464285Y-122204819D02*
X120607142Y-122252438D01*
X121464285Y-122538152D02*
X121464285Y-123204819D01*
X121226190Y-122157200D02*
X120988095Y-122871485D01*
X120988095Y-122871485D02*
X121607142Y-122871485D01*
X122130952Y-122633390D02*
X122035714Y-122585771D01*
X122035714Y-122585771D02*
X121988095Y-122538152D01*
X121988095Y-122538152D02*
X121940476Y-122442914D01*
X121940476Y-122442914D02*
X121940476Y-122395295D01*
X121940476Y-122395295D02*
X121988095Y-122300057D01*
X121988095Y-122300057D02*
X122035714Y-122252438D01*
X122035714Y-122252438D02*
X122130952Y-122204819D01*
X122130952Y-122204819D02*
X122321428Y-122204819D01*
X122321428Y-122204819D02*
X122416666Y-122252438D01*
X122416666Y-122252438D02*
X122464285Y-122300057D01*
X122464285Y-122300057D02*
X122511904Y-122395295D01*
X122511904Y-122395295D02*
X122511904Y-122442914D01*
X122511904Y-122442914D02*
X122464285Y-122538152D01*
X122464285Y-122538152D02*
X122416666Y-122585771D01*
X122416666Y-122585771D02*
X122321428Y-122633390D01*
X122321428Y-122633390D02*
X122130952Y-122633390D01*
X122130952Y-122633390D02*
X122035714Y-122681009D01*
X122035714Y-122681009D02*
X121988095Y-122728628D01*
X121988095Y-122728628D02*
X121940476Y-122823866D01*
X121940476Y-122823866D02*
X121940476Y-123014342D01*
X121940476Y-123014342D02*
X121988095Y-123109580D01*
X121988095Y-123109580D02*
X122035714Y-123157200D01*
X122035714Y-123157200D02*
X122130952Y-123204819D01*
X122130952Y-123204819D02*
X122321428Y-123204819D01*
X122321428Y-123204819D02*
X122416666Y-123157200D01*
X122416666Y-123157200D02*
X122464285Y-123109580D01*
X122464285Y-123109580D02*
X122511904Y-123014342D01*
X122511904Y-123014342D02*
X122511904Y-122823866D01*
X122511904Y-122823866D02*
X122464285Y-122728628D01*
X122464285Y-122728628D02*
X122416666Y-122681009D01*
X122416666Y-122681009D02*
X122321428Y-122633390D01*
X123416666Y-122204819D02*
X122940476Y-122204819D01*
X122940476Y-122204819D02*
X122892857Y-122681009D01*
X122892857Y-122681009D02*
X122940476Y-122633390D01*
X122940476Y-122633390D02*
X123035714Y-122585771D01*
X123035714Y-122585771D02*
X123273809Y-122585771D01*
X123273809Y-122585771D02*
X123369047Y-122633390D01*
X123369047Y-122633390D02*
X123416666Y-122681009D01*
X123416666Y-122681009D02*
X123464285Y-122776247D01*
X123464285Y-122776247D02*
X123464285Y-123014342D01*
X123464285Y-123014342D02*
X123416666Y-123109580D01*
X123416666Y-123109580D02*
X123369047Y-123157200D01*
X123369047Y-123157200D02*
X123273809Y-123204819D01*
X123273809Y-123204819D02*
X123035714Y-123204819D01*
X123035714Y-123204819D02*
X122940476Y-123157200D01*
X122940476Y-123157200D02*
X122892857Y-123109580D01*
X104916666Y-104324819D02*
X104916666Y-105039104D01*
X104916666Y-105039104D02*
X104869047Y-105181961D01*
X104869047Y-105181961D02*
X104773809Y-105277200D01*
X104773809Y-105277200D02*
X104630952Y-105324819D01*
X104630952Y-105324819D02*
X104535714Y-105324819D01*
X105297619Y-104324819D02*
X105964285Y-104324819D01*
X105964285Y-104324819D02*
X105535714Y-105324819D01*
X137083333Y-119109580D02*
X137035714Y-119157200D01*
X137035714Y-119157200D02*
X136892857Y-119204819D01*
X136892857Y-119204819D02*
X136797619Y-119204819D01*
X136797619Y-119204819D02*
X136654762Y-119157200D01*
X136654762Y-119157200D02*
X136559524Y-119061961D01*
X136559524Y-119061961D02*
X136511905Y-118966723D01*
X136511905Y-118966723D02*
X136464286Y-118776247D01*
X136464286Y-118776247D02*
X136464286Y-118633390D01*
X136464286Y-118633390D02*
X136511905Y-118442914D01*
X136511905Y-118442914D02*
X136559524Y-118347676D01*
X136559524Y-118347676D02*
X136654762Y-118252438D01*
X136654762Y-118252438D02*
X136797619Y-118204819D01*
X136797619Y-118204819D02*
X136892857Y-118204819D01*
X136892857Y-118204819D02*
X137035714Y-118252438D01*
X137035714Y-118252438D02*
X137083333Y-118300057D01*
X137464286Y-118300057D02*
X137511905Y-118252438D01*
X137511905Y-118252438D02*
X137607143Y-118204819D01*
X137607143Y-118204819D02*
X137845238Y-118204819D01*
X137845238Y-118204819D02*
X137940476Y-118252438D01*
X137940476Y-118252438D02*
X137988095Y-118300057D01*
X137988095Y-118300057D02*
X138035714Y-118395295D01*
X138035714Y-118395295D02*
X138035714Y-118490533D01*
X138035714Y-118490533D02*
X137988095Y-118633390D01*
X137988095Y-118633390D02*
X137416667Y-119204819D01*
X137416667Y-119204819D02*
X138035714Y-119204819D01*
X108583333Y-160994819D02*
X108250000Y-160518628D01*
X108011905Y-160994819D02*
X108011905Y-159994819D01*
X108011905Y-159994819D02*
X108392857Y-159994819D01*
X108392857Y-159994819D02*
X108488095Y-160042438D01*
X108488095Y-160042438D02*
X108535714Y-160090057D01*
X108535714Y-160090057D02*
X108583333Y-160185295D01*
X108583333Y-160185295D02*
X108583333Y-160328152D01*
X108583333Y-160328152D02*
X108535714Y-160423390D01*
X108535714Y-160423390D02*
X108488095Y-160471009D01*
X108488095Y-160471009D02*
X108392857Y-160518628D01*
X108392857Y-160518628D02*
X108011905Y-160518628D01*
X108916667Y-159994819D02*
X109535714Y-159994819D01*
X109535714Y-159994819D02*
X109202381Y-160375771D01*
X109202381Y-160375771D02*
X109345238Y-160375771D01*
X109345238Y-160375771D02*
X109440476Y-160423390D01*
X109440476Y-160423390D02*
X109488095Y-160471009D01*
X109488095Y-160471009D02*
X109535714Y-160566247D01*
X109535714Y-160566247D02*
X109535714Y-160804342D01*
X109535714Y-160804342D02*
X109488095Y-160899580D01*
X109488095Y-160899580D02*
X109440476Y-160947200D01*
X109440476Y-160947200D02*
X109345238Y-160994819D01*
X109345238Y-160994819D02*
X109059524Y-160994819D01*
X109059524Y-160994819D02*
X108964286Y-160947200D01*
X108964286Y-160947200D02*
X108916667Y-160899580D01*
X148666666Y-80954819D02*
X148666666Y-81669104D01*
X148666666Y-81669104D02*
X148619047Y-81811961D01*
X148619047Y-81811961D02*
X148523809Y-81907200D01*
X148523809Y-81907200D02*
X148380952Y-81954819D01*
X148380952Y-81954819D02*
X148285714Y-81954819D01*
X149095238Y-81050057D02*
X149142857Y-81002438D01*
X149142857Y-81002438D02*
X149238095Y-80954819D01*
X149238095Y-80954819D02*
X149476190Y-80954819D01*
X149476190Y-80954819D02*
X149571428Y-81002438D01*
X149571428Y-81002438D02*
X149619047Y-81050057D01*
X149619047Y-81050057D02*
X149666666Y-81145295D01*
X149666666Y-81145295D02*
X149666666Y-81240533D01*
X149666666Y-81240533D02*
X149619047Y-81383390D01*
X149619047Y-81383390D02*
X149047619Y-81954819D01*
X149047619Y-81954819D02*
X149666666Y-81954819D01*
X138238095Y-139204819D02*
X138238095Y-140014342D01*
X138238095Y-140014342D02*
X138285714Y-140109580D01*
X138285714Y-140109580D02*
X138333333Y-140157200D01*
X138333333Y-140157200D02*
X138428571Y-140204819D01*
X138428571Y-140204819D02*
X138619047Y-140204819D01*
X138619047Y-140204819D02*
X138714285Y-140157200D01*
X138714285Y-140157200D02*
X138761904Y-140109580D01*
X138761904Y-140109580D02*
X138809523Y-140014342D01*
X138809523Y-140014342D02*
X138809523Y-139204819D01*
X139809523Y-140204819D02*
X139238095Y-140204819D01*
X139523809Y-140204819D02*
X139523809Y-139204819D01*
X139523809Y-139204819D02*
X139428571Y-139347676D01*
X139428571Y-139347676D02*
X139333333Y-139442914D01*
X139333333Y-139442914D02*
X139238095Y-139490533D01*
X131318033Y-152020000D02*
X130618033Y-152020000D01*
X130618033Y-152020000D02*
X130618033Y-151853333D01*
X130618033Y-151853333D02*
X130651366Y-151753333D01*
X130651366Y-151753333D02*
X130718033Y-151686667D01*
X130718033Y-151686667D02*
X130784700Y-151653333D01*
X130784700Y-151653333D02*
X130918033Y-151620000D01*
X130918033Y-151620000D02*
X131018033Y-151620000D01*
X131018033Y-151620000D02*
X131151366Y-151653333D01*
X131151366Y-151653333D02*
X131218033Y-151686667D01*
X131218033Y-151686667D02*
X131284700Y-151753333D01*
X131284700Y-151753333D02*
X131318033Y-151853333D01*
X131318033Y-151853333D02*
X131318033Y-152020000D01*
X130618033Y-151420000D02*
X131318033Y-151186667D01*
X131318033Y-151186667D02*
X130618033Y-150953333D01*
X131318033Y-150386667D02*
X131318033Y-150720000D01*
X131318033Y-150720000D02*
X130618033Y-150720000D01*
X130618033Y-149853333D02*
X130618033Y-149986666D01*
X130618033Y-149986666D02*
X130651366Y-150053333D01*
X130651366Y-150053333D02*
X130684700Y-150086666D01*
X130684700Y-150086666D02*
X130784700Y-150153333D01*
X130784700Y-150153333D02*
X130918033Y-150186666D01*
X130918033Y-150186666D02*
X131184700Y-150186666D01*
X131184700Y-150186666D02*
X131251366Y-150153333D01*
X131251366Y-150153333D02*
X131284700Y-150120000D01*
X131284700Y-150120000D02*
X131318033Y-150053333D01*
X131318033Y-150053333D02*
X131318033Y-149920000D01*
X131318033Y-149920000D02*
X131284700Y-149853333D01*
X131284700Y-149853333D02*
X131251366Y-149820000D01*
X131251366Y-149820000D02*
X131184700Y-149786666D01*
X131184700Y-149786666D02*
X131018033Y-149786666D01*
X131018033Y-149786666D02*
X130951366Y-149820000D01*
X130951366Y-149820000D02*
X130918033Y-149853333D01*
X130918033Y-149853333D02*
X130884700Y-149920000D01*
X130884700Y-149920000D02*
X130884700Y-150053333D01*
X130884700Y-150053333D02*
X130918033Y-150120000D01*
X130918033Y-150120000D02*
X130951366Y-150153333D01*
X130951366Y-150153333D02*
X131018033Y-150186666D01*
X131118033Y-149519999D02*
X131118033Y-149186666D01*
X131318033Y-149586666D02*
X130618033Y-149353333D01*
X130618033Y-149353333D02*
X131318033Y-149119999D01*
X132842033Y-153703333D02*
X132142033Y-153703333D01*
X132142033Y-153703333D02*
X132642033Y-153470000D01*
X132642033Y-153470000D02*
X132142033Y-153236666D01*
X132142033Y-153236666D02*
X132842033Y-153236666D01*
X132842033Y-152903333D02*
X132142033Y-152903333D01*
X132842033Y-152570000D02*
X132142033Y-152570000D01*
X132142033Y-152570000D02*
X132642033Y-152336667D01*
X132642033Y-152336667D02*
X132142033Y-152103333D01*
X132142033Y-152103333D02*
X132842033Y-152103333D01*
X132142033Y-151836667D02*
X132842033Y-151370000D01*
X132142033Y-151370000D02*
X132842033Y-151836667D01*
X132842033Y-150703333D02*
X132508700Y-150936666D01*
X132842033Y-151103333D02*
X132142033Y-151103333D01*
X132142033Y-151103333D02*
X132142033Y-150836666D01*
X132142033Y-150836666D02*
X132175366Y-150770000D01*
X132175366Y-150770000D02*
X132208700Y-150736666D01*
X132208700Y-150736666D02*
X132275366Y-150703333D01*
X132275366Y-150703333D02*
X132375366Y-150703333D01*
X132375366Y-150703333D02*
X132442033Y-150736666D01*
X132442033Y-150736666D02*
X132475366Y-150770000D01*
X132475366Y-150770000D02*
X132508700Y-150836666D01*
X132508700Y-150836666D02*
X132508700Y-151103333D01*
X132142033Y-150503333D02*
X132142033Y-150103333D01*
X132842033Y-150303333D02*
X132142033Y-150303333D01*
X132842033Y-149503333D02*
X132842033Y-149903333D01*
X132842033Y-149703333D02*
X132142033Y-149703333D01*
X132142033Y-149703333D02*
X132242033Y-149770000D01*
X132242033Y-149770000D02*
X132308700Y-149836667D01*
X132308700Y-149836667D02*
X132342033Y-149903333D01*
X132142033Y-149070000D02*
X132142033Y-149003333D01*
X132142033Y-149003333D02*
X132175366Y-148936666D01*
X132175366Y-148936666D02*
X132208700Y-148903333D01*
X132208700Y-148903333D02*
X132275366Y-148870000D01*
X132275366Y-148870000D02*
X132408700Y-148836666D01*
X132408700Y-148836666D02*
X132575366Y-148836666D01*
X132575366Y-148836666D02*
X132708700Y-148870000D01*
X132708700Y-148870000D02*
X132775366Y-148903333D01*
X132775366Y-148903333D02*
X132808700Y-148936666D01*
X132808700Y-148936666D02*
X132842033Y-149003333D01*
X132842033Y-149003333D02*
X132842033Y-149070000D01*
X132842033Y-149070000D02*
X132808700Y-149136666D01*
X132808700Y-149136666D02*
X132775366Y-149170000D01*
X132775366Y-149170000D02*
X132708700Y-149203333D01*
X132708700Y-149203333D02*
X132575366Y-149236666D01*
X132575366Y-149236666D02*
X132408700Y-149236666D01*
X132408700Y-149236666D02*
X132275366Y-149203333D01*
X132275366Y-149203333D02*
X132208700Y-149170000D01*
X132208700Y-149170000D02*
X132175366Y-149136666D01*
X132175366Y-149136666D02*
X132142033Y-149070000D01*
X132142033Y-148236666D02*
X132142033Y-148369999D01*
X132142033Y-148369999D02*
X132175366Y-148436666D01*
X132175366Y-148436666D02*
X132208700Y-148469999D01*
X132208700Y-148469999D02*
X132308700Y-148536666D01*
X132308700Y-148536666D02*
X132442033Y-148569999D01*
X132442033Y-148569999D02*
X132708700Y-148569999D01*
X132708700Y-148569999D02*
X132775366Y-148536666D01*
X132775366Y-148536666D02*
X132808700Y-148503333D01*
X132808700Y-148503333D02*
X132842033Y-148436666D01*
X132842033Y-148436666D02*
X132842033Y-148303333D01*
X132842033Y-148303333D02*
X132808700Y-148236666D01*
X132808700Y-148236666D02*
X132775366Y-148203333D01*
X132775366Y-148203333D02*
X132708700Y-148169999D01*
X132708700Y-148169999D02*
X132542033Y-148169999D01*
X132542033Y-148169999D02*
X132475366Y-148203333D01*
X132475366Y-148203333D02*
X132442033Y-148236666D01*
X132442033Y-148236666D02*
X132408700Y-148303333D01*
X132408700Y-148303333D02*
X132408700Y-148436666D01*
X132408700Y-148436666D02*
X132442033Y-148503333D01*
X132442033Y-148503333D02*
X132475366Y-148536666D01*
X132475366Y-148536666D02*
X132542033Y-148569999D01*
X132208700Y-147903332D02*
X132175366Y-147869999D01*
X132175366Y-147869999D02*
X132142033Y-147803332D01*
X132142033Y-147803332D02*
X132142033Y-147636666D01*
X132142033Y-147636666D02*
X132175366Y-147569999D01*
X132175366Y-147569999D02*
X132208700Y-147536666D01*
X132208700Y-147536666D02*
X132275366Y-147503332D01*
X132275366Y-147503332D02*
X132342033Y-147503332D01*
X132342033Y-147503332D02*
X132442033Y-147536666D01*
X132442033Y-147536666D02*
X132842033Y-147936666D01*
X132842033Y-147936666D02*
X132842033Y-147503332D01*
X102586666Y-135784819D02*
X102586666Y-136499104D01*
X102586666Y-136499104D02*
X102539047Y-136641961D01*
X102539047Y-136641961D02*
X102443809Y-136737200D01*
X102443809Y-136737200D02*
X102300952Y-136784819D01*
X102300952Y-136784819D02*
X102205714Y-136784819D01*
X103491428Y-136118152D02*
X103491428Y-136784819D01*
X103253333Y-135737200D02*
X103015238Y-136451485D01*
X103015238Y-136451485D02*
X103634285Y-136451485D01*
X102101009Y-150448095D02*
X102101009Y-150114762D01*
X102624819Y-149971905D02*
X102624819Y-150448095D01*
X102624819Y-150448095D02*
X101624819Y-150448095D01*
X101624819Y-150448095D02*
X101624819Y-149971905D01*
X102624819Y-149638571D02*
X101958152Y-149114762D01*
X101958152Y-149638571D02*
X102624819Y-149114762D01*
X101958152Y-148876666D02*
X101958152Y-148495714D01*
X101624819Y-148733809D02*
X102481961Y-148733809D01*
X102481961Y-148733809D02*
X102577200Y-148686190D01*
X102577200Y-148686190D02*
X102624819Y-148590952D01*
X102624819Y-148590952D02*
X102624819Y-148495714D01*
X102101009Y-148162380D02*
X102101009Y-147829047D01*
X102624819Y-147686190D02*
X102624819Y-148162380D01*
X102624819Y-148162380D02*
X101624819Y-148162380D01*
X101624819Y-148162380D02*
X101624819Y-147686190D01*
X101958152Y-147257618D02*
X102624819Y-147257618D01*
X102053390Y-147257618D02*
X102005771Y-147209999D01*
X102005771Y-147209999D02*
X101958152Y-147114761D01*
X101958152Y-147114761D02*
X101958152Y-146971904D01*
X101958152Y-146971904D02*
X102005771Y-146876666D01*
X102005771Y-146876666D02*
X102101009Y-146829047D01*
X102101009Y-146829047D02*
X102624819Y-146829047D01*
X102577200Y-145924285D02*
X102624819Y-146019523D01*
X102624819Y-146019523D02*
X102624819Y-146209999D01*
X102624819Y-146209999D02*
X102577200Y-146305237D01*
X102577200Y-146305237D02*
X102529580Y-146352856D01*
X102529580Y-146352856D02*
X102434342Y-146400475D01*
X102434342Y-146400475D02*
X102148628Y-146400475D01*
X102148628Y-146400475D02*
X102053390Y-146352856D01*
X102053390Y-146352856D02*
X102005771Y-146305237D01*
X102005771Y-146305237D02*
X101958152Y-146209999D01*
X101958152Y-146209999D02*
X101958152Y-146019523D01*
X101958152Y-146019523D02*
X102005771Y-145924285D01*
X143754819Y-112583333D02*
X144469104Y-112583333D01*
X144469104Y-112583333D02*
X144611961Y-112630952D01*
X144611961Y-112630952D02*
X144707200Y-112726190D01*
X144707200Y-112726190D02*
X144754819Y-112869047D01*
X144754819Y-112869047D02*
X144754819Y-112964285D01*
X144754819Y-111583333D02*
X144754819Y-112154761D01*
X144754819Y-111869047D02*
X143754819Y-111869047D01*
X143754819Y-111869047D02*
X143897676Y-111964285D01*
X143897676Y-111964285D02*
X143992914Y-112059523D01*
X143992914Y-112059523D02*
X144040533Y-112154761D01*
X136430682Y-110609580D02*
X136383063Y-110657200D01*
X136383063Y-110657200D02*
X136240206Y-110704819D01*
X136240206Y-110704819D02*
X136144968Y-110704819D01*
X136144968Y-110704819D02*
X136002111Y-110657200D01*
X136002111Y-110657200D02*
X135906873Y-110561961D01*
X135906873Y-110561961D02*
X135859254Y-110466723D01*
X135859254Y-110466723D02*
X135811635Y-110276247D01*
X135811635Y-110276247D02*
X135811635Y-110133390D01*
X135811635Y-110133390D02*
X135859254Y-109942914D01*
X135859254Y-109942914D02*
X135906873Y-109847676D01*
X135906873Y-109847676D02*
X136002111Y-109752438D01*
X136002111Y-109752438D02*
X136144968Y-109704819D01*
X136144968Y-109704819D02*
X136240206Y-109704819D01*
X136240206Y-109704819D02*
X136383063Y-109752438D01*
X136383063Y-109752438D02*
X136430682Y-109800057D01*
X137383063Y-110704819D02*
X136811635Y-110704819D01*
X137097349Y-110704819D02*
X137097349Y-109704819D01*
X137097349Y-109704819D02*
X137002111Y-109847676D01*
X137002111Y-109847676D02*
X136906873Y-109942914D01*
X136906873Y-109942914D02*
X136811635Y-109990533D01*
D12*
X106620000Y-137330000D02*
X108000000Y-137330000D01*
X106620000Y-138710000D02*
X106620000Y-137330000D01*
X106620000Y-139980000D02*
X106620000Y-145170000D01*
X106620000Y-139980000D02*
X109380000Y-139980000D01*
X106620000Y-145170000D02*
X109380000Y-145170000D01*
X109380000Y-139980000D02*
X109380000Y-145170000D01*
D11*
X118601731Y-74900680D02*
X136781225Y-74900680D01*
X136781225Y-91836314D01*
X118601731Y-91836314D01*
X118601731Y-74900680D01*
X99289504Y-84564450D02*
X117787936Y-84564450D01*
X117787936Y-101563871D01*
X99289504Y-101563871D01*
X99289504Y-84564450D01*
D12*
X102600000Y-157370000D02*
X102600000Y-156750000D01*
X103520000Y-158290000D02*
G75*
G02*
X101680000Y-158290000I-920000J0D01*
G01*
X101680000Y-158290000D02*
G75*
G02*
X103520000Y-158290000I920000J0D01*
G01*
X147870000Y-127330000D02*
X149250000Y-127330000D01*
X147870000Y-128710000D02*
X147870000Y-127330000D01*
X147870000Y-129980000D02*
X147870000Y-140250000D01*
X147870000Y-129980000D02*
X150630000Y-129980000D01*
X147870000Y-140250000D02*
X150630000Y-140250000D01*
X150630000Y-129980000D02*
X150630000Y-140250000D01*
X105750000Y-157370000D02*
X105750000Y-156750000D01*
X106670000Y-158290000D02*
G75*
G02*
X104830000Y-158290000I-920000J0D01*
G01*
X104830000Y-158290000D02*
G75*
G02*
X106670000Y-158290000I920000J0D01*
G01*
X104080000Y-137330000D02*
X105460000Y-137330000D01*
X104080000Y-138710000D02*
X104080000Y-137330000D01*
X104080000Y-139980000D02*
X104080000Y-145170000D01*
X104080000Y-139980000D02*
X106840000Y-139980000D01*
X104080000Y-145170000D02*
X106840000Y-145170000D01*
X106840000Y-139980000D02*
X106840000Y-145170000D01*
D11*
X114720000Y-124420000D02*
X135040000Y-124420000D01*
X135040000Y-139660000D01*
X114720000Y-139660000D01*
X114720000Y-124420000D01*
D12*
X100620000Y-105870000D02*
X102000000Y-105870000D01*
X100620000Y-107250000D02*
X100620000Y-105870000D01*
X100620000Y-108520000D02*
X100620000Y-116250000D01*
X100620000Y-108520000D02*
X103380000Y-108520000D01*
X100620000Y-116250000D02*
X103380000Y-116250000D01*
X103380000Y-108520000D02*
X103380000Y-116250000D01*
X139380000Y-114380000D02*
X144620000Y-114380000D01*
X139380000Y-114717000D02*
X139380000Y-114380000D01*
X139380000Y-117120000D02*
X139380000Y-116783000D01*
X144620000Y-114380000D02*
X144620000Y-114717000D01*
X144620000Y-116783000D02*
X144620000Y-117120000D01*
X144620000Y-117120000D02*
X139380000Y-117120000D01*
X108900000Y-157370000D02*
X108900000Y-156750000D01*
X109820000Y-158290000D02*
G75*
G02*
X107980000Y-158290000I-920000J0D01*
G01*
X107980000Y-158290000D02*
G75*
G02*
X109820000Y-158290000I920000J0D01*
G01*
X145340000Y-84440000D02*
X151660000Y-84440000D01*
X145340000Y-95180000D02*
X145340000Y-84440000D01*
X145340000Y-95180000D02*
X151660000Y-95180000D01*
X145800000Y-95180000D02*
X145800000Y-84440000D01*
X151100000Y-95180000D02*
X151100000Y-84440000D01*
X151160000Y-95420000D02*
X151900000Y-95420000D01*
X151660000Y-95180000D02*
X151660000Y-84440000D01*
X151900000Y-95420000D02*
X151900000Y-94920000D01*
D10*
X115000000Y-141730000D02*
X150560000Y-141730000D01*
X115000000Y-159510000D02*
X115000000Y-141730000D01*
X118048000Y-149350000D02*
X122620000Y-149350000D01*
X118048000Y-151890000D02*
X118048000Y-149350000D01*
X122620000Y-151890000D02*
X118048000Y-151890000D01*
X125160000Y-152525000D02*
X127700000Y-152525000D01*
X125160000Y-155700000D02*
X125160000Y-152525000D01*
X127700000Y-152525000D02*
X127700000Y-155700000D01*
X127700000Y-155700000D02*
X125160000Y-155700000D01*
X128335000Y-145540000D02*
X128335000Y-155700000D01*
X128335000Y-145540000D02*
X138495000Y-145540000D01*
X128335000Y-155700000D02*
X138495000Y-155700000D01*
X138495000Y-155700000D02*
X138495000Y-145540000D01*
X145480000Y-146810000D02*
X145480000Y-154430000D01*
X145480000Y-146810000D02*
X150560000Y-146810000D01*
X145480000Y-154430000D02*
X150560000Y-154430000D01*
X150560000Y-141730000D02*
X150560000Y-159510000D01*
X150560000Y-146810000D02*
X151830000Y-146810000D01*
X150560000Y-159510000D02*
X115000000Y-159510000D01*
X151830000Y-146810000D02*
X151830000Y-154430000D01*
X151830000Y-154430000D02*
X150560000Y-154430000D01*
D11*
X134431000Y-150112000D02*
X134177000Y-150366000D01*
X133923000Y-149985000D01*
X134177000Y-149731000D01*
X134431000Y-150112000D01*
G36*
X134431000Y-150112000D02*
G01*
X134177000Y-150366000D01*
X133923000Y-149985000D01*
X134177000Y-149731000D01*
X134431000Y-150112000D01*
G37*
X134812000Y-150620000D02*
X134558000Y-150874000D01*
X134304000Y-150493000D01*
X134558000Y-150239000D01*
X134812000Y-150620000D01*
G36*
X134812000Y-150620000D02*
G01*
X134558000Y-150874000D01*
X134304000Y-150493000D01*
X134558000Y-150239000D01*
X134812000Y-150620000D01*
G37*
X135193000Y-150239000D02*
X134939000Y-150493000D01*
X134685000Y-150112000D01*
X134939000Y-149858000D01*
X135193000Y-150239000D01*
G36*
X135193000Y-150239000D02*
G01*
X134939000Y-150493000D01*
X134685000Y-150112000D01*
X134939000Y-149858000D01*
X135193000Y-150239000D01*
G37*
X135193000Y-151128000D02*
X134939000Y-151382000D01*
X134685000Y-151001000D01*
X134939000Y-150747000D01*
X135193000Y-151128000D01*
G36*
X135193000Y-151128000D02*
G01*
X134939000Y-151382000D01*
X134685000Y-151001000D01*
X134939000Y-150747000D01*
X135193000Y-151128000D01*
G37*
X135574000Y-150747000D02*
X135320000Y-151001000D01*
X135066000Y-150620000D01*
X135320000Y-150366000D01*
X135574000Y-150747000D01*
G36*
X135574000Y-150747000D02*
G01*
X135320000Y-151001000D01*
X135066000Y-150620000D01*
X135320000Y-150366000D01*
X135574000Y-150747000D01*
G37*
X135955000Y-151255000D02*
X135701000Y-151509000D01*
X135447000Y-151128000D01*
X135701000Y-150874000D01*
X135955000Y-151255000D01*
G36*
X135955000Y-151255000D02*
G01*
X135701000Y-151509000D01*
X135447000Y-151128000D01*
X135701000Y-150874000D01*
X135955000Y-151255000D01*
G37*
X136336000Y-150874000D02*
X136082000Y-151128000D01*
X135828000Y-150747000D01*
X136082000Y-150493000D01*
X136336000Y-150874000D01*
G36*
X136336000Y-150874000D02*
G01*
X136082000Y-151128000D01*
X135828000Y-150747000D01*
X136082000Y-150493000D01*
X136336000Y-150874000D01*
G37*
X136717000Y-150493000D02*
X136463000Y-150747000D01*
X136209000Y-150366000D01*
X136463000Y-150112000D01*
X136717000Y-150493000D01*
G36*
X136717000Y-150493000D02*
G01*
X136463000Y-150747000D01*
X136209000Y-150366000D01*
X136463000Y-150112000D01*
X136717000Y-150493000D01*
G37*
D12*
X101540000Y-137330000D02*
X102920000Y-137330000D01*
X101540000Y-138710000D02*
X101540000Y-137330000D01*
X101540000Y-139980000D02*
X101540000Y-145170000D01*
X101540000Y-139980000D02*
X104300000Y-139980000D01*
X101540000Y-145170000D02*
X104300000Y-145170000D01*
X104300000Y-139980000D02*
X104300000Y-145170000D01*
D13*
G36*
X139015457Y-96269568D02*
G01*
X139074717Y-96283952D01*
X139123253Y-96311918D01*
X139169511Y-96357176D01*
X139177277Y-96366230D01*
X139202636Y-96405131D01*
X139216520Y-96452600D01*
X139221286Y-96494489D01*
X139223403Y-96545104D01*
X139222219Y-96587638D01*
X139219520Y-96606338D01*
X139198858Y-96646542D01*
X139161944Y-96691787D01*
X139116844Y-96732900D01*
X139095221Y-96748100D01*
X139062059Y-96763722D01*
X139019143Y-96772617D01*
X138958369Y-96776197D01*
X138936944Y-96776447D01*
X138859905Y-96773131D01*
X138801814Y-96759786D01*
X138753833Y-96732439D01*
X138707008Y-96687392D01*
X138693152Y-96671350D01*
X138671160Y-96642292D01*
X138658750Y-96614393D01*
X138653407Y-96577977D01*
X138652394Y-96523284D01*
X138652420Y-96520179D01*
X138653974Y-96463957D01*
X138659737Y-96426491D01*
X138672358Y-96398025D01*
X138693703Y-96369691D01*
X138741541Y-96319340D01*
X138788352Y-96287703D01*
X138842927Y-96270937D01*
X138914163Y-96265316D01*
X138936944Y-96265212D01*
X139015457Y-96269568D01*
G37*
G36*
X139034541Y-96007956D02*
G01*
X139098420Y-96019655D01*
X139102579Y-96020880D01*
X139220508Y-96069427D01*
X139323855Y-96137728D01*
X139408528Y-96222376D01*
X139464893Y-96309140D01*
X139487279Y-96358189D01*
X139500702Y-96403052D01*
X139507663Y-96455312D01*
X139510362Y-96513757D01*
X139509243Y-96594456D01*
X139501636Y-96658216D01*
X139493951Y-96686326D01*
X139439480Y-96791754D01*
X139362598Y-96885665D01*
X139343910Y-96903351D01*
X139237471Y-96986524D01*
X139129872Y-97043270D01*
X139016432Y-97075408D01*
X138969700Y-97079106D01*
X138896425Y-97084897D01*
X138764742Y-97071342D01*
X138646023Y-97032492D01*
X138541269Y-96969047D01*
X138451582Y-96881689D01*
X138378120Y-96771130D01*
X138371148Y-96757786D01*
X138348736Y-96711265D01*
X138334811Y-96673061D01*
X138327377Y-96633370D01*
X138326054Y-96610365D01*
X138446279Y-96610365D01*
X138453951Y-96684760D01*
X138464084Y-96723740D01*
X138493062Y-96775209D01*
X138541215Y-96830918D01*
X138601265Y-96883875D01*
X138666094Y-96927198D01*
X138684268Y-96936764D01*
X138767953Y-96965824D01*
X138866629Y-96981405D01*
X138969700Y-96982839D01*
X139066704Y-96969403D01*
X139088932Y-96963585D01*
X139157325Y-96936831D01*
X139225535Y-96898694D01*
X139283387Y-96855461D01*
X139314671Y-96822666D01*
X139353268Y-96751167D01*
X139377430Y-96662795D01*
X139386365Y-96565489D01*
X139379325Y-96467432D01*
X139356702Y-96379521D01*
X139320210Y-96307904D01*
X139267214Y-96236167D01*
X139205478Y-96173223D01*
X139142757Y-96128082D01*
X139138111Y-96125583D01*
X139075825Y-96103829D01*
X138995691Y-96090852D01*
X138907269Y-96087101D01*
X138819937Y-96093050D01*
X138750253Y-96107027D01*
X138671397Y-96142770D01*
X138596318Y-96200609D01*
X138531504Y-96274159D01*
X138483496Y-96357071D01*
X138475626Y-96376310D01*
X138457517Y-96445376D01*
X138447607Y-96526996D01*
X138446279Y-96610365D01*
X138326054Y-96610365D01*
X138324455Y-96582557D01*
X138324007Y-96528719D01*
X138324901Y-96461562D01*
X138328797Y-96413488D01*
X138337522Y-96374915D01*
X138352880Y-96336579D01*
X138366263Y-96309140D01*
X138430658Y-96212650D01*
X138517489Y-96129544D01*
X138622639Y-96063216D01*
X138728565Y-96020880D01*
X138790669Y-96008693D01*
X138869748Y-96002456D01*
X138954657Y-96002206D01*
X139034541Y-96007956D01*
G37*
G36*
X140421273Y-95262008D02*
G01*
X140488995Y-95263495D01*
X140543807Y-95266034D01*
X140589553Y-95269878D01*
X140630112Y-95275207D01*
X140669422Y-95282117D01*
X140696650Y-95287644D01*
X140846691Y-95330099D01*
X140974977Y-95390161D01*
X141082981Y-95468901D01*
X141172131Y-95567379D01*
X141242051Y-95682806D01*
X141271212Y-95744067D01*
X141289545Y-95791785D01*
X141299915Y-95837478D01*
X141305403Y-95892515D01*
X141307615Y-95934825D01*
X141302299Y-96079351D01*
X141272528Y-96209794D01*
X141217651Y-96327777D01*
X141137056Y-96434966D01*
X141086548Y-96485224D01*
X141004745Y-96559989D01*
X141092642Y-96640174D01*
X141186422Y-96742691D01*
X141254066Y-96854922D01*
X141289492Y-96953123D01*
X141302574Y-97028241D01*
X141308193Y-97116430D01*
X141306442Y-97206524D01*
X141297282Y-97287419D01*
X141287466Y-97329704D01*
X141251341Y-97417680D01*
X141198924Y-97508550D01*
X141137702Y-97589841D01*
X141108197Y-97621083D01*
X141005415Y-97703427D01*
X140884078Y-97768308D01*
X140743922Y-97816644D01*
X140604634Y-97854521D01*
X140127128Y-97850480D01*
X139649622Y-97846492D01*
X139714187Y-97775215D01*
X139758642Y-97725169D01*
X139809019Y-97667039D01*
X139847159Y-97621980D01*
X139915552Y-97540003D01*
X140248453Y-97540003D01*
X140376015Y-97539294D01*
X140478837Y-97537135D01*
X140560707Y-97533358D01*
X140625376Y-97527633D01*
X140676620Y-97519868D01*
X140685082Y-97518170D01*
X140796563Y-97482770D01*
X140890816Y-97428313D01*
X140965725Y-97357392D01*
X141018945Y-97272324D01*
X141048369Y-97175690D01*
X141053662Y-97110494D01*
X141039908Y-97009739D01*
X140998810Y-96916709D01*
X140932864Y-96834116D01*
X140898133Y-96800715D01*
X140866022Y-96774644D01*
X140832425Y-96754930D01*
X140793087Y-96740625D01*
X140743922Y-96730636D01*
X140680727Y-96724056D01*
X140599304Y-96719859D01*
X140495615Y-96717016D01*
X140437145Y-96715870D01*
X140112889Y-96709909D01*
X140112889Y-96556447D01*
X140112889Y-96403026D01*
X140437145Y-96397077D01*
X140552967Y-96394590D01*
X140644536Y-96391141D01*
X140715852Y-96385839D01*
X140771137Y-96377574D01*
X140814685Y-96365440D01*
X140850454Y-96348425D01*
X140882735Y-96325485D01*
X140915717Y-96295745D01*
X140932864Y-96278833D01*
X140998744Y-96194962D01*
X141038921Y-96103591D01*
X141053977Y-96008561D01*
X141044226Y-95913820D01*
X141010234Y-95823200D01*
X140952487Y-95740553D01*
X140871353Y-95669830D01*
X140858970Y-95661605D01*
X140814607Y-95636220D01*
X140766507Y-95615952D01*
X140711233Y-95600357D01*
X140644997Y-95588815D01*
X140564048Y-95580853D01*
X140464741Y-95575878D01*
X140343483Y-95573472D01*
X140235912Y-95572972D01*
X139890377Y-95572972D01*
X139766381Y-95419694D01*
X139642437Y-95266508D01*
X140101494Y-95262706D01*
X140231410Y-95261810D01*
X140336719Y-95261495D01*
X140421273Y-95262008D01*
G37*
G36*
X138929944Y-94870122D02*
G01*
X138959527Y-94897010D01*
X139000008Y-94936568D01*
X139047347Y-94984602D01*
X139097275Y-95036863D01*
X139145836Y-95089162D01*
X139188910Y-95137236D01*
X139222430Y-95176809D01*
X139228298Y-95184218D01*
X139373639Y-95393623D01*
X139493872Y-95616610D01*
X139588862Y-95852585D01*
X139658413Y-96101170D01*
X139679628Y-96207058D01*
X139687788Y-96266252D01*
X139695092Y-96343831D01*
X139701211Y-96432202D01*
X139705738Y-96523981D01*
X139708345Y-96611655D01*
X139708751Y-96687879D01*
X139706515Y-96745179D01*
X139705514Y-96756023D01*
X139680010Y-96940279D01*
X139647754Y-97103847D01*
X139606761Y-97254176D01*
X139554685Y-97398742D01*
X139489674Y-97545031D01*
X139474646Y-97575616D01*
X139391169Y-97731261D01*
X139302285Y-97870352D01*
X139201846Y-98001704D01*
X139083443Y-98134121D01*
X139049464Y-98169299D01*
X138928680Y-98292533D01*
X138928140Y-98291966D01*
X138802092Y-98162128D01*
X138684321Y-98034933D01*
X138585527Y-97914136D01*
X138500052Y-97792035D01*
X138422353Y-97660644D01*
X138370699Y-97561337D01*
X138281841Y-97362566D01*
X138215947Y-97167491D01*
X138171400Y-96969192D01*
X138146674Y-96760826D01*
X138140218Y-96570767D01*
X138298146Y-96570767D01*
X138298844Y-96674456D01*
X138301464Y-96757154D01*
X138306596Y-96826391D01*
X138314755Y-96889507D01*
X138326521Y-96954111D01*
X138329784Y-96969864D01*
X138387899Y-97192770D01*
X138465283Y-97400164D01*
X138564364Y-97596580D01*
X138687428Y-97786745D01*
X138821634Y-97957512D01*
X138928140Y-98082784D01*
X139029302Y-97964644D01*
X139183777Y-97763845D01*
X139312037Y-97553033D01*
X139413699Y-97333046D01*
X139488450Y-97104690D01*
X139535906Y-96868739D01*
X139542512Y-96816849D01*
X139549658Y-96715147D01*
X139550685Y-96595640D01*
X139546157Y-96468379D01*
X139536498Y-96343239D01*
X139522167Y-96230166D01*
X139513376Y-96181276D01*
X139453221Y-95949735D01*
X139369100Y-95731065D01*
X139259791Y-95522856D01*
X139124161Y-95322796D01*
X139029776Y-95205917D01*
X138987717Y-95158082D01*
X138951552Y-95119668D01*
X138925838Y-95095045D01*
X138915545Y-95088318D01*
X138901544Y-95098677D01*
X138873803Y-95126812D01*
X138836308Y-95168360D01*
X138796274Y-95215304D01*
X138654316Y-95401730D01*
X138538281Y-95590658D01*
X138445449Y-95787167D01*
X138373240Y-95996652D01*
X138329784Y-96171629D01*
X138317098Y-96237603D01*
X138308135Y-96300389D01*
X138302372Y-96367573D01*
X138299265Y-96446521D01*
X138298174Y-96544774D01*
X138298146Y-96570767D01*
X138140218Y-96570767D01*
X138139974Y-96563594D01*
X138141884Y-96435071D01*
X138148462Y-96324314D01*
X138160899Y-96220823D01*
X138180402Y-96114172D01*
X138204801Y-96007732D01*
X138263338Y-95815475D01*
X138344392Y-95619781D01*
X138444212Y-95428195D01*
X138558996Y-95248321D01*
X138617177Y-95169965D01*
X138648722Y-95131828D01*
X138690281Y-95084845D01*
X138737632Y-95033401D01*
X138786602Y-94981776D01*
X138833031Y-94934318D01*
X138872815Y-94895377D01*
X138901700Y-94869255D01*
X138915321Y-94860226D01*
X138929944Y-94870122D01*
G37*
G36*
X139874466Y-94226904D02*
G01*
X139962218Y-94228048D01*
X140032204Y-94230431D01*
X140089926Y-94234431D01*
X140140803Y-94240341D01*
X140190166Y-94248617D01*
X140241176Y-94259067D01*
X140495786Y-94328186D01*
X140737078Y-94421228D01*
X140963830Y-94536918D01*
X141174629Y-94673812D01*
X141368335Y-94830670D01*
X141543537Y-95006041D01*
X141699026Y-95198655D01*
X141833470Y-95407113D01*
X141945621Y-95630061D01*
X142034164Y-95866220D01*
X142097740Y-96114159D01*
X142116718Y-96221520D01*
X142125641Y-96302192D01*
X142131457Y-96402881D01*
X142134274Y-96515401D01*
X142133997Y-96631684D01*
X142130720Y-96743639D01*
X142124444Y-96843170D01*
X142115493Y-96919947D01*
X142061537Y-97169635D01*
X141981667Y-97409441D01*
X141877399Y-97637718D01*
X141750048Y-97852678D01*
X141601140Y-98052700D01*
X141432043Y-98236128D01*
X141244117Y-98401247D01*
X141038869Y-98546354D01*
X140817698Y-98669809D01*
X140581986Y-98769853D01*
X140540517Y-98784513D01*
X140429893Y-98820730D01*
X140331744Y-98848814D01*
X140239570Y-98869634D01*
X140146816Y-98884255D01*
X140046785Y-98893612D01*
X139933069Y-98898758D01*
X139799044Y-98900533D01*
X139786226Y-98900586D01*
X139763656Y-98900626D01*
X139652873Y-98900310D01*
X139565174Y-98899153D01*
X139495135Y-98896783D01*
X139437401Y-98892783D01*
X139386591Y-98886873D01*
X139337186Y-98878597D01*
X139286151Y-98868147D01*
X139027329Y-98799319D01*
X138780521Y-98708527D01*
X138548166Y-98596969D01*
X138332731Y-98466048D01*
X138136802Y-98317010D01*
X138011004Y-98201148D01*
X137835657Y-98007362D01*
X137686526Y-97803130D01*
X137563279Y-97587275D01*
X137465434Y-97358958D01*
X137392420Y-97117219D01*
X137353756Y-96927066D01*
X137344096Y-96845262D01*
X137337807Y-96743546D01*
X137334818Y-96630225D01*
X137335197Y-96518020D01*
X137588324Y-96518020D01*
X137596997Y-96756062D01*
X137633187Y-96995882D01*
X137653573Y-97084094D01*
X137723848Y-97305107D01*
X137819259Y-97515130D01*
X137937872Y-97712574D01*
X138077963Y-97895803D01*
X138237598Y-98063176D01*
X138414918Y-98213098D01*
X138608110Y-98343856D01*
X138815410Y-98453981D01*
X139034870Y-98541615D01*
X139264687Y-98605376D01*
X139403316Y-98630933D01*
X139517231Y-98643292D01*
X139648372Y-98649858D01*
X139786226Y-98650609D01*
X139920158Y-98645567D01*
X140039613Y-98634709D01*
X140067012Y-98630933D01*
X140302449Y-98581899D01*
X140528516Y-98507912D01*
X140743370Y-98410619D01*
X140945181Y-98291505D01*
X141132122Y-98152284D01*
X141302402Y-97994599D01*
X141454154Y-97820039D01*
X141585558Y-97630137D01*
X141694761Y-97426550D01*
X141779933Y-97210999D01*
X141817006Y-97083844D01*
X141848289Y-96932698D01*
X141869462Y-96770197D01*
X141880111Y-96604786D01*
X141879676Y-96445059D01*
X141867791Y-96299402D01*
X141860239Y-96249762D01*
X141803477Y-96002297D01*
X141722977Y-95770493D01*
X141618907Y-95554468D01*
X141491332Y-95354526D01*
X141340423Y-95170834D01*
X141241536Y-95071185D01*
X141048041Y-94907510D01*
X140842729Y-94769829D01*
X140626137Y-94658204D01*
X140398690Y-94572900D01*
X140160912Y-94514073D01*
X139913235Y-94481911D01*
X139735138Y-94475369D01*
X139481672Y-94488832D01*
X139237195Y-94529064D01*
X139002416Y-94595785D01*
X138778219Y-94688722D01*
X138565273Y-94807640D01*
X138434040Y-94898233D01*
X138245520Y-95055839D01*
X138079437Y-95229988D01*
X137936227Y-95418759D01*
X137816773Y-95620348D01*
X137721559Y-95832925D01*
X137651269Y-96054648D01*
X137606669Y-96283611D01*
X137588324Y-96518020D01*
X137335197Y-96518020D01*
X137335212Y-96513663D01*
X137338925Y-96402184D01*
X137345990Y-96304180D01*
X137353756Y-96242892D01*
X137407778Y-95992493D01*
X137485700Y-95756701D01*
X137588166Y-95533963D01*
X137715899Y-95323045D01*
X137869769Y-95122364D01*
X138026690Y-94953782D01*
X138229147Y-94770554D01*
X138439277Y-94614276D01*
X138658908Y-94483831D01*
X138889948Y-94378339D01*
X139134123Y-94296705D01*
X139286151Y-94259067D01*
X139339200Y-94248237D01*
X139388511Y-94240024D01*
X139439534Y-94234247D01*
X139497649Y-94230286D01*
X139568279Y-94227982D01*
X139656769Y-94226877D01*
X139763656Y-94226588D01*
X139874466Y-94226904D01*
G37*
D12*
X148120000Y-98620000D02*
X149500000Y-98620000D01*
X148120000Y-100000000D02*
X148120000Y-98620000D01*
X148120000Y-101270000D02*
X148120000Y-119160000D01*
X148120000Y-101270000D02*
X150880000Y-101270000D01*
X148120000Y-119160000D02*
X150880000Y-119160000D01*
X150880000Y-101270000D02*
X150880000Y-119160000D01*
X137437651Y-104435000D02*
X138237651Y-104435000D01*
X137837651Y-104035000D02*
X137837651Y-104835000D01*
X141847349Y-102670000D02*
X141847349Y-110830000D01*
X141887349Y-102670000D02*
X141887349Y-110830000D01*
X141927349Y-102671000D02*
X141927349Y-110829000D01*
X141967349Y-102672000D02*
X141967349Y-110828000D01*
X142007349Y-102673000D02*
X142007349Y-110827000D01*
X142047349Y-102675000D02*
X142047349Y-110825000D01*
X142087349Y-102677000D02*
X142087349Y-105710000D01*
X142087349Y-107790000D02*
X142087349Y-110823000D01*
X142127349Y-102680000D02*
X142127349Y-105710000D01*
X142127349Y-107790000D02*
X142127349Y-110820000D01*
X142167349Y-102682000D02*
X142167349Y-105710000D01*
X142167349Y-107790000D02*
X142167349Y-110818000D01*
X142207349Y-102686000D02*
X142207349Y-105710000D01*
X142207349Y-107790000D02*
X142207349Y-110814000D01*
X142247349Y-102689000D02*
X142247349Y-105710000D01*
X142247349Y-107790000D02*
X142247349Y-110811000D01*
X142287349Y-102694000D02*
X142287349Y-105710000D01*
X142287349Y-107790000D02*
X142287349Y-110806000D01*
X142327349Y-102698000D02*
X142327349Y-105710000D01*
X142327349Y-107790000D02*
X142327349Y-110802000D01*
X142367349Y-102703000D02*
X142367349Y-105710000D01*
X142367349Y-107790000D02*
X142367349Y-110797000D01*
X142407349Y-102708000D02*
X142407349Y-105710000D01*
X142407349Y-107790000D02*
X142407349Y-110792000D01*
X142447349Y-102714000D02*
X142447349Y-105710000D01*
X142447349Y-107790000D02*
X142447349Y-110786000D01*
X142487349Y-102720000D02*
X142487349Y-105710000D01*
X142487349Y-107790000D02*
X142487349Y-110780000D01*
X142527349Y-102727000D02*
X142527349Y-105710000D01*
X142527349Y-107790000D02*
X142527349Y-110773000D01*
X142567349Y-102733000D02*
X142567349Y-105710000D01*
X142567349Y-107790000D02*
X142567349Y-110767000D01*
X142607349Y-102741000D02*
X142607349Y-105710000D01*
X142607349Y-107790000D02*
X142607349Y-110759000D01*
X142647349Y-102748000D02*
X142647349Y-105710000D01*
X142647349Y-107790000D02*
X142647349Y-110752000D01*
X142687349Y-102757000D02*
X142687349Y-105710000D01*
X142687349Y-107790000D02*
X142687349Y-110743000D01*
X142727349Y-102765000D02*
X142727349Y-105710000D01*
X142727349Y-107790000D02*
X142727349Y-110735000D01*
X142767349Y-102774000D02*
X142767349Y-105710000D01*
X142767349Y-107790000D02*
X142767349Y-110726000D01*
X142807349Y-102783000D02*
X142807349Y-105710000D01*
X142807349Y-107790000D02*
X142807349Y-110717000D01*
X142847349Y-102793000D02*
X142847349Y-105710000D01*
X142847349Y-107790000D02*
X142847349Y-110707000D01*
X142887349Y-102803000D02*
X142887349Y-105710000D01*
X142887349Y-107790000D02*
X142887349Y-110697000D01*
X142927349Y-102814000D02*
X142927349Y-105710000D01*
X142927349Y-107790000D02*
X142927349Y-110686000D01*
X142967349Y-102825000D02*
X142967349Y-105710000D01*
X142967349Y-107790000D02*
X142967349Y-110675000D01*
X143007349Y-102837000D02*
X143007349Y-105710000D01*
X143007349Y-107790000D02*
X143007349Y-110663000D01*
X143047349Y-102849000D02*
X143047349Y-105710000D01*
X143047349Y-107790000D02*
X143047349Y-110651000D01*
X143087349Y-102861000D02*
X143087349Y-105710000D01*
X143087349Y-107790000D02*
X143087349Y-110639000D01*
X143127349Y-102874000D02*
X143127349Y-105710000D01*
X143127349Y-107790000D02*
X143127349Y-110626000D01*
X143167349Y-102887000D02*
X143167349Y-105710000D01*
X143167349Y-107790000D02*
X143167349Y-110613000D01*
X143207349Y-102901000D02*
X143207349Y-105710000D01*
X143207349Y-107790000D02*
X143207349Y-110599000D01*
X143247349Y-102915000D02*
X143247349Y-105710000D01*
X143247349Y-107790000D02*
X143247349Y-110585000D01*
X143287349Y-102930000D02*
X143287349Y-105710000D01*
X143287349Y-107790000D02*
X143287349Y-110570000D01*
X143327349Y-102945000D02*
X143327349Y-105710000D01*
X143327349Y-107790000D02*
X143327349Y-110555000D01*
X143367349Y-102961000D02*
X143367349Y-105710000D01*
X143367349Y-107790000D02*
X143367349Y-110539000D01*
X143407349Y-102977000D02*
X143407349Y-105710000D01*
X143407349Y-107790000D02*
X143407349Y-110523000D01*
X143447349Y-102993000D02*
X143447349Y-105710000D01*
X143447349Y-107790000D02*
X143447349Y-110507000D01*
X143487349Y-103010000D02*
X143487349Y-105710000D01*
X143487349Y-107790000D02*
X143487349Y-110490000D01*
X143527349Y-103028000D02*
X143527349Y-105710000D01*
X143527349Y-107790000D02*
X143527349Y-110472000D01*
X143567349Y-103046000D02*
X143567349Y-105710000D01*
X143567349Y-107790000D02*
X143567349Y-110454000D01*
X143607349Y-103065000D02*
X143607349Y-105710000D01*
X143607349Y-107790000D02*
X143607349Y-110435000D01*
X143647349Y-103084000D02*
X143647349Y-105710000D01*
X143647349Y-107790000D02*
X143647349Y-110416000D01*
X143687349Y-103104000D02*
X143687349Y-105710000D01*
X143687349Y-107790000D02*
X143687349Y-110396000D01*
X143727349Y-103124000D02*
X143727349Y-105710000D01*
X143727349Y-107790000D02*
X143727349Y-110376000D01*
X143767349Y-103145000D02*
X143767349Y-105710000D01*
X143767349Y-107790000D02*
X143767349Y-110355000D01*
X143807349Y-103166000D02*
X143807349Y-105710000D01*
X143807349Y-107790000D02*
X143807349Y-110334000D01*
X143847349Y-103188000D02*
X143847349Y-105710000D01*
X143847349Y-107790000D02*
X143847349Y-110312000D01*
X143887349Y-103211000D02*
X143887349Y-105710000D01*
X143887349Y-107790000D02*
X143887349Y-110289000D01*
X143927349Y-103234000D02*
X143927349Y-105710000D01*
X143927349Y-107790000D02*
X143927349Y-110266000D01*
X143967349Y-103257000D02*
X143967349Y-105710000D01*
X143967349Y-107790000D02*
X143967349Y-110243000D01*
X144007349Y-103282000D02*
X144007349Y-105710000D01*
X144007349Y-107790000D02*
X144007349Y-110218000D01*
X144047349Y-103307000D02*
X144047349Y-105710000D01*
X144047349Y-107790000D02*
X144047349Y-110193000D01*
X144087349Y-103332000D02*
X144087349Y-105710000D01*
X144087349Y-107790000D02*
X144087349Y-110168000D01*
X144127349Y-103358000D02*
X144127349Y-105710000D01*
X144127349Y-107790000D02*
X144127349Y-110142000D01*
X144167349Y-103385000D02*
X144167349Y-110115000D01*
X144207349Y-103413000D02*
X144207349Y-110087000D01*
X144247349Y-103441000D02*
X144247349Y-110059000D01*
X144287349Y-103470000D02*
X144287349Y-110030000D01*
X144327349Y-103500000D02*
X144327349Y-110000000D01*
X144367349Y-103531000D02*
X144367349Y-109969000D01*
X144407349Y-103562000D02*
X144407349Y-109938000D01*
X144447349Y-103594000D02*
X144447349Y-109906000D01*
X144487349Y-103627000D02*
X144487349Y-109873000D01*
X144527349Y-103661000D02*
X144527349Y-109839000D01*
X144567349Y-103695000D02*
X144567349Y-109805000D01*
X144607349Y-103731000D02*
X144607349Y-109769000D01*
X144647349Y-103768000D02*
X144647349Y-109732000D01*
X144687349Y-103805000D02*
X144687349Y-109695000D01*
X144727349Y-103844000D02*
X144727349Y-109656000D01*
X144767349Y-103883000D02*
X144767349Y-109617000D01*
X144807349Y-103924000D02*
X144807349Y-109576000D01*
X144847349Y-103966000D02*
X144847349Y-109534000D01*
X144887349Y-104009000D02*
X144887349Y-109491000D01*
X144927349Y-104054000D02*
X144927349Y-109446000D01*
X144967349Y-104099000D02*
X144967349Y-109401000D01*
X145007349Y-104146000D02*
X145007349Y-109354000D01*
X145047349Y-104195000D02*
X145047349Y-109305000D01*
X145087349Y-104245000D02*
X145087349Y-109255000D01*
X145127349Y-104297000D02*
X145127349Y-109203000D01*
X145167349Y-104350000D02*
X145167349Y-109150000D01*
X145207349Y-104406000D02*
X145207349Y-109094000D01*
X145247349Y-104463000D02*
X145247349Y-109037000D01*
X145287349Y-104523000D02*
X145287349Y-108977000D01*
X145327349Y-104585000D02*
X145327349Y-108915000D01*
X145367349Y-104649000D02*
X145367349Y-108851000D01*
X145407349Y-104716000D02*
X145407349Y-108784000D01*
X145447349Y-104786000D02*
X145447349Y-108714000D01*
X145487349Y-104860000D02*
X145487349Y-108640000D01*
X145527349Y-104937000D02*
X145527349Y-108563000D01*
X145567349Y-105019000D02*
X145567349Y-108481000D01*
X145607349Y-105106000D02*
X145607349Y-108394000D01*
X145647349Y-105198000D02*
X145647349Y-108302000D01*
X145687349Y-105297000D02*
X145687349Y-108203000D01*
X145727349Y-105404000D02*
X145727349Y-108096000D01*
X145767349Y-105522000D02*
X145767349Y-107978000D01*
X145807349Y-105653000D02*
X145807349Y-107847000D01*
X145847349Y-105803000D02*
X145847349Y-107697000D01*
X145887349Y-105982000D02*
X145887349Y-107518000D01*
X145927349Y-106217000D02*
X145927349Y-107283000D01*
X145967349Y-106750000D02*
G75*
G02*
X137727349Y-106750000I-4120000J0D01*
G01*
X137727349Y-106750000D02*
G75*
G02*
X145967349Y-106750000I4120000J0D01*
G01*
%LPC*%
D14*
X108000000Y-138710000D03*
D15*
X108000000Y-141250000D03*
X108000000Y-143790000D03*
D16*
X101430000Y-123570000D03*
D17*
X119920000Y-89700000D03*
D18*
X122460000Y-89700000D03*
X125000000Y-89700000D03*
X127540000Y-89700000D03*
X130080000Y-89700000D03*
X132620000Y-89700000D03*
X135160000Y-89700000D03*
X135160000Y-77000000D03*
X132620000Y-77000000D03*
X130080000Y-77000000D03*
X127540000Y-77000000D03*
X125000000Y-77000000D03*
X122460000Y-77000000D03*
X119920000Y-77000000D03*
D17*
X100850000Y-99450000D03*
D18*
X103390000Y-99450000D03*
X105930000Y-99450000D03*
X108470000Y-99450000D03*
X111010000Y-99450000D03*
X113550000Y-99450000D03*
X116090000Y-99450000D03*
X116090000Y-86750000D03*
X113550000Y-86750000D03*
X111010000Y-86750000D03*
X108470000Y-86750000D03*
X105930000Y-86750000D03*
X103390000Y-86750000D03*
X100850000Y-86750000D03*
D19*
X109150000Y-74800000D03*
X140850000Y-74800000D03*
D20*
X102600000Y-158290000D03*
X102600000Y-155750000D03*
D14*
X149250000Y-128710000D03*
D15*
X149250000Y-131250000D03*
X149250000Y-133790000D03*
X149250000Y-136330000D03*
X149250000Y-138870000D03*
D20*
X105750000Y-158290000D03*
X105750000Y-155750000D03*
D14*
X105460000Y-138710000D03*
D15*
X105460000Y-141250000D03*
X105460000Y-143790000D03*
D21*
X117260000Y-126960000D03*
D22*
X117260000Y-129500000D03*
X117260000Y-132040000D03*
X117260000Y-134580000D03*
X117260000Y-137120000D03*
X132500000Y-134580000D03*
X132500000Y-132040000D03*
X132500000Y-129500000D03*
D14*
X102000000Y-107250000D03*
D15*
X102000000Y-109790000D03*
X102000000Y-112330000D03*
X102000000Y-114870000D03*
D19*
X109150000Y-125800000D03*
D22*
X139500000Y-115750000D03*
X144500000Y-115750000D03*
D20*
X108900000Y-158290000D03*
X108900000Y-155750000D03*
D23*
X148500000Y-86000000D03*
X148500000Y-88540000D03*
X148500000Y-91080000D03*
X148500000Y-93620000D03*
D16*
X101430000Y-76430000D03*
D22*
X149290000Y-143000000D03*
X146750000Y-143000000D03*
X144210000Y-143000000D03*
X141670000Y-143000000D03*
X139130000Y-143000000D03*
X136590000Y-143000000D03*
X134050000Y-143000000D03*
X131510000Y-143000000D03*
X128970000Y-143000000D03*
X126430000Y-143000000D03*
X123890000Y-143000000D03*
X121350000Y-143000000D03*
X118810000Y-143000000D03*
X116270000Y-143000000D03*
X116270000Y-158240000D03*
X118810000Y-158240000D03*
X121350000Y-158240000D03*
X123890000Y-158240000D03*
X126430000Y-158240000D03*
X128970000Y-158240000D03*
X131510000Y-158240000D03*
X134050000Y-158240000D03*
X136590000Y-158240000D03*
X139130000Y-158240000D03*
X141670000Y-158240000D03*
X144210000Y-158240000D03*
X146750000Y-158240000D03*
X149290000Y-158240000D03*
D19*
X140850000Y-125800000D03*
D14*
X102920000Y-138710000D03*
D15*
X102920000Y-141250000D03*
X102920000Y-143790000D03*
D14*
X149500000Y-100000000D03*
D15*
X149500000Y-102540000D03*
X149500000Y-105080000D03*
X149500000Y-107620000D03*
X149500000Y-110160000D03*
X149500000Y-112700000D03*
X149500000Y-115240000D03*
X149500000Y-117780000D03*
D24*
X140597349Y-106750000D03*
D22*
X143097349Y-106750000D03*
D16*
X148570000Y-76430000D03*
D25*
X134000000Y-105500000D03*
X134000000Y-94500000D03*
D26*
X125000000Y-100000000D03*
D25*
X116000000Y-105500000D03*
X116000000Y-94500000D03*
D22*
X133900000Y-117140000D03*
X131360000Y-117140000D03*
X128820000Y-117140000D03*
X126280000Y-117140000D03*
X123740000Y-117140000D03*
X121200000Y-117140000D03*
X118660000Y-117140000D03*
X116120000Y-117140000D03*
D27*
X116120000Y-114600000D03*
D22*
X118660000Y-114600000D03*
X121200000Y-114600000D03*
X123740000Y-114600000D03*
X126280000Y-114600000D03*
X128820000Y-114600000D03*
X131360000Y-114600000D03*
X133900000Y-114600000D03*
%LPD*%
M02*
